<?xml version="1.0" encoding="UTF-8"?>
<svg width="225px" height="180px" viewBox="0 0 225 180" version="1.1" xmlns="http://www.w3.org/2000/svg" xmlns:xlink="http://www.w3.org/1999/xlink">
    <title>img-finaliza</title>
    <g id="registro" stroke="none" stroke-width="1" fill="none" fill-rule="evenodd">
        <g id="web/finaliza" transform="translate(-397.000000, -273.000000)">
            <g id="body" transform="translate(285.000000, 130.000000)">
                <g id="img-finaliza" transform="translate(115.000000, 145.000000)">
                    <circle id="Oval" fill="#EEEEEE" fill-rule="nonzero" cx="110" cy="89" r="89"></circle>
                    <g id="Group" transform="translate(71.000000, 36.000000)">
                        <polygon id="Path" fill="#FFFFFF" fill-rule="nonzero" points="41.0614286 83.9479996 44.3565306 90.63864 51.7187755 91.6992541 46.3861224 96.9146043 47.6436735 104.259157 41.0614286 100.790231 34.4712245 104.259157 35.7287755 96.9146043 30.4040816 91.6992541 37.7742857 90.63864"></polygon>
                        <g transform="translate(3.979592, 62.201425)" id="Path" stroke="#CECECE" stroke-linecap="round" stroke-linejoin="round" stroke-width="3">
                            <path d="M34.105102,0.414676164 C31.9720408,0.311007123 34.3518367,10.6460131 32.2267347,10.7496821 C18.5528571,11.4594163 5.62714286,14.6093602 0.15122449,24.3701992 L0.15122449,43.2220156"></path>
                            <path d="M72.364898,43.2220156 L72.364898,24.3701992 C66.8730612,16.1245231 56.4146939,13.1819173 45.0091837,11.4035945 C43.8789796,11.2361291 43.5526531,2.75121686 42.4144898,0.406701622"></path>
                        </g>
                        <g id="Path" stroke="#CECECE" stroke-linecap="round" stroke-linejoin="round" stroke-width="3">
                            <path d="M22.6836735,70.5029224 C21.3306122,68.2541017 17.6136735,67.6161384 13.2838776,67.360953 C13.2838776,67.360953 14.4936735,65.5188339 15.2736735,58.4533901 C11.3577551,60.8058798 7.01204082,64.2189836 7.01204082,64.2189836 L0.748163265,62.6559735 C9.36,49.3225399 9.36,36.7706114 11.7079592,23.4212287 C14.0559184,10.0877951 18.7597959,3.81183089 27.3716327,6.16432067 C35.9834694,-5.60610276 67.3028571,2.24084619 68.0908163,21.8582186 C68.8787755,41.475591 70.4387755,58.7245245 77.4906122,62.6559735 C69.1891837,66.7788115 67.1197959,70.9335477 67.1197959,70.9335477 L60.8957143,68.8601669 L58.8263265,73.0069285"></path>
                            <path d="M64.174898,36.7546623 C57.1708163,35.1916522 50.9706122,31.3399486 45.3753061,25.7737185 L48.5112245,36.7546623 C39.477551,36.2522662 31.9242857,31.1964068 25.0157143,24.1947593 L17.1918367,33.6126929 C17.1918367,33.6126929 20.3277551,61.8505448 39.1114286,61.8505448 C57.895102,61.8505448 61.0310204,36.7466878 61.0310204,36.7466878"></path>
                        </g>
                    </g>
                    <polygon id="Path" stroke="#EEEEEE" stroke-width="2" points="11 21 14.3928305 27.9175501 22 29.0141343 16.5041075 34.4063604 17.793876 42 11 38.4134276 4.20612397 42 5.49589246 34.4063604 0 29.0141343 7.59895444 27.9175501"></polygon>
                    <polygon id="Path" stroke="#EEEEEE" stroke-width="2" points="11.1685728 125 14.3669816 129.677661 20 129.693653 16.5549478 134.17941 18.2894083 139.576712 12.9825957 137.681659 8.40775733 141 8.56688215 135.322839 4 131.98051 9.4181999 130.389305"></polygon>
                    <polygon id="Path" stroke="#EEEEEE" stroke-width="2" points="175.268142 1 175.331858 4.15512708 178 5.90622261 174.965487 6.94741455 174.113274 10 172.185841 7.46801052 169 7.60999124 170.823894 5.01489921 169.70885 2.04907975 172.759292 2.97195443"></polygon>
                    <polygon id="Path" stroke="#EEEEEE" stroke-width="2" points="210.632963 90 214.289181 94.3241107 220 93.8418972 216.926188 98.56917 219.150657 103.73913 213.609707 102.332016 209.265925 106 208.918099 100.403162 204 97.5098814 209.346815 95.4545455"></polygon>
                    <polygon id="Path" stroke="#EEEEEE" stroke-width="2" points="203.082474 134 204.002577 138.444793 208 140.165621 204.265464 142.45734 203.963918 147 200.724227 143.966123 196.541237 145.050816 198.273196 140.891468 196 137.017566 200.291237 137.466123"></polygon>
                </g>
            </g>
        </g>
    </g>
</svg>