<svg width="43" height="43" viewBox="0 0 43 43" fill="none" xmlns="http://www.w3.org/2000/svg">
<circle cx="21.5" cy="21.5" r="21.5" transform="rotate(-90 21.5 21.5)" fill="#1BEAE4"/>
<path d="M16.0025 14.2119C18.213 14.2119 20.005 12.4211 20.005 10.2119C20.005 8.00278 18.213 6.21191 16.0025 6.21191C13.792 6.21191 12 8.00278 12 10.2119C12 12.4211 13.792 14.2119 16.0025 14.2119Z" fill="white" stroke="#424C5A" stroke-linecap="round" stroke-linejoin="round"/>
<path d="M29.869 16.2119C31.2506 16.2119 32.3706 15.0926 32.3706 13.7119C32.3706 12.3312 31.2506 11.2119 29.869 11.2119C28.4874 11.2119 27.3674 12.3312 27.3674 13.7119C27.3674 15.0926 28.4874 16.2119 29.869 16.2119Z" fill="white" stroke="#424C5A" stroke-linecap="round" stroke-linejoin="round"/>
<path d="M34.869 25.2119C36.2506 25.2119 37.3706 24.0926 37.3706 22.7119C37.3706 21.3312 36.2506 20.2119 34.869 20.2119C33.4874 20.2119 32.3674 21.3312 32.3674 22.7119C32.3674 24.0926 33.4874 25.2119 34.869 25.2119Z" fill="white" stroke="#424C5A" stroke-linecap="round" stroke-linejoin="round"/>
<path d="M29.869 35.2119C31.2506 35.2119 32.3706 34.0926 32.3706 32.7119C32.3706 31.3312 31.2506 30.2119 29.869 30.2119C28.4874 30.2119 27.3674 31.3312 27.3674 32.7119C27.3674 34.0926 28.4874 35.2119 29.869 35.2119Z" fill="white" stroke="#424C5A" stroke-linecap="round" stroke-linejoin="round"/>
<path d="M18.5716 21.1155L22.6435 24.2806C22.9072 24.5441 23.2649 24.6922 23.6378 24.6922C24.0108 24.6922 24.3685 24.5441 24.6322 24.2806C24.8959 24.017 25.0441 23.6595 25.0441 23.2868C25.0441 22.9141 24.8959 22.5566 24.6322 22.2931L19.9918 16.3306C19.7744 16.1127 19.5161 15.94 19.2317 15.8223C18.9473 15.7045 18.6424 15.6441 18.3345 15.6445H12.7096C12.4017 15.6441 12.0968 15.7045 11.8124 15.8223C11.528 15.94 11.2697 16.1127 11.0523 16.3306L6.41188 22.2931C6.2813 22.4236 6.17771 22.5785 6.10704 22.749C6.03637 22.9195 6 23.1023 6 23.2868C6 23.4714 6.03637 23.6541 6.10704 23.8246C6.17771 23.9951 6.2813 24.1501 6.41188 24.2806C6.54246 24.4111 6.69749 24.5146 6.8681 24.5852C7.03872 24.6558 7.22158 24.6922 7.40625 24.6922C7.59092 24.6922 7.77378 24.6558 7.9444 24.5852C8.11501 24.5146 8.27004 24.4111 8.40062 24.2806L12.4725 21.1155L9.22245 31.374C9.06483 31.7118 9.04795 32.0984 9.17551 32.4486C9.30307 32.7989 9.56462 33.0841 9.90264 33.2417C10.2407 33.3992 10.6274 33.4161 10.9779 33.2886C11.3284 33.1611 11.6138 32.8997 11.7714 32.5619L15.522 26.6627L19.2727 32.5619C19.4308 32.8989 19.7162 33.1595 20.0663 33.2865C20.4165 33.4134 20.8027 33.3964 21.1402 33.239C21.4778 33.0817 21.7391 32.797 21.8669 32.4474C21.9946 32.0977 21.9784 31.7117 21.8216 31.374L18.5716 21.1155Z" fill="white" stroke="#424C5A" stroke-linecap="round" stroke-linejoin="round"/>
<path d="M24.5 18.5L28 15.5" stroke="#424C5A"/>
<path d="M28 22.9996L32 22.9996" stroke="#424C5A"/>
<path d="M25 27L28 30.5" stroke="#424C5A"/>
</svg>
