<?xml version="1.0" encoding="utf-8"?>
<!-- Generator: Adobe Illustrator 24.2.1, SVG Export Plug-In . SVG Version: 6.00 Build 0)  -->
<svg version="1.1" id="Capa_1" xmlns="http://www.w3.org/2000/svg" xmlns:xlink="http://www.w3.org/1999/xlink" x="0px" y="0px"
	 viewBox="0 0 70 70" style="enable-background:new 0 0 70 70;" xml:space="preserve">
<style type="text/css">
	.st0{fill-rule:evenodd;clip-rule:evenodd;}
</style>
<desc>Created with Sketch.</desc>
<g id="arrow-lg-bottom">
	<path id="Path" class="st0" d="M59.8,41.9c-1.2-1.2-3-1.2-4.2,0L37.9,59.2v-57c0-1.7-1.3-3-3-3c-1.7,0-3,1.3-3,3v57.2L13.6,41.7
		c-1.2-1.2-3-1-4.2,0.2c-1.2,1.2-1,3,0.2,4.2l23.3,22.3c0.5,0.5,1.3,0.8,2,0.8c0.7,0,1.5-0.3,2-0.8L59.7,46
		C60.8,44.9,61,43,59.8,41.9z"/>
</g>
</svg>
