<?xml version="1.0" encoding="utf-8"?>
<!-- Generator: Adobe Illustrator 24.2.1, SVG Export Plug-In . SVG Version: 6.00 Build 0)  -->
<svg version="1.1" id="Capa_1" xmlns="http://www.w3.org/2000/svg" xmlns:xlink="http://www.w3.org/1999/xlink" x="0px" y="0px"
	 viewBox="0 0 70 70" style="enable-background:new 0 0 70 70;" xml:space="preserve">
<style type="text/css">
	.st0{fill-rule:evenodd;clip-rule:evenodd;}
</style>
<desc>Created with Sketch.</desc>
<g id="arrow-lg-left">
	<path id="Path" class="st0" d="M42.4,9.9c-1.2,1.2-1.2,3,0,4.2l17.3,17.8h-57c-1.7,0-3,1.3-3,3c0,1.7,1.3,3,3,3h57.2L42.2,56.1
		c-1.2,1.2-1,3,0.2,4.2c1.2,1.2,3,1,4.2-0.2l22.3-23.3c0.5-0.5,0.8-1.3,0.8-2c0-0.7-0.3-1.5-0.8-2L46.5,10
		C45.4,8.9,43.5,8.7,42.4,9.9z"/>
</g>
</svg>
