<?xml version="1.0" encoding="UTF-8"?>
<svg width="57px" height="45px" viewBox="0 0 57 45" version="1.1" xmlns="http://www.w3.org/2000/svg" xmlns:xlink="http://www.w3.org/1999/xlink">
    <title>Group 33</title>
    <g id="liquidacion" stroke="none" stroke-width="1" fill="none" fill-rule="evenodd">
        <g id="web/documentos" transform="translate(-776.000000, -283.000000)">
            <g id="body" transform="translate(284.000000, 130.000000)">
                <g id="alert" transform="translate(197.000000, 139.000000)">
                    <g id="Group-33" transform="translate(295.000000, 14.000000)">
                        <path d="M43.2125,31.1516 C43.1995,31.1436 43.1895,31.1326 43.1765,31.1246 L14.4775,31.1246 C14.4485,31.1326 14.4225,31.1456 14.3925,31.1516 C10.2755,33.0726 8.3545,39.3856 13.8435,39.3856 L43.4865,39.3856 C48.1525,38.8376 46.7805,33.0726 43.2125,31.1516" id="Fill-1" fill="#BDD5E1"></path>
                        <path d="M41.319,32.2268 C41.308,32.2208 41.298,32.2138 41.288,32.2078 L16.273,32.2078 C16.248,32.2138 16.225,32.2228 16.199,32.2268 C12.611,33.5358 10.936,37.8348 15.72,37.8348 L41.558,37.8348 C45.625,37.4608 44.429,33.5358 41.319,32.2268" id="Fill-3" fill="#F5F9FC"></path>
                        <path d="M41.8405,15.781 C41.6455,11.65 39.2015,3.218 28.3905,3.155 C17.9575,3.094 15.2815,12.868 15.2155,17.428 C15.1285,23.551 16.8185,30.429 14.4775,31.125 L43.1765,31.125 C39.9385,28.899 42.2545,21.77 41.8405,15.781" id="Fill-5" fill="#BDD5E1"></path>
                        <path d="M39.8673,16.2434 C39.7013,12.4464 37.6283,4.6964 28.4573,4.6384 C19.6053,4.5824 17.3353,13.5654 17.2793,17.7574 C17.2043,23.3854 18.6383,29.7084 16.6533,30.3474 L41.0013,30.3474 C38.2543,28.3014 40.2193,21.7484 39.8673,16.2434" id="Fill-7" fill="#FFFFFF"></path>
                        <path d="M31.36,2.6272 C31.36,1.1762 30.183,0.0002 28.733,0.0002 C27.281,0.0002 26.105,1.1762 26.105,2.6272 C27.699,2.2102 29.7,2.2552 31.36,2.6272" id="Fill-9" fill="#BDD5E1"></path>
                        <path d="M30.3561,2.0739 C30.3561,1.2339 29.6291,0.5529 28.7321,0.5529 C27.8351,0.5529 27.1091,1.2339 27.1091,2.0739 C28.0941,1.8319 29.3301,1.8589 30.3561,2.0739" id="Fill-11" fill="#FFFFFF"></path>
                        <path d="M30.506,24.9899 C30.506,25.9469 29.731,26.7219 28.774,26.7219 C27.818,26.7219 27.042,25.9469 27.042,24.9899 C27.042,24.0329 27.818,23.2579 28.774,23.2579 C29.731,23.2579 30.506,24.0329 30.506,24.9899" id="Fill-13" fill="#BDD5E1"></path>
                        <polygon id="Fill-15" fill="#BDD5E1" points="29.7584 21.2199 27.7894 21.2199 27.1344 11.9189 30.4134 11.9189"></polygon>
                        <path d="M32.8214,40.5715 C32.8214,42.9785 30.8694,44.9295 28.4634,44.9295 C26.0554,44.9295 24.1044,42.9785 24.1044,40.5715 C24.1044,40.0585 24.1924,39.5675 24.3554,39.1105 L32.5534,39.0645 C32.7264,39.5345 32.8214,40.0415 32.8214,40.5715" id="Fill-17" fill="#BDD5E1"></path>
                        <path d="M31.3688,40.9831 C31.3688,42.5221 30.0678,43.7691 28.4628,43.7691 C26.8578,43.7691 25.5568,42.5221 25.5568,40.9831 C25.5568,40.6551 25.6158,40.3411 25.7238,40.0491 L31.1908,40.0201 C31.3058,40.3201 31.3688,40.6451 31.3688,40.9831" id="Fill-19" fill="#FFFFFF"></path>
                        <line x1="12.5241" y1="11.3308" x2="7.7501" y2="7.2618" id="Stroke-21" stroke="#BDD5E1" stroke-width="0.75" stroke-linecap="round" stroke-linejoin="round"></line>
                        <line x1="10.1876" y1="16.1306" x2="0.3746" y2="13.8436" id="Stroke-23" stroke="#BDD5E1" stroke-width="0.75" stroke-linecap="round" stroke-linejoin="round"></line>
                        <line x1="10.4205" y1="21.3693" x2="4.2325" y2="22.3973" id="Stroke-25" stroke="#BDD5E1" stroke-width="0.75" stroke-linecap="round" stroke-linejoin="round"></line>
                        <line x1="43.7096" y1="11.3308" x2="48.4836" y2="7.2618" id="Stroke-27" stroke="#BDD5E1" stroke-width="0.75" stroke-linecap="round" stroke-linejoin="round"></line>
                        <line x1="46.046" y1="16.1306" x2="55.859" y2="13.8436" id="Stroke-29" stroke="#BDD5E1" stroke-width="0.75" stroke-linecap="round" stroke-linejoin="round"></line>
                        <line x1="45.8131" y1="21.3693" x2="52.0011" y2="22.3973" id="Stroke-31" stroke="#BDD5E1" stroke-width="0.75" stroke-linecap="round" stroke-linejoin="round"></line>
                    </g>
                </g>
            </g>
        </g>
    </g>
</svg>