<?xml version="1.0" encoding="utf-8"?>
<!-- Generator: Adobe Illustrator 24.2.1, SVG Export Plug-In . SVG Version: 6.00 Build 0)  -->
<svg version="1.1" id="Capa_1" xmlns="http://www.w3.org/2000/svg" xmlns:xlink="http://www.w3.org/1999/xlink" x="0px" y="0px"
	 viewBox="0 0 150 150" style="enable-background:new 0 0 150 150;" xml:space="preserve">
<style type="text/css">
	.st0{clip-path:url(#SVGID_2_);}
	.st1{fill:none;stroke:#00CDCC;stroke-width:0.5;stroke-miterlimit:10;}
	.st2{fill:none;stroke:#02CECC;stroke-width:0.5;stroke-miterlimit:10;}
	.st3{fill:none;stroke:#03CFCD;stroke-width:0.5;stroke-miterlimit:10;}
	.st4{fill:none;stroke:#05D0CD;stroke-width:0.5;stroke-miterlimit:10;}
	.st5{fill:none;stroke:#06D1CD;stroke-width:0.5;stroke-miterlimit:10;}
	.st6{fill:none;stroke:#08D1CD;stroke-width:0.5;stroke-miterlimit:10;}
	.st7{fill:none;stroke:#09D2CD;stroke-width:0.5;stroke-miterlimit:10;}
	.st8{fill:none;stroke:#0BD3CE;stroke-width:0.5;stroke-miterlimit:10;}
	.st9{fill:none;stroke:#0CD4CE;stroke-width:0.5;stroke-miterlimit:10;}
	.st10{fill:none;stroke:#0ED5CE;stroke-width:0.5;stroke-miterlimit:10;}
	.st11{fill:none;stroke:#0FD5CE;stroke-width:0.5;stroke-miterlimit:10;}
	.st12{fill:none;stroke:#11D6CF;stroke-width:0.5;stroke-miterlimit:10;}
	.st13{fill:none;stroke:#12D7CF;stroke-width:0.5;stroke-miterlimit:10;}
	.st14{fill:none;stroke:#14D8CF;stroke-width:0.5;stroke-miterlimit:10;}
	.st15{fill:none;stroke:#15D9CF;stroke-width:0.5;stroke-miterlimit:10;}
	.st16{fill:none;stroke:#17D9CF;stroke-width:0.5;stroke-miterlimit:10;}
	.st17{fill:none;stroke:#18DAD0;stroke-width:0.5;stroke-miterlimit:10;}
	.st18{fill:none;stroke:#1ADBD0;stroke-width:0.5;stroke-miterlimit:10;}
	.st19{fill:none;stroke:#1BDCD0;stroke-width:0.5;stroke-miterlimit:10;}
	.st20{fill:none;stroke:#1DDDD0;stroke-width:0.5;stroke-miterlimit:10;}
	.st21{fill:none;stroke:#1EDED0;stroke-width:0.5;stroke-miterlimit:10;}
	.st22{fill:none;stroke:#20DED1;stroke-width:0.5;stroke-miterlimit:10;}
	.st23{fill:none;stroke:#22DFD1;stroke-width:0.5;stroke-miterlimit:10;}
	.st24{fill:none;stroke:#23E0D1;stroke-width:0.5;stroke-miterlimit:10;}
	.st25{fill:none;stroke:#25E1D1;stroke-width:0.5;stroke-miterlimit:10;}
	.st26{fill:none;stroke:#26E2D1;stroke-width:0.5;stroke-miterlimit:10;}
	.st27{fill:none;stroke:#28E2D2;stroke-width:0.5;stroke-miterlimit:10;}
	.st28{fill:none;stroke:#29E3D2;stroke-width:0.5;stroke-miterlimit:10;}
	.st29{fill:none;stroke:#2BE4D2;stroke-width:0.5;stroke-miterlimit:10;}
	.st30{fill:none;stroke:#2CE5D2;stroke-width:0.5;stroke-miterlimit:10;}
	.st31{fill:none;stroke:#2EE6D3;stroke-width:0.5;stroke-miterlimit:10;}
	.st32{fill:none;stroke:#2FE7D3;stroke-width:0.5;stroke-miterlimit:10;}
	.st33{fill:none;stroke:#31E7D3;stroke-width:0.5;stroke-miterlimit:10;}
	.st34{fill:none;stroke:#32E8D3;stroke-width:0.5;stroke-miterlimit:10;}
	.st35{fill:none;stroke:#34E9D3;stroke-width:0.5;stroke-miterlimit:10;}
	.st36{fill:none;stroke:#35EAD4;stroke-width:0.5;stroke-miterlimit:10;}
	.st37{fill:none;stroke:#37EBD4;stroke-width:0.5;stroke-miterlimit:10;}
	.st38{fill:none;stroke:#38EBD4;stroke-width:0.5;stroke-miterlimit:10;}
	.st39{fill:none;stroke:#3AECD4;stroke-width:0.5;stroke-miterlimit:10;}
	.st40{fill:none;stroke:#3BEDD4;stroke-width:0.5;stroke-miterlimit:10;}
	.st41{fill:none;stroke:#3DEED5;stroke-width:0.5;stroke-miterlimit:10;}
	.st42{fill:none;stroke:#3FEFD5;stroke-width:0.5;stroke-miterlimit:10;}
	.st43{fill:none;stroke:#40F0D5;stroke-width:0.5;stroke-miterlimit:10;}
	.st44{fill:none;stroke:#42F0D5;stroke-width:0.5;stroke-miterlimit:10;}
	.st45{fill:none;stroke:#43F1D5;stroke-width:0.5;stroke-miterlimit:10;}
	.st46{fill:none;stroke:#45F2D6;stroke-width:0.5;stroke-miterlimit:10;}
	.st47{fill:none;stroke:#46F3D6;stroke-width:0.5;stroke-miterlimit:10;}
	.st48{fill:none;stroke:#48F4D6;stroke-width:0.5;stroke-miterlimit:10;}
	.st49{fill:none;stroke:#49F4D6;stroke-width:0.5;stroke-miterlimit:10;}
	.st50{fill:none;stroke:#4BF5D6;stroke-width:0.5;stroke-miterlimit:10;}
	.st51{fill:none;stroke:#4CF6D7;stroke-width:0.5;stroke-miterlimit:10;}
	.st52{fill:none;stroke:#4EF7D7;stroke-width:0.5;stroke-miterlimit:10;}
	.st53{fill:none;stroke:#4FF8D7;stroke-width:0.5;stroke-miterlimit:10;}
	.st54{fill:none;stroke:#51F8D7;stroke-width:0.5;stroke-miterlimit:10;}
	.st55{fill:none;stroke:#52F9D8;stroke-width:0.5;stroke-miterlimit:10;}
	.st56{fill:none;stroke:#54FAD8;stroke-width:0.5;stroke-miterlimit:10;}
	.st57{fill:none;stroke:#55FBD8;stroke-width:0.5;stroke-miterlimit:10;}
	.st58{fill:none;stroke:#57FCD8;stroke-width:0.5;stroke-miterlimit:10;}
	.st59{fill:none;stroke:#58FDD8;stroke-width:0.5;stroke-miterlimit:10;}
	.st60{fill:none;stroke:#5AFDD9;stroke-width:0.5;stroke-miterlimit:10;}
	.st61{fill:none;stroke:#5BFED9;stroke-width:0.5;stroke-miterlimit:10;}
	.st62{fill:none;stroke:#5DFFD9;stroke-width:0.5;stroke-miterlimit:10;}
</style>
<g>
	<defs>
		<circle id="SVGID_1_" cx="75" cy="75" r="72.58"/>
	</defs>
	<clipPath id="SVGID_2_">
		<use xlink:href="#SVGID_1_"  style="overflow:visible;"/>
	</clipPath>
	<g class="st0">
		<line class="st1" x1="25.09" y1="-101.99" x2="-183.88" y2="151.77"/>
		<line class="st2" x1="28.4" y1="-100.17" x2="-180.57" y2="153.58"/>
		<line class="st3" x1="31.72" y1="-98.36" x2="-177.26" y2="155.39"/>
		<line class="st4" x1="35.03" y1="-96.55" x2="-173.95" y2="157.2"/>
		<line class="st5" x1="38.34" y1="-94.74" x2="-170.63" y2="159.01"/>
		<line class="st6" x1="41.65" y1="-92.93" x2="-167.32" y2="160.82"/>
		<line class="st7" x1="44.96" y1="-91.12" x2="-164.01" y2="162.63"/>
		<line class="st8" x1="48.27" y1="-89.31" x2="-160.7" y2="164.44"/>
		<line class="st9" x1="51.58" y1="-87.5" x2="-157.39" y2="166.25"/>
		<line class="st10" x1="54.9" y1="-85.69" x2="-154.08" y2="168.06"/>
		<line class="st11" x1="58.21" y1="-83.88" x2="-150.76" y2="169.87"/>
		<line class="st12" x1="61.52" y1="-82.07" x2="-147.45" y2="171.68"/>
		<line class="st13" x1="64.83" y1="-80.26" x2="-144.14" y2="173.5"/>
		<line class="st14" x1="68.14" y1="-78.45" x2="-140.83" y2="175.31"/>
		<line class="st15" x1="71.45" y1="-76.63" x2="-137.52" y2="177.12"/>
		<line class="st16" x1="74.77" y1="-74.82" x2="-134.21" y2="178.93"/>
		<line class="st17" x1="78.08" y1="-73.01" x2="-130.89" y2="180.74"/>
		<line class="st18" x1="81.39" y1="-71.2" x2="-127.58" y2="182.55"/>
		<line class="st19" x1="84.7" y1="-69.39" x2="-124.27" y2="184.36"/>
		<line class="st20" x1="88.01" y1="-67.58" x2="-120.96" y2="186.17"/>
		<line class="st21" x1="91.32" y1="-65.77" x2="-117.65" y2="187.98"/>
		<line class="st22" x1="94.64" y1="-63.96" x2="-114.34" y2="189.79"/>
		<line class="st23" x1="97.95" y1="-62.15" x2="-111.03" y2="191.6"/>
		<line class="st24" x1="101.26" y1="-60.34" x2="-107.71" y2="193.41"/>
		<line class="st25" x1="104.57" y1="-58.53" x2="-104.4" y2="195.22"/>
		<line class="st26" x1="107.88" y1="-56.72" x2="-101.09" y2="197.04"/>
		<line class="st27" x1="111.19" y1="-54.91" x2="-97.78" y2="198.85"/>
		<line class="st28" x1="114.5" y1="-53.09" x2="-94.47" y2="200.66"/>
		<line class="st29" x1="117.82" y1="-51.28" x2="-91.16" y2="202.47"/>
		<line class="st30" x1="121.13" y1="-49.47" x2="-87.84" y2="204.28"/>
		<line class="st31" x1="124.44" y1="-47.66" x2="-84.53" y2="206.09"/>
		<line class="st32" x1="127.75" y1="-45.85" x2="-81.22" y2="207.9"/>
		<line class="st33" x1="131.06" y1="-44.04" x2="-77.91" y2="209.71"/>
		<line class="st34" x1="134.37" y1="-42.23" x2="-74.6" y2="211.52"/>
		<line class="st35" x1="137.69" y1="-40.42" x2="-71.29" y2="213.33"/>
		<line class="st36" x1="141" y1="-38.61" x2="-67.97" y2="215.14"/>
		<line class="st37" x1="144.31" y1="-36.8" x2="-64.66" y2="216.95"/>
		<line class="st38" x1="147.62" y1="-34.99" x2="-61.35" y2="218.76"/>
		<line class="st39" x1="150.93" y1="-33.18" x2="-58.04" y2="220.58"/>
		<line class="st40" x1="154.24" y1="-31.37" x2="-54.73" y2="222.39"/>
		<line class="st41" x1="157.56" y1="-29.55" x2="-51.42" y2="224.2"/>
		<line class="st42" x1="160.87" y1="-27.74" x2="-48.11" y2="226.01"/>
		<line class="st43" x1="164.18" y1="-25.93" x2="-44.79" y2="227.82"/>
		<line class="st44" x1="167.49" y1="-24.12" x2="-41.48" y2="229.63"/>
		<line class="st45" x1="170.8" y1="-22.31" x2="-38.17" y2="231.44"/>
		<line class="st46" x1="174.11" y1="-20.5" x2="-34.86" y2="233.25"/>
		<line class="st47" x1="177.42" y1="-18.69" x2="-31.55" y2="235.06"/>
		<line class="st48" x1="180.74" y1="-16.88" x2="-28.24" y2="236.87"/>
		<line class="st49" x1="184.05" y1="-15.07" x2="-24.92" y2="238.68"/>
		<line class="st50" x1="187.36" y1="-13.26" x2="-21.61" y2="240.49"/>
		<line class="st51" x1="190.67" y1="-11.45" x2="-18.3" y2="242.3"/>
		<line class="st52" x1="193.98" y1="-9.64" x2="-14.99" y2="244.12"/>
		<line class="st53" x1="197.29" y1="-7.83" x2="-11.68" y2="245.93"/>
		<line class="st54" x1="200.61" y1="-6.01" x2="-8.37" y2="247.74"/>
		<line class="st55" x1="203.92" y1="-4.2" x2="-5.05" y2="249.55"/>
		<line class="st56" x1="207.23" y1="-2.39" x2="-1.74" y2="251.36"/>
		<line class="st57" x1="210.54" y1="-0.58" x2="1.57" y2="253.17"/>
		<line class="st58" x1="213.85" y1="1.23" x2="4.88" y2="254.98"/>
		<line class="st59" x1="217.16" y1="3.04" x2="8.19" y2="256.79"/>
		<line class="st60" x1="220.47" y1="4.85" x2="11.5" y2="258.6"/>
		<line class="st61" x1="223.79" y1="6.66" x2="14.81" y2="260.41"/>
		<line class="st62" x1="227.1" y1="8.47" x2="18.13" y2="262.22"/>
	</g>
</g>
</svg>
