<?xml version="1.0" encoding="utf-8"?>
<!-- Generator: Adobe Illustrator 24.2.3, SVG Export Plug-In . SVG Version: 6.00 Build 0)  -->
<svg version="1.1" id="Capa_1" xmlns="http://www.w3.org/2000/svg" xmlns:xlink="http://www.w3.org/1999/xlink" x="0px" y="0px"
	 viewBox="0 0 600 430" style="enable-background:new 0 0 600 430;" xml:space="preserve">
<style type="text/css">
	.st0{fill:none;}
	.st1{clip-path:url(#SVGID_2_);}
	.st2{clip-path:url(#SVGID_4_);}
	.st3{fill:none;stroke:#FFFFFF;stroke-miterlimit:10;}
</style>
<rect x="-140.51" y="5.45" class="st0" width="1641.03" height="386.55"/>
<g>
	<defs>
		<rect id="SVGID_1_" x="-7.28" y="-8.29" width="611" height="438"/>
	</defs>
	<clipPath id="SVGID_2_">
		<use xlink:href="#SVGID_1_"  style="overflow:visible;"/>
	</clipPath>
	<g class="st1">
		<defs>
			<path id="SVGID_3_" d="M581.97,283.1c-3.7-1.23-6.1,0.65-9.81-0.59c-4.23-1.61-12.47-10.52-14.85-15.26
				c-2.91-1.6-7.43-3.82-12.47-5.14l-10.07,1.65c-5.31,0-6.36-5.13-11.93-5.13c-2.38,0-3.46,2.24-5.84,3.48h-1.87
				c0-2.82,0.28-5.04-0.51-7.89c-0.52-2.58-2.92-1.93-5.03-3.52c-3.46-2.53-13-8.58-17.76-8.58c-4.27,0-7.45,6.66-10.09,11.78
				c-0.81,1.55-1.87,3.79-2.93,3.79c-0.8,0-1.33-2.52-1.33-3.47h-6.36c-0.52-3.19-1.87-5.72-4.51-7.35
				c-1.34-0.62-3.71-0.27-3.71-3.48c0-9.54,7.7-12.73,11.93-19.08c0-3.18-3.44-3.18-4.76-6.36c-1.34-3.49-4.79-13.65-4.79-17.43
				c-4.51-1.32-10.06-11.8-14.32-11.8h-1.57v-0.62c-2.67,0-6.92-2.55-8.76-3.49h-6.9c-7.18-1.61-18.3-0.62-20.15-9.56
				c-1.34,0-3.45-0.65-3.99-1.92c-3.17-7.94-5.56-6.95-10.6-13h-7.43c-1.07-4.12-0.27-8.91-3.71-10.15
				c-3.98-1.62-9.54-2.54-11.4-7.01v-2.56c0.8,0.64,2.91,0.34,3.97-0.62c0,0-4.79-0.98-7.43-0.98c-0.8,0.65-6.37,0.65-6.62,1.61
				c-1.61,3.82-4.23,3.82-8.21,4.44c-2.12,0-5.32-0.62-5.32-3.5h-14.33c-1.6-0.31-3.19-2.55-3.19-5.67c-3.98-1-9.95-2.78-11-7.89
				l-4.64-0.08c0,3.81,3.97,2.22,5.02,6.03h-6.34c-2.4,1.94-6.63,1.31-6.63,6.05c0,3.81,3.19,6.06,3.19,9.85
				c0,1.29-1.46,5.15-2.53,5.15c-2.91,0-4.38-6.13-4.38-9.62c0-2.85,1.6-8.24,2.4-12.99c1.04,0,2.64-1.3,2.64-3.82
				c0-0.3-1.07-3.82-2.4-3.82c-3.43,0-4.22,4.76-7.66,6.02c-6.66,2.53-10.89,3.82-17.26,6.36c-3.46,1.27-5.85,2.2-7.16,7.3
				c-0.54,2.55-0.81,6.7-2.4,7.98c-1.58,1.24-4.23,2.2-4.23,5.37c-0.55,0-1.6,0.97-1.6,1.58v1.89c-1.85,0.67-1.06,0.67-3.17,0
				c-0.39,0.76-1.13,1.44-1.96,2.17c0.92-1.18,1.65-2.18,1.77-2.45c-4.24-3.81-7.53-10.17-14.93-10.17c-6.38,0-9.82,6.33-16.71,6.33
				c-4.53,0-4.53-6.01-7.43-7.64c-4.23-2.52-9.81-5.37-9.81-12.37v-19.4c1.59-3.17,1.85-11.1,1.85-13.97V98.8
				c-4.76-1.22-6.35-6.7-12.73-6.7c-9.29,0-16.46,1.92-25.19,1.92c-1.6,0-3.2-1.25-3.2-3.46v-1.62c1.6-1.89,4.78-3.17,4.78-6.33
				V67.35h2.11v2.22c1.61-3.2,3.2-5.42,3.2-10.49c0-6.03,4.5-11.78,4.5-16.2v-2.89c-1.59,0-5.04-0.29-6.1-0.62
				c-1.06-0.62-2.92-0.97-5.3-0.97c-7.17,0-15.92,3.19-15.92,12.38c0,4.78-4.52,8.92-5.57,12.73c-0.27,1.31-1.6,5.07-3.71,5.07
				c-1.06,0-2.14-1.93-5.04-1.93c-5.3,0-9.55,4.52-14.59,4.52c-2.13,0-2.13-2.88-4.49-3.82c-6.92-2.53-6.92-7.96-11.68-13.68
				c-1.87-2.25-5.31-6.67-6.38-9.26c-1.05-2.82,0.28-4.71-0.79-7.58c-0.53-1.25-2.66-3.81-2.12-6.37V12.69
				c0.8-4.77,2.65-6.99,2.65-12.73c0-1.89-0.53-3.17-1.06-5.08l-0.16-0.76c0.23,0.05,0.48,0.08,0.69,0.11
				c0-0.95-1.32-2.22-1.32-3.14c0-9.58,3.43-18.16,9.29-20.66c2.64-1.3,5.02,0.95,7.15-1.6c3.19-3.82,6.89-11.77,14.58-11.77
				c2.92,0,4.5,3.17,7.43,3.17c1.58,0,2.38-2.53,3.98-2.53c5.3,0,11.67,10.8,19.11,6.34c-3.2-2.51-0.81-5.37-0.55-10.15
				c-1.6,0.93-1.07,0.93-3.7,0c4.49-1.89,10.09-1.26,14.32-2.56c0,0.98,1.04,2.56,1.85,2.56c2.13,0,2.92-2.56,6.63-2.56
				c6.38,0,9.28,7.34,14.06,7.34c2.37,0,3.46-4.16,5.83-4.16c11.65,0,8.47,19.41,12.73,29.59c2.1,5.06,4.77,6.64,7.97,11.73
				c1.55,2.85,1.31,7.93,5.3,7.93c4.49,0,5.82-6.02,5.82-12.68c0-5.76-2.37-8.96-3.18-12.74v-1.59c0-10.19-7.42-13.35-7.42-23.84
				c0-23.1,15.89-29.13,28.32-37.51l-0.72-0.62c1.58-1.93,1.33-2.89,4.51-4.12c2.1-0.65,3.48-3.11,6.61-3.83
				c1.47-0.34,2.32-2.23,3.11-3.5l-3.11-2.2v-2.54c2.39,0,3.6,0.3,4.12-3.2c-1.34-0.3-2.6-0.56-3.65-2.76c1.33,0,3.5-1.36,3.5-3.91
				v-3.19h-1.83c-1.61-1.88,0-1.58,0-4.73c0-3.2-1.34-8.94-1.34-11.15c0,0-0.27-2.51,0.24-4.13c0.56,3.18,2.93,8.29,2.93,10.52v3.45
				c0,0.69,0.56,1.93,1.06,1.93c0.8,0,6.11-11.13,6.11-13.02c0-2.54-1.85-3.51-2.4-6.07l1.33-1.55c0.53,0.6,1.07,2.53,1.85,2.53
				c1.86,0,6.89-11.14,7.43-13.66c0,0-2.38-2.23-2.38-3.84c0-0.94,0.78-1.88,1.59-2.22c0.79,0,1.59,0.34,2.4,0.34
				c3.7,0,6.37,0,10.07-1.58c-1.87-1.61-4.25,0-6.64,0h-2.66c5.32-4.14,14.33-2.24,19.64-7c1.05,1.24,5.56,0,8.75-0.97v-2.18
				c0,0-2.38,2.18-2.92,2.18c-1.59,0-2.66-4.13-2.66-5.7c-0.79-0.34-1.06-1.93-1.06-2.88c0-12.03,9.01-15.53,13.25-20.65
				c2.66-1.57,2.92,0,6.09,0c3.74,0,6.66-1.92,8.51-5.4c-0.5-0.75-0.87-1.6-1.22-2.45l-0.11-0.73v-0.96c0.53,0.33,1.86,0,2.65,0
				c1.61,0,8.23,1.27,10.6-0.61c2.38-1.91,2.38-6.04,6.39-6.34c0,4.43-0.27,4.76,3.97,4.76c-6.11,0.61-15.64,5.7-15.64,12.68
				c0,2.87,3.71,7.99,5.29,7.99c2.12,0,7.05-8.55,12.34-10.46c1.34-0.31,19.5-8.62,19.5-11.2c0-3.46-6.91-3.77-8.5-3.77
				c-7.69,0-19.89-8.9-19.89-16.87c0-1.89,2.11-4.43,2.66-7.62c-1.33,0-4.26-0.94-6.65-0.94c1.6-2.53,11.16-4.15,11.16-10.5
				c0-6.03-8.24-4.75-13.8-4.75c-11.65,0-16.98,9.83-24.92,11.1c3.44-8.56,9.01-5.73,14.84-12.72c3.7-4.42,1.06-7.28,6.63-9.51
				c10.08-3.81,15.92-1.58,25.99-1.58c13.27,0,20.51,5.19,28.38-7c3.82-5.94,25.2-7.33,25.2-17.48c0-7.32-2.11-10.5-4.51-15.26
				c-2.14,0,0.94-3.12-2.14-4.77v-3.82c-6.09,4.13-18.82,9.53-25.17,9.53c-0.82,0-2.39-0.63-2.66-1.25
				c5.3-3.51,20.04-5.91,21.62-11.97c0.27-1.57-1.99-2.04-2.26-3.61c-6.38,0.93-19.9-2.55-19.9-13.34v-0.97
				c-5.81,0-9.29-4.44-12.72-7.63c1.32-0.91,3.97-1.91,3.97-5.72c0-3.17-2.38-5.72-1.86-8.89c-2.4-0.96-10.99-7.52-8.74-13.34
				c2.77-7.21-8.5-8.9-9.29-17.47c-0.8,0-3.45-2.85-4.51-4.14c-1.86,1.6-6.1,4.45-6.1,8.9c0,4.76-8.49,16.52-15.11,16.52
				c-4.76,0-5.57-6.97-8.76-6.97c-4.52,0-6.36-15.59-7.14-22.23c-1.08-8.92-15.42-2.56-15.42-14.33
				c-7.42-1.24-9.02-12.05-16.43-12.05c-3.45,0-3.45,3.16-7.41,3.16c-7.71,0-12.48-5.39-19.91-5.39c-3.97,0-7.96,2.23-7.96,7.93
				c0,3.2,9.36,7.82,0.79,14.3c-3.36,2.56,4.84,9.58,5.32,14.32c0.94,9.4-6.59,11.75-10.03,13.37c6.1,12.41,15.34,16.49,15.34,37.47
				c0,5.72-15.91,20.01-21.23,21.29c9.22,5.61,5.57,22.9,9.29,28.3c-1.07,1.91-4.51,4.14-4.78,7.6c-3.19,0-5.48,6.23-7.97,3.82
				c-6.57-6.31-15.9-16.2-15.9-25.43c0-10.14,1.58-18.12-5.84-23.81h-17.24c-9.82-8.58-20.96-13.69-32.63-19.09
				c-2.11-0.94-8.22-6.35-11.92-6.35c-3.99,0-5.83,4.76-9.83,4.76c0-7.64-4.23-25.4-10.07-25.4c-2.64,0-3.99,2.54-6.63,3.18
				c1.07-3.83,0-5.1,0-14.32c0-12.73,3.19-20.33,9.29-27.65c2.12-2.52,6.62-14.9,8.75-15.87c4.5-1.89,12.46,1.28,12.46-6.36
				c0-4.78-10.16-5.14-13.86-7.69c2.38,0.97-5.65-5.55,15.9,2.38c5.58,2.05,2.2-6.78,5.38-6.78h5.85c6.34,0,9.8-7.93,14.04-11.75
				v-4.8c-9.02-2.52-18.02-0.92-22.01-10.47h4.78c3.44,2.56,6.9,7.31,11.94,7.31c4.23,0,11.95-6.66,11.95-10.49
				c0-1.23-4-6.97-1.89-6.97c5.84,0,7.96,6.37,11.68,6.37c2.37,0,3.99-2.55,8.74-2.55c-1.33-1.91-0.05-7.54,3.19-1.59
				c1.74,3.2,15.38-10.8,15.38-14.93c0-2.85-6.1-6.03-6.1-7.97c0-2.19-3.57-7.26,4.78-12.08c1.05-2.86,0-2.52,0-7.91
				c-8.48,0-6.38-7.99-17.26-7.99c-2.37-0.31-4.24-2.23-6.61-2.23c-3.19,0-6.64,2.57-6.64,6.4c0,4.13,3.99,5.71,3.99,8.56
				c0,3.18-6.12,3.18-7.45,6.35c-2.09,5.43-1.39,9.66-5.22,15.54c-5.97,9.11-13.84-5.69-13.84-9.19c0-4.12,4.5-3.17,4.5-7.91
				c0-2.24-7.7-11.16-9.81-11.16c-7.69,0-2.4,13.69-10.6,13.69c0-5.42-0.53-9.22-6.11-12.4c0.8-1.6,1.33-2.54,2.65-3.81
				c-4.24-3.2-10.07,0-13.27-4.79c1.86-1.29,6.64-3.48,6.64-7.62c0-6.03-7.84-5.8-7.98-10.5c-0.25-9.9-6.08-16.21-16.43-16.52
				c-5.06-0.15-2.92,3.83-2.66,6.99c-3.18,0.96-7.41,0-7.41,4.77c0,3.19,2.12,4.76,2.12,7.94c0,3.19-3.43,2.88-3.43,7.32
				c0,10.5,18.03,4.14,18.03,14.93c0,1.93-2.15,9.53-2.15,9.53c1.88-1.26,3.46-1.88,5.6-3.18c3.44,13.06-14.07,6.68-14.07,22.24
				c-8.69,2.82-1.85-7.62-3.97-11.1c-0.78-1.6-7.95-3.81-11.93-3.81c-4.77,0-6.63,3.49-6.63,10.19c-4.51-0.68-7.44,0-22.55,0
				c-14.33,0-31.03-6.05-34.48-19.08c-4.77,1.55-20.69,1.87-20.69,8.88c0,2.21,1.24,3.44,3.37,3.44c4.25,0,11.23-2.51,14.41-5.03
				c1.06,10.47-12.49,1.9-12.49,12.72c0,2.2,2.93,9.51,1.61,9.51c-5.3,0-6.36-7.94-10.88-10.45l-3.99-2.27H0.6
				c-5.31,0-8.75,2.58-14.59,2.86c-10.51,0.6-10.51-4.01-10.51-4.98c0-2.84,8.12-1.66,9.71-3.59c-7.38-12.3-6.06-10.3-21.23-8.89
				c-16.12,1.49-24.14-14.32-40.31-14.32c-5.04,0-7.17,4.14-11.4,4.14c-2.91,0-5.85-6.04-6.37-8.58c-5.04,1.29-5.04,8.27-10.35,8.27
				c-5.04,0-12.2-14.29-13.79-14.29c-5.31,0-3.45,9.17-9.01,9.17c-2.13,0-3.99-1.86-4.79-4.4c-8.2,2.21-11.13,2.86-18.55,6.32
				c-2.93,0.65-9.88,6.74-12.19,4.16c-6.95-7.79-5.74,2.13-8.25,2.21c-17.25,0.75-5.3,8.28-7.68,8.28c-6.63,0-18.53-1.58-29.44-9.54
				c-0.45-0.32-3.73-3.17-3.73-4.15c-1.85,1.3-0.51,0.66-3.15,0l-0.01,0.33c-6.62-2.54-9.02-6.36-16.72-6.36
				c-4.77,0-7.69,2.22-12.48,2.22c-8.21,0-24.65-1.58-29.95-7.95h-20.43c-3.71-2.22-4.76-3.81-7.96-6.34h-13.25
				c-2.4-0.98-3.21-1.91-6.11-3.18c-1.34,2.54-3.98,4.75-6.63,4.12c0.8-1.57,1.07-2.21,2.38-4.12c-3.43-1.29-4.75-4.78-8.23-4.78
				c-4.49,0-7.16,6.98-11.4,8.89c-3.7,1.6-6.1-0.61-9.8,0.63c-14.04,5.42-25.99,17.5-33.95,30.21h-14.59
				c-0.28,0.95-3.96,8.9-3.96,8.9c0,2.22,10.87,4.75,14.04,7.02c2.64,1.88,5.84,11.41,7.95,12.65c7.7,4.48,13.28,5.1,15.91,15.29
				c-3.16,0.96-3.7,0-7.41,0c-5.58,0-9.84,2.88-9.84-7.3h-4.76c-6.35,5.07-17.24,9.2-23.86,13.95c1.31,3.19,3.7,5.09,7.97,5.09
				c-0.3,0.96-0.8,2.23-0.8,3.17c0,2.87,3.18,4.15,3.44,8.91h14.04c3.97-0.95,5.84,2.23,11.16,2.23c5.55,0,7.14-5.41,11.39-5.41
				c1.59,0,1.59-0.32,3.99,0v4.78c-1.86-1.28-1.31-1.6-3.99,0.31c0.27,0.94,4.51,5.39,4.51,7.63c0,4.12-18.04,12.73-20.43,12.73
				c-5.57,0-19.88,7.94-19.88,17.45c0,5.1,8.49,6.68,10.6,13.67c-1.31,0-2.64,0.97-3.98,0.97c1.87,2.85,14.32,14.6,17.78,14.6
				c1.05,0,3.19-5.39,5.3-5.39c2.38,0,2.13,3.81,2.13,4.76v6.37c0,2.53,1.04,7.94,2.63,7.94c1.07,0,2.39-2.53,4.01-2.53h3.16
				c0-1.32-0.27-2.88,0.23-4.78c4.54,4.13,6.39,6.02,12.76,8.9c0.26-2.24,1.04-3.2,1.86-5.74c2.65,0.98,3.97,2.54,7.17,2.54
				c3.95,0,5.81-2.24,9.79-4.1h4c-6.38,4.74-6.38,14.29-12.46,19.05c-6.39,5.09-16.72,10.49-21.21,17.47
				c-3.19,4.77-8.24,1.58-12.73,4.77c-2.91,1.92-5.3,8.26-8.5,10.47c-4.49,3.2-9.56,0.64-12.72,6.69
				c11.13,3.81,16.45-9.54,25.98-11.44c7.69-1.25,17.23-4.77,21.22-9.52c4.25-5.11,13.25-8.28,17.25-14.32
				c2.13-3.17,3.19-6.35,6.64-7.93c6.08-2.86,11.92-5.4,11.92-12.7v-4.76c0-10.49,17.5-27.99,23.87-27.99h3.19
				c0,0.96-0.27,2.24-0.27,3.16c-7.7,2.87-11.67,8.31-11.67,15.27c0,1.6-1.03,1.6,0.26,3.82c-0.52,0.31-2.11,0.66-2.11,2.55
				c0,1.27,1.59,2.25,2.66,2.25c6.11,0,23.07-11.49,26.52-17.81c-1.33-1.27-1.86-2.22-2.64-4.47c2.38-1.61,7.68-3.17,10.88-4.77
				c4.49,11.15,16.17,12.4,24.92,15.9h14.6c7.93,5.41,16.96,5.08,23.84,11.15c3.19,2.84,6.91,12.04,12.48,12.04
				c2.12,0,3.17-3.16,3.97-5.69c2.13,2.53,3.97,4.73,7.97,4.73c1.04-2.2,3.44,0.66,4.77,2.24c-0.8,1.59-2.66,2.86-2.66,6.68
				c0,1.91,2.92,4.77,3.97,4.77c3.46,0,2.13-3.82,7.17-4.15v4.15c0,2.54-3.97,2.85-3.97,5.39c0,1.92,1.05,4.77,4.76,4.77
				c4.77,0,7.96,0,7.96,4.77v4.77c0,3.5,6.63,9.53,11.14,9.53c1.34,0,1.34-0.32,2.66-0.32c0-2.22,3.7-2.85,3.7-6.34
				c0-6.09-3.75-7.97-6.22-10.42c2.48,2.45,6.23,4.33,6.23,10.42c0,3.51-3.7,4.12-3.7,6.34c0,1.6,1.58,2.57,1.58,4.44
				c0,4.16-1.07,12.72,2.65,14.01c2.11,0.62,4.24,0.62,5.83,2.52c2.4,2.87-0.52,7.02,2.65,9.54c0,0,6.92,5.07,7.16,6.04
				c1.87,7.29,2.41,15.89,11.43,15.89c1.32,6.37,10.6,2.21,12.71,10.48c0.81,3.19,7.44,3.82,10.08,6.99
				c0.51,0.63,1.86,1.3,2.92,1.93c1.07,3.17,3.46,4.15,3.46,7.3c0,2.85-2.4,6.65-3.72,8.6c-1.34-2.89-3.71-5.42-7.69-5.42
				c-1.05,0-3.98,0.3-3.98,2.23c0,6.97,6.62,9.84,6.62,16.82c0,9.84-6.97,27.89-4.49,35.6c2.56,8-0.26,19.73,2.66,26.71
				c-1.59,1.24-3.97,3.27-2.66,6.03c4.56,9.42,10.36,23.53,15.92,24.47c-1.33,13,6.1,16.83,9.8,27.94c0.8,2.54,0,6.08,2.13,7.02
				c9.55,4.42,23.06,11.11,27.05,20.64h-0.53v2.2c1.87,7.35,4.24,9.25,6.63,14.95c1.6,3.82,1.41,12.68,4.55,15.08
				c4.65,3.57,9.01,10.37,12.94,17.08c2.31,3.96-3.95,2.81-5.29,2.81c2.67,4.75,8.49,3.8,12.2,8.27c2.66,3.15,4.8,6.64,7.69,10.16
				v8.27c0.8,1.57,1.09,1.57,2.67,2.86c2.92,2.21,5.49,9.75,10.24,9.75c0.28,1.31,3.81,6.78,4.33,6.78c0.8,0,1.85-3.18,1.85-4.78
				c0-2.52-3.16-7.92-5.3-5.39c-4.75-3.82-6.35-12.08-8.47-19.72C6.16-9.25,0.86-12.75-1.01-20.06c-1.32-5.38-1.85-8.56-5.56-13.02
				c-2.65-3.19-6.12-3.22-7.99-7.98c-2.13-5.4-4.75-9.52-4.75-16.17c0-0.97-0.27-2.89,0.53-4.13c3.46,4.13,7.72,3.79,12.21,6.35
				c2.11,1.25,1.58,8.27,3.97,11.12c2.41,2.85,1.59,8.25,3.98,11.14c2.91,3.46,5.57,6.98,9.03,11.09c0.79-0.95,0.52-0.63,2.9,0
				c0,7.62,8.23,8.29,10.61,13.98c1.34,3.51-0.52,6.69,1.59,9.21c2.66,3.17,6.91,4.47,9.56,7.64c5.84,6.98,14.85,16.21,18.03,27.65
				c0.52,2.21,2.66,3.16,2.66,7.33c0,3.46-2.66,5.4-2.66,8.89c0,2.85,1.6,6.34,3.98,6.34c0.78,4.12,9.01,6.33,12.21,10.18
				c0.79,0.95,1.32,1.25,2.91,2.24c3.45,1.89,5.31,1.27,8.76,3.15c3.69,2.25,4.5,6.07,8.21,7.3c2.92,0.96,4.78-0.94,7.71,0.65
				c2.65,1.58,11.66,9.19,14.85,9.19c2.12,0,3.98-0.61,6.09,0.67c1.06,0.63,3.2,2.88,5.3,2.88c4.52,0,5.32-6.38,10.09-6.38
				c2.13,0,3.71,0.96,5.84,2.53h1.6c7.16,4.14,8.21,11.44,16.43,16.25c5.32,3.16,9.02,1.57,14.06,4.42
				c3.44,1.9,6.09,5.41,11.14,5.41c1.85,0,3.19-1.6,5.05-1.6h1.59c1.58,7.61,6.08,10.46,10.34,15.58c1.32,1.56,2.64,2.25,3.44,5.42
				c1.32,4.76-1.33,9.2,2.66,12.37h2.66c-0.55-0.63-0.55-1.9,0-2.86c0.24,0,9.25,6.67,10.07,8.56c1.06,2.56,1.06,5.72,4.77,6.71
				c0,0.62,0.81,1.89,1.32,1.89c1.86,0,6.11-1.89,7.97,0.34c2.12,2.52,4.78,8.59,9.01,8.59c2.11,0,3.45-1.6,4-4.8
				c-0.55-0.3-2.14-1.58-2.14-2.86c0-1.87,7.43-8.25,9.3-8.25c2.91,0,3.7,4.11,6.61,5.73c-0.53,1.27-1.6,1.9-1.6,3.17
				c0,0.95,2.46,1.85,3,2.49c0.1,0.06,0.35-0.1,0.64-0.34c-0.24,0.58-0.43,1.25-0.43,1.98c0,5.7,4.78,4.77,4.78,11.49
				c0,3.14-1.35,4.38-1.35,8.2c0,2.56,1.6,4.5,1.6,7.01v1.6l-1.06,2.52c0,0.97,1.34,2.57,2.66,3.21c-1.59,8.57-8.48,6.36-11.4,13.3
				c-2.12,5.14-3.99,13.7-11.15,13.7c1.13,14.02-5.57,12.72-5.57,20.02c0,4.42,0.54,10.76,4.25,10.76c1.86,0,1.59-1.55,3.97,0.31
				c-1.04,5.14-5.82,6.39-8.22,11.16c-1.06,1.27-2.91,5.73-2.91,9.56c0,5.72,3.71,12.07,6.62,15.56c1.06,1.27,3.19,0.61,3.98,2.52
				c0.8,2.25,1.33,6.67,3.19,8.92c0.8,0.92,2.65,0.33,3.43,2.22c2.4,6.05,3.97,10.16,5.83,17.45c1.86,6.98,7.17,12.7,9.3,20.38
				c1.06,4.43,5.02,6.96,5.02,12.04c0,3.8-1.05,7.32,1.07,9.83c4.78,5.73,8.47,10.19,15.92,13.05c3.7,1.3,5.29,2.56,8.47,6.38
				c2.94,3.48,5.85,2.85,9.82,5.07c4.77,2.86,9.03,7.61,11.42,15.22c0.79,3.5,2.11,22.26,2.11,25.43c0,5.09-2.38,13.67-2.38,18.14
				v13.93c-0.53,3.2-1.86,8.92-1.86,11.15V483c0,10.81-6.11,18.78-6.11,30.85c0,5.07-2.9,9.52-1.33,15.24l0.28,23.82
				c-1.6,7.65-1.6,13.02-3.45,20.34c-0.26,1.27-1.6,0.97-2.4,2.22c-1.33,2.21-1.84,6.71-2.91,8.91c-2.38,4.45-6.1,11.77-6.1,19.07
				c0,2.25,0.26,11.14,1.32,11.14c0,0,1.58,1.55,1.58,3.47c0,0.96-0.78,1.92-2.64,1.92c-0.79,5.69-2.64,8.27-2.64,14.28
				c0,3.51,1.59,10.82,3.7,10.82c1.86,0,2.13-2.55,3.99-3.51c0.78-0.29,1.6,0,2.37,0v4.79l-8.75,47.03c-3.97,0-2.12-5.74-6.89-5.74
				c-1.32,0-2.38,1.57-2.38,3.49h-0.26v3.21c0.53,3.46,3.72,8.59,3.72,11.09c0,5.1-6.12,7.34-6.12,13.03
				c0,5.4,3.98,16.56,3.98,23.52v4.44c0,6.68,7.16,5.43,7.16,13.07c0,1.89-1.06,3.79-1.85,5.37c0.79,0.64,1.34,1.27,2.11,1.6
				c-0.26,2.85-5.02,2.55-5.02,5.39c0,0.63,1.59,2.23,2.38,3.21c3.46,4.14,5.57,8.54,13,8.54c0.26,1.6,0.8,4.17,2.92,4.17h5.03
				c0,5.71,5.84,5.71,9.81,7.28c4.27,1.58,2.12,10.19,8.23,10.19h7.42c0.81,0,1.86-1.32,2.65-1.32h2.93c2.38,0,9.02-6.02,12.99-6.02
				c1.58,0,3.18,0.94,4.24-0.93c-7.17-4.14-14.3-7.01-20.15-14.02c-3.45-4.09-3.17-18.71-7.95-21.93c-1.6-0.29-3.98-4.12-3.98-7.3
				c0-6.02,1.34-10.47,4.52-14.28c2.39-2.86,6.63-0.93,8.49-5.38c1.59-4.17,0.8-8.27,2.92-10.83c3.71-4.43,10.33-5.37,10.33-14.26
				c0-9.86-11.92-5.45-11.92-17.84c0-5.43,3.71-9.84,7.95-11.12c1.86-0.31,6.63-0.62,7.16-4.13c1.6-7.96,1.6-13.67,6.36-19.36
				c-1.31-0.65-2.9-1.29-2.9-4.8c2.64,0,3.72,2.88,6.88,2.88c0.56,0,2.66-2.23,2.66-4.14c0-1.56-1.32-1.91-2.38-3.17
				c-0.81,0.28-2.4,2.23-3.74,2.23c-2.36,0-5.56-8.26-5.56-12.71c0-1.62,0.81-3.82,2.67-3.82c5.29,0,6.34,4.44,11.94,4.44
				c1.84,0,6.09-2.24,6.09-3.81v-3.17c1.86-4.47-0.8-14,2.65-18.11c2.39-2.89,11.14,0.6,15.39-0.91c6.37-2.57,11.93-1.01,16.43-6.39
				c2.65-3.22,4.52-5.23,6.93-9.7c1.32-2.52,1.31-4.6,1.31-8.47c0-3.45-4.24-3.45-5.04-6.98c-1.06-3.8-1.06-7.29-3.19-9.85
				c-0.79-0.95-4.76-2.5-4.76-5.37c0-0.97,1.31-1.6,2.11-1.6c3.98,0,7.44,3.82,11.14,3.82c1.87,0,7.78,3.47,12.03,3.47
				c12.2,0,14.25-15.86,19.55-25.43c4.51-8.24,9.82-9.21,14.59-17.76c2.14-4.15,1.86-6.33,3.72-10.48v0.31
				c2.65-6.7,5.29-12.1,10.61-15.26v-14.91c0-6.05-0.54-10.52,2.91-14.67c2.11-2.51,5.55-2.51,7.69-6.69
				c4.76-8.84,11.41-4.41,17.77-12.04c0.79-0.94,1.07-2.52,2.66-3.51c3.95-2.21,7.95-1.88,12.99-1.88c4.5,0,10.08-4.44,11.64-8.3
				c0.55-1.25,0.29-5.08,1.35-6.96c3.97-6.35,5.3-9.55,9.28-16.86c0.53-1.25,1.33-7.64,1.33-10.79c0-2.53,2.39-5.73,3.45-7.35
				c0.26-0.9,1.31-2.19,1.31-3.76c0-4.12,1.81-9.44,1.81-15.16c0-7.61-3.91-17.91,0.05-22.65c2.64-3.19,5.56-3.82,8.23-8.59
				c1.59-2.87,2.74-3.64,4.33-6.49c7.15-13.03,17.93-19.27,17.93-42.76C588.59,291.72,587.28,285.07,581.97,283.1z"/>
		</defs>
		<clipPath id="SVGID_4_">
			<use xlink:href="#SVGID_3_"  style="overflow:visible;"/>
		</clipPath>
		<g class="st2">
			<line class="st3" x1="77.2" y1="-137.34" x2="-148.19" y2="136.35"/>
			<path class="st3" d="M81.28-134.33c-1.82,1.06-224.32,272.63-225.39,273.69"/>
			<path class="st3" d="M85.36-131.32c-3.64,2.11-223.25,271.57-225.39,273.69"/>
			<path class="st3" d="M89.44-128.31c-5.46,3.17-222.17,270.51-225.39,273.69"/>
			<path class="st3" d="M93.53-125.31c-7.28,4.23-221.1,269.46-225.39,273.69"/>
			<path class="st3" d="M97.61-122.3c-9.1,5.28-220.02,268.4-225.39,273.69"/>
			<path class="st3" d="M101.69-119.29C90.77-112.95-117.26,148.05-123.7,154.4"/>
			<path class="st3" d="M105.77-116.28C93.03-108.88-112.11,150-119.62,157.41"/>
			<path class="st3" d="M109.85-113.27c-14.56,8.45-216.8,265.22-225.39,273.69"/>
			<path class="st3" d="M113.93-110.26C97.55-100.75-101.8,153.9-111.46,163.43"/>
			<path class="st3" d="M118.01-107.25c-18.2,10.57-214.66,263.1-225.39,273.69"/>
			<path class="st3" d="M122.1-104.25C102.07-92.62-91.49,157.8-103.3,169.45"/>
			<path class="st3" d="M126.18-101.24C104.33-88.56-86.33,159.75-99.21,172.45"/>
			<path class="st3" d="M130.26-98.23C106.59-84.49-81.18,161.7-95.13,175.46"/>
			<path class="st3" d="M134.34-95.22C108.86-80.43-76.02,163.65-91.05,178.47"/>
			<path class="st3" d="M138.42-92.21C111.12-76.36-70.87,165.6-86.97,181.48"/>
			<path class="st3" d="M142.5-89.2C113.38-72.3-65.71,167.55-82.89,184.49"/>
			<path class="st3" d="M146.59-86.19C115.64-68.23-60.56,169.5-78.81,187.5"/>
			<path class="st3" d="M150.67-83.18C117.9-64.16-55.4,171.45-74.73,190.51"/>
			<path class="st3" d="M154.75-80.18C120.16-60.1-50.25,173.4-70.64,193.51"/>
			<path class="st3" d="M158.83-77.17C122.42-56.03-45.09,175.34-66.56,196.52"/>
			<path class="st3" d="M162.91-74.16C124.68-51.97-39.94,177.29-62.48,199.53"/>
			<path class="st3" d="M166.99-71.15C126.94-47.9-34.78,179.24-58.4,202.54"/>
			<path class="st3" d="M171.07-68.14c-41.87,24.3-200.7,249.34-225.39,273.69"/>
			<path class="st3" d="M175.16-65.13C131.47-39.77-24.47,183.14-50.24,208.56"/>
			<path class="st3" d="M179.24-62.12C133.73-35.71-19.32,185.09-46.15,211.57"/>
			<path class="st3" d="M183.32-59.12C135.99-31.64-14.16,187.04-42.07,214.58"/>
			<path class="st3" d="M187.4-56.11C138.25-27.58-9.01,188.99-37.99,217.58"/>
			<path class="st3" d="M191.48-53.1C140.51-23.51-3.85,190.94-33.91,220.59"/>
			<path class="st3" d="M195.56-50.09C142.77-19.45,1.3,192.89-29.83,223.6"/>
			<path class="st3" d="M199.65-47.08C145.03-15.38,6.46,194.84-25.75,226.61"/>
			<path class="st3" d="M203.73-44.07C147.29-11.32,11.61,196.79-21.67,229.62"/>
			<path class="st3" d="M207.81-41.06C149.56-7.25,16.77,198.74-17.58,232.63"/>
			<path class="st3" d="M211.89-38.06C151.82-3.18,21.93,200.69-13.5,235.64"/>
			<path class="st3" d="M215.97-35.05C154.08,0.88,27.08,202.64-9.42,238.64"/>
			<path class="st3" d="M220.05-32.04C156.34,4.95,32.24,204.59-5.34,241.65"/>
			<path class="st3" d="M224.13-29.03C158.6,9.01,37.39,206.54-1.26,244.66"/>
			<path class="st3" d="M228.22-26.02C160.86,13.08,42.55,208.49,2.82,247.67"/>
			<path class="st3" d="M232.3-23.01C163.12,17.14,47.7,210.44,6.9,250.68"/>
			<path class="st3" d="M236.38-20c-71,41.21-183.52,232.39-225.39,273.69"/>
			<path class="st3" d="M240.46-16.99C167.64,25.27,58.01,214.34,15.07,256.7"/>
			<path class="st3" d="M244.54-13.99C169.91,29.34,63.17,216.29,19.15,259.71"/>
			<path class="st3" d="M248.62-10.98C172.17,33.4,68.32,218.24,23.23,262.71"/>
			<path class="st3" d="M252.7-7.97C174.43,37.47,73.48,220.19,27.31,265.72"/>
			<path class="st3" d="M256.79-4.96c-80.1,46.49-178.16,227.1-225.39,273.69"/>
			<path class="st3" d="M260.87-1.95C178.95,45.6,83.79,224.09,35.48,271.74"/>
			<path class="st3" d="M264.95,1.06C181.21,49.66,88.94,226.04,39.56,274.75"/>
			<path class="st3" d="M269.03,4.07C183.47,53.73,94.1,227.99,43.64,277.76"/>
			<path class="st3" d="M273.11,7.07C185.73,57.79,99.25,229.94,47.72,280.77"/>
			<path class="st3" d="M277.19,10.08c-89.2,51.78-172.79,221.8-225.39,273.69"/>
			<path class="st3" d="M281.28,13.09C190.26,65.93,109.56,233.84,55.88,286.78"/>
			<path class="st3" d="M285.36,16.1C192.52,69.99,114.72,235.79,59.96,289.79"/>
			<path class="st3" d="M289.44,19.11C194.78,74.06,119.87,237.74,64.05,292.8"/>
			<path class="st3" d="M293.52,22.12c-96.48,56-168.49,217.57-225.39,273.69"/>
			<path class="st3" d="M297.6,25.13C199.3,82.19,130.18,241.64,72.21,298.82"/>
			<path class="st3" d="M301.68,28.14C201.56,86.25,135.34,243.58,76.29,301.83"/>
			<path class="st3" d="M305.76,31.14C203.82,90.32,140.49,245.53,80.37,304.83"/>
			<path class="st3" d="M309.85,34.15C206.08,94.38,145.65,247.48,84.45,307.84"/>
			<path class="st3" d="M313.93,37.16C208.34,98.45,150.8,249.43,88.53,310.85"/>
			<path class="st3" d="M318.01,40.17c-107.4,62.34-162.05,211.21-225.39,273.69"/>
			<path class="st3" d="M322.09,43.18C212.87,106.58,161.11,253.33,96.7,316.87"/>
			<path class="st3" d="M326.17,46.19c-111.04,64.46-159.9,209.1-225.39,273.69"/>
			<path class="st3" d="M330.25,49.2c-112.86,65.51-158.83,208.04-225.39,273.69"/>
			<path class="st3" d="M334.33,52.2C219.65,118.77,176.58,259.18,108.94,325.9"/>
			<path class="st3" d="M338.42,55.21C221.91,122.84,181.73,261.13,113.02,328.9"/>
			<path class="st3" d="M342.5,58.22c-118.33,68.68-155.61,204.86-225.39,273.69"/>
			<path class="st3" d="M346.58,61.23c-120.15,69.74-154.54,203.8-225.39,273.69"/>
			<path class="st3" d="M350.66,64.24c-121.97,70.8-153.46,202.74-225.39,273.69"/>
			<path class="st3" d="M354.74,67.25C230.96,139.1,202.35,268.93,129.35,340.94"/>
			<path class="st3" d="M358.82,70.26c-125.61,72.91-151.32,200.62-225.39,273.69"/>
			<path class="st3" d="M362.91,73.26c-127.43,73.97-150.24,199.57-225.39,273.69"/>
			<path class="st3" d="M366.99,76.27C237.74,151.3,217.82,274.78,141.59,349.96"/>
			<path class="st3" d="M371.07,79.28C240,155.36,222.97,276.73,145.68,352.97"/>
			<path class="st3" d="M375.15,82.29c-132.89,77.14-147.02,196.39-225.39,273.69"/>
			<path class="st3" d="M379.23,85.3c-134.71,78.19-145.95,195.33-225.39,273.69"/>
			<path class="st3" d="M383.31,88.31C246.78,167.56,238.44,282.58,157.92,362"/>
			<path class="st3" d="M387.39,91.32C249.04,171.62,243.59,284.53,162,365.01"/>
			<path class="st3" d="M391.48,94.33c-140.17,81.36-142.73,192.15-225.39,273.69"/>
			<path class="st3" d="M395.56,97.33C253.57,179.75,253.9,288.43,170.17,371.02"/>
			<path class="st3" d="M399.64,100.34c-143.81,83.48-140.58,190.04-225.39,273.69"/>
			<path class="st3" d="M403.72,103.35c-145.63,84.53-139.51,188.98-225.39,273.69"/>
			<path class="st3" d="M407.8,106.36c-147.45,85.59-138.43,187.92-225.39,273.69"/>
			<path class="st3" d="M411.88,109.37c-149.27,86.65-137.36,186.86-225.39,273.69"/>
			<path class="st3" d="M415.96,112.38c-151.09,87.7-136.29,185.8-225.39,273.69"/>
			<path class="st3" d="M420.05,115.39c-152.91,88.76-135.21,184.74-225.39,273.69"/>
			<path class="st3" d="M424.13,118.39c-154.73,89.82-134.14,183.68-225.39,273.69"/>
			<path class="st3" d="M428.21,121.4c-156.55,90.87-133.07,182.62-225.39,273.69"/>
			<path class="st3" d="M432.29,124.41C273.92,216.34,300.3,305.98,206.9,398.1"/>
			<path class="st3" d="M436.37,127.42c-160.19,92.99-130.92,180.51-225.39,273.69"/>
			<path class="st3" d="M440.45,130.43c-162.01,94.04-129.84,179.45-225.39,273.69"/>
			<path class="st3" d="M444.54,133.44c-163.84,95.1-128.77,178.39-225.39,273.69"/>
			<path class="st3" d="M448.62,136.45c-165.66,96.16-127.7,177.33-225.39,273.69"/>
			<path class="st3" d="M452.7,139.45c-167.48,97.21-126.62,176.27-225.39,273.69"/>
			<path class="st3" d="M456.78,142.46c-169.3,98.27-125.55,175.21-225.39,273.69"/>
			<path class="st3" d="M460.86,145.47C289.74,244.8,336.38,319.62,235.47,419.16"/>
			<path class="st3" d="M464.94,148.48c-172.94,100.38-123.4,173.09-225.39,273.69"/>
			<path class="st3" d="M469.02,151.49C294.27,252.93,346.69,323.52,243.63,425.18"/>
			<path class="st3" d="M473.11,154.5C296.53,257,351.85,325.47,247.71,428.19"/>
			<path class="st3" d="M477.19,157.51C298.79,261.06,357,327.42,251.8,431.2"/>
			<path class="st3" d="M481.27,160.52C301.05,265.13,362.16,329.37,255.88,434.21"/>
			<path class="st3" d="M485.35,163.52c-182.04,105.67-118.04,167.8-225.39,273.69"/>
			<path class="st3" d="M489.43,166.53C305.57,273.26,372.47,333.27,264.04,440.22"/>
			<path class="st3" d="M493.51,169.54C307.83,277.32,377.63,335.22,268.12,443.23"/>
			<path class="st3" d="M497.59,172.55C310.09,281.39,382.78,337.17,272.2,446.24"/>
			<path class="st3" d="M501.68,175.56C312.36,285.45,387.94,339.12,276.28,449.25"/>
			<path class="st3" d="M505.76,178.57c-191.14,110.95-112.67,162.5-225.39,273.69"/>
			<path class="st3" d="M509.84,181.58C316.88,293.58,398.25,343.02,284.45,455.27"/>
			<path class="st3" d="M513.92,184.58C319.14,297.65,403.4,344.97,288.53,458.28"/>
			<path class="st3" d="M518,187.59C321.4,301.71,408.56,346.92,292.61,461.28"/>
			<path class="st3" d="M522.08,190.6C323.66,305.78,413.71,348.87,296.69,464.29"/>
			<path class="st3" d="M526.17,193.61C325.92,309.84,418.87,350.82,300.77,467.3"/>
			<path class="st3" d="M530.25,196.62C328.18,313.91,424.02,352.77,304.85,470.31"/>
			<path class="st3" d="M534.33,199.63C330.44,317.98,429.18,354.72,308.94,473.32"/>
			<path class="st3" d="M538.41,202.64c-205.7,119.4-104.08,154.03-225.39,273.69"/>
			<path class="st3" d="M542.49,205.65C334.97,326.11,439.49,358.62,317.1,479.34"/>
			<path class="st3" d="M546.57,208.65C337.23,330.17,444.64,360.57,321.18,482.34"/>
			<path class="st3" d="M550.65,211.66C339.49,334.24,449.8,362.52,325.26,485.35"/>
			<path class="st3" d="M554.74,214.67c-212.99,123.63-99.78,149.8-225.39,273.69"/>
			<path class="st3" d="M558.82,217.68c-214.81,124.69-98.71,148.74-225.39,273.69"/>
			<path class="st3" d="M562.9,220.69c-216.63,125.74-97.64,147.68-225.39,273.69"/>
			<path class="st3" d="M566.98,223.7c-218.45,126.8-96.56,146.62-225.39,273.69"/>
			<path class="st3" d="M571.06,226.71C350.79,354.56,475.57,372.27,345.67,500.4"/>
			<path class="st3" d="M575.14,229.71c-222.09,128.91-94.42,144.5-225.39,273.69"/>
			<path class="st3" d="M579.23,232.72c-223.91,129.97-93.34,143.44-225.39,273.69"/>
			<path class="st3" d="M583.31,235.73c-225.73,131.03-92.27,142.38-225.39,273.69"/>
			<path class="st3" d="M587.39,238.74C359.84,370.82,496.19,380.06,362,512.43"/>
			<path class="st3" d="M591.47,241.75C362.1,374.89,501.35,382.01,366.08,515.44"/>
			<path class="st3" d="M595.55,244.76c-231.19,134.2-89.05,139.21-225.39,273.69"/>
			<path class="st3" d="M599.63,247.77c-233.01,135.25-87.98,138.15-225.39,273.69"/>
			<path class="st3" d="M603.71,250.77c-234.83,136.31-86.9,137.09-225.39,273.69"/>
			<path class="st3" d="M607.8,253.78C371.14,391.15,521.97,389.81,382.4,527.47"/>
			<path class="st3" d="M611.88,256.79c-238.47,138.42-84.75,134.97-225.39,273.69"/>
			<path class="st3" d="M615.96,259.8c-240.29,139.48-83.68,133.91-225.39,273.69"/>
			<path class="st3" d="M620.04,262.81C377.93,403.35,537.43,395.66,394.65,536.5"/>
			<path class="st3" d="M624.12,265.82c-243.93,141.59-81.53,131.79-225.39,273.69"/>
			<path class="st3" d="M628.2,268.83c-245.75,142.65-80.46,130.74-225.39,273.69"/>
			<path class="st3" d="M632.28,271.84C384.71,415.54,552.9,401.51,406.89,545.53"/>
			<path class="st3" d="M636.37,274.84c-249.39,144.76-78.31,128.62-225.39,273.69"/>
			<path class="st3" d="M640.45,277.85c-251.21,145.82-77.24,127.56-225.39,273.69"/>
			<path class="st3" d="M644.53,280.86c-253.03,146.88-76.17,126.5-225.39,273.69"/>
			<path class="st3" d="M648.61,283.87C393.76,431.8,573.52,409.31,423.22,557.56"/>
			<path class="st3" d="M652.69,286.88C396.02,435.87,578.67,411.26,427.3,560.57"/>
			<path class="st3" d="M656.77,289.89c-258.5,150.05-72.95,123.32-225.39,273.69"/>
			<path class="st3" d="M660.86,292.9C400.54,444,588.98,415.16,435.46,566.59"/>
			<path class="st3" d="M664.94,295.9C402.8,448.07,594.14,417.11,439.54,569.6"/>
			<path class="st3" d="M669.02,298.91C405.06,452.13,599.29,419.06,443.63,572.6"/>
			<path class="st3" d="M673.1,301.92C407.32,456.2,604.45,421.01,447.71,575.61"/>
			<path class="st3" d="M677.18,304.93c-267.6,155.33-67.58,118.03-225.39,273.69"/>
			<path class="st3" d="M681.26,307.94c-269.42,156.39-66.5,116.97-225.39,273.69"/>
			<path class="st3" d="M685.34,310.95c-271.24,157.44-65.43,115.91-225.39,273.69"/>
			<path class="st3" d="M689.43,313.96c-273.06,158.5-64.36,114.85-225.39,273.69"/>
			<path class="st3" d="M693.51,316.96c-274.88,159.56-63.28,113.79-225.39,273.69"/>
			<path class="st3" d="M697.59,319.97c-276.7,160.61-62.21,112.73-225.39,273.69"/>
			<path class="st3" d="M701.67,322.98c-278.52,161.67-61.14,111.67-225.39,273.69"/>
			<path class="st3" d="M705.75,325.99c-280.34,162.73-60.06,110.62-225.39,273.69"/>
			<path class="st3" d="M709.83,329c-282.16,163.78-58.99,109.56-225.39,273.69"/>
			<path class="st3" d="M713.91,332.01C429.93,496.85,656,440.51,488.52,605.7"/>
			<path class="st3" d="M718,335.02c-285.8,165.9-56.84,107.44-225.39,273.69"/>
			<path class="st3" d="M722.08,338.03c-287.62,166.95-55.77,106.38-225.39,273.69"/>
			<path class="st3" d="M726.16,341.03c-289.44,168.01-54.69,105.32-225.39,273.69"/>
			<path class="st3" d="M730.24,344.04C438.98,513.11,676.62,448.3,504.85,617.73"/>
			<path class="st3" d="M734.32,347.05c-293.08,170.12-52.55,103.2-225.39,273.69"/>
			<path class="st3" d="M738.4,350.06C443.5,521.24,686.93,452.2,513.01,623.75"/>
			<path class="st3" d="M742.49,353.07c-296.72,172.24-50.4,101.09-225.39,273.69"/>
			<path class="st3" d="M746.57,356.08C448.02,529.37,697.24,456.1,521.17,629.77"/>
			<path class="st3" d="M750.65,359.09c-300.36,174.35-48.25,98.97-225.39,273.69"/>
			<path class="st3" d="M754.73,362.09C452.54,537.5,707.55,460,529.34,635.79"/>
			<path class="st3" d="M758.81,365.1c-304.01,176.46-46.11,96.85-225.39,273.69"/>
			<path class="st3" d="M762.89,368.11C457.07,545.63,717.86,463.9,537.5,641.8"/>
			<path class="st3" d="M766.97,371.12c-307.65,178.58-43.96,94.73-225.39,273.69"/>
			<path class="st3" d="M771.06,374.13c-309.47,179.63-42.89,93.67-225.39,273.69"/>
			<path class="st3" d="M775.14,377.14c-311.29,180.69-41.81,92.61-225.39,273.69"/>
		</g>
	</g>
</g>
</svg>
