<svg width="678" height="345" viewBox="0 0 678 345" fill="none" xmlns="http://www.w3.org/2000/svg">
<path d="M126.392 278.888H129.451L129.87 291.685H125.973L126.392 278.888ZM129.972 274.965C129.972 275.532 129.777 275.997 129.388 276.361C128.998 276.725 128.507 276.907 127.915 276.907C127.323 276.907 126.832 276.725 126.442 276.361C126.053 275.997 125.858 275.532 125.858 274.965C125.858 274.398 126.045 273.932 126.417 273.568C126.798 273.204 127.297 273.022 127.915 273.022C128.533 273.022 129.028 273.204 129.4 273.568C129.781 273.932 129.972 274.398 129.972 274.965ZM143.657 283.191H136.979L135.71 287H131.66L138.541 268.516H142.07L148.989 287H144.939L143.657 283.191ZM138.008 280.106H142.629L140.306 273.188L138.008 280.106ZM158.549 285.604C157.643 286.704 156.391 287.254 154.791 287.254C153.318 287.254 152.193 286.831 151.414 285.984C150.644 285.138 150.25 283.898 150.233 282.265V273.264H153.902V282.138C153.902 283.568 154.554 284.283 155.857 284.283C157.102 284.283 157.956 283.852 158.422 282.988V273.264H162.104V287H158.65L158.549 285.604ZM156.911 267.5H160.91L157.394 271.436H154.41L156.911 267.5ZM168.248 273.264L168.362 274.851C169.344 273.623 170.66 273.01 172.311 273.01C173.766 273.01 174.85 273.437 175.561 274.292C176.271 275.147 176.635 276.425 176.652 278.126V287H172.983V278.215C172.983 277.436 172.814 276.873 172.476 276.526C172.137 276.171 171.574 275.993 170.787 275.993C169.755 275.993 168.98 276.433 168.464 277.313V287H164.795V273.264H168.248ZM189.297 273.264L189.411 274.851C190.393 273.623 191.709 273.01 193.359 273.01C194.815 273.01 195.898 273.437 196.609 274.292C197.32 275.147 197.684 276.425 197.701 278.126V287H194.032V278.215C194.032 277.436 193.863 276.873 193.524 276.526C193.186 276.171 192.623 275.993 191.836 275.993C190.803 275.993 190.029 276.433 189.513 277.313V287H185.844V273.264H189.297ZM199.923 280.005C199.923 278.642 200.185 277.428 200.71 276.361C201.235 275.295 201.988 274.47 202.97 273.886C203.96 273.302 205.107 273.01 206.41 273.01C208.264 273.01 209.774 273.577 210.942 274.711C212.119 275.845 212.775 277.385 212.91 279.332L212.936 280.271C212.936 282.379 212.347 284.072 211.171 285.35C209.994 286.619 208.416 287.254 206.436 287.254C204.455 287.254 202.872 286.619 201.688 285.35C200.511 284.08 199.923 282.354 199.923 280.17V280.005ZM203.592 280.271C203.592 281.575 203.837 282.574 204.328 283.268C204.819 283.953 205.521 284.296 206.436 284.296C207.324 284.296 208.018 283.957 208.518 283.28C209.017 282.595 209.267 281.503 209.267 280.005C209.267 278.727 209.017 277.737 208.518 277.034C208.018 276.332 207.316 275.98 206.41 275.98C205.513 275.98 204.819 276.332 204.328 277.034C203.837 277.728 203.592 278.807 203.592 280.271ZM225.25 274.762C226.223 273.594 227.446 273.01 228.919 273.01C231.898 273.01 233.409 274.741 233.451 278.202V287H229.782V278.304C229.782 277.517 229.613 276.937 229.274 276.564C228.936 276.184 228.373 275.993 227.586 275.993C226.511 275.993 225.732 276.408 225.25 277.237V287H221.581V267.5H225.25V274.762ZM244.179 287C244.009 286.67 243.887 286.259 243.811 285.769C242.922 286.759 241.767 287.254 240.345 287.254C238.999 287.254 237.882 286.865 236.993 286.086C236.113 285.307 235.673 284.326 235.673 283.141C235.673 281.685 236.21 280.568 237.285 279.789C238.368 279.01 239.93 278.617 241.97 278.608H243.658V277.821C243.658 277.187 243.493 276.679 243.163 276.298C242.841 275.917 242.329 275.727 241.627 275.727C241.009 275.727 240.522 275.875 240.167 276.171C239.82 276.467 239.646 276.873 239.646 277.39H235.978C235.978 276.594 236.223 275.858 236.714 275.181C237.205 274.504 237.899 273.975 238.796 273.594C239.693 273.204 240.7 273.01 241.817 273.01C243.51 273.01 244.852 273.437 245.842 274.292C246.84 275.138 247.34 276.332 247.34 277.872V283.826C247.348 285.13 247.53 286.116 247.886 286.784V287H244.179ZM241.145 284.448C241.686 284.448 242.186 284.33 242.643 284.093C243.1 283.847 243.438 283.521 243.658 283.115V280.754H242.287C240.451 280.754 239.473 281.389 239.354 282.658L239.342 282.874C239.342 283.331 239.503 283.708 239.824 284.004C240.146 284.3 240.586 284.448 241.145 284.448ZM257.598 283.204C257.598 282.756 257.373 282.404 256.925 282.15C256.485 281.888 255.774 281.655 254.792 281.452C251.525 280.767 249.892 279.379 249.892 277.288C249.892 276.069 250.395 275.054 251.402 274.241C252.418 273.42 253.743 273.01 255.376 273.01C257.119 273.01 258.512 273.42 259.553 274.241C260.602 275.062 261.127 276.129 261.127 277.44H257.458C257.458 276.916 257.289 276.484 256.95 276.146C256.612 275.799 256.083 275.625 255.363 275.625C254.745 275.625 254.267 275.765 253.929 276.044C253.59 276.323 253.421 276.679 253.421 277.11C253.421 277.517 253.611 277.847 253.992 278.101C254.382 278.346 255.033 278.562 255.947 278.748C256.861 278.926 257.632 279.129 258.258 279.357C260.196 280.068 261.165 281.3 261.165 283.052C261.165 284.304 260.628 285.32 259.553 286.099C258.478 286.869 257.09 287.254 255.389 287.254C254.238 287.254 253.214 287.051 252.316 286.645C251.428 286.23 250.729 285.667 250.222 284.956C249.714 284.237 249.46 283.462 249.46 282.633H252.938C252.972 283.285 253.214 283.784 253.662 284.131C254.111 284.478 254.712 284.651 255.465 284.651C256.167 284.651 256.696 284.52 257.052 284.258C257.416 283.987 257.598 283.636 257.598 283.204ZM277.732 276.704C277.233 276.636 276.793 276.603 276.412 276.603C275.024 276.603 274.114 277.072 273.683 278.012V287H270.014V273.264H273.479L273.581 274.901C274.317 273.64 275.337 273.01 276.641 273.01C277.047 273.01 277.428 273.065 277.783 273.175L277.732 276.704ZM285.578 287.254C283.564 287.254 281.922 286.636 280.652 285.4C279.391 284.165 278.761 282.519 278.761 280.462V280.106C278.761 278.727 279.027 277.495 279.561 276.412C280.094 275.32 280.847 274.482 281.82 273.898C282.802 273.306 283.919 273.01 285.172 273.01C287.051 273.01 288.528 273.602 289.603 274.787C290.686 275.972 291.228 277.652 291.228 279.827V281.325H282.48C282.599 282.222 282.954 282.942 283.547 283.483C284.148 284.025 284.905 284.296 285.819 284.296C287.233 284.296 288.337 283.784 289.133 282.76L290.936 284.778C290.385 285.557 289.641 286.166 288.701 286.606C287.762 287.038 286.721 287.254 285.578 287.254ZM285.159 275.98C284.431 275.98 283.839 276.226 283.382 276.717C282.933 277.208 282.646 277.91 282.519 278.824H287.622V278.532C287.605 277.72 287.385 277.093 286.962 276.653C286.539 276.205 285.938 275.98 285.159 275.98ZM301.282 287C301.113 286.67 300.99 286.259 300.914 285.769C300.025 286.759 298.87 287.254 297.448 287.254C296.103 287.254 294.985 286.865 294.097 286.086C293.216 285.307 292.776 284.326 292.776 283.141C292.776 281.685 293.314 280.568 294.389 279.789C295.472 279.01 297.034 278.617 299.073 278.608H300.762V277.821C300.762 277.187 300.597 276.679 300.267 276.298C299.945 275.917 299.433 275.727 298.73 275.727C298.113 275.727 297.626 275.875 297.271 276.171C296.924 276.467 296.75 276.873 296.75 277.39H293.081C293.081 276.594 293.326 275.858 293.817 275.181C294.308 274.504 295.002 273.975 295.899 273.594C296.797 273.204 297.804 273.01 298.921 273.01C300.614 273.01 301.955 273.437 302.945 274.292C303.944 275.138 304.443 276.332 304.443 277.872V283.826C304.452 285.13 304.634 286.116 304.989 286.784V287H301.282ZM298.248 284.448C298.79 284.448 299.289 284.33 299.746 284.093C300.203 283.847 300.542 283.521 300.762 283.115V280.754H299.391C297.554 280.754 296.576 281.389 296.458 282.658L296.445 282.874C296.445 283.331 296.606 283.708 296.928 284.004C297.249 284.3 297.689 284.448 298.248 284.448ZM311.134 287H307.452V267.5H311.134V287ZM318.04 287H314.358V273.264H318.04V287ZM314.143 269.709C314.143 269.159 314.325 268.706 314.688 268.351C315.061 267.995 315.564 267.817 316.199 267.817C316.826 267.817 317.325 267.995 317.697 268.351C318.07 268.706 318.256 269.159 318.256 269.709C318.256 270.268 318.065 270.725 317.685 271.08C317.312 271.436 316.817 271.613 316.199 271.613C315.581 271.613 315.082 271.436 314.701 271.08C314.329 270.725 314.143 270.268 314.143 269.709ZM325.289 284.042H332.005V287H320.604V284.766L327.066 276.234H320.795V273.264H331.802V275.435L325.289 284.042ZM342.263 287C342.093 286.67 341.971 286.259 341.895 285.769C341.006 286.759 339.851 287.254 338.429 287.254C337.083 287.254 335.966 286.865 335.077 286.086C334.197 285.307 333.757 284.326 333.757 283.141C333.757 281.685 334.294 280.568 335.369 279.789C336.452 279.01 338.014 278.617 340.054 278.608H341.742V277.821C341.742 277.187 341.577 276.679 341.247 276.298C340.925 275.917 340.413 275.727 339.711 275.727C339.093 275.727 338.606 275.875 338.251 276.171C337.904 276.467 337.73 276.873 337.73 277.39H334.062C334.062 276.594 334.307 275.858 334.798 275.181C335.289 274.504 335.983 273.975 336.88 273.594C337.777 273.204 338.784 273.01 339.901 273.01C341.594 273.01 342.936 273.437 343.926 274.292C344.924 275.138 345.424 276.332 345.424 277.872V283.826C345.432 285.13 345.614 286.116 345.97 286.784V287H342.263ZM339.229 284.448C339.77 284.448 340.27 284.33 340.727 284.093C341.184 283.847 341.522 283.521 341.742 283.115V280.754H340.371C338.535 280.754 337.557 281.389 337.438 282.658L337.426 282.874C337.426 283.331 337.587 283.708 337.908 284.004C338.23 284.3 338.67 284.448 339.229 284.448ZM347.671 280.03C347.671 277.889 348.149 276.184 349.105 274.914C350.07 273.645 351.386 273.01 353.054 273.01C354.391 273.01 355.495 273.509 356.367 274.508V267.5H360.049V287H356.735L356.558 285.54C355.644 286.683 354.467 287.254 353.028 287.254C351.412 287.254 350.113 286.619 349.131 285.35C348.158 284.072 347.671 282.299 347.671 280.03ZM351.34 280.297C351.34 281.583 351.564 282.569 352.013 283.255C352.461 283.94 353.113 284.283 353.968 284.283C355.102 284.283 355.902 283.805 356.367 282.849V277.428C355.91 276.471 355.119 275.993 353.993 275.993C352.224 275.993 351.34 277.428 351.34 280.297ZM362.321 280.005C362.321 278.642 362.584 277.428 363.108 276.361C363.633 275.295 364.386 274.47 365.368 273.886C366.358 273.302 367.505 273.01 368.809 273.01C370.662 273.01 372.173 273.577 373.341 274.711C374.517 275.845 375.173 277.385 375.309 279.332L375.334 280.271C375.334 282.379 374.746 284.072 373.569 285.35C372.393 286.619 370.814 287.254 368.834 287.254C366.854 287.254 365.271 286.619 364.086 285.35C362.91 284.08 362.321 282.354 362.321 280.17V280.005ZM365.99 280.271C365.99 281.575 366.236 282.574 366.727 283.268C367.217 283.953 367.92 284.296 368.834 284.296C369.723 284.296 370.417 283.957 370.916 283.28C371.415 282.595 371.665 281.503 371.665 280.005C371.665 278.727 371.415 277.737 370.916 277.034C370.417 276.332 369.714 275.98 368.809 275.98C367.911 275.98 367.217 276.332 366.727 277.034C366.236 277.728 365.99 278.807 365.99 280.271ZM392.295 285.604C391.389 286.704 390.137 287.254 388.537 287.254C387.064 287.254 385.939 286.831 385.16 285.984C384.39 285.138 383.996 283.898 383.979 282.265V273.264H387.648V282.138C387.648 283.568 388.3 284.283 389.604 284.283C390.848 284.283 391.702 283.852 392.168 282.988V273.264H395.85V287H392.396L392.295 285.604ZM401.994 273.264L402.108 274.851C403.09 273.623 404.406 273.01 406.057 273.01C407.512 273.01 408.596 273.437 409.307 274.292C410.018 275.147 410.382 276.425 410.398 278.126V287H406.729V278.215C406.729 277.436 406.56 276.873 406.222 276.526C405.883 276.171 405.32 275.993 404.533 275.993C403.501 275.993 402.726 276.433 402.21 277.313V287H398.541V273.264H401.994ZM421.151 287C420.982 286.67 420.859 286.259 420.783 285.769C419.895 286.759 418.739 287.254 417.317 287.254C415.972 287.254 414.854 286.865 413.966 286.086C413.086 285.307 412.646 284.326 412.646 283.141C412.646 281.685 413.183 280.568 414.258 279.789C415.341 279.01 416.903 278.617 418.942 278.608H420.631V277.821C420.631 277.187 420.466 276.679 420.136 276.298C419.814 275.917 419.302 275.727 418.6 275.727C417.982 275.727 417.495 275.875 417.14 276.171C416.793 276.467 416.619 276.873 416.619 277.39H412.95C412.95 276.594 413.196 275.858 413.687 275.181C414.177 274.504 414.871 273.975 415.769 273.594C416.666 273.204 417.673 273.01 418.79 273.01C420.483 273.01 421.824 273.437 422.814 274.292C423.813 275.138 424.312 276.332 424.312 277.872V283.826C424.321 285.13 424.503 286.116 424.858 286.784V287H421.151ZM418.117 284.448C418.659 284.448 419.158 284.33 419.615 284.093C420.072 283.847 420.411 283.521 420.631 283.115V280.754H419.26C417.423 280.754 416.446 281.389 416.327 282.658L416.314 282.874C416.314 283.331 416.475 283.708 416.797 284.004C417.118 284.3 417.559 284.448 418.117 284.448ZM445.983 280.259C445.983 282.459 445.514 284.177 444.574 285.413C443.635 286.64 442.323 287.254 440.639 287.254C439.149 287.254 437.96 286.683 437.071 285.54L436.906 287H433.605V267.5H437.274V274.495C438.121 273.505 439.234 273.01 440.613 273.01C442.289 273.01 443.601 273.628 444.549 274.863C445.505 276.09 445.983 277.821 445.983 280.056V280.259ZM442.314 279.992C442.314 278.604 442.094 277.593 441.654 276.958C441.214 276.315 440.558 275.993 439.687 275.993C438.519 275.993 437.715 276.471 437.274 277.428V282.849C437.723 283.813 438.535 284.296 439.712 284.296C440.897 284.296 441.675 283.712 442.048 282.544C442.226 281.985 442.314 281.135 442.314 279.992ZM456.482 285.604C455.577 286.704 454.324 287.254 452.725 287.254C451.252 287.254 450.126 286.831 449.348 285.984C448.577 285.138 448.184 283.898 448.167 282.265V273.264H451.836V282.138C451.836 283.568 452.488 284.283 453.791 284.283C455.035 284.283 455.89 283.852 456.355 282.988V273.264H460.037V287H456.584L456.482 285.604ZM454.845 267.5H458.844L455.327 271.436H452.344L454.845 267.5ZM470.244 283.204C470.244 282.756 470.02 282.404 469.571 282.15C469.131 281.888 468.42 281.655 467.438 281.452C464.172 280.767 462.538 279.379 462.538 277.288C462.538 276.069 463.042 275.054 464.049 274.241C465.064 273.42 466.389 273.01 468.022 273.01C469.766 273.01 471.158 273.42 472.199 274.241C473.249 275.062 473.773 276.129 473.773 277.44H470.104C470.104 276.916 469.935 276.484 469.597 276.146C469.258 275.799 468.729 275.625 468.01 275.625C467.392 275.625 466.914 275.765 466.575 276.044C466.237 276.323 466.067 276.679 466.067 277.11C466.067 277.517 466.258 277.847 466.639 278.101C467.028 278.346 467.68 278.562 468.594 278.748C469.508 278.926 470.278 279.129 470.904 279.357C472.842 280.068 473.812 281.3 473.812 283.052C473.812 284.304 473.274 285.32 472.199 286.099C471.124 286.869 469.736 287.254 468.035 287.254C466.884 287.254 465.86 287.051 464.963 286.645C464.074 286.23 463.376 285.667 462.868 284.956C462.36 284.237 462.106 283.462 462.106 282.633H465.585C465.619 283.285 465.86 283.784 466.309 284.131C466.757 284.478 467.358 284.651 468.111 284.651C468.814 284.651 469.343 284.52 469.698 284.258C470.062 283.987 470.244 283.636 470.244 283.204ZM475.614 280.005C475.614 277.847 476.092 276.141 477.049 274.889C478.014 273.636 479.334 273.01 481.01 273.01C482.482 273.01 483.655 273.573 484.526 274.698L484.768 273.264H487.992V292.281H484.311V285.819C483.464 286.776 482.355 287.254 480.984 287.254C479.351 287.254 478.048 286.619 477.074 285.35C476.101 284.08 475.614 282.299 475.614 280.005ZM479.283 280.271C479.283 281.583 479.512 282.582 479.969 283.268C480.434 283.953 481.086 284.296 481.924 284.296C483.049 284.296 483.845 283.847 484.311 282.95V277.275C483.854 276.412 483.066 275.98 481.949 275.98C481.103 275.98 480.447 276.323 479.981 277.009C479.516 277.694 479.283 278.782 479.283 280.271ZM499.113 285.604C498.208 286.704 496.955 287.254 495.355 287.254C493.883 287.254 492.757 286.831 491.979 285.984C491.208 285.138 490.815 283.898 490.798 282.265V273.264H494.467V282.138C494.467 283.568 495.118 284.283 496.422 284.283C497.666 284.283 498.521 283.852 498.986 282.988V273.264H502.668V287H499.215L499.113 285.604ZM511.758 287.254C509.743 287.254 508.102 286.636 506.832 285.4C505.571 284.165 504.94 282.519 504.94 280.462V280.106C504.94 278.727 505.207 277.495 505.74 276.412C506.273 275.32 507.027 274.482 508 273.898C508.982 273.306 510.099 273.01 511.352 273.01C513.23 273.01 514.707 273.602 515.782 274.787C516.866 275.972 517.407 277.652 517.407 279.827V281.325H508.66C508.779 282.222 509.134 282.942 509.727 283.483C510.327 284.025 511.085 284.296 511.999 284.296C513.412 284.296 514.517 283.784 515.312 282.76L517.115 284.778C516.565 285.557 515.82 286.166 514.881 286.606C513.941 287.038 512.9 287.254 511.758 287.254ZM511.339 275.98C510.611 275.98 510.019 276.226 509.562 276.717C509.113 277.208 508.825 277.91 508.698 278.824H513.802V278.532C513.785 277.72 513.565 277.093 513.142 276.653C512.718 276.205 512.118 275.98 511.339 275.98ZM518.931 280.03C518.931 277.889 519.409 276.184 520.365 274.914C521.33 273.645 522.646 273.01 524.313 273.01C525.651 273.01 526.755 273.509 527.627 274.508V267.5H531.309V287H527.995L527.817 285.54C526.903 286.683 525.727 287.254 524.288 287.254C522.672 287.254 521.372 286.619 520.391 285.35C519.417 284.072 518.931 282.299 518.931 280.03ZM522.6 280.297C522.6 281.583 522.824 282.569 523.272 283.255C523.721 283.94 524.373 284.283 525.228 284.283C526.362 284.283 527.161 283.805 527.627 282.849V277.428C527.17 276.471 526.379 275.993 525.253 275.993C523.484 275.993 522.6 277.428 522.6 280.297ZM542.112 287C541.943 286.67 541.82 286.259 541.744 285.769C540.855 286.759 539.7 287.254 538.278 287.254C536.933 287.254 535.815 286.865 534.927 286.086C534.047 285.307 533.606 284.326 533.606 283.141C533.606 281.685 534.144 280.568 535.219 279.789C536.302 279.01 537.864 278.617 539.903 278.608H541.592V277.821C541.592 277.187 541.427 276.679 541.097 276.298C540.775 275.917 540.263 275.727 539.561 275.727C538.943 275.727 538.456 275.875 538.101 276.171C537.754 276.467 537.58 276.873 537.58 277.39H533.911C533.911 276.594 534.157 275.858 534.647 275.181C535.138 274.504 535.832 273.975 536.729 273.594C537.627 273.204 538.634 273.01 539.751 273.01C541.444 273.01 542.785 273.437 543.775 274.292C544.774 275.138 545.273 276.332 545.273 277.872V283.826C545.282 285.13 545.464 286.116 545.819 286.784V287H542.112ZM539.078 284.448C539.62 284.448 540.119 284.33 540.576 284.093C541.033 283.847 541.372 283.521 541.592 283.115V280.754H540.221C538.384 280.754 537.407 281.389 537.288 282.658L537.275 282.874C537.275 283.331 537.436 283.708 537.758 284.004C538.079 284.3 538.52 284.448 539.078 284.448ZM551.824 281.325H548.777L548.346 268.516H552.256L551.824 281.325ZM550.301 283.331C550.919 283.331 551.414 283.513 551.786 283.877C552.167 284.241 552.357 284.706 552.357 285.273C552.357 285.832 552.167 286.293 551.786 286.657C551.414 287.021 550.919 287.203 550.301 287.203C549.691 287.203 549.196 287.021 548.815 286.657C548.443 286.293 548.257 285.832 548.257 285.273C548.257 284.715 548.443 284.254 548.815 283.89C549.196 283.517 549.691 283.331 550.301 283.331ZM105.551 297.359V307.812C105.551 309.473 105.017 310.791 103.95 311.765C102.89 312.731 101.476 313.215 99.707 313.215C97.9167 313.215 96.4951 312.739 95.4424 311.786C94.3896 310.826 93.8633 309.498 93.8633 307.801V297.359H96.5703V307.822C96.5703 308.868 96.8353 309.666 97.3652 310.218C97.8952 310.769 98.6758 311.045 99.707 311.045C101.798 311.045 102.844 309.942 102.844 307.736V297.359H105.551ZM111.48 298.552V301.377H113.532V303.311H111.48V309.799C111.48 310.243 111.566 310.565 111.738 310.766C111.917 310.959 112.232 311.056 112.684 311.056C112.984 311.056 113.289 311.02 113.597 310.948V312.968C113.002 313.132 112.429 313.215 111.878 313.215C109.873 313.215 108.87 312.108 108.87 309.896V303.311H106.958V301.377H108.87V298.552H111.48ZM118.312 313H115.702V301.377H118.312V313ZM115.541 298.358C115.541 297.957 115.666 297.624 115.917 297.359C116.175 297.094 116.54 296.962 117.013 296.962C117.485 296.962 117.851 297.094 118.108 297.359C118.366 297.624 118.495 297.957 118.495 298.358C118.495 298.752 118.366 299.082 118.108 299.347C117.851 299.604 117.485 299.733 117.013 299.733C116.54 299.733 116.175 299.604 115.917 299.347C115.666 299.082 115.541 298.752 115.541 298.358ZM123.941 313H121.331V296.5H123.941V313ZM129.57 313H126.96V301.377H129.57V313ZM126.799 298.358C126.799 297.957 126.924 297.624 127.175 297.359C127.433 297.094 127.798 296.962 128.271 296.962C128.743 296.962 129.108 297.094 129.366 297.359C129.624 297.624 129.753 297.957 129.753 298.358C129.753 298.752 129.624 299.082 129.366 299.347C129.108 299.604 128.743 299.733 128.271 299.733C127.798 299.733 127.433 299.604 127.175 299.347C126.924 299.082 126.799 298.752 126.799 298.358ZM135.21 310.916H141.397V313H131.966V311.292L137.863 303.482H132.073V301.377H141.172V303.031L135.21 310.916ZM150.432 313C150.317 312.778 150.217 312.416 150.131 311.915C149.3 312.782 148.283 313.215 147.08 313.215C145.913 313.215 144.96 312.882 144.223 312.216C143.485 311.55 143.116 310.726 143.116 309.745C143.116 308.506 143.575 307.557 144.491 306.898C145.415 306.232 146.733 305.899 148.444 305.899H150.045V305.137C150.045 304.535 149.877 304.055 149.54 303.697C149.203 303.332 148.691 303.149 148.004 303.149C147.41 303.149 146.923 303.3 146.543 303.601C146.163 303.894 145.974 304.27 145.974 304.729H143.363C143.363 304.091 143.575 303.497 143.997 302.945C144.42 302.387 144.993 301.95 145.716 301.635C146.446 301.32 147.259 301.162 148.154 301.162C149.515 301.162 150.6 301.506 151.409 302.193C152.218 302.874 152.634 303.833 152.655 305.072V310.314C152.655 311.36 152.802 312.194 153.096 312.817V313H150.432ZM147.563 311.12C148.079 311.12 148.562 310.995 149.014 310.744C149.472 310.493 149.816 310.157 150.045 309.734V307.543H148.638C147.671 307.543 146.944 307.711 146.457 308.048C145.97 308.384 145.727 308.861 145.727 309.477C145.727 309.978 145.891 310.379 146.221 310.68C146.557 310.973 147.005 311.12 147.563 311.12ZM163.645 313H161.034V296.5H163.645V313ZM166.008 307.081C166.008 305.942 166.233 304.918 166.685 304.009C167.136 303.092 167.77 302.39 168.586 301.903C169.402 301.409 170.34 301.162 171.4 301.162C172.969 301.162 174.24 301.667 175.214 302.677C176.195 303.687 176.725 305.026 176.804 306.694L176.814 307.307C176.814 308.452 176.592 309.477 176.148 310.379C175.712 311.281 175.081 311.979 174.258 312.474C173.441 312.968 172.496 313.215 171.422 313.215C169.782 313.215 168.468 312.671 167.479 311.582C166.498 310.486 166.008 309.029 166.008 307.21V307.081ZM168.618 307.307C168.618 308.503 168.865 309.441 169.359 310.121C169.854 310.794 170.541 311.131 171.422 311.131C172.303 311.131 172.987 310.787 173.474 310.1C173.968 309.412 174.215 308.406 174.215 307.081C174.215 305.907 173.961 304.976 173.452 304.288C172.951 303.601 172.267 303.257 171.4 303.257C170.548 303.257 169.871 303.597 169.37 304.277C168.869 304.951 168.618 305.96 168.618 307.307ZM185.537 309.842C185.537 309.376 185.344 309.022 184.957 308.778C184.577 308.535 183.944 308.32 183.056 308.134C182.168 307.948 181.426 307.711 180.832 307.425C179.529 306.795 178.877 305.882 178.877 304.686C178.877 303.683 179.299 302.845 180.145 302.172C180.99 301.499 182.064 301.162 183.367 301.162C184.757 301.162 185.877 301.506 186.729 302.193C187.589 302.881 188.019 303.772 188.019 304.868H185.408C185.408 304.367 185.222 303.951 184.85 303.622C184.477 303.285 183.983 303.117 183.367 303.117C182.794 303.117 182.325 303.25 181.96 303.515C181.602 303.78 181.423 304.134 181.423 304.578C181.423 304.979 181.591 305.291 181.928 305.513C182.264 305.735 182.945 305.96 183.969 306.189C184.993 306.411 185.795 306.68 186.375 306.995C186.962 307.303 187.396 307.675 187.675 308.112C187.961 308.549 188.104 309.079 188.104 309.702C188.104 310.748 187.671 311.596 186.805 312.248C185.938 312.893 184.803 313.215 183.399 313.215C182.447 313.215 181.598 313.043 180.854 312.699C180.109 312.355 179.529 311.883 179.113 311.281C178.698 310.68 178.49 310.032 178.49 309.337H181.025C181.061 309.953 181.294 310.429 181.724 310.766C182.153 311.095 182.723 311.26 183.432 311.26C184.119 311.26 184.642 311.131 185 310.873C185.358 310.608 185.537 310.264 185.537 309.842ZM196.559 313V303.311H194.786V301.377H196.559V300.582C196.566 299.673 196.759 298.892 197.139 298.24C197.518 297.589 198.055 297.098 198.75 296.769C199.445 296.439 200.279 296.274 201.253 296.274C201.826 296.274 202.374 296.335 202.896 296.457C203.426 296.579 203.974 296.733 204.54 296.919L204.143 299.078C203.154 298.734 202.252 298.562 201.436 298.562C200.641 298.562 200.064 298.738 199.706 299.089C199.348 299.433 199.169 299.952 199.169 300.646V301.377H201.457V303.311H199.169V313H196.559ZM205.775 313H203.165V301.377H205.775V313ZM211.447 313H208.837V296.5H211.447V313ZM217.57 298.552V301.377H219.622V303.311H217.57V309.799C217.57 310.243 217.656 310.565 217.828 310.766C218.007 310.959 218.322 311.056 218.773 311.056C219.074 311.056 219.379 311.02 219.687 310.948V312.968C219.092 313.132 218.519 313.215 217.968 313.215C215.963 313.215 214.96 312.108 214.96 309.896V303.311H213.048V301.377H214.96V298.552H217.57ZM227.711 303.762C227.367 303.704 227.013 303.676 226.647 303.676C225.451 303.676 224.646 304.134 224.23 305.051V313H221.62V301.377H224.112L224.177 302.677C224.807 301.667 225.681 301.162 226.798 301.162C227.17 301.162 227.478 301.212 227.722 301.312L227.711 303.762ZM228.484 307.081C228.484 305.942 228.71 304.918 229.161 304.009C229.612 303.092 230.246 302.39 231.062 301.903C231.879 301.409 232.817 301.162 233.877 301.162C235.445 301.162 236.716 301.667 237.69 302.677C238.672 303.687 239.201 305.026 239.28 306.694L239.291 307.307C239.291 308.452 239.069 309.477 238.625 310.379C238.188 311.281 237.558 311.979 236.734 312.474C235.918 312.968 234.973 313.215 233.898 313.215C232.258 313.215 230.944 312.671 229.956 311.582C228.975 310.486 228.484 309.029 228.484 307.21V307.081ZM231.095 307.307C231.095 308.503 231.342 309.441 231.836 310.121C232.33 310.794 233.018 311.131 233.898 311.131C234.779 311.131 235.463 310.787 235.95 310.1C236.444 309.412 236.691 308.406 236.691 307.081C236.691 305.907 236.437 304.976 235.929 304.288C235.427 303.601 234.743 303.257 233.877 303.257C233.025 303.257 232.348 303.597 231.847 304.277C231.345 304.951 231.095 305.96 231.095 307.307ZM248.014 309.842C248.014 309.376 247.82 309.022 247.434 308.778C247.054 308.535 246.42 308.32 245.532 308.134C244.644 307.948 243.903 307.711 243.309 307.425C242.005 306.795 241.354 305.882 241.354 304.686C241.354 303.683 241.776 302.845 242.621 302.172C243.466 301.499 244.54 301.162 245.844 301.162C247.233 301.162 248.354 301.506 249.206 302.193C250.065 302.881 250.495 303.772 250.495 304.868H247.885C247.885 304.367 247.699 303.951 247.326 303.622C246.954 303.285 246.46 303.117 245.844 303.117C245.271 303.117 244.802 303.25 244.437 303.515C244.078 303.78 243.899 304.134 243.899 304.578C243.899 304.979 244.068 305.291 244.404 305.513C244.741 305.735 245.421 305.96 246.445 306.189C247.469 306.411 248.271 306.68 248.852 306.995C249.439 307.303 249.872 307.675 250.151 308.112C250.438 308.549 250.581 309.079 250.581 309.702C250.581 310.748 250.148 311.596 249.281 312.248C248.415 312.893 247.28 313.215 245.876 313.215C244.924 313.215 244.075 313.043 243.33 312.699C242.585 312.355 242.005 311.883 241.59 311.281C241.174 310.68 240.967 310.032 240.967 309.337H243.502C243.538 309.953 243.771 310.429 244.2 310.766C244.63 311.095 245.199 311.26 245.908 311.26C246.596 311.26 247.118 311.131 247.477 310.873C247.835 310.608 248.014 310.264 248.014 309.842ZM257.854 307.103C257.854 305.312 258.269 303.876 259.1 302.795C259.93 301.706 261.044 301.162 262.44 301.162C263.672 301.162 264.668 301.592 265.427 302.451V296.5H268.037V313H265.674L265.545 311.797C264.764 312.742 263.722 313.215 262.419 313.215C261.058 313.215 259.955 312.667 259.11 311.571C258.272 310.476 257.854 308.986 257.854 307.103ZM260.464 307.328C260.464 308.51 260.689 309.434 261.141 310.1C261.599 310.758 262.247 311.088 263.085 311.088C264.152 311.088 264.933 310.612 265.427 309.659V304.696C264.947 303.765 264.174 303.3 263.106 303.3C262.261 303.3 261.61 303.636 261.151 304.31C260.693 304.976 260.464 305.982 260.464 307.328ZM275.879 313.215C274.225 313.215 272.882 312.696 271.851 311.657C270.826 310.612 270.314 309.222 270.314 307.489V307.167C270.314 306.007 270.536 304.972 270.98 304.062C271.432 303.146 272.062 302.433 272.871 301.925C273.68 301.416 274.583 301.162 275.578 301.162C277.161 301.162 278.382 301.667 279.241 302.677C280.108 303.687 280.541 305.115 280.541 306.963V308.016H272.946C273.025 308.975 273.344 309.734 273.902 310.293C274.468 310.852 275.177 311.131 276.029 311.131C277.225 311.131 278.199 310.647 278.951 309.681L280.358 311.023C279.893 311.718 279.27 312.259 278.489 312.646C277.716 313.025 276.846 313.215 275.879 313.215ZM275.567 303.257C274.851 303.257 274.271 303.507 273.827 304.009C273.39 304.51 273.111 305.208 272.989 306.104H277.963V305.91C277.906 305.036 277.673 304.378 277.265 303.934C276.856 303.482 276.291 303.257 275.567 303.257ZM290.832 313H288.222V296.5H290.832V313ZM300.629 313C300.514 312.778 300.414 312.416 300.328 311.915C299.497 312.782 298.48 313.215 297.277 313.215C296.11 313.215 295.158 312.882 294.42 312.216C293.682 311.55 293.313 310.726 293.313 309.745C293.313 308.506 293.772 307.557 294.688 306.898C295.612 306.232 296.93 305.899 298.642 305.899H300.242V305.137C300.242 304.535 300.074 304.055 299.737 303.697C299.401 303.332 298.889 303.149 298.201 303.149C297.607 303.149 297.12 303.3 296.74 303.601C296.361 303.894 296.171 304.27 296.171 304.729H293.561C293.561 304.091 293.772 303.497 294.194 302.945C294.617 302.387 295.19 301.95 295.913 301.635C296.644 301.32 297.456 301.162 298.352 301.162C299.712 301.162 300.797 301.506 301.606 302.193C302.416 302.874 302.831 303.833 302.853 305.072V310.314C302.853 311.36 302.999 312.194 303.293 312.817V313H300.629ZM297.761 311.12C298.276 311.12 298.76 310.995 299.211 310.744C299.669 310.493 300.013 310.157 300.242 309.734V307.543H298.835C297.868 307.543 297.141 307.711 296.654 308.048C296.167 308.384 295.924 308.861 295.924 309.477C295.924 309.978 296.089 310.379 296.418 310.68C296.755 310.973 297.202 311.12 297.761 311.12ZM321.243 307.307C321.243 309.104 320.835 310.54 320.019 311.614C319.202 312.681 318.106 313.215 316.731 313.215C315.457 313.215 314.436 312.796 313.67 311.958V317.469H311.06V301.377H313.466L313.573 302.559C314.34 301.628 315.382 301.162 316.699 301.162C318.117 301.162 319.227 301.692 320.029 302.752C320.839 303.805 321.243 305.269 321.243 307.146V307.307ZM318.644 307.081C318.644 305.921 318.411 305.001 317.945 304.32C317.487 303.64 316.828 303.3 315.969 303.3C314.902 303.3 314.135 303.74 313.67 304.621V309.777C314.143 310.68 314.916 311.131 315.99 311.131C316.821 311.131 317.469 310.798 317.935 310.132C318.407 309.459 318.644 308.442 318.644 307.081ZM330.406 313C330.292 312.778 330.191 312.416 330.105 311.915C329.275 312.782 328.258 313.215 327.055 313.215C325.887 313.215 324.935 312.882 324.197 312.216C323.46 311.55 323.091 310.726 323.091 309.745C323.091 308.506 323.549 307.557 324.466 306.898C325.39 306.232 326.707 305.899 328.419 305.899H330.02V305.137C330.02 304.535 329.851 304.055 329.515 303.697C329.178 303.332 328.666 303.149 327.979 303.149C327.384 303.149 326.897 303.3 326.518 303.601C326.138 303.894 325.948 304.27 325.948 304.729H323.338C323.338 304.091 323.549 303.497 323.972 302.945C324.394 302.387 324.967 301.95 325.69 301.635C326.421 301.32 327.234 301.162 328.129 301.162C329.49 301.162 330.575 301.506 331.384 302.193C332.193 302.874 332.608 303.833 332.63 305.072V310.314C332.63 311.36 332.777 312.194 333.07 312.817V313H330.406ZM327.538 311.12C328.054 311.12 328.537 310.995 328.988 310.744C329.447 310.493 329.79 310.157 330.02 309.734V307.543H328.612C327.646 307.543 326.919 307.711 326.432 308.048C325.945 308.384 325.701 308.861 325.701 309.477C325.701 309.978 325.866 310.379 326.195 310.68C326.532 310.973 326.979 311.12 327.538 311.12ZM341.449 303.762C341.105 303.704 340.751 303.676 340.386 303.676C339.19 303.676 338.384 304.134 337.969 305.051V313H335.358V301.377H337.851L337.915 302.677C338.545 301.667 339.419 301.162 340.536 301.162C340.909 301.162 341.216 301.212 341.46 301.312L341.449 303.762ZM346.906 298.552V301.377H348.958V303.311H346.906V309.799C346.906 310.243 346.992 310.565 347.164 310.766C347.343 310.959 347.658 311.056 348.109 311.056C348.41 311.056 348.715 311.02 349.022 310.948V312.968C348.428 313.132 347.855 313.215 347.304 313.215C345.299 313.215 344.296 312.108 344.296 309.896V303.311H342.384V301.377H344.296V298.552H346.906ZM356.08 313.215C354.426 313.215 353.083 312.696 352.052 311.657C351.028 310.612 350.516 309.222 350.516 307.489V307.167C350.516 306.007 350.738 304.972 351.182 304.062C351.633 303.146 352.263 302.433 353.072 301.925C353.882 301.416 354.784 301.162 355.779 301.162C357.362 301.162 358.583 301.667 359.442 302.677C360.309 303.687 360.742 305.115 360.742 306.963V308.016H353.147C353.226 308.975 353.545 309.734 354.104 310.293C354.669 310.852 355.378 311.131 356.23 311.131C357.426 311.131 358.4 310.647 359.152 309.681L360.56 311.023C360.094 311.718 359.471 312.259 358.69 312.646C357.917 313.025 357.047 313.215 356.08 313.215ZM355.769 303.257C355.052 303.257 354.472 303.507 354.028 304.009C353.591 304.51 353.312 305.208 353.19 306.104H358.164V305.91C358.107 305.036 357.874 304.378 357.466 303.934C357.058 303.482 356.492 303.257 355.769 303.257ZM374.771 309.842C374.771 309.376 374.578 309.022 374.191 308.778C373.812 308.535 373.178 308.32 372.29 308.134C371.402 307.948 370.661 307.711 370.066 307.425C368.763 306.795 368.111 305.882 368.111 304.686C368.111 303.683 368.534 302.845 369.379 302.172C370.224 301.499 371.298 301.162 372.602 301.162C373.991 301.162 375.112 301.506 375.964 302.193C376.823 302.881 377.253 303.772 377.253 304.868H374.643C374.643 304.367 374.456 303.951 374.084 303.622C373.712 303.285 373.217 303.117 372.602 303.117C372.029 303.117 371.56 303.25 371.194 303.515C370.836 303.78 370.657 304.134 370.657 304.578C370.657 304.979 370.826 305.291 371.162 305.513C371.499 305.735 372.179 305.96 373.203 306.189C374.227 306.411 375.029 306.68 375.609 306.995C376.197 307.303 376.63 307.675 376.909 308.112C377.196 308.549 377.339 309.079 377.339 309.702C377.339 310.748 376.906 311.596 376.039 312.248C375.173 312.893 374.037 313.215 372.634 313.215C371.681 313.215 370.833 313.043 370.088 312.699C369.343 312.355 368.763 311.883 368.348 311.281C367.932 310.68 367.725 310.032 367.725 309.337H370.26C370.296 309.953 370.528 310.429 370.958 310.766C371.388 311.095 371.957 311.26 372.666 311.26C373.354 311.26 373.876 311.131 374.234 310.873C374.592 310.608 374.771 310.264 374.771 309.842ZM386.663 311.861C385.897 312.764 384.808 313.215 383.397 313.215C382.137 313.215 381.181 312.846 380.529 312.108C379.885 311.371 379.562 310.304 379.562 308.907V301.377H382.173V308.875C382.173 310.35 382.785 311.088 384.01 311.088C385.277 311.088 386.133 310.633 386.577 309.724V301.377H389.188V313H386.728L386.663 311.861ZM402.024 307.307C402.024 309.104 401.616 310.54 400.8 311.614C399.983 312.681 398.888 313.215 397.513 313.215C396.238 313.215 395.217 312.796 394.451 311.958V317.469H391.841V301.377H394.247L394.354 302.559C395.121 301.628 396.163 301.162 397.48 301.162C398.898 301.162 400.008 301.692 400.811 302.752C401.62 303.805 402.024 305.269 402.024 307.146V307.307ZM399.425 307.081C399.425 305.921 399.192 305.001 398.727 304.32C398.268 303.64 397.609 303.3 396.75 303.3C395.683 303.3 394.917 303.74 394.451 304.621V309.777C394.924 310.68 395.697 311.131 396.771 311.131C397.602 311.131 398.25 310.798 398.716 310.132C399.188 309.459 399.425 308.442 399.425 307.081ZM409.361 313.215C407.707 313.215 406.364 312.696 405.333 311.657C404.309 310.612 403.797 309.222 403.797 307.489V307.167C403.797 306.007 404.019 304.972 404.463 304.062C404.914 303.146 405.544 302.433 406.354 301.925C407.163 301.416 408.065 301.162 409.061 301.162C410.643 301.162 411.864 301.667 412.724 302.677C413.59 303.687 414.023 305.115 414.023 306.963V308.016H406.429C406.507 308.975 406.826 309.734 407.385 310.293C407.951 310.852 408.66 311.131 409.512 311.131C410.708 311.131 411.682 310.647 412.434 309.681L413.841 311.023C413.375 311.718 412.752 312.259 411.972 312.646C411.198 313.025 410.328 313.215 409.361 313.215ZM409.05 303.257C408.334 303.257 407.754 303.507 407.31 304.009C406.873 304.51 406.593 305.208 406.472 306.104H411.445V305.91C411.388 305.036 411.155 304.378 410.747 303.934C410.339 303.482 409.773 303.257 409.05 303.257ZM422.145 303.762C421.801 303.704 421.446 303.676 421.081 303.676C419.885 303.676 419.079 304.134 418.664 305.051V313H416.054V301.377H418.546L418.61 302.677C419.241 301.667 420.114 301.162 421.231 301.162C421.604 301.162 421.912 301.212 422.155 301.312L422.145 303.762ZM426.57 313H423.96V301.377H426.57V313ZM423.799 298.358C423.799 297.957 423.924 297.624 424.175 297.359C424.433 297.094 424.798 296.962 425.271 296.962C425.743 296.962 426.108 297.094 426.366 297.359C426.624 297.624 426.753 297.957 426.753 298.358C426.753 298.752 426.624 299.082 426.366 299.347C426.108 299.604 425.743 299.733 425.271 299.733C424.798 299.733 424.433 299.604 424.175 299.347C423.924 299.082 423.799 298.752 423.799 298.358ZM428.934 307.081C428.934 305.942 429.159 304.918 429.61 304.009C430.062 303.092 430.695 302.39 431.512 301.903C432.328 301.409 433.266 301.162 434.326 301.162C435.895 301.162 437.166 301.667 438.14 302.677C439.121 303.687 439.651 305.026 439.729 306.694L439.74 307.307C439.74 308.452 439.518 309.477 439.074 310.379C438.637 311.281 438.007 311.979 437.184 312.474C436.367 312.968 435.422 313.215 434.348 313.215C432.708 313.215 431.394 312.671 430.405 311.582C429.424 310.486 428.934 309.029 428.934 307.21V307.081ZM431.544 307.307C431.544 308.503 431.791 309.441 432.285 310.121C432.779 310.794 433.467 311.131 434.348 311.131C435.229 311.131 435.912 310.787 436.399 310.1C436.894 309.412 437.141 308.406 437.141 307.081C437.141 305.907 436.886 304.976 436.378 304.288C435.877 303.601 435.193 303.257 434.326 303.257C433.474 303.257 432.797 303.597 432.296 304.277C431.795 304.951 431.544 305.96 431.544 307.307ZM448.033 303.762C447.689 303.704 447.335 303.676 446.97 303.676C445.774 303.676 444.968 304.134 444.553 305.051V313H441.942V301.377H444.435L444.499 302.677C445.129 301.667 446.003 301.162 447.12 301.162C447.493 301.162 447.8 301.212 448.044 301.312L448.033 303.762ZM454.672 307.103C454.672 305.312 455.087 303.876 455.918 302.795C456.749 301.706 457.862 301.162 459.259 301.162C460.491 301.162 461.486 301.592 462.245 302.451V296.5H464.855V313H462.492L462.363 311.797C461.583 312.742 460.541 313.215 459.237 313.215C457.877 313.215 456.774 312.667 455.929 311.571C455.091 310.476 454.672 308.986 454.672 307.103ZM457.282 307.328C457.282 308.51 457.508 309.434 457.959 310.1C458.417 310.758 459.065 311.088 459.903 311.088C460.97 311.088 461.751 310.612 462.245 309.659V304.696C461.765 303.765 460.992 303.3 459.925 303.3C459.08 303.3 458.428 303.636 457.97 304.31C457.511 304.976 457.282 305.982 457.282 307.328ZM472.697 313.215C471.043 313.215 469.7 312.696 468.669 311.657C467.645 310.612 467.133 309.222 467.133 307.489V307.167C467.133 306.007 467.355 304.972 467.799 304.062C468.25 303.146 468.88 302.433 469.689 301.925C470.499 301.416 471.401 301.162 472.396 301.162C473.979 301.162 475.2 301.667 476.06 302.677C476.926 303.687 477.359 305.115 477.359 306.963V308.016H469.765C469.843 308.975 470.162 309.734 470.721 310.293C471.286 310.852 471.995 311.131 472.848 311.131C474.044 311.131 475.018 310.647 475.77 309.681L477.177 311.023C476.711 311.718 476.088 312.259 475.308 312.646C474.534 313.025 473.664 313.215 472.697 313.215ZM472.386 303.257C471.67 303.257 471.09 303.507 470.646 304.009C470.209 304.51 469.929 305.208 469.808 306.104H474.781V305.91C474.724 305.036 474.491 304.378 474.083 303.934C473.675 303.482 473.109 303.257 472.386 303.257ZM487.65 313H485.04V296.5H487.65V313ZM497.447 313C497.333 312.778 497.232 312.416 497.146 311.915C496.316 312.782 495.299 313.215 494.096 313.215C492.928 313.215 491.976 312.882 491.238 312.216C490.501 311.55 490.132 310.726 490.132 309.745C490.132 308.506 490.59 307.557 491.507 306.898C492.431 306.232 493.748 305.899 495.46 305.899H497.061V305.137C497.061 304.535 496.892 304.055 496.556 303.697C496.219 303.332 495.707 303.149 495.02 303.149C494.425 303.149 493.938 303.3 493.559 303.601C493.179 303.894 492.989 304.27 492.989 304.729H490.379C490.379 304.091 490.59 303.497 491.013 302.945C491.435 302.387 492.008 301.95 492.731 301.635C493.462 301.32 494.275 301.162 495.17 301.162C496.531 301.162 497.616 301.506 498.425 302.193C499.234 302.874 499.649 303.833 499.671 305.072V310.314C499.671 311.36 499.818 312.194 500.111 312.817V313H497.447ZM494.579 311.12C495.095 311.12 495.578 310.995 496.029 310.744C496.488 310.493 496.831 310.157 497.061 309.734V307.543H495.653C494.687 307.543 493.96 307.711 493.473 308.048C492.986 308.384 492.742 308.861 492.742 309.477C492.742 309.978 492.907 310.379 493.236 310.68C493.573 310.973 494.021 311.12 494.579 311.12ZM518.062 307.307C518.062 309.104 517.653 310.54 516.837 311.614C516.021 312.681 514.925 313.215 513.55 313.215C512.275 313.215 511.255 312.796 510.488 311.958V317.469H507.878V301.377H510.284L510.392 302.559C511.158 301.628 512.2 301.162 513.518 301.162C514.936 301.162 516.046 301.692 516.848 302.752C517.657 303.805 518.062 305.269 518.062 307.146V307.307ZM515.462 307.081C515.462 305.921 515.229 305.001 514.764 304.32C514.305 303.64 513.646 303.3 512.787 303.3C511.72 303.3 510.954 303.74 510.488 304.621V309.777C510.961 310.68 511.734 311.131 512.809 311.131C513.639 311.131 514.287 310.798 514.753 310.132C515.226 309.459 515.462 308.442 515.462 307.081ZM527.225 313C527.11 312.778 527.01 312.416 526.924 311.915C526.093 312.782 525.076 313.215 523.873 313.215C522.706 313.215 521.753 312.882 521.016 312.216C520.278 311.55 519.909 310.726 519.909 309.745C519.909 308.506 520.368 307.557 521.284 306.898C522.208 306.232 523.526 305.899 525.237 305.899H526.838V305.137C526.838 304.535 526.67 304.055 526.333 303.697C525.996 303.332 525.484 303.149 524.797 303.149C524.202 303.149 523.715 303.3 523.336 303.601C522.956 303.894 522.767 304.27 522.767 304.729H520.156C520.156 304.091 520.368 303.497 520.79 302.945C521.213 302.387 521.785 301.95 522.509 301.635C523.239 301.32 524.052 301.162 524.947 301.162C526.308 301.162 527.393 301.506 528.202 302.193C529.011 302.874 529.427 303.833 529.448 305.072V310.314C529.448 311.36 529.595 312.194 529.889 312.817V313H527.225ZM524.356 311.12C524.872 311.12 525.355 310.995 525.807 310.744C526.265 310.493 526.609 310.157 526.838 309.734V307.543H525.431C524.464 307.543 523.737 307.711 523.25 308.048C522.763 308.384 522.52 308.861 522.52 309.477C522.52 309.978 522.684 310.379 523.014 310.68C523.35 310.973 523.798 311.12 524.356 311.12ZM534.604 301.377L534.68 302.72C535.539 301.681 536.667 301.162 538.063 301.162C540.484 301.162 541.716 302.548 541.759 305.319V313H539.148V305.47C539.148 304.732 538.987 304.188 538.665 303.837C538.35 303.479 537.831 303.3 537.107 303.3C536.055 303.3 535.271 303.776 534.755 304.729V313H532.145V301.377H534.604ZM547.699 298.552V301.377H549.751V303.311H547.699V309.799C547.699 310.243 547.785 310.565 547.957 310.766C548.136 310.959 548.451 311.056 548.902 311.056C549.203 311.056 549.507 311.02 549.815 310.948V312.968C549.221 313.132 548.648 313.215 548.097 313.215C546.091 313.215 545.089 312.108 545.089 309.896V303.311H543.177V301.377H545.089V298.552H547.699ZM558.699 313C558.585 312.778 558.484 312.416 558.398 311.915C557.568 312.782 556.551 313.215 555.348 313.215C554.18 313.215 553.228 312.882 552.49 312.216C551.753 311.55 551.384 310.726 551.384 309.745C551.384 308.506 551.842 307.557 552.759 306.898C553.683 306.232 555 305.899 556.712 305.899H558.312V305.137C558.312 304.535 558.144 304.055 557.808 303.697C557.471 303.332 556.959 303.149 556.271 303.149C555.677 303.149 555.19 303.3 554.811 303.601C554.431 303.894 554.241 304.27 554.241 304.729H551.631C551.631 304.091 551.842 303.497 552.265 302.945C552.687 302.387 553.26 301.95 553.983 301.635C554.714 301.32 555.527 301.162 556.422 301.162C557.783 301.162 558.868 301.506 559.677 302.193C560.486 302.874 560.901 303.833 560.923 305.072V310.314C560.923 311.36 561.07 312.194 561.363 312.817V313H558.699ZM555.831 311.12C556.347 311.12 556.83 310.995 557.281 310.744C557.74 310.493 558.083 310.157 558.312 309.734V307.543H556.905C555.938 307.543 555.212 307.711 554.725 308.048C554.238 308.384 553.994 308.861 553.994 309.477C553.994 309.978 554.159 310.379 554.488 310.68C554.825 310.973 555.272 311.12 555.831 311.12ZM566.434 313H563.823V296.5H566.434V313ZM572.062 313H569.452V296.5H572.062V313ZM581.859 313C581.745 312.778 581.645 312.416 581.559 311.915C580.728 312.782 579.711 313.215 578.508 313.215C577.34 313.215 576.388 312.882 575.65 312.216C574.913 311.55 574.544 310.726 574.544 309.745C574.544 308.506 575.002 307.557 575.919 306.898C576.843 306.232 578.16 305.899 579.872 305.899H581.473V305.137C581.473 304.535 581.304 304.055 580.968 303.697C580.631 303.332 580.119 303.149 579.432 303.149C578.837 303.149 578.35 303.3 577.971 303.601C577.591 303.894 577.401 304.27 577.401 304.729H574.791C574.791 304.091 575.002 303.497 575.425 302.945C575.847 302.387 576.42 301.95 577.144 301.635C577.874 301.32 578.687 301.162 579.582 301.162C580.943 301.162 582.028 301.506 582.837 302.193C583.646 302.874 584.062 303.833 584.083 305.072V310.314C584.083 311.36 584.23 312.194 584.523 312.817V313H581.859ZM578.991 311.12C579.507 311.12 579.99 310.995 580.441 310.744C580.9 310.493 581.243 310.157 581.473 309.734V307.543H580.065C579.099 307.543 578.372 307.711 577.885 308.048C577.398 308.384 577.154 308.861 577.154 309.477C577.154 309.978 577.319 310.379 577.648 310.68C577.985 310.973 578.433 311.12 578.991 311.12ZM144.255 333.307C144.255 335.104 143.847 336.54 143.03 337.614C142.214 338.681 141.118 339.215 139.743 339.215C138.468 339.215 137.448 338.796 136.682 337.958V343.469H134.071V327.377H136.478L136.585 328.559C137.351 327.628 138.393 327.162 139.711 327.162C141.129 327.162 142.239 327.692 143.041 328.752C143.85 329.805 144.255 331.269 144.255 333.146V333.307ZM141.655 333.081C141.655 331.921 141.423 331.001 140.957 330.32C140.499 329.64 139.84 329.3 138.98 329.3C137.913 329.3 137.147 329.74 136.682 330.621V335.777C137.154 336.68 137.928 337.131 139.002 337.131C139.833 337.131 140.481 336.798 140.946 336.132C141.419 335.459 141.655 334.442 141.655 333.081ZM153.418 339C153.303 338.778 153.203 338.416 153.117 337.915C152.286 338.782 151.27 339.215 150.066 339.215C148.899 339.215 147.947 338.882 147.209 338.216C146.471 337.55 146.103 336.726 146.103 335.745C146.103 334.506 146.561 333.557 147.478 332.898C148.401 332.232 149.719 331.899 151.431 331.899H153.031V331.137C153.031 330.535 152.863 330.055 152.526 329.697C152.19 329.332 151.678 329.149 150.99 329.149C150.396 329.149 149.909 329.3 149.529 329.601C149.15 329.894 148.96 330.27 148.96 330.729H146.35C146.35 330.091 146.561 329.497 146.983 328.945C147.406 328.387 147.979 327.95 148.702 327.635C149.433 327.32 150.245 327.162 151.141 327.162C152.501 327.162 153.586 327.506 154.396 328.193C155.205 328.874 155.62 329.833 155.642 331.072V336.314C155.642 337.36 155.788 338.194 156.082 338.817V339H153.418ZM150.55 337.12C151.065 337.12 151.549 336.995 152 336.744C152.458 336.493 152.802 336.157 153.031 335.734V333.543H151.624C150.657 333.543 149.93 333.711 149.443 334.048C148.956 334.384 148.713 334.861 148.713 335.477C148.713 335.978 148.878 336.379 149.207 336.68C149.544 336.973 149.991 337.12 150.55 337.12ZM164.461 329.762C164.117 329.704 163.763 329.676 163.397 329.676C162.201 329.676 161.396 330.134 160.98 331.051V339H158.37V327.377H160.862L160.927 328.677C161.557 327.667 162.431 327.162 163.548 327.162C163.92 327.162 164.228 327.212 164.472 327.312L164.461 329.762ZM172.732 339C172.618 338.778 172.518 338.416 172.432 337.915C171.601 338.782 170.584 339.215 169.381 339.215C168.214 339.215 167.261 338.882 166.523 338.216C165.786 337.55 165.417 336.726 165.417 335.745C165.417 334.506 165.875 333.557 166.792 332.898C167.716 332.232 169.034 331.899 170.745 331.899H172.346V331.137C172.346 330.535 172.177 330.055 171.841 329.697C171.504 329.332 170.992 329.149 170.305 329.149C169.71 329.149 169.223 329.3 168.844 329.601C168.464 329.894 168.274 330.27 168.274 330.729H165.664C165.664 330.091 165.875 329.497 166.298 328.945C166.72 328.387 167.293 327.95 168.017 327.635C168.747 327.32 169.56 327.162 170.455 327.162C171.816 327.162 172.901 327.506 173.71 328.193C174.519 328.874 174.935 329.833 174.956 331.072V336.314C174.956 337.36 175.103 338.194 175.396 338.817V339H172.732ZM169.864 337.12C170.38 337.12 170.863 336.995 171.314 336.744C171.773 336.493 172.117 336.157 172.346 335.734V333.543H170.938C169.972 333.543 169.245 333.711 168.758 334.048C168.271 334.384 168.027 334.861 168.027 335.477C168.027 335.978 168.192 336.379 168.521 336.68C168.858 336.973 169.306 337.12 169.864 337.12ZM182.712 333.103C182.712 331.298 183.134 329.858 183.979 328.784C184.832 327.703 185.96 327.162 187.363 327.162C188.688 327.162 189.73 327.624 190.489 328.548L190.607 327.377H192.96V338.646C192.96 340.171 192.484 341.374 191.531 342.255C190.586 343.136 189.308 343.576 187.696 343.576C186.844 343.576 186.01 343.397 185.193 343.039C184.384 342.688 183.768 342.226 183.346 341.653L184.581 340.085C185.383 341.037 186.371 341.514 187.546 341.514C188.412 341.514 189.096 341.277 189.598 340.805C190.099 340.339 190.35 339.652 190.35 338.742V337.958C189.598 338.796 188.595 339.215 187.342 339.215C185.981 339.215 184.868 338.674 184.001 337.593C183.142 336.511 182.712 335.015 182.712 333.103ZM185.312 333.328C185.312 334.495 185.548 335.416 186.021 336.089C186.5 336.755 187.163 337.088 188.008 337.088C189.061 337.088 189.841 336.637 190.35 335.734V330.621C189.855 329.74 189.082 329.3 188.029 329.3C187.17 329.3 186.5 329.64 186.021 330.32C185.548 331.001 185.312 332.003 185.312 333.328ZM200.77 339.215C199.115 339.215 197.772 338.696 196.741 337.657C195.717 336.612 195.205 335.222 195.205 333.489V333.167C195.205 332.007 195.427 330.972 195.871 330.062C196.322 329.146 196.952 328.433 197.762 327.925C198.571 327.416 199.473 327.162 200.469 327.162C202.051 327.162 203.272 327.667 204.132 328.677C204.998 329.687 205.432 331.115 205.432 332.963V334.016H197.837C197.916 334.975 198.234 335.734 198.793 336.293C199.359 336.852 200.068 337.131 200.92 337.131C202.116 337.131 203.09 336.647 203.842 335.681L205.249 337.023C204.784 337.718 204.16 338.259 203.38 338.646C202.606 339.025 201.736 339.215 200.77 339.215ZM200.458 329.257C199.742 329.257 199.162 329.507 198.718 330.009C198.281 330.51 198.002 331.208 197.88 332.104H202.854V331.91C202.796 331.036 202.563 330.378 202.155 329.934C201.747 329.482 201.181 329.257 200.458 329.257ZM209.89 327.377L209.965 328.72C210.824 327.681 211.952 327.162 213.349 327.162C215.769 327.162 217.001 328.548 217.044 331.319V339H214.434V331.47C214.434 330.732 214.272 330.188 213.95 329.837C213.635 329.479 213.116 329.3 212.393 329.3C211.34 329.3 210.556 329.776 210.04 330.729V339H207.43V327.377H209.89ZM224.832 339.215C223.178 339.215 221.835 338.696 220.804 337.657C219.78 336.612 219.268 335.222 219.268 333.489V333.167C219.268 332.007 219.49 330.972 219.934 330.062C220.385 329.146 221.015 328.433 221.824 327.925C222.633 327.416 223.536 327.162 224.531 327.162C226.114 327.162 227.335 327.667 228.194 328.677C229.061 329.687 229.494 331.115 229.494 332.963V334.016H221.899C221.978 334.975 222.297 335.734 222.855 336.293C223.421 336.852 224.13 337.131 224.982 337.131C226.178 337.131 227.152 336.647 227.904 335.681L229.312 337.023C228.846 337.718 228.223 338.259 227.442 338.646C226.669 339.025 225.799 339.215 224.832 339.215ZM224.521 329.257C223.804 329.257 223.224 329.507 222.78 330.009C222.343 330.51 222.064 331.208 221.942 332.104H226.916V331.91C226.859 331.036 226.626 330.378 226.218 329.934C225.81 329.482 225.244 329.257 224.521 329.257ZM237.615 329.762C237.271 329.704 236.917 329.676 236.552 329.676C235.356 329.676 234.55 330.134 234.135 331.051V339H231.524V327.377H234.017L234.081 328.677C234.711 327.667 235.585 327.162 236.702 327.162C237.075 327.162 237.382 327.212 237.626 327.312L237.615 329.762ZM245.887 339C245.772 338.778 245.672 338.416 245.586 337.915C244.755 338.782 243.738 339.215 242.535 339.215C241.368 339.215 240.415 338.882 239.678 338.216C238.94 337.55 238.571 336.726 238.571 335.745C238.571 334.506 239.03 333.557 239.946 332.898C240.87 332.232 242.188 331.899 243.899 331.899H245.5V331.137C245.5 330.535 245.332 330.055 244.995 329.697C244.659 329.332 244.146 329.149 243.459 329.149C242.865 329.149 242.378 329.3 241.998 329.601C241.618 329.894 241.429 330.27 241.429 330.729H238.818C238.818 330.091 239.03 329.497 239.452 328.945C239.875 328.387 240.448 327.95 241.171 327.635C241.901 327.32 242.714 327.162 243.609 327.162C244.97 327.162 246.055 327.506 246.864 328.193C247.674 328.874 248.089 329.833 248.11 331.072V336.314C248.11 337.36 248.257 338.194 248.551 338.817V339H245.887ZM243.019 337.12C243.534 337.12 244.018 336.995 244.469 336.744C244.927 336.493 245.271 336.157 245.5 335.734V333.543H244.093C243.126 333.543 242.399 333.711 241.912 334.048C241.425 334.384 241.182 334.861 241.182 335.477C241.182 335.978 241.346 336.379 241.676 336.68C242.012 336.973 242.46 337.12 243.019 337.12ZM256.93 329.762C256.586 329.704 256.231 329.676 255.866 329.676C254.67 329.676 253.865 330.134 253.449 331.051V339H250.839V327.377H253.331L253.396 328.677C254.026 327.667 254.899 327.162 256.017 327.162C256.389 327.162 256.697 327.212 256.94 327.312L256.93 329.762ZM269.176 339.215C267.521 339.215 266.179 338.696 265.147 337.657C264.123 336.612 263.611 335.222 263.611 333.489V333.167C263.611 332.007 263.833 330.972 264.277 330.062C264.729 329.146 265.359 328.433 266.168 327.925C266.977 327.416 267.88 327.162 268.875 327.162C270.458 327.162 271.679 327.667 272.538 328.677C273.405 329.687 273.838 331.115 273.838 332.963V334.016H266.243C266.322 334.975 266.641 335.734 267.199 336.293C267.765 336.852 268.474 337.131 269.326 337.131C270.522 337.131 271.496 336.647 272.248 335.681L273.655 337.023C273.19 337.718 272.567 338.259 271.786 338.646C271.013 339.025 270.143 339.215 269.176 339.215ZM268.864 329.257C268.148 329.257 267.568 329.507 267.124 330.009C266.687 330.51 266.408 331.208 266.286 332.104H271.26V331.91C271.202 331.036 270.97 330.378 270.562 329.934C270.153 329.482 269.588 329.257 268.864 329.257ZM278.65 339H276.04V322.5H278.65V339ZM293.066 329.762C292.723 329.704 292.368 329.676 292.003 329.676C290.807 329.676 290.001 330.134 289.586 331.051V339H286.976V327.377H289.468L289.532 328.677C290.162 327.667 291.036 327.162 292.153 327.162C292.526 327.162 292.834 327.212 293.077 327.312L293.066 329.762ZM299.619 339.215C297.965 339.215 296.622 338.696 295.591 337.657C294.567 336.612 294.055 335.222 294.055 333.489V333.167C294.055 332.007 294.277 330.972 294.721 330.062C295.172 329.146 295.802 328.433 296.611 327.925C297.421 327.416 298.323 327.162 299.318 327.162C300.901 327.162 302.122 327.667 302.981 328.677C303.848 329.687 304.281 331.115 304.281 332.963V334.016H296.687C296.765 334.975 297.084 335.734 297.643 336.293C298.208 336.852 298.917 337.131 299.77 337.131C300.965 337.131 301.939 336.647 302.691 335.681L304.099 337.023C303.633 337.718 303.01 338.259 302.229 338.646C301.456 339.025 300.586 339.215 299.619 339.215ZM299.308 329.257C298.591 329.257 298.011 329.507 297.567 330.009C297.131 330.51 296.851 331.208 296.729 332.104H301.703V331.91C301.646 331.036 301.413 330.378 301.005 329.934C300.597 329.482 300.031 329.257 299.308 329.257ZM316.495 333.307C316.495 335.104 316.087 336.54 315.271 337.614C314.454 338.681 313.358 339.215 311.983 339.215C310.709 339.215 309.688 338.796 308.922 337.958V343.469H306.312V327.377H308.718L308.825 328.559C309.591 327.628 310.633 327.162 311.951 327.162C313.369 327.162 314.479 327.692 315.281 328.752C316.09 329.805 316.495 331.269 316.495 333.146V333.307ZM313.896 333.081C313.896 331.921 313.663 331.001 313.197 330.32C312.739 329.64 312.08 329.3 311.221 329.3C310.154 329.3 309.387 329.74 308.922 330.621V335.777C309.395 336.68 310.168 337.131 311.242 337.131C312.073 337.131 312.721 336.798 313.187 336.132C313.659 335.459 313.896 334.442 313.896 333.081ZM318.225 333.081C318.225 331.942 318.45 330.918 318.901 330.009C319.353 329.092 319.986 328.39 320.803 327.903C321.619 327.409 322.557 327.162 323.617 327.162C325.186 327.162 326.457 327.667 327.431 328.677C328.412 329.687 328.942 331.026 329.021 332.694L329.031 333.307C329.031 334.452 328.809 335.477 328.365 336.379C327.928 337.281 327.298 337.979 326.475 338.474C325.658 338.968 324.713 339.215 323.639 339.215C321.999 339.215 320.685 338.671 319.696 337.582C318.715 336.486 318.225 335.029 318.225 333.21V333.081ZM320.835 333.307C320.835 334.503 321.082 335.441 321.576 336.121C322.07 336.794 322.758 337.131 323.639 337.131C324.52 337.131 325.203 336.787 325.69 336.1C326.185 335.412 326.432 334.406 326.432 333.081C326.432 331.907 326.177 330.976 325.669 330.288C325.168 329.601 324.484 329.257 323.617 329.257C322.765 329.257 322.088 329.597 321.587 330.277C321.086 330.951 320.835 331.96 320.835 333.307ZM337.324 329.762C336.98 329.704 336.626 329.676 336.261 329.676C335.065 329.676 334.259 330.134 333.844 331.051V339H331.233V327.377H333.726L333.79 328.677C334.42 327.667 335.294 327.162 336.411 327.162C336.784 327.162 337.091 327.212 337.335 327.312L337.324 329.762ZM342.781 324.552V327.377H344.833V329.311H342.781V335.799C342.781 336.243 342.867 336.565 343.039 336.766C343.218 336.959 343.533 337.056 343.984 337.056C344.285 337.056 344.59 337.02 344.897 336.948V338.968C344.303 339.132 343.73 339.215 343.179 339.215C341.174 339.215 340.171 338.108 340.171 335.896V329.311H338.259V327.377H340.171V324.552H342.781ZM351.955 339.215C350.301 339.215 348.958 338.696 347.927 337.657C346.903 336.612 346.391 335.222 346.391 333.489V333.167C346.391 332.007 346.613 330.972 347.057 330.062C347.508 329.146 348.138 328.433 348.947 327.925C349.757 327.416 350.659 327.162 351.654 327.162C353.237 327.162 354.458 327.667 355.317 328.677C356.184 329.687 356.617 331.115 356.617 332.963V334.016H349.022C349.101 334.975 349.42 335.734 349.979 336.293C350.544 336.852 351.253 337.131 352.105 337.131C353.301 337.131 354.275 336.647 355.027 335.681L356.435 337.023C355.969 337.718 355.346 338.259 354.565 338.646C353.792 339.025 352.922 339.215 351.955 339.215ZM351.644 329.257C350.927 329.257 350.347 329.507 349.903 330.009C349.466 330.51 349.187 331.208 349.065 332.104H354.039V331.91C353.982 331.036 353.749 330.378 353.341 329.934C352.933 329.482 352.367 329.257 351.644 329.257ZM363.643 333.092C363.643 331.273 364.058 329.83 364.889 328.763C365.719 327.696 366.844 327.162 368.262 327.162C369.558 327.162 370.586 327.617 371.345 328.526L371.495 327.377H373.815V343.469H371.205V338.012C370.446 338.814 369.458 339.215 368.24 339.215C366.851 339.215 365.737 338.674 364.899 337.593C364.062 336.504 363.643 335.004 363.643 333.092ZM366.253 333.317C366.253 334.506 366.486 335.441 366.951 336.121C367.424 336.794 368.076 337.131 368.906 337.131C369.938 337.131 370.704 336.69 371.205 335.81V330.524C370.704 329.679 369.945 329.257 368.928 329.257C368.097 329.257 367.442 329.59 366.962 330.256C366.489 330.922 366.253 331.942 366.253 333.317ZM383.677 337.861C382.91 338.764 381.822 339.215 380.411 339.215C379.151 339.215 378.195 338.846 377.543 338.108C376.898 337.371 376.576 336.304 376.576 334.907V327.377H379.187V334.875C379.187 336.35 379.799 337.088 381.023 337.088C382.291 337.088 383.147 336.633 383.591 335.724V327.377H386.201V339H383.741L383.677 337.861ZM393.979 339.215C392.324 339.215 390.981 338.696 389.95 337.657C388.926 336.612 388.414 335.222 388.414 333.489V333.167C388.414 332.007 388.636 330.972 389.08 330.062C389.531 329.146 390.161 328.433 390.971 327.925C391.78 327.416 392.682 327.162 393.678 327.162C395.26 327.162 396.481 327.667 397.341 328.677C398.207 329.687 398.641 331.115 398.641 332.963V334.016H391.046C391.125 334.975 391.443 335.734 392.002 336.293C392.568 336.852 393.277 337.131 394.129 337.131C395.325 337.131 396.299 336.647 397.051 335.681L398.458 337.023C397.993 337.718 397.369 338.259 396.589 338.646C395.815 339.025 394.945 339.215 393.979 339.215ZM393.667 329.257C392.951 329.257 392.371 329.507 391.927 330.009C391.49 330.51 391.211 331.208 391.089 332.104H396.062V331.91C396.005 331.036 395.772 330.378 395.364 329.934C394.956 329.482 394.39 329.257 393.667 329.257ZM413.1 339C412.985 338.778 412.885 338.416 412.799 337.915C411.968 338.782 410.951 339.215 409.748 339.215C408.581 339.215 407.628 338.882 406.891 338.216C406.153 337.55 405.784 336.726 405.784 335.745C405.784 334.506 406.243 333.557 407.159 332.898C408.083 332.232 409.401 331.899 411.112 331.899H412.713V331.137C412.713 330.535 412.545 330.055 412.208 329.697C411.871 329.332 411.359 329.149 410.672 329.149C410.077 329.149 409.59 329.3 409.211 329.601C408.831 329.894 408.642 330.27 408.642 330.729H406.031C406.031 330.091 406.243 329.497 406.665 328.945C407.088 328.387 407.66 327.95 408.384 327.635C409.114 327.32 409.927 327.162 410.822 327.162C412.183 327.162 413.268 327.506 414.077 328.193C414.886 328.874 415.302 329.833 415.323 331.072V336.314C415.323 337.36 415.47 338.194 415.764 338.817V339H413.1ZM410.231 337.12C410.747 337.12 411.23 336.995 411.682 336.744C412.14 336.493 412.484 336.157 412.713 335.734V333.543H411.306C410.339 333.543 409.612 333.711 409.125 334.048C408.638 334.384 408.395 334.861 408.395 335.477C408.395 335.978 408.559 336.379 408.889 336.68C409.225 336.973 409.673 337.12 410.231 337.12ZM428.235 333.307C428.235 335.104 427.827 336.54 427.011 337.614C426.194 338.681 425.099 339.215 423.724 339.215C422.449 339.215 421.428 338.796 420.662 337.958V343.469H418.052V327.377H420.458L420.565 328.559C421.332 327.628 422.374 327.162 423.691 327.162C425.109 327.162 426.219 327.692 427.021 328.752C427.831 329.805 428.235 331.269 428.235 333.146V333.307ZM425.636 333.081C425.636 331.921 425.403 331.001 424.938 330.32C424.479 329.64 423.82 329.3 422.961 329.3C421.894 329.3 421.128 329.74 420.662 330.621V335.777C421.135 336.68 421.908 337.131 422.982 337.131C423.813 337.131 424.461 336.798 424.927 336.132C425.399 335.459 425.636 334.442 425.636 333.081ZM437.398 339C437.284 338.778 437.184 338.416 437.098 337.915C436.267 338.782 435.25 339.215 434.047 339.215C432.88 339.215 431.927 338.882 431.189 338.216C430.452 337.55 430.083 336.726 430.083 335.745C430.083 334.506 430.541 333.557 431.458 332.898C432.382 332.232 433.7 331.899 435.411 331.899H437.012V331.137C437.012 330.535 436.843 330.055 436.507 329.697C436.17 329.332 435.658 329.149 434.971 329.149C434.376 329.149 433.889 329.3 433.51 329.601C433.13 329.894 432.94 330.27 432.94 330.729H430.33C430.33 330.091 430.541 329.497 430.964 328.945C431.386 328.387 431.959 327.95 432.683 327.635C433.413 327.32 434.226 327.162 435.121 327.162C436.482 327.162 437.567 327.506 438.376 328.193C439.185 328.874 439.601 329.833 439.622 331.072V336.314C439.622 337.36 439.769 338.194 440.062 338.817V339H437.398ZM434.53 337.12C435.046 337.12 435.529 336.995 435.98 336.744C436.439 336.493 436.783 336.157 437.012 335.734V333.543H435.604C434.638 333.543 433.911 333.711 433.424 334.048C432.937 334.384 432.693 334.861 432.693 335.477C432.693 335.978 432.858 336.379 433.188 336.68C433.524 336.973 433.972 337.12 434.53 337.12ZM448.441 329.762C448.098 329.704 447.743 329.676 447.378 329.676C446.182 329.676 445.376 330.134 444.961 331.051V339H442.351V327.377H444.843L444.907 328.677C445.537 327.667 446.411 327.162 447.528 327.162C447.901 327.162 448.209 327.212 448.452 327.312L448.441 329.762ZM454.994 339.215C453.34 339.215 451.997 338.696 450.966 337.657C449.942 336.612 449.43 335.222 449.43 333.489V333.167C449.43 332.007 449.652 330.972 450.096 330.062C450.547 329.146 451.177 328.433 451.986 327.925C452.796 327.416 453.698 327.162 454.693 327.162C456.276 327.162 457.497 327.667 458.356 328.677C459.223 329.687 459.656 331.115 459.656 332.963V334.016H452.062C452.14 334.975 452.459 335.734 453.018 336.293C453.583 336.852 454.292 337.131 455.145 337.131C456.34 337.131 457.314 336.647 458.066 335.681L459.474 337.023C459.008 337.718 458.385 338.259 457.604 338.646C456.831 339.025 455.961 339.215 454.994 339.215ZM454.683 329.257C453.966 329.257 453.386 329.507 452.942 330.009C452.506 330.51 452.226 331.208 452.104 332.104H457.078V331.91C457.021 331.036 456.788 330.378 456.38 329.934C455.972 329.482 455.406 329.257 454.683 329.257ZM466.467 337.131C467.118 337.131 467.659 336.941 468.089 336.562C468.519 336.182 468.748 335.713 468.776 335.154H471.236C471.208 335.878 470.982 336.554 470.56 337.185C470.137 337.808 469.564 338.302 468.841 338.667C468.118 339.032 467.337 339.215 466.499 339.215C464.873 339.215 463.584 338.688 462.632 337.636C461.679 336.583 461.203 335.129 461.203 333.274V333.006C461.203 331.237 461.676 329.823 462.621 328.763C463.566 327.696 464.855 327.162 466.488 327.162C467.87 327.162 468.995 327.567 469.861 328.376C470.735 329.178 471.193 330.234 471.236 331.545H468.776C468.748 330.879 468.519 330.331 468.089 329.901C467.666 329.472 467.126 329.257 466.467 329.257C465.622 329.257 464.97 329.565 464.512 330.181C464.053 330.789 463.821 331.717 463.813 332.963V333.382C463.813 334.642 464.039 335.584 464.49 336.207C464.949 336.823 465.607 337.131 466.467 337.131ZM478.326 339.215C476.672 339.215 475.329 338.696 474.298 337.657C473.274 336.612 472.762 335.222 472.762 333.489V333.167C472.762 332.007 472.984 330.972 473.428 330.062C473.879 329.146 474.509 328.433 475.318 327.925C476.128 327.416 477.03 327.162 478.025 327.162C479.608 327.162 480.829 327.667 481.688 328.677C482.555 329.687 482.988 331.115 482.988 332.963V334.016H475.394C475.472 334.975 475.791 335.734 476.35 336.293C476.915 336.852 477.624 337.131 478.477 337.131C479.673 337.131 480.646 336.647 481.398 335.681L482.806 337.023C482.34 337.718 481.717 338.259 480.937 338.646C480.163 339.025 479.293 339.215 478.326 339.215ZM478.015 329.257C477.299 329.257 476.718 329.507 476.274 330.009C475.838 330.51 475.558 331.208 475.437 332.104H480.41V331.91C480.353 331.036 480.12 330.378 479.712 329.934C479.304 329.482 478.738 329.257 478.015 329.257ZM491.109 329.762C490.766 329.704 490.411 329.676 490.046 329.676C488.85 329.676 488.044 330.134 487.629 331.051V339H485.019V327.377H487.511L487.575 328.677C488.205 327.667 489.079 327.162 490.196 327.162C490.569 327.162 490.877 327.212 491.12 327.312L491.109 329.762ZM499.381 339C499.266 338.778 499.166 338.416 499.08 337.915C498.249 338.782 497.232 339.215 496.029 339.215C494.862 339.215 493.91 338.882 493.172 338.216C492.434 337.55 492.065 336.726 492.065 335.745C492.065 334.506 492.524 333.557 493.44 332.898C494.364 332.232 495.682 331.899 497.394 331.899H498.994V331.137C498.994 330.535 498.826 330.055 498.489 329.697C498.153 329.332 497.641 329.149 496.953 329.149C496.359 329.149 495.872 329.3 495.492 329.601C495.113 329.894 494.923 330.27 494.923 330.729H492.312C492.312 330.091 492.524 329.497 492.946 328.945C493.369 328.387 493.942 327.95 494.665 327.635C495.396 327.32 496.208 327.162 497.104 327.162C498.464 327.162 499.549 327.506 500.358 328.193C501.168 328.874 501.583 329.833 501.604 331.072V336.314C501.604 337.36 501.751 338.194 502.045 338.817V339H499.381ZM496.513 337.12C497.028 337.12 497.512 336.995 497.963 336.744C498.421 336.493 498.765 336.157 498.994 335.734V333.543H497.587C496.62 333.543 495.893 333.711 495.406 334.048C494.919 334.384 494.676 334.861 494.676 335.477C494.676 335.978 494.84 336.379 495.17 336.68C495.507 336.973 495.954 337.12 496.513 337.12ZM497.963 322.5H500.938L497.963 325.755H495.868L497.963 322.5ZM516.762 339C516.647 338.778 516.547 338.416 516.461 337.915C515.63 338.782 514.613 339.215 513.41 339.215C512.243 339.215 511.29 338.882 510.553 338.216C509.815 337.55 509.446 336.726 509.446 335.745C509.446 334.506 509.905 333.557 510.821 332.898C511.745 332.232 513.063 331.899 514.774 331.899H516.375V331.137C516.375 330.535 516.207 330.055 515.87 329.697C515.534 329.332 515.021 329.149 514.334 329.149C513.74 329.149 513.253 329.3 512.873 329.601C512.493 329.894 512.304 330.27 512.304 330.729H509.693C509.693 330.091 509.905 329.497 510.327 328.945C510.75 328.387 511.323 327.95 512.046 327.635C512.776 327.32 513.589 327.162 514.484 327.162C515.845 327.162 516.93 327.506 517.739 328.193C518.549 328.874 518.964 329.833 518.985 331.072V336.314C518.985 337.36 519.132 338.194 519.426 338.817V339H516.762ZM513.894 337.12C514.409 337.12 514.893 336.995 515.344 336.744C515.802 336.493 516.146 336.157 516.375 335.734V333.543H514.968C514.001 333.543 513.274 333.711 512.787 334.048C512.3 334.384 512.057 334.861 512.057 335.477C512.057 335.978 512.221 336.379 512.551 336.68C512.887 336.973 513.335 337.12 513.894 337.12ZM521.23 333.092C521.23 331.273 521.646 329.83 522.477 328.763C523.307 327.696 524.432 327.162 525.85 327.162C527.146 327.162 528.174 327.617 528.933 328.526L529.083 327.377H531.403V343.469H528.793V338.012C528.034 338.814 527.046 339.215 525.828 339.215C524.439 339.215 523.325 338.674 522.487 337.593C521.649 336.504 521.23 335.004 521.23 333.092ZM523.841 333.317C523.841 334.506 524.074 335.441 524.539 336.121C525.012 336.794 525.663 337.131 526.494 337.131C527.525 337.131 528.292 336.69 528.793 335.81V330.524C528.292 329.679 527.533 329.257 526.516 329.257C525.685 329.257 525.03 329.59 524.55 330.256C524.077 330.922 523.841 331.942 523.841 333.317ZM541.265 337.861C540.498 338.764 539.41 339.215 537.999 339.215C536.739 339.215 535.783 338.846 535.131 338.108C534.486 337.371 534.164 336.304 534.164 334.907V327.377H536.774V334.875C536.774 336.35 537.387 337.088 538.611 337.088C539.879 337.088 540.735 336.633 541.179 335.724V327.377H543.789V339H541.329L541.265 337.861ZM549.225 339H546.614V327.377H549.225V339ZM546.453 324.358C546.453 323.957 546.578 323.624 546.829 323.359C547.087 323.094 547.452 322.962 547.925 322.962C548.397 322.962 548.763 323.094 549.021 323.359C549.278 323.624 549.407 323.957 549.407 324.358C549.407 324.752 549.278 325.082 549.021 325.347C548.763 325.604 548.397 325.733 547.925 325.733C547.452 325.733 547.087 325.604 546.829 325.347C546.578 325.082 546.453 324.752 546.453 324.358Z" fill="#D9D9D9"/>
<circle cx="336" cy="133" r="101" fill="#F7F7F7"/>
<path d="M451.262 90.9524H437.619V54.5714C437.619 44.5667 429.433 36.381 419.429 36.381H383.048V22.7381C383.048 10.1867 372.861 0 360.31 0C347.758 0 337.571 10.1867 337.571 22.7381V36.381H301.19C291.186 36.381 283.091 44.5667 283.091 54.5714V89.1333H296.643C310.195 89.1333 321.2 100.139 321.2 113.69C321.2 127.242 310.195 138.248 296.643 138.248H283V172.81C283 182.814 291.186 191 301.19 191H335.752V177.357C335.752 163.805 346.758 152.8 360.31 152.8C373.861 152.8 384.867 163.805 384.867 177.357V191H419.429C429.433 191 437.619 182.814 437.619 172.81V136.429H451.262C463.813 136.429 474 126.242 474 113.69C474 101.139 463.813 90.9524 451.262 90.9524Z" fill="#E5E5E5"/>
<path d="M404.5 52.125V59.25" stroke="white" stroke-width="2" stroke-linecap="round" stroke-linejoin="round"/>
<path d="M425.875 73.5H418.75" stroke="white" stroke-width="2" stroke-linecap="round" stroke-linejoin="round"/>
<path d="M419.614 88.6143L414.576 83.5762" stroke="white" stroke-width="2" stroke-linecap="round" stroke-linejoin="round"/>
<path d="M404.5 94.875V87.75" stroke="white" stroke-width="2" stroke-linecap="round" stroke-linejoin="round"/>
<path d="M389.385 88.6143L394.424 83.5762" stroke="white" stroke-width="2" stroke-linecap="round" stroke-linejoin="round"/>
<path d="M383.125 73.5H390.25" stroke="white" stroke-width="2" stroke-linecap="round" stroke-linejoin="round"/>
<path d="M389.385 58.3855L394.424 63.4236" stroke="white" stroke-width="2" stroke-linecap="round" stroke-linejoin="round"/>
</svg>
