<svg width="60" height="60" viewBox="0 0 60 60" fill="none" xmlns="http://www.w3.org/2000/svg">
<circle cx="30.1817" cy="30.6455" r="27.8183" transform="rotate(90 30.1817 30.6455)" fill="#7CFCF4"/>
<path d="M56.4182 28.5254L50.625 31.4202L43.125 17.0662L48.9772 14.1419C49.4169 13.9222 49.9253 13.8839 50.393 14.0351C50.8607 14.1864 51.2502 14.5151 51.4777 14.9506L57.2417 25.982C57.357 26.2026 57.4271 26.4439 57.448 26.6919C57.469 26.9399 57.4403 27.1895 57.3636 27.4263C57.2869 27.663 57.1638 27.8822 57.0015 28.0709C56.8392 28.2596 56.6409 28.4141 56.4182 28.5254V28.5254Z" stroke="#424C5A" stroke-width="2" stroke-linecap="round" stroke-linejoin="round"/>
<path d="M9.37484 31.1692L3.58164 28.2744C3.35893 28.1631 3.16062 28.0086 2.9983 27.8199C2.83598 27.6312 2.7129 27.4121 2.63624 27.1753C2.55958 26.9385 2.53087 26.6889 2.5518 26.4409C2.57272 26.193 2.64286 25.9516 2.75812 25.7311L8.52209 14.6996C8.74962 14.2641 9.13917 13.9354 9.60687 13.7841C10.0746 13.6329 10.583 13.6712 11.0227 13.8909L16.8748 16.8152L9.37484 31.1692Z" stroke="#424C5A" stroke-width="2" stroke-linecap="round" stroke-linejoin="round"/>
<path d="M50.625 31.4202L46.875 35.8045L38.2507 44.4234C38.0217 44.6523 37.7374 44.8179 37.4253 44.9043C37.1133 44.9907 36.7842 44.9948 36.4701 44.9163L22.8864 41.5225C22.6317 41.4589 22.3931 41.3424 22.1862 41.1808L9.375 31.1692" stroke="#424C5A" stroke-width="2" stroke-linecap="round" stroke-linejoin="round"/>
<path d="M46.875 35.8044L36.5625 28.3091L33.5625 30.5577C32.2643 31.5308 30.6853 32.0568 29.0625 32.0568C27.4397 32.0568 25.8607 31.5308 24.5625 30.5577L23.292 29.6055C23.0771 29.4444 22.8993 29.239 22.7707 29.0033C22.6422 28.7676 22.5658 28.507 22.5467 28.2392C22.5277 27.9714 22.5664 27.7027 22.6604 27.4512C22.7543 27.1996 22.9012 26.9712 23.0912 26.7814L32.2633 17.615C32.4374 17.441 32.6441 17.303 32.8716 17.2088C33.0991 17.1146 33.3429 17.0662 33.5891 17.0662H43.125" stroke="#424C5A" stroke-width="2" stroke-linecap="round" stroke-linejoin="round"/>
<path d="M17.0095 16.8151L29.0376 13.3107C29.4673 13.1855 29.9276 13.2181 30.3354 13.4025L38.4374 17.0662" stroke="#424C5A" stroke-width="2" stroke-linecap="round" stroke-linejoin="round"/>
<path d="M26.25 49.8583L19.1861 48.0935C18.8994 48.0218 18.6338 47.8835 18.4108 47.6898L13.125 43.0981" stroke="#424C5A" stroke-width="2" stroke-linecap="round" stroke-linejoin="round"/>
</svg>
