<svg width="40" height="40" viewBox="0 0 40 40" fill="none" xmlns="http://www.w3.org/2000/svg">
<circle cx="19.8365" cy="19.8369" r="17.7485" transform="rotate(90 19.8365 19.8369)" fill="#7CFCF4"/>
<path d="M23.75 17.4893H30" stroke="#424C5A" stroke-width="2" stroke-linecap="round" stroke-linejoin="round"/>
<path d="M23.75 22.4858H30" stroke="#424C5A" stroke-width="2" stroke-linecap="round" stroke-linejoin="round"/>
<path d="M14.3906 22.486C16.4617 22.486 18.1406 20.8082 18.1406 18.7384C18.1406 16.6686 16.4617 14.9907 14.3906 14.9907C12.3196 14.9907 10.6406 16.6686 10.6406 18.7384C10.6406 20.8082 12.3196 22.486 14.3906 22.486Z" stroke="#424C5A" stroke-width="2" stroke-linecap="round" stroke-linejoin="round"/>
<path d="M9.54883 26.2334C9.82626 25.1608 10.4524 24.2107 11.3289 23.5323C12.2054 22.854 13.2825 22.4859 14.3911 22.4858C15.4997 22.4858 16.5769 22.8538 17.4534 23.5321C18.3299 24.2104 18.9562 25.1605 19.2337 26.2331" stroke="#424C5A" stroke-width="2" stroke-linecap="round" stroke-linejoin="round"/>
<path d="M33.75 7.49512H6.25C5.55964 7.49512 5 8.05441 5 8.74434V31.2303C5 31.9202 5.55964 32.4795 6.25 32.4795H33.75C34.4404 32.4795 35 31.9202 35 31.2303V8.74434C35 8.05441 34.4404 7.49512 33.75 7.49512Z" stroke="#424C5A" stroke-width="2" stroke-linecap="round" stroke-linejoin="round"/>
</svg>
