<svg width="43" height="43" viewBox="0 0 43 43" fill="none" xmlns="http://www.w3.org/2000/svg">
<circle cx="21.5" cy="21.5" r="21.5" transform="rotate(-90 21.5 21.5)" fill="#1BEAE4"/>
<path d="M30 33H12C11.7347 33 11.4804 32.8946 11.2929 32.7071C11.1053 32.5196 11 32.2652 11 32V10C11 9.73479 11.1053 9.48044 11.2929 9.2929C11.4804 9.10537 11.7347 9.00001 12 9H24.0003L31 16V32C31 32.2652 30.8947 32.5196 30.7071 32.7071C30.5196 32.8946 30.2653 33 30 33Z" fill="white" stroke="#424C5A" stroke-width="2" stroke-linecap="round" stroke-linejoin="round"/>
<path d="M15.9701 26.8352C16.485 25.7991 16.7521 24.6575 16.7504 23.5005C16.7499 22.9382 16.876 22.3831 17.1195 21.8763C17.3629 21.3695 17.7174 20.924 18.1566 20.573" stroke="#424C5A" stroke-linecap="round" stroke-linejoin="round"/>
<path d="M20.5004 23.5005C20.5034 25.4065 20.0198 27.2817 19.0956 28.9486" stroke="#424C5A" stroke-linecap="round" stroke-linejoin="round"/>
<path d="M18.6254 23.5005C18.6254 23.0032 18.8229 22.5263 19.1745 22.1747C19.5262 21.823 20.0031 21.6255 20.5004 21.6255C20.9976 21.6255 21.4746 21.823 21.8262 22.1747C22.1778 22.5263 22.3754 23.0032 22.3754 23.5005C22.3781 25.4331 21.9524 27.3423 21.1288 29.0907" stroke="#424C5A" stroke-linecap="round" stroke-linejoin="round"/>
<path d="M25.8066 26.7817C26.0192 25.7009 26.1259 24.602 26.1254 23.5005C26.1254 22.0086 25.5327 20.5779 24.4779 19.523C23.423 18.4681 21.9922 17.8755 20.5004 17.8755C19.0085 17.8755 17.5778 18.4681 16.5229 19.523C15.468 20.5779 14.8754 22.0086 14.8754 23.5005C14.8761 24.1391 14.7678 24.7732 14.5553 25.3755" stroke="#424C5A" stroke-linecap="round" stroke-linejoin="round"/>
<path d="M18.4379 25.3755C18.2378 26.3611 17.8793 27.3079 17.3765 28.1789" stroke="#424C5A" stroke-linecap="round" stroke-linejoin="round"/>
<path d="M20.0316 19.7795C20.5594 19.7135 21.0952 19.7604 21.6035 19.9172C22.1118 20.074 22.581 20.337 22.9799 20.6889C23.3788 21.0407 23.6984 21.4734 23.9174 21.9581C24.1365 22.4428 24.2499 22.9686 24.2504 23.5005C24.2505 24.1273 24.2118 24.7535 24.1343 25.3755" stroke="#424C5A" stroke-linecap="round" stroke-linejoin="round"/>
<path d="M23.7778 27.2505C23.6886 27.5973 23.5874 27.9391 23.4742 28.2759" stroke="#424C5A" stroke-linecap="round" stroke-linejoin="round"/>
<path d="M24 9V16H31.001" stroke="#424C5A" stroke-width="2" stroke-linecap="round" stroke-linejoin="round"/>
</svg>
