<svg width="43" height="43" viewBox="0 0 43 43" fill="none" xmlns="http://www.w3.org/2000/svg">
<circle cx="21.5" cy="21.5" r="21.5" transform="rotate(-90 21.5 21.5)" fill="#FF4D4D"/>
<path d="M20.6487 13.7703C22.4609 13.7703 23.9299 12.3022 23.9299 10.4911C23.9299 8.68006 22.4609 7.21191 20.6487 7.21191C18.8365 7.21191 17.3674 8.68006 17.3674 10.4911C17.3674 12.3022 18.8365 13.7703 20.6487 13.7703Z" fill="white" stroke="#424C5A" stroke-linecap="round" stroke-linejoin="round"/>
<path d="M23.6983 21.1153L27.7702 24.2803C28.0339 24.5439 28.3916 24.6919 28.7646 24.6919C29.1375 24.6919 29.4952 24.5439 29.7589 24.2803C30.0226 24.0168 30.1708 23.6593 30.1708 23.2866C30.1708 22.9138 30.0226 22.5564 29.7589 22.2928L25.1185 16.3303C24.9011 16.1125 24.6428 15.9398 24.3584 15.822C24.074 15.7043 23.7691 15.6439 23.4613 15.6443H17.8363C17.5284 15.6439 17.2235 15.7043 16.9391 15.822C16.6547 15.9398 16.3964 16.1125 16.179 16.3303L11.5386 22.2928C11.408 22.4233 11.3044 22.5782 11.2338 22.7488C11.1631 22.9193 11.1267 23.102 11.1267 23.2866C11.1267 23.4711 11.1631 23.6539 11.2338 23.8244C11.3044 23.9949 11.408 24.1498 11.5386 24.2803C11.6692 24.4108 11.8242 24.5143 11.9948 24.585C12.1654 24.6556 12.3483 24.6919 12.533 24.6919C12.7176 24.6919 12.9005 24.6556 13.0711 24.585C13.2417 24.5143 13.3967 24.4108 13.5273 24.2803L17.5992 21.1153L14.3492 31.3738C14.1915 31.7116 14.1747 32.0981 14.3022 32.4484C14.4298 32.7986 14.6913 33.0839 15.0294 33.2414C15.3674 33.3989 15.7542 33.4158 16.1046 33.2883C16.4551 33.1609 16.7405 32.8995 16.8982 32.5617L20.6488 26.6625L24.3994 32.5617C24.5575 32.8987 24.8429 33.1593 25.193 33.2862C25.5432 33.4132 25.9294 33.3961 26.2669 33.2388C26.6045 33.0815 26.8658 32.7968 26.9936 32.4471C27.1213 32.0975 27.1051 31.7115 26.9483 31.3738L23.6983 21.1153Z" fill="white" stroke="#424C5A" stroke-linecap="round" stroke-linejoin="round"/>
</svg>
