<svg width="60" height="66" viewBox="0 0 60 66" fill="none" xmlns="http://www.w3.org/2000/svg">
<circle cx="30.0217" cy="38.7749" r="26.625" transform="rotate(90 30.0217 38.7749)" fill="#7CFCF4"/>
<path d="M41.25 15H18.75V26.25H41.25V15Z" stroke="#424C5A" stroke-width="2" stroke-linecap="round" stroke-linejoin="round"/>
<path d="M48.75 50.625V9.375C48.75 8.33947 47.9105 7.5 46.875 7.5L13.125 7.5C12.0895 7.5 11.25 8.33947 11.25 9.375V50.625C11.25 51.6605 12.0895 52.5 13.125 52.5H46.875C47.9105 52.5 48.75 51.6605 48.75 50.625Z" stroke="#424C5A" stroke-width="2" stroke-linecap="round" stroke-linejoin="round"/>
<path d="M20.625 37.5C22.1783 37.5 23.4375 36.2408 23.4375 34.6875C23.4375 33.1342 22.1783 31.875 20.625 31.875C19.0717 31.875 17.8125 33.1342 17.8125 34.6875C17.8125 36.2408 19.0717 37.5 20.625 37.5Z" fill="#424C5A"/>
<path d="M30 37.5C31.5533 37.5 32.8125 36.2408 32.8125 34.6875C32.8125 33.1342 31.5533 31.875 30 31.875C28.4467 31.875 27.1875 33.1342 27.1875 34.6875C27.1875 36.2408 28.4467 37.5 30 37.5Z" fill="#424C5A"/>
<path d="M39.375 37.5C40.9283 37.5 42.1875 36.2408 42.1875 34.6875C42.1875 33.1342 40.9283 31.875 39.375 31.875C37.8217 31.875 36.5625 33.1342 36.5625 34.6875C36.5625 36.2408 37.8217 37.5 39.375 37.5Z" fill="#424C5A"/>
<path d="M20.625 46.875C22.1783 46.875 23.4375 45.6158 23.4375 44.0625C23.4375 42.5092 22.1783 41.25 20.625 41.25C19.0717 41.25 17.8125 42.5092 17.8125 44.0625C17.8125 45.6158 19.0717 46.875 20.625 46.875Z" fill="#424C5A"/>
<path d="M30 46.875C31.5533 46.875 32.8125 45.6158 32.8125 44.0625C32.8125 42.5092 31.5533 41.25 30 41.25C28.4467 41.25 27.1875 42.5092 27.1875 44.0625C27.1875 45.6158 28.4467 46.875 30 46.875Z" fill="#424C5A"/>
<path d="M39.375 46.875C40.9283 46.875 42.1875 45.6158 42.1875 44.0625C42.1875 42.5092 40.9283 41.25 39.375 41.25C37.8217 41.25 36.5625 42.5092 36.5625 44.0625C36.5625 45.6158 37.8217 46.875 39.375 46.875Z" fill="#424C5A"/>
</svg>
