<svg width="54" height="54" viewBox="0 0 54 54" fill="none" xmlns="http://www.w3.org/2000/svg">
<circle cx="26.625" cy="26.7749" r="26.625" transform="rotate(90 26.625 26.7749)" fill="#7CFCF4"/>
<path d="M6.5 44.8427V12.363C6.5 11.9323 6.67121 11.5192 6.97595 11.2147C7.2807 10.9101 7.69402 10.739 8.125 10.739H43.875C44.306 10.739 44.7193 10.9101 45.024 11.2147C45.3288 11.5192 45.5 11.9323 45.5 12.363V44.8427L39 41.5947L32.5 44.8427L26 41.5947L19.5 44.8427L13 41.5947L6.5 44.8427Z" stroke="#424C5A" stroke-width="2" stroke-linecap="round" stroke-linejoin="round"/>
<path d="M29.25 23.731H39" stroke="#424C5A" stroke-width="2" stroke-linecap="round" stroke-linejoin="round"/>
<path d="M29.25 30.2268H39" stroke="#424C5A" stroke-width="2" stroke-linecap="round" stroke-linejoin="round"/>
<path d="M22.75 20.4829H13V33.4748H22.75V20.4829Z" stroke="#424C5A" stroke-width="2" stroke-linecap="round" stroke-linejoin="round"/>
</svg>
