<svg width="60" height="61" viewBox="0 0 60 61" fill="none" xmlns="http://www.w3.org/2000/svg">
<circle cx="31.2219" cy="32.675" r="26.625" transform="rotate(90 31.2219 32.675)" fill="#7CFCF4"/>
<path d="M24.375 19.25V48.2465C24.375 48.5552 24.2988 48.8591 24.1531 49.1313C24.0075 49.4034 23.7969 49.6354 23.5401 49.8066L20.9638 51.5241C20.7138 51.6908 20.4274 51.795 20.1287 51.8278C19.83 51.8607 19.5279 51.8213 19.2476 51.7129C18.9673 51.6046 18.7172 51.4304 18.5183 51.2052C18.3194 50.98 18.1776 50.7103 18.1047 50.4188L15 38" stroke="#424C5A" stroke-width="2" stroke-linecap="round" stroke-linejoin="round"/>
<path d="M15 37.9999C12.5136 37.9999 10.129 37.0122 8.37087 35.254C6.61272 33.4959 5.625 31.1113 5.625 28.6249C5.625 26.1385 6.61272 23.7539 8.37087 21.9958C10.129 20.2376 12.5136 19.2499 15 19.2499H24.375C24.375 19.2499 37.1371 19.2499 49.4182 8.94967C49.6914 8.71978 50.0244 8.57267 50.3783 8.52563C50.7322 8.47858 51.0922 8.53357 51.4159 8.68412C51.7396 8.83466 52.0136 9.07451 52.2056 9.37546C52.3977 9.6764 52.4998 10.0259 52.5 10.3829V46.8669C52.4998 47.2239 52.3977 47.5734 52.2056 47.8743C52.0136 48.1753 51.7396 48.4151 51.4159 48.5657C51.0922 48.7162 50.7322 48.7712 50.3783 48.7242C50.0244 48.6771 49.6914 48.53 49.4182 48.3001C37.1371 37.9999 24.375 37.9999 24.375 37.9999H15Z" stroke="#424C5A" stroke-width="2" stroke-linecap="round" stroke-linejoin="round"/>
</svg>
