<svg width="33" height="32" viewBox="0 0 33 32" fill="none" xmlns="http://www.w3.org/2000/svg">
<path d="M26.0161 5H6.00355C5.45092 5 5.00293 5.44772 5.00293 6V26C5.00293 26.5523 5.45092 27 6.00355 27H26.0161C26.5687 27 27.0167 26.5523 27.0167 26V6C27.0167 5.44772 26.5687 5 26.0161 5Z" stroke="#1BEAE4" stroke-width="2" stroke-linecap="round" stroke-linejoin="round"/>
<path d="M22.0137 3V7" stroke="#1BEAE4" stroke-width="2" stroke-linecap="round" stroke-linejoin="round"/>
<path d="M10.0059 3V7" stroke="#1BEAE4" stroke-width="2" stroke-linecap="round" stroke-linejoin="round"/>
<path d="M5.00293 11H27.0167" stroke="#1BEAE4" stroke-width="2" stroke-linecap="round" stroke-linejoin="round"/>
<path d="M11.5073 15.999H15.0095L13.0083 18.499C13.3373 18.499 13.6613 18.5801 13.9515 18.7351C14.2417 18.8901 14.4892 19.1142 14.6721 19.3876C14.8549 19.661 14.9675 19.9753 14.9998 20.3025C15.0322 20.6298 14.9832 20.96 14.8574 21.2638C14.7316 21.5677 14.5327 21.8358 14.2784 22.0446C14.0241 22.2533 13.7223 22.3961 13.3996 22.4604C13.0769 22.5247 12.7433 22.5085 12.4284 22.4132C12.1134 22.3179 11.8268 22.1465 11.594 21.9141" stroke="#1BEAE4" stroke-width="2" stroke-linecap="round" stroke-linejoin="round"/>
<path d="M18.0112 17.499L20.0125 15.999V22.499" stroke="#1BEAE4" stroke-width="2" stroke-linecap="round" stroke-linejoin="round"/>
</svg>
