<svg width="58" height="62" viewBox="0 0 58 62" fill="none" xmlns="http://www.w3.org/2000/svg">
<circle cx="30.4999" cy="36.0919" r="25.5001" transform="rotate(90 30.4999 36.0919)" fill="#7CFCF4"/>
<path d="M8.97974 14.3673V43.1023C8.97974 44.0549 9.35816 44.9685 10.0318 45.6421C10.7054 46.3157 11.619 46.6941 12.5716 46.6941H48.4904C48.9667 46.6941 49.4235 46.5049 49.7603 46.1681C50.0971 45.8313 50.2863 45.3745 50.2863 44.8982V19.7551C50.2863 19.2788 50.0971 18.822 49.7603 18.4852C49.4235 18.1484 48.9667 17.9591 48.4904 17.9591H12.5716C11.619 17.9591 10.7054 17.5807 10.0318 16.9071C9.35816 16.2335 8.97974 15.3199 8.97974 14.3673ZM8.97974 14.3673C8.97974 13.4146 9.35816 12.501 10.0318 11.8274C10.7054 11.1538 11.619 10.7754 12.5716 10.7754H43.1025" stroke="#424C5A" stroke-width="2" stroke-linecap="round" stroke-linejoin="round"/>
<path d="M40.4085 35.0206C41.8963 35.0206 43.1024 33.8145 43.1024 32.3267C43.1024 30.8389 41.8963 29.6328 40.4085 29.6328C38.9207 29.6328 37.7146 30.8389 37.7146 32.3267C37.7146 33.8145 38.9207 35.0206 40.4085 35.0206Z" fill="#424C5A"/>
</svg>
