<svg width="60" height="67" viewBox="0 0 60 67" fill="none" xmlns="http://www.w3.org/2000/svg">
<circle cx="30.4998" cy="41.0919" r="25.5002" transform="rotate(90 30.4998 41.0919)" fill="#7CFCF4"/>
<path d="M46.8749 52.467H13.123C12.6258 52.467 12.1489 52.2696 11.7972 51.9182C11.4456 51.5667 11.248 51.0901 11.248 50.5932V9.36894C11.248 8.87197 11.4456 8.39536 11.7972 8.04395C12.1489 7.69254 12.6258 7.49512 13.123 7.49512H35.6249L48.7499 20.6119V50.5931C48.7499 50.8392 48.7014 51.0829 48.6071 51.3102C48.5129 51.5376 48.3748 51.7442 48.2007 51.9182C48.0266 52.0922 47.8199 52.2302 47.5924 52.3244C47.3649 52.4185 47.1211 52.467 46.8749 52.467Z" stroke="#424C5A" stroke-width="2" stroke-linecap="round" stroke-linejoin="round"/>
<path d="M35.625 7.49512V20.6119H48.7519" stroke="#424C5A" stroke-width="2" stroke-linecap="round" stroke-linejoin="round"/>
<path d="M24.6521 46.8457V31.8551" stroke="#424C5A" stroke-width="2" stroke-linecap="round" stroke-linejoin="round"/>
<path d="M35.9021 46.8457V31.8551" stroke="#424C5A" stroke-width="2" stroke-linecap="round" stroke-linejoin="round"/>
</svg>
