<svg width="43" height="45" viewBox="0 0 43 45" fill="none" xmlns="http://www.w3.org/2000/svg">
<circle cx="21.4744" cy="23.3201" r="21.4744" fill="#7CFCF4"/>
<path d="M8.5 21.8103V32.4997C8.5 32.8312 8.6317 33.1491 8.86612 33.3835C9.10054 33.618 9.41848 33.7497 9.75 33.7497H32.25C32.5815 33.7497 32.8995 33.618 33.1339 33.3835C33.3683 33.1491 33.5 32.8312 33.5 32.4997V21.8105" fill="white"/>
<path d="M8.5 21.8103V32.4997C8.5 32.8312 8.6317 33.1491 8.86612 33.3835C9.10054 33.618 9.41848 33.7497 9.75 33.7497H32.25C32.5815 33.7497 32.8995 33.618 33.1339 33.3835C33.3683 33.1491 33.5 32.8312 33.5 32.4997V21.8105" stroke="#424C5A" stroke-width="2" stroke-linecap="round" stroke-linejoin="round"/>
<path d="M9.44288 6.25H32.5571C32.8288 6.25 33.093 6.33849 33.3099 6.50206C33.5267 6.66564 33.6844 6.89541 33.759 7.1566L36 15H6L8.24097 7.1566C8.3156 6.89541 8.47327 6.66564 8.69013 6.50206C8.90699 6.33849 9.17124 6.25 9.44288 6.25Z" fill="white" stroke="#424C5A" stroke-width="2" stroke-linecap="round" stroke-linejoin="round"/>
<path d="M16 15V17.5C16 18.8261 15.4732 20.0979 14.5355 21.0355C13.5979 21.9732 12.3261 22.5 11 22.5C9.67392 22.5 8.40215 21.9732 7.46447 21.0355C6.52678 20.0979 6 18.8261 6 17.5V15" stroke="#424C5A" stroke-width="2" stroke-linecap="round" stroke-linejoin="round"/>
<path d="M26 15V17.5C26 18.8261 25.4732 20.0979 24.5355 21.0355C23.5979 21.9732 22.3261 22.5 21 22.5C19.6739 22.5 18.4021 21.9732 17.4645 21.0355C16.5268 20.0979 16 18.8261 16 17.5V15" stroke="#424C5A" stroke-width="2" stroke-linecap="round" stroke-linejoin="round"/>
<path d="M36 15V17.5C36 18.8261 35.4732 20.0979 34.5355 21.0355C33.5979 21.9732 32.3261 22.5 31 22.5C29.6739 22.5 28.4021 21.9732 27.4645 21.0355C26.5268 20.0979 26 18.8261 26 17.5V15" stroke="#424C5A" stroke-width="2" stroke-linecap="round" stroke-linejoin="round"/>
</svg>
