<svg width="35" height="39" viewBox="0 0 35 39" fill="none" xmlns="http://www.w3.org/2000/svg">
<circle cx="17.5" cy="21.5" r="17.5" fill="#7CFCF4"/>
<path d="M22.853 8H10.853V14H22.853V8Z" stroke="#424C5A" stroke-width="2" stroke-linecap="round" stroke-linejoin="round"/>
<path d="M26.853 27V5C26.853 4.44772 26.4053 4 25.853 4L7.85303 4C7.30074 4 6.85303 4.44772 6.85303 5V27C6.85303 27.5523 7.30074 28 7.85303 28H25.853C26.4053 28 26.853 27.5523 26.853 27Z" stroke="#424C5A" stroke-width="2" stroke-linecap="round" stroke-linejoin="round"/>
<path d="M11.853 20C12.6815 20 13.353 19.3284 13.353 18.5C13.353 17.6716 12.6815 17 11.853 17C11.0246 17 10.353 17.6716 10.353 18.5C10.353 19.3284 11.0246 20 11.853 20Z" fill="#424C5A"/>
<path d="M16.853 20C17.6815 20 18.353 19.3284 18.353 18.5C18.353 17.6716 17.6815 17 16.853 17C16.0246 17 15.353 17.6716 15.353 18.5C15.353 19.3284 16.0246 20 16.853 20Z" fill="#424C5A"/>
<path d="M21.853 20C22.6815 20 23.353 19.3284 23.353 18.5C23.353 17.6716 22.6815 17 21.853 17C21.0246 17 20.353 17.6716 20.353 18.5C20.353 19.3284 21.0246 20 21.853 20Z" fill="#424C5A"/>
<path d="M11.853 25C12.6815 25 13.353 24.3284 13.353 23.5C13.353 22.6716 12.6815 22 11.853 22C11.0246 22 10.353 22.6716 10.353 23.5C10.353 24.3284 11.0246 25 11.853 25Z" fill="#424C5A"/>
<path d="M16.853 25C17.6815 25 18.353 24.3284 18.353 23.5C18.353 22.6716 17.6815 22 16.853 22C16.0246 22 15.353 22.6716 15.353 23.5C15.353 24.3284 16.0246 25 16.853 25Z" fill="#424C5A"/>
<path d="M21.853 25C22.6815 25 23.353 24.3284 23.353 23.5C23.353 22.6716 22.6815 22 21.853 22C21.0246 22 20.353 22.6716 20.353 23.5C20.353 24.3284 21.0246 25 21.853 25Z" fill="#424C5A"/>
</svg>
