<?xml version="1.0" encoding="utf-8"?>
<!-- Generator: Adobe Illustrator 24.2.1, SVG Export Plug-In . SVG Version: 6.00 Build 0)  -->
<svg version="1.1" id="Capa_1" xmlns="http://www.w3.org/2000/svg" xmlns:xlink="http://www.w3.org/1999/xlink" x="0px" y="0px"
	 viewBox="0 0 70 70" style="enable-background:new 0 0 70 70;" xml:space="preserve">
<style type="text/css">
	.st0{fill-rule:evenodd;clip-rule:evenodd;}
</style>
<desc>Created with Sketch.</desc>
<g id="call">
	<path id="Shape" class="st0" d="M56.4,53.6l-18.1-6c-0.9-0.3-1.6,0.1-2.1,0.9L34,53c-8.1-3-13.6-8.2-16.4-15.2l4.2-3.1
		c0.6-0.4,0.9-1,0.6-1.8l-4.9-18.1c-0.3-0.9-1-1.3-1.9-1.2C11,14.3,5.8,15.7,2.8,20c-2.4,3.4-2.7,8.4-1,14.8
		c2.8,10.7,17.6,32.4,36.1,34.9c1.2,0.1,2.5,0.3,3.7,0.3c6.6,0,10.3-2.4,12.4-4.5c3.3-3.3,4-7.6,3.6-10.4
		C57.5,54.3,57,53.7,56.4,53.6z M51.5,63c-2.8,2.8-7.2,3.9-13.1,3.1C21.6,63.7,7.9,43.6,5.2,33.7c-1.3-5.4-1-9.4,0.6-11.9
		c1.5-2.2,4.3-3.7,8.8-4.6l4.2,15.4l-4.2,3.1c-0.6,0.4-0.9,1.2-0.6,1.9c3.1,9.1,10,15.5,20.4,19.1c0.9,0.3,1.6-0.1,2.1-0.9l2.4-4.8
		l15.5,5.1C54,58.2,53.6,60.9,51.5,63z M42.5,14.5h7.8c1,0,1.6-0.9,1.6-1.6c0-0.9-0.9-1.6-1.6-1.6h-7.8c-1,0-1.6,0.9-1.6,1.6
		C40.9,13.7,41.6,14.5,42.5,14.5z M64.9,6.4C61,2.4,55.1,0,48.6,0C37.3,0,28,7.9,28,17.6c0,5.7,3.3,11,8.8,14.3l-2.5,6.1
		c-0.3,0.7-0.1,1.3,0.4,1.9c0.3,0.3,0.7,0.4,1.2,0.4c0.3,0,0.6,0,0.7-0.1l11-5.2h0.9c11.3,0,20.6-7.9,20.6-17.6
		C69.4,13.3,67.7,9.4,64.9,6.4z M48.6,31.5h-1.2c-0.3,0-0.6,0-0.7,0.1l-7.5,3.4l1.3-3.4c0.3-0.9,0-1.8-0.9-2.2
		c-5.1-2.5-8.4-7.2-8.4-11.9c0-7.8,7.8-14.2,17.2-14.2c5.4,0,10.6,1.9,13.7,5.4c2.4,2.5,3.6,5.4,3.4,8.7
		C65.8,25.1,58,31.5,48.6,31.5z M59.7,18.8H42.5c-1,0-1.6,0.9-1.6,1.6c0,0.7,0.9,1.6,1.6,1.6h17.2c1,0,1.6-0.9,1.6-1.6
		C61.3,19.7,60.7,18.8,59.7,18.8z"/>
</g>
</svg>
