<svg width="50" height="50" viewBox="0 0 50 50" fill="none" xmlns="http://www.w3.org/2000/svg">
<circle cx="25.8451" cy="26.9727" r="22.8451" fill="#7CFCF4"/>
<path d="M40.625 40.625H9.375C8.5462 40.625 7.75134 40.2958 7.16529 39.7097C6.57924 39.1237 6.25 38.3288 6.25 37.5V15.625C6.25 14.7962 6.57924 14.0013 7.16529 13.4153C7.75134 12.8292 8.5462 12.5 9.375 12.5H15.6239L18.7489 7.8125H31.2489L34.3739 12.5H40.625C41.4538 12.5 42.2487 12.8292 42.8347 13.4153C43.4208 14.0013 43.75 14.7962 43.75 15.625V37.5C43.75 38.3288 43.4208 39.1237 42.8347 39.7097C42.2487 40.2958 41.4538 40.625 40.625 40.625Z" stroke="#424C5A" stroke-width="2" stroke-linecap="round" stroke-linejoin="round"/>
<path d="M25 32.8125C28.8833 32.8125 32.0312 29.6645 32.0312 25.7812C32.0312 21.898 28.8833 18.75 25 18.75C21.1167 18.75 17.9688 21.898 17.9688 25.7812C17.9688 29.6645 21.1167 32.8125 25 32.8125Z" stroke="#424C5A" stroke-width="2" stroke-linecap="round" stroke-linejoin="round"/>
</svg>
