<?xml version="1.0" encoding="utf-8"?>
<!-- Generator: Adobe Illustrator 24.2.1, SVG Export Plug-In . SVG Version: 6.00 Build 0)  -->
<svg version="1.1" id="Capa_1" xmlns="http://www.w3.org/2000/svg" xmlns:xlink="http://www.w3.org/1999/xlink" x="0px" y="0px"
	 viewBox="0 0 70 70" style="enable-background:new 0 0 70 70;" xml:space="preserve">
<style type="text/css">
	.st0{fill-rule:evenodd;clip-rule:evenodd;}
</style>
<desc>Created with Sketch.</desc>
<g id="card-caja">
	<path id="Shape" class="st0" d="M53.7,43H40.4c-0.6,0-1.1,0.4-1.1,1.1c0,0.7,0.4,1.1,1.1,1.1h13.3c0.6,0,1.1-0.4,1.1-1.1
		C54.9,43.4,54.3,43,53.7,43z M65.3,14.1H4.5c-2.5,0-4.5,2-4.5,4.5v32.7c0,2.5,2,4.5,4.5,4.5h60.9c2.5,0,4.5-2,4.5-4.5V18.8
		C70,16.3,67.9,14.1,65.3,14.1z M67.7,51.3c0,1.3-1.1,2.4-2.4,2.4H4.5c-1.3,0-2.4-1.1-2.4-2.4V18.8c0-1.3,1.1-2.4,2.4-2.4h60.9
		c1.3,0,2.4,1.1,2.4,2.4v32.5H67.7z M61.5,33.8H40.4c-0.6,0-1.1,0.4-1.1,1.1s0.4,1.1,1.1,1.1h21.1c0.6,0,1.1-0.4,1.1-1.1
		S62.1,33.8,61.5,33.8z M61.5,24.6H40.4c-0.6,0-1.1,0.4-1.1,1.1c0,0.7,0.4,1.1,1.1,1.1h21.1c0.6,0,1.1-0.4,1.1-1.1
		C62.6,25,62.1,24.6,61.5,24.6z M31.5,36.6h-0.1h-0.3c1.1-0.6,2-1.7,2.1-3.1v-1.3c0-2-1.6-3.5-3.5-3.5c-2,0-3.5,1.6-3.5,3.5v1.3
		c0,1.4,0.8,2.7,2.1,3.1h-0.7h-0.1c-1.4,0.3-2.1,0.8-2.7,1.6c-0.6-0.3-1.3-0.6-2-0.7h-0.1h-5.5H17c-0.1,0-0.3,0.1-0.4,0.1
		c-0.7-0.4-1.4-0.8-2.4-1H14h-1.7c1.7-0.1,3.3-1.4,3.5-3.1c0.4,2,2.3,3.5,4.4,3.5c2.4,0,4.5-2,4.5-4.5v-1.7c0-2.5-2-4.5-4.5-4.5
		c-2.4,0-4.2,1.8-4.5,4.1c-0.4-1.7-2-3-3.8-3c-2.1,0-4,1.7-4,4v1.4c0,2,1.6,3.7,3.5,3.8H9.2H9.1c-2.4,0.4-3.3,1.8-3.5,3
		c0,0.1,0,0.1,0,0.3v2.5c0,0.6,0.4,1.1,1.1,1.1s1.1-0.4,1.1-1.1V40c0.1-0.6,0.6-1.1,1.8-1.3h4.1c0.1,0,0.1,0,0.1,0
		c-0.7,0.7-1.1,1.4-1.3,2.1c0,0.1,0,0.1,0,0.3v3.1c0,0.6,0.4,1.1,1.1,1.1s1.1-0.4,1.1-1.1v-3c0.3-0.7,0.7-1.4,2.4-1.8h5.4
		c1.4,0.3,2.4,0.8,3,1.8v3c0,0.6,0.4,1.1,1.1,1.1s1.1-0.4,1.1-1.1V41c0-0.1,0-0.3-0.1-0.6c-0.3-0.4-0.6-1-1-1.3
		c0.1-0.3,0.6-0.6,1.1-0.7h3.7c0.8,0.1,1.4,0.6,1.8,1.1v2c0,0.6,0.4,1.1,1.1,1.1c0.7,0,1.1-0.4,1.1-1.1v-2.3c0-0.1,0-0.3-0.1-0.6
		C34.4,37.8,33.2,37.1,31.5,36.6z M17.7,30.8c0-1.3,1.1-2.4,2.4-2.4c1.3,0,2.4,1.1,2.4,2.4v1.7c0,1.3-1.1,2.4-2.4,2.4
		c-1.3,0-2.4-1.1-2.4-2.4V30.8z M10,32.8v-1.4c0-1,0.8-1.7,1.7-1.7c0.8,0,1.7,0.8,1.7,1.7v1.4c0,1-0.8,1.8-1.7,1.8
		C10.9,34.6,10,33.8,10,32.8z M31,33.5c0,0.7-0.6,1.4-1.4,1.4c-0.7,0-1.4-0.6-1.4-1.4v-1.3c0-0.7,0.6-1.4,1.4-1.4
		c0.7,0,1.4,0.6,1.4,1.4V33.5z"/>
</g>
</svg>
