<svg width="50" height="57" viewBox="0 0 50 57" fill="none" xmlns="http://www.w3.org/2000/svg">
<circle cx="25.3125" cy="33.9819" r="22.1875" fill="#7CFCF4"/>
<path d="M40.625 7.8125H9.375C8.51206 7.8125 7.8125 8.51206 7.8125 9.375V40.625C7.8125 41.4879 8.51206 42.1875 9.375 42.1875H40.625C41.4879 42.1875 42.1875 41.4879 42.1875 40.625V9.375C42.1875 8.51206 41.4879 7.8125 40.625 7.8125Z" fill="white" stroke="#424C5A" stroke-width="2" stroke-linecap="round" stroke-linejoin="round"/>
<path d="M34.375 4.6875V10.9375" stroke="#424C5A" stroke-width="2" stroke-linecap="round" stroke-linejoin="round"/>
<path d="M15.625 4.6875V10.9375" stroke="#424C5A" stroke-width="2" stroke-linecap="round" stroke-linejoin="round"/>
<path d="M7.8125 17.1875H42.1875" stroke="#424C5A" stroke-width="2" stroke-linecap="round" stroke-linejoin="round"/>
<path d="M20 20.625V27.5H13.125L20 20.625Z" fill="#7CFCF4"/>
<path d="M19.4922 20.8398H13.6328C13.471 20.8398 13.3398 20.971 13.3398 21.1328V26.9922C13.3398 27.154 13.471 27.2852 13.6328 27.2852H19.4922C19.654 27.2852 19.7852 27.154 19.7852 26.9922V21.1328C19.7852 20.971 19.654 20.8398 19.4922 20.8398Z" stroke="#424C5A" stroke-linecap="round" stroke-linejoin="round"/>
<path d="M17.7344 22.8906L15.3906 25.2344" stroke="#424C5A" stroke-linecap="round" stroke-linejoin="round"/>
<path d="M17.7344 25.2344L15.3906 22.8906" stroke="#424C5A" stroke-linecap="round" stroke-linejoin="round"/>
<path d="M28.75 20.625V27.5H21.875L28.75 20.625Z" fill="#7CFCF4"/>
<path d="M28.2422 20.8398H22.3828C22.221 20.8398 22.0898 20.971 22.0898 21.1328V26.9922C22.0898 27.154 22.221 27.2852 22.3828 27.2852H28.2422C28.404 27.2852 28.5352 27.154 28.5352 26.9922V21.1328C28.5352 20.971 28.404 20.8398 28.2422 20.8398Z" stroke="#424C5A" stroke-linecap="round" stroke-linejoin="round"/>
<path d="M26.4844 22.8906L24.1406 25.2344" stroke="#424C5A" stroke-linecap="round" stroke-linejoin="round"/>
<path d="M26.4844 25.2344L24.1406 22.8906" stroke="#424C5A" stroke-linecap="round" stroke-linejoin="round"/>
<path d="M37.5 20.625V27.5H30.625L37.5 20.625Z" fill="#7CFCF4"/>
<path d="M36.9922 20.8398H31.1328C30.971 20.8398 30.8398 20.971 30.8398 21.1328V26.9922C30.8398 27.154 30.971 27.2852 31.1328 27.2852H36.9922C37.154 27.2852 37.2852 27.154 37.2852 26.9922V21.1328C37.2852 20.971 37.154 20.8398 36.9922 20.8398Z" stroke="#424C5A" stroke-linecap="round" stroke-linejoin="round"/>
<path d="M35.2344 22.8906L32.8906 25.2344" stroke="#424C5A" stroke-linecap="round" stroke-linejoin="round"/>
<path d="M35.2344 25.2344L32.8906 22.8906" stroke="#424C5A" stroke-linecap="round" stroke-linejoin="round"/>
<path d="M20 30V36.875H13.125L20 30Z" fill="#7CFCF4"/>
<path d="M19.4922 30.2148H13.6328C13.471 30.2148 13.3398 30.346 13.3398 30.5078V36.3672C13.3398 36.529 13.471 36.6602 13.6328 36.6602H19.4922C19.654 36.6602 19.7852 36.529 19.7852 36.3672V30.5078C19.7852 30.346 19.654 30.2148 19.4922 30.2148Z" stroke="#424C5A" stroke-linecap="round" stroke-linejoin="round"/>
<path d="M17.7344 32.2656L15.3906 34.6094" stroke="#424C5A" stroke-linecap="round" stroke-linejoin="round"/>
<path d="M17.7344 34.6094L15.3906 32.2656" stroke="#424C5A" stroke-linecap="round" stroke-linejoin="round"/>
<path d="M28.75 30V36.875H21.875L28.75 30Z" fill="#7CFCF4"/>
<path d="M28.2422 30.2148H22.3828C22.221 30.2148 22.0898 30.346 22.0898 30.5078V36.3672C22.0898 36.529 22.221 36.6602 22.3828 36.6602H28.2422C28.404 36.6602 28.5352 36.529 28.5352 36.3672V30.5078C28.5352 30.346 28.404 30.2148 28.2422 30.2148Z" stroke="#424C5A" stroke-linecap="round" stroke-linejoin="round"/>
<path d="M26.4844 32.2656L24.1406 34.6094" stroke="#424C5A" stroke-linecap="round" stroke-linejoin="round"/>
<path d="M26.4844 34.6094L24.1406 32.2656" stroke="#424C5A" stroke-linecap="round" stroke-linejoin="round"/>
</svg>
