<?xml version="1.0" encoding="utf-8"?>
<!-- Generator: Adobe Illustrator 24.2.1, SVG Export Plug-In . SVG Version: 6.00 Build 0)  -->
<svg version="1.1" id="Capa_1" xmlns="http://www.w3.org/2000/svg" xmlns:xlink="http://www.w3.org/1999/xlink" x="0px" y="0px"
	 viewBox="0 0 70 70" style="enable-background:new 0 0 70 70;" xml:space="preserve">
<style type="text/css">
	.st0{fill-rule:evenodd;clip-rule:evenodd;}
</style>
<desc>Created with Sketch.</desc>
<g id="contract">
	<path id="Shape" class="st0" d="M31.9,59.6c2.1,1.8,8.2,0.7,10.7,0.1c0.7-0.1,1.3-1,1.1-1.7c-0.1-0.7-0.8-1.3-1.7-1.1
		c-3.8,0.8-7.7,1-8.4,0.6c-0.1-0.4,0.3-1.5,0.4-2.1c0.4-1.3,0.8-2.5-0.1-3.4c-1.1-0.8-2.5,0-3.3,0.4c-1.4,0.8-2.6,1.8-3.9,2.7
		c-0.8,0.7-1.9,1.4-2.8,2c0.3-0.7,0.7-1.5,1-2.2c0.8-1.7,1.5-3.1,0.7-4.2c-0.3-0.4-1-1-2.1-0.8c-1.5,0.1-3.1,1.5-5.8,3.9
		c-1.9,1.7-5.4,4.9-6.5,4.6c-0.1,0-0.3-0.3-0.3-0.4c-0.4-1-0.1-1.5,0-1.8c0.8-1.4,3.9-2.2,5.6-2.4c0.7-0.1,1.4-0.7,1.3-1.5
		c-0.1-0.7-0.7-1.4-1.5-1.3c-0.6,0-5.8,0.7-7.8,3.7c-0.6,0.8-1,2.4-0.1,4.4c0.6,1.4,1.5,2,2.2,2.1c0.3,0,0.4,0.1,0.7,0.1
		c2.5,0,5.3-2.5,8.4-5.3c1-0.8,2.2-2,3.1-2.7c-0.1,0.1-0.1,0.3-0.1,0.4c-0.7,1.4-1.5,3.1-1.4,4.6c0.1,1.3,0.8,1.8,1.1,2
		c1.5,0.7,3.2-0.6,6.1-2.7c1-0.7,1.8-1.4,2.8-2C30.8,56.9,30.5,58.6,31.9,59.6z M45.4,32.8H11c-1,0-1.7,0.8-1.7,1.7
		c0,0.8,0.8,1.7,1.7,1.7h34.4c1,0,1.7-0.8,1.7-1.7C47.1,33.6,46.2,32.8,45.4,32.8z M47.1,40.4c0-1-0.8-1.7-1.7-1.7H11
		c-1,0-1.7,0.8-1.7,1.7c0,0.8,0.8,1.7,1.7,1.7h34.4C46.2,42,47.1,41.3,47.1,40.4z M52.9,52c-1,0-1.7,0.8-1.7,1.7v9.8
		c0,1.5-1.3,2.9-2.9,2.9H6.6c-1.3,0-2.4-1-2.4-2.4V5.5c0-1.1,0.8-2,1.9-2h32.6v11.1c0,1,0.7,1.7,1.7,1.7l10.9,0.4v8
		c0,1,0.8,1.7,1.7,1.7c0.8,0,1.7-0.8,1.7-1.7v-9.8c0,0,0,0,0-0.1c0-0.1,0-0.3-0.1-0.4v-0.1c-0.1-0.1-0.1-0.3-0.3-0.6L41.6,0.5
		c-0.4-0.4-1-0.6-1.7-0.4c-0.1,0-0.1,0-0.3,0H6.2c-2.9,0-5.4,2.4-5.4,5.5v58.6c0,3.2,2.6,5.9,5.8,5.9h41.8c3.5,0,6.4-2.8,6.4-6.5
		v-9.8C54.7,52.9,53.9,52,52.9,52z M42.2,6.7l6.4,6.5L42.2,13V6.7z M67.5,19.4l1.7-2.5l-4.5-3.4L54.6,31.7l4.6,2.4l7.2-12.2
		c0,0,2.1,2.2,0,6.2C64.3,31.9,61,38.3,61,38.3l1.3,0.8l5.7-10C68.2,29,71,23.9,67.5,19.4z M11,19h21c1,0,1.7-0.8,1.7-1.7
		c0-0.8-0.8-1.7-1.7-1.7H11c-1,0-1.7,0.8-1.7,1.7C9.4,18.2,10.1,19,11,19z M44.2,56.8c3.1-1.5,6.3-5.9,8.8-10.3c2.9-5.1,5-10,5-10
		l-5-2.5C42.3,51.7,44.2,56.8,44.2,56.8z M45.4,21.3H11c-1,0-1.7,0.8-1.7,1.7c0,0.8,0.8,1.7,1.7,1.7h34.4c1,0,1.7-0.8,1.7-1.7
		C47.1,22.1,46.2,21.3,45.4,21.3z M45.4,27H11c-1,0-1.7,0.8-1.7,1.7c0,0.8,0.8,1.7,1.7,1.7h34.4c1,0,1.7-0.8,1.7-1.7
		C47.1,27.9,46.2,27,45.4,27z"/>
</g>
</svg>
