<svg width="110" height="110" viewBox="0 0 110 110" fill="none" xmlns="http://www.w3.org/2000/svg">
<rect width="110" height="110" rx="20" fill="url(#paint0_linear)"/>
<path d="M80.832 36.549C83.8115 37.8877 83.8115 37.8877 84.632 37.024C85.2797 36.3331 86.0138 36.1604 88.432 36.1604C91.757 36.1604 93.0093 36.8945 92.5774 38.4922C92.4047 39.0104 92.1888 40.1763 92.0593 41.1263C91.8002 42.8968 91.8002 42.8968 94.7797 45.315C98.1911 48.0786 99.4866 50.1513 98.8388 51.8786C98.2775 53.2604 96.2911 54.2968 93.8297 54.3832C92.1888 54.4695 91.8865 54.5991 91.8865 55.3763C91.9297 56.4991 93.3115 59.565 94.607 61.3355C97.932 65.7832 96.5934 71.0946 91.4115 73.9446C89.2956 75.1105 88.6479 75.24 84.1138 75.4128C79.2342 75.5855 74.3979 75.6287 66.6251 75.5423C59.9319 75.4559 55.6569 73.2968 54.1023 69.2809C53.2819 67.1218 53.3683 64.1855 54.2751 63.8832C54.7501 63.7105 54.8364 64.0127 54.5773 65.0923C53.9296 68.3741 56.0887 71.6991 59.9319 73.4696C62.4365 74.5923 70.5978 74.9378 83.0342 74.4628C88.5183 74.2468 89.9434 73.9014 92.232 72.1309C95.8593 69.3673 96.2911 65.9991 93.6138 61.6377C92.0593 59.1332 90.5911 55.4627 90.5911 54.0377C90.5911 53.7354 91.5843 53.4763 93.3547 53.3468C96.3775 53.1741 97.932 52.2672 97.932 50.7127C97.932 49.8491 95.2115 46.9559 92.1456 44.5809L90.5047 43.2854L91.0229 40.7809C91.757 37.1968 91.5843 36.9377 88.3456 37.1104C85.7547 37.2399 85.6252 37.2831 85.4956 38.4058C85.4092 39.0968 85.1933 39.6149 85.0206 39.6149C84.8479 39.6149 83.3797 38.9672 81.6956 38.1468C77.9388 36.2899 75.3479 35.599 73.6206 35.9877C69.7774 36.8081 61.7455 41.3422 55.8728 46.0922C52.1592 49.0718 50.5182 49.8059 52.6342 47.5604C53.7569 46.3081 59.1115 42.2059 61.9183 40.3922C63.9478 39.0968 69.3888 36.2899 71.591 35.4695C73.8797 34.5627 77.4206 34.9945 80.832 36.549Z" fill="white"/>
<path d="M68.0502 55.6786C67.9206 60.4286 67.7911 61.4218 67.2729 61.4218C66.7547 61.4218 66.6252 60.4286 66.4956 55.6786C66.4093 50.1945 66.4093 49.9786 67.2729 49.9786C68.1365 49.9786 68.1365 50.1945 68.0502 55.6786Z" fill="white"/>
<path d="M20.9818 51.4036C22.925 52.1377 24.7818 54.0377 25.1273 55.6354C25.4728 57.4923 24.3068 59.8673 22.45 60.9036C20.6796 61.94 15.9727 62.3718 14.6341 61.6809C13.7705 61.2059 13.6841 60.9036 13.8136 57.6218C13.9 54.815 14.0727 54.0809 14.5909 54.0809C15.1091 54.0809 15.2818 54.7718 15.3682 57.2763L15.4977 60.4286L17.8727 60.2559C23.4432 59.7809 25.0409 55.1173 20.2909 53.1309C19.1682 52.6559 17.7432 52.5263 15.3682 52.6559C12.3886 52.8286 12 52.7854 12 52.0945C12 51.7059 12.2591 51.2309 12.5614 51.1445C13.5977 50.7127 19.5568 50.9286 20.9818 51.4036Z" fill="white"/>
<path d="M35.1887 52.3968C37.0024 54.34 40.1546 60.4718 39.8092 61.4218C39.291 62.7605 38.341 61.9832 36.8728 58.8741C35.1887 55.3764 33.4183 53.0013 32.5114 53.0013C31.6046 53.0013 29.7046 55.5491 28.0637 58.9173C26.6387 61.9832 25.7319 62.7605 25.2137 61.4218C24.9114 60.6014 25.9046 58.2695 28.0637 54.9013C30.9137 50.3672 32.6842 49.7627 35.1887 52.3968Z" fill="white"/>
<path d="M40.8455 54.0377C41.6228 55.765 42.8319 57.8377 43.5228 58.6582L44.7319 60.1264L45.8115 59.1332C46.416 58.5718 47.6251 56.4559 48.5751 54.4695C50.1728 50.9718 51.0365 50.1081 51.5546 51.49C51.9433 52.3968 48.0137 60.1695 46.6751 61.2059C45.0774 62.4582 44.2569 62.2855 42.4864 60.3423C40.5433 58.1832 37.6932 52.5263 38.0387 51.5332C38.6001 50.1513 39.4637 50.8854 40.8455 54.0377Z" fill="white"/>
<path d="M54.491 51.5332C54.8796 52.5695 54.7933 60.9036 54.3615 61.5945C54.1456 61.94 53.6706 62.0695 53.2819 61.94C52.7205 61.7241 52.591 60.8605 52.591 56.5423C52.591 53.7354 52.7205 51.2741 52.8933 51.1445C53.3683 50.6263 54.2319 50.8422 54.491 51.5332Z" fill="white"/>
<path d="M79.7956 52.6127C79.7956 53.1309 80.0979 53.4332 80.6593 53.4332C81.1343 53.4332 81.5229 53.7354 81.5229 54.0809C81.5229 54.4263 81.1343 54.7286 80.6593 54.7286C79.882 54.7286 79.7956 55.0309 79.7956 57.3627C79.7956 59.6082 79.9252 60.04 80.6593 60.2127C81.8684 60.5582 81.7388 61.6377 80.4865 61.6377C78.6729 61.6377 78.0683 60.5582 78.0683 57.4923C78.0683 55.3332 77.9388 54.7286 77.4206 54.7286C77.0752 54.7286 76.7729 54.5127 76.7729 54.2968C76.7729 54.0377 77.0752 53.7354 77.4206 53.6059C77.7661 53.4332 78.0683 53.0013 78.0683 52.5695C78.0683 51.7922 78.8456 51.2309 79.4934 51.5763C79.6661 51.6627 79.7956 52.1377 79.7956 52.6127Z" fill="white"/>
<path d="M58.7228 53.9082C58.8524 54.2968 59.1115 54.2968 59.8024 53.9082C61.1842 53.2172 62.2637 53.3036 63.5592 54.34C64.5092 55.0741 64.6819 55.5491 64.6819 57.3627C64.6819 60.6877 62.3933 62.5014 59.8887 61.2059C59.1546 60.7741 59.0683 60.9036 59.0683 62.7173C59.0683 64.3582 58.9387 64.6604 58.2046 64.6604C57.3842 64.6604 57.341 64.3582 57.341 59.3491C57.341 56.4127 57.4705 53.865 57.6433 53.7354C58.0751 53.3036 58.5501 53.39 58.7228 53.9082ZM59.7592 55.4195C58.9387 56.1968 58.8524 59.09 59.5865 59.8241C60.9251 61.1627 63.3865 59.6945 63.3865 57.5354C63.3865 56.2832 62.1774 54.7286 61.2274 54.7286C60.7956 54.7286 60.1046 55.0309 59.7592 55.4195Z" fill="white"/>
<path d="M75.0024 54.5559C75.7365 55.4627 75.9093 56.3263 75.9093 58.6582C75.9093 60.9468 75.7797 61.6377 75.3047 61.6377C74.9593 61.6377 74.6138 61.4218 74.5274 61.1627C74.3979 60.8173 74.0956 60.8173 73.4479 61.2491C72.2388 61.9832 70.2956 61.3786 69.8206 60.0832C69.2593 58.5286 70.2956 57.1468 72.3684 56.715C73.6638 56.4127 74.182 56.1104 74.0956 55.6354C73.9661 55.1173 73.4479 54.9445 72.1093 54.9877C70.9433 54.9877 70.2956 54.815 70.2956 54.4695C70.2956 53.7786 70.9865 53.5195 72.757 53.4763C73.7502 53.4332 74.3547 53.7354 75.0024 54.5559ZM73.0161 57.665C71.8502 57.8377 70.9865 58.8309 71.332 59.6945C71.6343 60.515 73.0593 60.515 73.7502 59.7377C74.5274 58.7445 74.1388 57.4923 73.0161 57.665Z" fill="white"/>
<path d="M87.6979 54.1673C88.5184 55.1173 88.907 61.2491 88.1297 61.5082C87.8706 61.5945 87.5252 61.5082 87.3956 61.2491C87.2229 60.99 86.6615 61.0332 85.8843 61.3355C84.3729 61.8968 83.3797 61.5514 82.732 60.1695C81.9979 58.5286 83.207 56.9741 85.4093 56.6286C87.2229 56.3264 87.3524 56.1968 86.7479 55.2036C86.4888 54.7718 85.8843 54.6854 84.8047 54.8582C83.682 55.0309 83.2502 54.9445 83.2502 54.5127C83.2502 53.3036 86.6615 53.0445 87.6979 54.1673ZM85.4093 57.7514C84.0706 58.0536 83.8547 60.04 85.107 60.2559C86.1002 60.4718 87.1365 59.6082 87.1365 58.5718C87.1365 57.5786 86.7479 57.4059 85.4093 57.7514Z" fill="white"/>
<defs>
<linearGradient id="paint0_linear" x1="55" y1="0" x2="55" y2="110" gradientUnits="userSpaceOnUse">
<stop stop-color="#DF111C"/>
<stop offset="1" stop-color="#B01818"/>
</linearGradient>
</defs>
</svg>
