<svg width="202" height="202" viewBox="0 0 202 202" fill="none" xmlns="http://www.w3.org/2000/svg">
<circle cx="101" cy="101" r="101" fill="#F7F7F7"/>
<path d="M100.501 89.0156L100.501 151.031" stroke="#8D969F" stroke-width="2" stroke-linecap="round" stroke-linejoin="round"/>
<path d="M100.501 49.9688L100.501 66.0469" stroke="#8D969F" stroke-width="2" stroke-linecap="round" stroke-linejoin="round"/>
<path d="M100.501 89.0156C106.844 89.0156 111.986 83.8739 111.986 77.5312C111.986 71.1886 106.844 66.0469 100.501 66.0469C94.1586 66.0469 89.0168 71.1886 89.0168 77.5312C89.0168 83.8739 94.1586 89.0156 100.501 89.0156Z" stroke="#8D969F" stroke-width="2" stroke-linecap="round" stroke-linejoin="round"/>
<path d="M141.845 134.953L141.845 151.031" stroke="#8D969F" stroke-width="2" stroke-linecap="round" stroke-linejoin="round"/>
<path d="M141.845 49.9688L141.845 111.984" stroke="#8D969F" stroke-width="2" stroke-linecap="round" stroke-linejoin="round"/>
<path d="M141.845 134.953C148.188 134.953 153.329 129.811 153.329 123.469C153.329 117.126 148.188 111.984 141.845 111.984C135.502 111.984 130.361 117.126 130.361 123.469C130.361 129.811 135.502 134.953 141.845 134.953Z" stroke="#8D969F" stroke-width="2" stroke-linecap="round" stroke-linejoin="round"/>
<path d="M59.1566 116.578L59.1562 151.031" stroke="#8D969F" stroke-width="2" stroke-linecap="round" stroke-linejoin="round"/>
<path d="M59.1562 49.9688L59.1566 93.6094" stroke="#8D969F" stroke-width="2" stroke-linecap="round" stroke-linejoin="round"/>
<path d="M59.1575 116.578C65.5001 116.578 70.6418 111.436 70.6418 105.094C70.6418 98.7511 65.5001 93.6094 59.1575 93.6094C52.8148 93.6094 47.6731 98.7511 47.6731 105.094C47.6731 111.436 52.8148 116.578 59.1575 116.578Z" stroke="#8D969F" stroke-width="2" stroke-linecap="round" stroke-linejoin="round"/>
</svg>
