<?xml version="1.0" encoding="UTF-8"?>
<svg width="70px" height="70px" viewBox="0 0 70 70" version="1.1" xmlns="http://www.w3.org/2000/svg" xmlns:xlink="http://www.w3.org/1999/xlink">
    <title>eye-block</title>
    <g id="eye-block" stroke="none" stroke-width="1" fill="none" fill-rule="evenodd">
        <path d="M61.3454545,35.014771 C55.1272727,23.2202097 45.6363636,16.6676756 35.4909091,16.3400489 C31.8909091,16.3400489 28.2909091,16.9953023 24.6909091,18.6334358 L22.4,15.6847955 C21.7454545,15.0295421 20.7636364,14.7019154 20.1090909,15.3571688 C19.4545455,16.0124222 19.1272727,16.9953023 19.7818182,17.6505557 L21.7454545,20.2715693 C16.5090909,23.5478364 11.9272727,28.462237 8.32727273,34.6871443 L8,35.3423977 L8.32727273,35.9976512 C13.8909091,46.8093324 24.3636364,53.3618665 35.1636364,53.3618665 C35.1636364,53.3618665 35.4909091,53.3618665 35.4909091,53.3618665 C39.0909091,53.3618665 42.6909091,52.3789864 45.9636364,51.0684795 L48.2545455,54.3447466 C48.5818182,54.6723733 48.9090909,55 49.5636364,55 C49.8909091,55 50.2181818,55 50.5454545,54.6723733 C51.2,54.0171199 51.5272727,53.0342398 50.8727273,52.3789864 L49.2363636,50.0855994 C54.1454545,47.1369591 58.7272727,42.5501852 61.6727273,36.3252779 L62,35.6700244 L61.3454545,35.014771 Z M35.4909091,50.7408528 C35.4909091,50.7408528 35.4909091,50.7408528 35.4909091,50.7408528 C25.6727273,50.7408528 16.8363636,45.1711989 11.6,35.6700244 C14.8727273,30.1003705 19.1272727,25.8412233 23.7090909,22.892583 L28.6181818,29.4451171 C27.3090909,30.7556239 26.6545455,32.7213841 26.6545455,34.6871443 C26.6545455,39.2739182 30.2545455,42.8778119 34.8363636,42.8778119 C36.1454545,42.8778119 37.4545455,42.5501852 38.4363636,41.8949318 L43.6727273,48.7750926 C41.3818182,50.0855994 38.4363636,50.7408528 35.4909091,50.7408528 Z M36.4727273,39.2739182 C36.1454545,39.2739182 35.4909091,39.6015449 35.1636364,39.6015449 C32.5454545,39.6015449 30.2545455,37.308158 30.2545455,34.6871443 C30.2545455,33.7042642 30.5818182,32.7213841 30.9090909,32.0661307 L36.4727273,39.2739182 Z M33.5272727,30.1003705 C34.1818182,29.7727438 34.5090909,29.7727438 35.1636364,29.7727438 C37.7818182,29.7727438 40.0727273,32.0661307 40.0727273,34.6871443 C40.0727273,35.6700244 39.7454545,36.6529046 39.0909091,37.308158 L33.5272727,30.1003705 Z M46.9454545,47.4645858 L41.0545455,39.9291716 C42.3636364,38.6186648 43.0181818,36.6529046 43.0181818,34.6871443 C43.0181818,30.1003705 39.4181818,26.4964767 34.8363636,26.4964767 C33.5272727,26.4964767 32.2181818,26.8241034 31.2363636,27.4793568 L26.9818182,21.5820762 C29.9272727,20.2715693 32.5454545,19.6163159 35.4909091,19.6163159 C44.3272727,19.6163159 52.5090909,25.5135966 58.0727273,35.6700244 C55.4545455,40.9120517 51.5272727,44.8435722 46.9454545,47.4645858 Z" id="Shape" fill="#FEBE34" fill-rule="nonzero"></path>
    </g>
</svg>