<?xml version="1.0" encoding="utf-8"?>
<!-- Generator: Adobe Illustrator 24.2.1, SVG Export Plug-In . SVG Version: 6.00 Build 0)  -->
<svg version="1.1" id="Capa_1" xmlns="http://www.w3.org/2000/svg" xmlns:xlink="http://www.w3.org/1999/xlink" x="0px" y="0px"
	 viewBox="0 0 70 70" style="enable-background:new 0 0 70 70;" xml:space="preserve">
<style type="text/css">
	.st0{fill-rule:evenodd;clip-rule:evenodd;}
</style>
<desc>Created with Sketch.</desc>
<g id="fly">
	<path id="Shape" class="st0" d="M16.1,39.7h7.5c0.2,0.1,0.4,0.2,0.6,0.2H27v4c0,0.7,0.5,1.2,1.2,1.2h13.4c0.7,0,1.2-0.5,1.2-1.2
		v-4.4h11.4c0.7,0,1.2-0.5,1.2-1.2c0-3.6-2.7-5.6-5.1-7.4c-1.2-0.8-2.3-1.7-3-2.6V18c0-8.8-8.7-16.3-11.7-17.9
		c-0.4-0.1-0.7-0.2-1.1,0c-3.7,1.5-11.3,8.9-11.8,17.1v11.2c-0.7,1-1.8,1.8-3,2.7c-2.4,1.8-5.1,3.9-5.1,7.5
		C14.9,39.1,15.5,39.7,16.1,39.7z M47.4,31.6c0.5,0.5,1.1,0.8,1.7,1.2c1.8,1.3,3.5,2.5,3.9,4.2h-5.6V31.6L47.4,31.6z M35.2,2.4
		c3.2,2,9.9,8.7,9.9,15.5V37h-3.3c-0.7,0-1.2,0.5-1.2,1.2v4.4H29.5v-4c0-0.7-0.5-1.2-1.2-1.2h-2.7v-8.8l0,0V17
		C25.8,10.6,31.7,4.2,35.2,2.4z M21.5,32.9c0.5-0.4,1.1-0.8,1.5-1.2v5.6h-5.6C18,35.5,19.7,34.2,21.5,32.9z M35.3,25.7
		c3.5,0,6.2-2.7,6.2-6.2s-2.7-6.2-6.2-6.2s-6.2,2.9-6.2,6.2S31.8,25.7,35.3,25.7z M35.3,15.7c2.1,0,3.8,1.7,3.8,3.8
		s-1.7,3.8-3.8,3.8c-2.1,0-3.8-1.7-3.8-3.8S33.2,15.7,35.3,15.7z M52.1,58c-2,0-3.9,0.8-5.4,2.1c-1.2-1.7-3.2-2.7-5.2-2.7
		c-0.2,0-0.4,0-0.6,0c-1-1.5-2.7-2.6-4.5-2.7c0.1-0.1,0.1-0.4,0.1-0.5v-6.9c0-0.7-0.5-1.2-1.2-1.2s-1.2,0.5-1.2,1.2v6.9
		c0,0.2,0.1,0.6,0.2,0.7c-1.4,0.5-2.6,1.5-3.3,2.9c-0.7-0.4-1.5-0.5-2.5-0.5c-2.4,0-4.5,1.3-5.6,3.3c-1.3-1.2-3.1-1.9-5-1.9
		c-4.2,0-7.6,3.5-7.6,7.6c0,0.7,0,1.4,0.2,2.3c0.2,0.6,0.8,1,1.5,0.7c0.6-0.2,1-0.8,0.7-1.5c-0.1-0.5-0.1-1-0.1-1.5
		c0-2.9,2.4-5.2,5.2-5.2c1.8,0,3.6,1,4.4,2.5c0.2,0.5,0.7,0.7,1.2,0.6c0.5-0.1,0.8-0.5,1-1c0.2-1.8,1.8-3.6,4-3.6
		c0.8,0,1.7,0.2,2.4,0.8c0.4,0.2,0.7,0.4,1.2,0.1c0.4-0.1,0.7-0.5,0.7-0.8c0.2-1.4,1.4-2.7,3.2-2.7c1.3,0,2.6,0.8,3.1,2.1
		c0.1,0.4,0.4,0.6,0.7,0.7c0.4,0.1,0.7,0.1,1,0c0.1-0.1,0.4-0.1,0.7-0.1c1.7,0,3.3,1.2,3.8,2.9c0.1,0.5,0.5,0.7,1,0.8
		c0.5,0.1,1-0.1,1.2-0.5c1.1-1.7,2.9-2.6,4.6-2.6c2.9,0,5.2,2.4,5.2,5.2c0,0.8-0.2,1.7-0.8,2.7c-0.4,0.6-0.1,1.3,0.4,1.7
		c0.2,0.1,0.4,0.1,0.6,0.1c0.4,0,0.8-0.2,1.1-0.6c0.8-1.4,1.2-2.6,1.2-3.9C59.7,61.4,56.2,58,52.1,58z M29.5,47.4v3.7
		c0,0.7,0.5,1.2,1.2,1.2c0.7,0,1.2-0.5,1.2-1.2v-3.7c0-0.7-0.5-1.2-1.2-1.2C29.9,46.2,29.5,46.7,29.5,47.4z M38.6,47.5v3.7
		c0,0.7,0.5,1.2,1.2,1.2c0.7,0,1.2-0.5,1.2-1.2v-3.7c0-0.7-0.5-1.2-1.2-1.2C39.1,46.3,38.6,46.9,38.6,47.5z"/>
</g>
</svg>
