<svg width="50" height="53" viewBox="0 0 50 53" fill="none" xmlns="http://www.w3.org/2000/svg">
<circle cx="24.8451" cy="29.9727" r="22.8451" fill="#7CFCF4"/>
<path d="M6.25 40.625V12.5C6.25 12.0856 6.41462 11.6882 6.70765 11.3951C7.00067 11.1021 7.3981 10.9375 7.8125 10.9375H18.2292C18.5672 10.9375 18.8962 11.0472 19.1667 11.25L24.5833 15.3125C24.8538 15.5153 25.1828 15.625 25.5208 15.625H39.0625C39.4769 15.625 39.8743 15.7896 40.1674 16.0826C40.4604 16.3757 40.625 16.7731 40.625 17.1875V21.875" stroke="#424C5A" stroke-width="2" stroke-linecap="round" stroke-linejoin="round"/>
<path d="M6.25 40.625L12.1071 25.9822C12.2231 25.6923 12.4233 25.4437 12.6819 25.2686C12.9405 25.0936 13.2456 25 13.5579 25H22.9644C23.2729 25 23.5745 24.9087 23.8311 24.7376L27.7314 22.1374C27.988 21.9663 28.2896 21.875 28.5981 21.875H44.7071C44.9547 21.875 45.1988 21.9338 45.4191 22.0467C45.6395 22.1595 45.83 22.323 45.9747 22.5239C46.1195 22.7247 46.2144 22.9571 46.2518 23.2019C46.2891 23.4466 46.2678 23.6967 46.1895 23.9316L40.625 40.625H6.25Z" stroke="#424C5A" stroke-width="2" stroke-linecap="round" stroke-linejoin="round"/>
</svg>
