<svg width="50" height="57" viewBox="0 0 50 57" fill="none" xmlns="http://www.w3.org/2000/svg">
<circle cx="25.3125" cy="33.9819" r="22.1875" fill="#7CFCF4"/>
<path d="M40.625 7.8125H9.375C8.51206 7.8125 7.8125 8.51206 7.8125 9.375V40.625C7.8125 41.4879 8.51206 42.1875 9.375 42.1875H40.625C41.4879 42.1875 42.1875 41.4879 42.1875 40.625V9.375C42.1875 8.51206 41.4879 7.8125 40.625 7.8125Z" fill="white" stroke="#424C5A" stroke-width="2" stroke-linecap="round" stroke-linejoin="round"/>
<path d="M34.375 4.6875V10.9375" stroke="#424C5A" stroke-width="2" stroke-linecap="round" stroke-linejoin="round"/>
<path d="M15.625 4.6875V10.9375" stroke="#424C5A" stroke-width="2" stroke-linecap="round" stroke-linejoin="round"/>
<path d="M7.8125 17.1875H42.1875" stroke="#424C5A" stroke-width="2" stroke-linecap="round" stroke-linejoin="round"/>
<path d="M19.4922 20.8398H13.6328C13.471 20.8398 13.3398 20.971 13.3398 21.1328V26.9922C13.3398 27.154 13.471 27.2852 13.6328 27.2852H19.4922C19.654 27.2852 19.7852 27.154 19.7852 26.9922V21.1328C19.7852 20.971 19.654 20.8398 19.4922 20.8398Z" fill="#7CFCF4" stroke="#424C5A" stroke-linecap="round" stroke-linejoin="round"/>
<path d="M17.7344 22.8906L15.3906 25.2344" stroke="#424C5A" stroke-linecap="round" stroke-linejoin="round"/>
<path d="M17.7344 25.2344L15.3906 22.8906" stroke="#424C5A" stroke-linecap="round" stroke-linejoin="round"/>
<path d="M28.8672 20.8398H23.0078C22.846 20.8398 22.7148 20.971 22.7148 21.1328V26.9922C22.7148 27.154 22.846 27.2852 23.0078 27.2852H28.8672C29.029 27.2852 29.1602 27.154 29.1602 26.9922V21.1328C29.1602 20.971 29.029 20.8398 28.8672 20.8398Z" fill="#7CFCF4" stroke="#424C5A" stroke-linecap="round" stroke-linejoin="round"/>
<path d="M27.1094 22.8906L24.7656 25.2344" stroke="#424C5A" stroke-linecap="round" stroke-linejoin="round"/>
<path d="M27.1094 25.2344L24.7656 22.8906" stroke="#424C5A" stroke-linecap="round" stroke-linejoin="round"/>
<path d="M38.2422 20.8398H32.3828C32.221 20.8398 32.0898 20.971 32.0898 21.1328V26.9922C32.0898 27.154 32.221 27.2852 32.3828 27.2852H38.2422C38.404 27.2852 38.5352 27.154 38.5352 26.9922V21.1328C38.5352 20.971 38.404 20.8398 38.2422 20.8398Z" fill="#7CFCF4" stroke="#424C5A" stroke-linecap="round" stroke-linejoin="round"/>
<path d="M36.4844 22.8906L34.1406 25.2344" stroke="#424C5A" stroke-linecap="round" stroke-linejoin="round"/>
<path d="M36.4844 25.2344L34.1406 22.8906" stroke="#424C5A" stroke-linecap="round" stroke-linejoin="round"/>
<path d="M19.4922 30.8398H13.6328C13.471 30.8398 13.3398 30.971 13.3398 31.1328V36.9922C13.3398 37.154 13.471 37.2852 13.6328 37.2852H19.4922C19.654 37.2852 19.7852 37.154 19.7852 36.9922V31.1328C19.7852 30.971 19.654 30.8398 19.4922 30.8398Z" fill="#7CFCF4" stroke="#424C5A" stroke-linecap="round" stroke-linejoin="round"/>
<path d="M17.7344 32.8906L15.3906 35.2344" stroke="#424C5A" stroke-linecap="round" stroke-linejoin="round"/>
<path d="M17.7344 35.2344L15.3906 32.8906" stroke="#424C5A" stroke-linecap="round" stroke-linejoin="round"/>
<path d="M28.8672 30.8398H23.0078C22.846 30.8398 22.7148 30.971 22.7148 31.1328V36.9922C22.7148 37.154 22.846 37.2852 23.0078 37.2852H28.8672C29.029 37.2852 29.1602 37.154 29.1602 36.9922V31.1328C29.1602 30.971 29.029 30.8398 28.8672 30.8398Z" fill="#7CFCF4" stroke="#424C5A" stroke-linecap="round" stroke-linejoin="round"/>
<path d="M27.1094 32.8906L24.7656 35.2344" stroke="#424C5A" stroke-linecap="round" stroke-linejoin="round"/>
<path d="M27.1094 35.2344L24.7656 32.8906" stroke="#424C5A" stroke-linecap="round" stroke-linejoin="round"/>
</svg>
