<?xml version="1.0" encoding="utf-8"?>
<!-- Generator: Adobe Illustrator 24.2.1, SVG Export Plug-In . SVG Version: 6.00 Build 0)  -->
<svg version="1.1" id="Capa_1" xmlns="http://www.w3.org/2000/svg" xmlns:xlink="http://www.w3.org/1999/xlink" x="0px" y="0px"
	 viewBox="0 0 70 70" style="enable-background:new 0 0 70 70;" xml:space="preserve">
<style type="text/css">
	.st0{fill-rule:evenodd;clip-rule:evenodd;}
</style>
<desc>Created with Sketch.</desc>
<g id="Horas-extra">
	<path id="Shape" class="st0" d="M23.8,62.2c-2.6-0.5-5-1.6-7.3-3c-0.8-0.4-1.9-0.3-2.3,0.5c-0.5,0.8-0.3,1.9,0.5,2.3
		c2.6,1.5,5.3,2.6,8.2,3.2c0.1,0,0.3,0,0.4,0c0.8,0,1.5-0.5,1.6-1.4C25.3,63.4,24.7,62.5,23.8,62.2z M43.1,13.8l-0.4,0.1
		c-0.3,0-0.5,0.1-0.7,0.3l-0.5,0.1c-0.3,0-0.5-0.1-0.7,0L36.8,15c-0.9,0.1-1.5,1.1-1.4,2c0.1,0.5,0.4,0.8,0.8,1.1
		c0.3,0.3,0.7,0.4,1.1,0.4c0.1,0,0.1,0,0.3,0l10-1.8c0.4-0.1,0.9-0.4,1.1-0.8c0.3-0.3,0.3-0.7,0.3-1.1c0-0.4,0-0.8-0.3-1.2l-2.4-8.5
		c-0.1-0.5-0.5-0.8-0.9-1.1c-0.4-0.3-0.9-0.4-1.4-0.3c-0.9,0.3-1.4,1.2-1.2,2l1.1,3.9c0.1,0.3,0.1,0.4,0.4,0.7v0.3
		C39.9,8.4,34.9,7.1,30,7.1C13.9,7.1,0.8,19.9,0.3,35.8C0.1,36.1,0,36.4,0,36.6c0,1.5,0.1,2.8,0.3,4.3c0.1,0.8,0.8,1.5,1.6,1.5
		c0.1,0,0.1,0,0.3,0c0.9-0.1,1.6-0.9,1.5-1.9c-0.1-0.9-0.3-1.9-0.3-3c0.1-0.3,0.1-0.4,0.1-0.7c0-14.6,11.9-26.4,26.4-26.4
		C34.6,10.3,39.3,11.5,43.1,13.8z M5.9,47.9c-0.4-0.8-1.4-1.2-2.3-0.8c-0.8,0.4-1.2,1.4-0.8,2.3c1.4,2.7,3,5.1,5,7.3
		c0.3,0.4,0.8,0.5,1.2,0.5c0.4,0,0.8-0.1,1.1-0.4c0.7-0.7,0.7-1.8,0.1-2.4C8.6,52.5,7.2,50.2,5.9,47.9z M15.5,52.1
		c0.4,0,0.8-0.1,1.1-0.4l13.6-12.3c0.4-0.3,0.5-0.8,0.5-1.2v-20c0-0.9-0.8-1.6-1.6-1.6s-1.6,0.8-1.6,1.6v19.2L14.5,49.1
		c-0.7,0.7-0.8,1.8-0.1,2.4C14.6,51.8,15,52.1,15.5,52.1z M39.3,61.1c-2.4,0.9-5,1.5-7.7,1.8c-0.9,0-1.6,0.8-1.6,1.8
		c0,0.9,0.8,1.6,1.6,1.6h0.1c3-0.3,5.8-0.8,8.6-1.9c0.8-0.4,1.4-1.4,0.9-2.2C41.1,61.2,40.1,60.8,39.3,61.1z M58.1,21.9
		c-6.5,0-11.9,5.3-11.9,11.9c0,6.5,5.3,11.9,11.9,11.9c6.5,0,11.9-5.3,11.9-11.9S64.6,21.9,58.1,21.9z M64.3,33.9h-5v5.1H58v-5.1h-5
		v-1.4h5v-5.1h1.4v5.1h5V33.9z M51.5,51.5c-1.5,2.2-3.4,4.1-5.4,5.7c-0.7,0.5-0.8,1.6-0.3,2.4c0.3,0.4,0.8,0.7,1.4,0.7
		c0.4,0,0.7-0.1,1.1-0.4c2.3-1.9,4.3-4.1,6.1-6.5c0.5-0.8,0.4-1.8-0.4-2.3C53.1,50.6,52,50.7,51.5,51.5z"/>
</g>
</svg>
