<svg width="78" height="83" viewBox="0 0 78 83" fill="none" xmlns="http://www.w3.org/2000/svg">
<circle cx="38.5" cy="49.5" r="33.5" fill="white"/>
<path d="M40.7236 64.5579L65.4131 39.8684C71.4796 33.802 72.3746 23.8217 66.6336 17.4464C65.1956 15.8448 63.4464 14.5531 61.4927 13.6499C59.5389 12.7467 57.4217 12.2511 55.27 12.1932C53.1184 12.1354 50.9776 12.5165 48.9781 13.3134C46.9787 14.1102 45.1625 15.3061 43.6405 16.828L39 21.4686L34.9934 17.4619C28.927 11.3955 18.9467 10.5005 12.5714 16.2414C10.9698 17.6794 9.67806 19.4286 8.77489 21.3824C7.87172 23.3361 7.37609 25.4534 7.31823 27.605C7.26037 29.7566 7.64149 31.8974 8.43836 33.8969C9.23522 35.8964 10.4311 37.7125 11.953 39.2345L37.2764 64.5579C37.7336 65.015 38.3535 65.2718 39 65.2718C39.6465 65.2718 40.2665 65.015 40.7236 64.5579V64.5579Z" stroke="#424C5A" stroke-width="2" stroke-linecap="round" stroke-linejoin="round"/>
</svg>
