<svg width="50" height="57" viewBox="0 0 50 57" fill="none" xmlns="http://www.w3.org/2000/svg">
<circle cx="25.3125" cy="33.9819" r="22.1875" fill="#7CFCF4"/>
<path d="M25 44.165C35.3553 44.165 43.75 35.7704 43.75 25.415C43.75 15.0597 35.3553 6.66504 25 6.66504C14.6447 6.66504 6.25 15.0597 6.25 25.415C6.25 35.7704 14.6447 44.165 25 44.165Z" stroke="#424C5A" stroke-width="2" stroke-linecap="round" stroke-linejoin="round"/>
<path d="M25 37.915C26.2944 37.915 27.3438 36.8657 27.3438 35.5713C27.3438 34.2769 26.2944 33.2275 25 33.2275C23.7056 33.2275 22.6562 34.2769 22.6562 35.5713C22.6562 36.8657 23.7056 37.915 25 37.915Z" fill="#424C5A"/>
<path d="M25 28.541V26.9785C26.0816 26.9785 27.1389 26.6578 28.0383 26.0569C28.9376 25.456 29.6386 24.6019 30.0525 23.6026C30.4664 22.6033 30.5747 21.5037 30.3637 20.4429C30.1527 19.382 29.6318 18.4076 28.867 17.6428C28.1022 16.878 27.1277 16.3571 26.0669 16.1461C25.0061 15.9351 23.9065 16.0434 22.9072 16.4573C21.9079 16.8712 21.0538 17.5722 20.4529 18.4715C19.852 19.3708 19.5312 20.4282 19.5312 21.5098" stroke="#424C5A" stroke-width="2" stroke-linecap="round" stroke-linejoin="round"/>
</svg>
