<?xml version="1.0" encoding="utf-8"?>
<!-- Generator: Adobe Illustrator 24.2.1, SVG Export Plug-In . SVG Version: 6.00 Build 0)  -->
<svg version="1.1" id="Capa_1" xmlns="http://www.w3.org/2000/svg" xmlns:xlink="http://www.w3.org/1999/xlink" x="0px" y="0px"
	 viewBox="0 0 70 70" style="enable-background:new 0 0 70 70;" xml:space="preserve">
<style type="text/css">
	.st0{fill-rule:evenodd;clip-rule:evenodd;}
</style>
<desc>Created with Sketch.</desc>
<g id="house">
	<path id="Shape" class="st0" d="M59.2,30.7c-0.9,0-1.6,0.8-1.6,1.6v24.5c0,2.6-2.2,4.8-4.8,4.8H18.4c-2.6,0-4.8-2.2-4.8-4.8V32.2
		c0-0.9-0.8-1.6-1.6-1.6s-1.7,0.8-1.7,1.6v24.5c0,4.4,3.6,8.1,8.1,8.1h34.5c4.4,0,8.1-3.6,8.1-8.1V32.2
		C60.9,31.4,60.1,30.7,59.2,30.7z M21.9,51.9c0,0.9,0.8,1.6,1.6,1.6h8.1c0.9,0,1.6-0.8,1.6-1.6v-8.1c0-0.9-0.8-1.6-1.6-1.6h-8.1
		c-0.9,0-1.6,0.8-1.6,1.6V51.9z M25.1,45.5h4.8v4.8h-4.8V45.5z M23.6,39.8h8.1c0.9,0,1.6-0.8,1.6-1.6v-8.1c0-0.9-0.8-1.6-1.6-1.6
		h-8.1c-0.9,0-1.6,0.8-1.6,1.6v8.1C21.9,39,22.7,39.8,23.6,39.8z M25.1,31.7h4.8v4.8h-4.8V31.7z M69.2,27l-11.3-7.5
		c0-0.1,0.1-0.3,0.1-0.4v-8.3c0-0.9-0.8-1.6-1.6-1.6s-1.6,0.8-1.6,1.6v6.6L37.1,5.5c-0.5-0.4-1.2-0.4-1.8,0L0.8,27
		c-0.8,0.5-1,1.4-0.5,2.2C0.5,29.7,1.1,30,1.7,30c0.3,0,0.7-0.1,0.9-0.3L36.2,8.7l31.4,21c0.8,0.5,1.7,0.3,2.2-0.4
		C70.3,28.6,69.9,27.5,69.2,27z M38.3,39.8h8.1c0.9,0,1.6-0.8,1.6-1.6v-8.1c0-0.9-0.8-1.6-1.6-1.6h-8.1c-0.9,0-1.6,0.8-1.6,1.6v8.1
		C36.7,39,37.5,39.8,38.3,39.8z M40,31.7h4.8v4.8H40V31.7z M36.7,51.9c0,0.9,0.8,1.6,1.6,1.6h8.1c0.9,0,1.6-0.8,1.6-1.6v-8.1
		c0-0.9-0.8-1.6-1.6-1.6h-8.1c-0.9,0-1.6,0.8-1.6,1.6V51.9z M40,45.5h4.8v4.8H40V45.5z"/>
</g>
</svg>
