<?xml version="1.0" encoding="utf-8"?>
<!-- Generator: Adobe Illustrator 24.2.1, SVG Export Plug-In . SVG Version: 6.00 Build 0)  -->
<svg version="1.1" id="Capa_1" xmlns="http://www.w3.org/2000/svg" xmlns:xlink="http://www.w3.org/1999/xlink" x="0px" y="0px"
	 viewBox="0 0 55 55" style="enable-background:new 0 0 55 55;" xml:space="preserve">
<style type="text/css">
	.st0{fill:#2A3737;}
</style>
<g>
	<path class="st0" d="M43.59,17.36c-0.89-0.12-1.88,0.1-2.8,0.28c-0.95-2.33-2-4.62-3.12-6.86c-0.71-1.41-1.54-3.64-2.92-4.57
		c-1.9-1.29-4.05,0.84-5.24,2.15c-5.08,5.57-9.72,11.45-16.53,15.05c-0.06,0.03-0.12,0.07-0.16,0.12c-1.92,0.59-3.83,1.19-5.74,1.82
		c-1.23,0.41-2.9,0.68-3.91,1.58c-1.74,1.55-0.58,4.91,0.11,6.68c0.65,1.66,2.15,5.02,4.09,5.59c0.53,0.16,1.16,0.07,1.79-0.09
		c1.15,2.39,2.2,4.85,3.53,7.14c0.86,1.48,1.72,3.45,3.72,2.79c2.09-0.69,4.71-2.82,4.08-5.28c-0.32-1.24-1.46-2.17-2.16-3.18
		c-0.78-1.12-1.39-2.33-1.97-3.56c0.31-0.1,0.62-0.19,0.93-0.29c3.91-0.76,7.84-1.15,11.81-0.71c3.53,0.39,6.98,1.32,10.45,2.06
		c1.71,0.36,4.97,1.71,6.14-0.36c1.2-2.11-0.38-6.07-0.93-8.17c-0.37-1.43-0.78-2.85-1.22-4.26c0.96-0.64,2.15-1.25,2.61-2.33
		c0.49-1.14,0-2.39-0.48-3.44C45.25,18.62,44.67,17.51,43.59,17.36z M6.24,36.04c-0.57-0.8-1.03-1.65-1.42-2.56
		c-0.38-0.9-0.68-1.83-0.86-2.8c-0.38-2.08,0.79-2.99,2.58-3.59c2.16-0.73,4.34-1.42,6.52-2.09c1.1,3.49,2.27,6.96,3.5,10.4
		c-1.94,0.62-3.88,1.2-5.86,1.7C8.88,37.57,7.49,37.78,6.24,36.04z M17.87,41.84c0.2,0.26,0.51,0.6,0.67,0.85
		c0.97,1.51,0.99,2.45-0.29,3.85c-0.34,0.38-1,0.8-1.45,1.01c-0.43,0.21-0.75,0.32-1.04,0.33c0.21-0.35,0.38-0.72,0.51-1.11
		c0.23-0.68-0.84-0.97-1.07-0.3c-0.11,0.33-0.26,0.63-0.44,0.92c-0.05-0.05-0.09-0.09-0.14-0.14c-0.1-0.11-0.2-0.22-0.3-0.34
		c0.01-0.02,0.02-0.04,0.03-0.07c0.08-0.24,0.23-0.45,0.34-0.67c0.14-0.27,0.25-0.56,0.35-0.85c0.23-0.68-0.84-0.97-1.07-0.3
		c-0.1,0.29-0.24,0.55-0.38,0.82c-0.15-0.26-0.28-0.53-0.42-0.8c0,0,0.01-0.01,0.01-0.01c0.25-0.56,0.51-1.11,0.76-1.67
		c0.12-0.27,0.08-0.6-0.2-0.76c-0.24-0.14-0.63-0.07-0.76,0.2c-0.14,0.31-0.28,0.62-0.43,0.93c-0.1-0.22-0.2-0.43-0.3-0.63
		c-0.05-0.1-0.1-0.21-0.15-0.31c0.04-0.04,0.08-0.08,0.11-0.14c0.25-0.43,0.5-0.85,0.74-1.28c0.36-0.62-0.6-1.18-0.96-0.56
		c-0.15,0.27-0.31,0.53-0.46,0.8c-0.14-0.29-0.28-0.59-0.42-0.88c0.04-0.04,0.08-0.07,0.11-0.11c0.22-0.29,0.44-0.59,0.64-0.89
		c0.17-0.25,0.05-0.62-0.2-0.76c-0.27-0.16-0.59-0.05-0.76,0.2c-0.1,0.15-0.22,0.3-0.33,0.45c-0.13-0.27-0.26-0.54-0.38-0.81
		c0.32-0.1,0.61-0.2,0.88-0.27c1.4-0.36,2.79-0.75,4.17-1.17C16.02,38.94,16.81,40.45,17.87,41.84z M38.39,36.32
		c-3.19-0.71-6.38-1.49-9.64-1.81c-3.73-0.37-7.43-0.01-11.09,0.66c-1.27-3.53-2.46-7.09-3.59-10.66
		c6.12-3.34,10.88-8.56,15.36-13.8c0.52-0.61,1.34-1.77,2.26-2.54c2.65,3.96,4.37,8.9,6.11,13.27c1.99,5.02,3.64,10.48,4.6,15.82
		C41.03,37.16,39.35,36.53,38.39,36.32z M44.54,35.86c-0.05,0.77-0.45,1.16-1.03,1.32c-0.97-5.54-2.69-11.19-4.78-16.39
		c-1.76-4.38-3.45-9.27-6.11-13.23c0.48-0.21,0.98-0.25,1.45,0.02c0.63,0.36,1.17,1.79,1.5,2.4c1.54,2.81,2.83,5.76,4.01,8.73
		c1.41,3.55,2.66,7.17,3.64,10.87C43.72,31.44,44.66,33.92,44.54,35.86z M44.88,22.89c-0.38,0.55-1.08,0.93-1.7,1.31
		c-0.6-1.85-1.26-3.69-1.98-5.5c0.44-0.07,0.88-0.14,1.33-0.19c1.08-0.11,1.5,0.2,2.01,1.2C45.02,20.66,45.58,21.89,44.88,22.89z"/>
	<path class="st0" d="M43.88,14.04c0.01-1.06,0-2.11,0.01-3.17c0.01-0.71-1.1-0.72-1.11,0c-0.01,1.06,0,2.11-0.01,3.17
		C42.76,14.75,43.88,14.75,43.88,14.04z"/>
	<path class="st0" d="M48.4,16.17c0.58-0.63,1.16-1.27,1.74-1.9c0.48-0.53-0.3-1.31-0.79-0.79c-0.58,0.63-1.16,1.27-1.74,1.9
		C47.14,15.92,47.92,16.7,48.4,16.17z"/>
	<path class="st0" d="M52.21,19.81c-0.82-0.05-1.65-0.05-2.48-0.07c-0.71-0.02-0.71,1.09,0,1.11c0.83,0.03,1.65,0.02,2.48,0.07
		C52.92,20.96,52.92,19.85,52.21,19.81z"/>
	<path class="st0" d="M48.03,24.87c-0.58-0.42-1.14,0.54-0.56,0.96c0.71,0.51,1.37,1.08,2.01,1.67c0.53,0.48,1.32-0.3,0.79-0.79
		C49.55,26.06,48.81,25.43,48.03,24.87z"/>
	<path class="st0" d="M8.26,30.1c0.66-0.26,0.37-1.33-0.3-1.07c-0.74,0.29-1.49,0.58-2.23,0.87c-0.66,0.26-0.37,1.33,0.3,1.07
		C6.77,30.68,7.51,30.39,8.26,30.1z"/>
	<path class="st0" d="M8.56,30.85c-0.76,0.36-1.55,0.66-2.36,0.9c-0.68,0.2-0.39,1.28,0.3,1.07c0.9-0.27,1.78-0.61,2.63-1.01
		C9.77,31.5,9.21,30.54,8.56,30.85z"/>
</g>
</svg>
