<?xml version="1.0" encoding="utf-8"?>
<!-- Generator: Adobe Illustrator 24.2.3, SVG Export Plug-In . SVG Version: 6.00 Build 0)  -->
<svg version="1.1" id="Capa_1" xmlns="http://www.w3.org/2000/svg" xmlns:xlink="http://www.w3.org/1999/xlink" x="0px" y="0px"
	 viewBox="0 0 60 60" style="enable-background:new 0 0 60 60;" xml:space="preserve">
<style type="text/css">
	.st0{fill:none;stroke:#4C426B;stroke-linecap:round;stroke-linejoin:round;stroke-miterlimit:10;}
	.st1{fill:#FFFFFF;}
	.st2{fill:none;stroke:#FF4C4C;stroke-width:0.5;stroke-miterlimit:10;}
	.st3{fill:#FF4C4C;}
</style>
<g>
	<line class="st0" x1="13.6" y1="33.78" x2="15.52" y2="33.78"/>
	<g>
		<circle class="st1" cx="34.73" cy="29.67" r="19.42"/>
		<circle class="st0" cx="31.4" cy="28.55" r="19.42"/>
		<polyline class="st0" points="23.64,18.93 31.94,31.18 39.65,24.46 		"/>
		<line class="st0" x1="45.91" y1="28.76" x2="48.46" y2="28.76"/>
		<line class="st0" x1="31.3" y1="11.6" x2="31.3" y2="14.15"/>
		<line class="st0" x1="31.3" y1="43.38" x2="31.3" y2="45.93"/>
	</g>
	<g>
		<circle class="st2" cx="7.24" cy="23.33" r="1.23"/>
		<circle class="st2" cx="53.98" cy="46.31" r="1.23"/>
		<circle class="st3" cx="49.72" cy="51.2" r="0.62"/>
		<circle class="st3" cx="44.17" cy="8.8" r="0.62"/>
		<g>
			<path class="st3" d="M6.88,15.13h1.67v0.42H6.88v1.81H6.42v-1.81H4.79v-0.42h1.63v-1.75h0.46V15.13z"/>
		</g>
		<g>
			<path class="st3" d="M50.5,13.03h1.67v0.42H50.5v1.81h-0.46v-1.81h-1.63v-0.42h1.63v-1.75h0.46V13.03z"/>
		</g>
		<g>
			<path class="st3" d="M12.2,43.18h1.67v0.42H12.2v1.81h-0.46V43.6h-1.63v-0.42h1.63v-1.75h0.46V43.18z"/>
		</g>
	</g>
</g>
</svg>
