<?xml version="1.0" encoding="utf-8"?>
<!-- Generator: Adobe Illustrator 24.2.3, SVG Export Plug-In . SVG Version: 6.00 Build 0)  -->
<svg version="1.1" id="Capa_1" xmlns="http://www.w3.org/2000/svg" xmlns:xlink="http://www.w3.org/1999/xlink" x="0px" y="0px"
	 viewBox="0 0 60 60" style="enable-background:new 0 0 60 60;" xml:space="preserve">
<style type="text/css">
	.st0{fill:#FFFFFF;}
	.st1{fill:none;stroke:#4C426B;stroke-linecap:round;stroke-linejoin:round;stroke-miterlimit:10;}
	.st2{fill:none;stroke:#37EFE3;stroke-linecap:round;stroke-linejoin:round;stroke-miterlimit:10;}
	.st3{fill:none;stroke:#FF4C4C;stroke-width:0.5;stroke-miterlimit:10;}
	.st4{fill:#FF4C4C;}
</style>
<g>
	<g>
		<path class="st0" d="M44.15,51.25H25.99c-2.95,0-5.34-2.39-5.34-5.34V19.65c0-2.95,2.39-5.34,5.34-5.34h18.16
			c2.95,0,5.34,2.39,5.34,5.34V45.9C49.49,48.85,47.1,51.25,44.15,51.25z"/>
		<path class="st1" d="M40.96,49.39H22.81c-2.95,0-5.34-2.39-5.34-5.34V17.79c0-2.95,2.39-5.34,5.34-5.34h18.16
			c2.95,0,5.34,2.39,5.34,5.34v26.25C46.31,47,43.91,49.39,40.96,49.39z"/>
		<circle class="st2" cx="37.2" cy="41.87" r="4.05"/>
		<circle class="st2" cx="37.2" cy="41.87" r="2.05"/>
		<g>
			<line class="st1" x1="22.27" y1="34.72" x2="41.25" y2="34.72"/>
			<line class="st1" x1="22.27" y1="29.34" x2="41.25" y2="29.34"/>
			<line class="st1" x1="22.27" y1="23.97" x2="41.25" y2="23.97"/>
			<line class="st1" x1="22.27" y1="18.59" x2="31.84" y2="18.59"/>
		</g>
	</g>
	<g>
		<circle class="st3" cx="7.24" cy="23.33" r="1.23"/>
		<circle class="st3" cx="53.98" cy="46.31" r="1.23"/>
		<circle class="st4" cx="49.72" cy="51.2" r="0.62"/>
		<circle class="st4" cx="44.17" cy="8.8" r="0.62"/>
		<g>
			<path class="st4" d="M6.88,15.13h1.67v0.42H6.88v1.81H6.42v-1.81H4.79v-0.42h1.63v-1.75h0.46V15.13z"/>
		</g>
		<g>
			<path class="st4" d="M50.5,13.03h1.67v0.42H50.5v1.81h-0.46v-1.81h-1.63v-0.42h1.63v-1.75h0.46V13.03z"/>
		</g>
		<g>
			<path class="st4" d="M12.2,43.18h1.67v0.42H12.2v1.81h-0.46V43.6h-1.63v-0.42h1.63v-1.75h0.46V43.18z"/>
		</g>
	</g>
</g>
</svg>
