<?xml version="1.0" encoding="utf-8"?>
<!-- Generator: Adobe Illustrator 24.2.3, SVG Export Plug-In . SVG Version: 6.00 Build 0)  -->
<svg version="1.1" id="Capa_1" xmlns="http://www.w3.org/2000/svg" xmlns:xlink="http://www.w3.org/1999/xlink" x="0px" y="0px"
	 viewBox="0 0 48 48" style="enable-background:new 0 0 48 48;" xml:space="preserve">
<style type="text/css">
	.st0{fill:#FFC107;}
	.st1{fill:#FF3D00;}
	.st2{fill:#4CAF50;}
	.st3{fill:#1976D2;}
</style>
<g>
	<path class="st0" d="M47.5,19.3h-1.9v-0.1H24v9.6h13.6c-2,5.6-7.3,9.6-13.6,9.6C16,38.4,9.6,32,9.6,24S16,9.6,24,9.6
		c3.7,0,7,1.4,9.6,3.6l6.8-6.8C36.1,2.5,30.3,0,24,0C10.7,0,0,10.7,0,24s10.7,24,24,24s24-10.7,24-24C48,22.4,47.8,20.8,47.5,19.3z"
		/>
	<path class="st1" d="M2.8,12.8l7.9,5.8c2.1-5.3,7.3-9,13.3-9c3.7,0,7,1.4,9.6,3.6l6.8-6.8C36.1,2.5,30.3,0,24,0
		C14.8,0,6.8,5.2,2.8,12.8z"/>
	<path class="st2" d="M24,48c6.2,0,11.8-2.4,16.1-6.2l-7.4-6.3c-2.4,1.8-5.4,2.9-8.7,2.9c-6.2,0-11.5-4-13.5-9.5l-7.8,6
		C6.6,42.7,14.7,48,24,48z"/>
	<path class="st3" d="M47.5,19.3h-1.9v-0.1H24v9.6h13.6c-1,2.7-2.7,5-4.9,6.7c0,0,0,0,0,0l7.4,6.3C39.6,42.2,48,36,48,24
		C48,22.4,47.8,20.8,47.5,19.3z"/>
</g>
</svg>
