<?xml version="1.0" encoding="utf-8"?>
<!-- Generator: Adobe Illustrator 24.2.3, SVG Export Plug-In . SVG Version: 6.00 Build 0)  -->
<svg version="1.1" id="Capa_1" xmlns="http://www.w3.org/2000/svg" xmlns:xlink="http://www.w3.org/1999/xlink" x="0px" y="0px"
	 viewBox="0 0 50 50" style="enable-background:new 0 0 50 50;" xml:space="preserve">
<style type="text/css">
	.st0{fill:#EDF1F3;}
	.st1{clip-path:url(#SVGID_2_);}
	.st2{opacity:0.2;fill:#373449;}
	.st3{fill:#3B4B5A;}
	.st4{opacity:0.1;fill:#373449;}
	.st5{fill:#E7897C;}
	.st6{opacity:0.5;fill:#AF8069;}
	.st7{fill:#9D624A;}
	.st8{fill:#FFFFFF;}
	.st9{fill:#373449;}
	.st10{fill:#E4475C;}
	.st11{fill:#7A5681;}
	.st12{opacity:0.3;fill:#373449;}
	.st13{fill:#37EFE3;}
</style>
<g>
	<circle class="st0" cx="25" cy="25" r="23.59"/>
	<g>
		<defs>
			<circle id="SVGID_1_" cx="25" cy="25" r="23.59"/>
		</defs>
		<clipPath id="SVGID_2_">
			<use xlink:href="#SVGID_1_"  style="overflow:visible;"/>
		</clipPath>
		<g class="st1">
			<ellipse class="st2" cx="26.56" cy="137.61" rx="22.25" ry="3.74"/>
			<g>
				<g>
					<path class="st3" d="M16.65,10.89l3.53,1.41c0,0,9.41,26.73,3.94,26.47c-2.61-0.12-4.63-1.02-6.06-1.96l-0.02-1.41l-0.33,1.17
						c-1.47-1.05-3.21,0.83-3.21,0.83C6.54,30.51,16.65,10.89,16.65,10.89z"/>
					<path class="st4" d="M21.7,23.95c-3.26-0.97-6.08-2.67-8.36-4.92c-2.02,6.23-3.43,14.41,1.15,18.37c0,0,1.74-1.88,3.21-0.83
						l0.33-1.17l0.02,1.41c1.43,0.94,3.44,1.84,6.06,1.96c2.9,0.14,1.62-7.29-0.22-14.31C23.16,24.33,22.42,24.16,21.7,23.95z"/>
					<path class="st5" d="M23,30.43c0,0,0.13,3.99-0.46,4.21c0.82-0.32-14.34,0.3-6.09,3.67c4.88,2,0.67,12.83,0.67,12.83
						l14.65,1.05c0,0,5.9-13.79,3.16-15.85c-0.68-0.51-5.67-2.85-5.45-2.81L23,30.43z"/>
					<g>
						<path class="st5" d="M30.24,24.99l-0.76,8.55l3.42,1.54c0,0-12.27,3.99-16.6-0.47l6.24,0.03l1.2-9.56L30.24,24.99z"/>
						<path class="st6" d="M22.8,32.98l0.94-7.89l6.49-0.1l-0.61,6.53C27.57,32.09,24.87,32.75,22.8,32.98z"/>
					</g>
					<path class="st5" d="M33.89,13.53c0,0-6-6.65-12.5-3.21c-6.5,3.45-7.33,16.06-1.31,19.4c5.12,2.83,11.76,0.39,13.46-5.5
						C35.1,18.83,33.89,13.53,33.89,13.53z"/>
					<path class="st3" d="M30.59,12.25c0,0-3.04,4.12-9.98,1.95l1.19-1.19c0,0-3.26-0.16-5.43,3.85c0,0-1.84-7.33,4.12-10.36
						C26.47,3.46,34.72,6.61,30.59,12.25z"/>
					<path class="st3" d="M30.9,21.28c-2.98-3.42-1.06-8.6-1.06-8.6l-0.98-1.95l1.52-0.11c3.69-4.34,9.18,1.44,9.28,5.1
						c0.38,13.81-4.14,19.71-4.14,19.71c-0.48,0.5-4.91,0.2-4.91,0.2C25.14,33.31,32.36,22.97,30.9,21.28z"/>
					<path class="st4" d="M37.69,11.41c-2.09,2.69-5.09,4.81-8.32,6.6c0.2,1.13,0.65,2.28,1.52,3.27
						c1.47,1.68-5.76,12.02-0.29,14.34c0,0,4.43,0.31,4.91-0.2c0,0,4.52-5.9,4.14-19.71C39.62,14.37,38.84,12.72,37.69,11.41z"/>
					<path class="st5" d="M33.56,22.38c0.08-0.6,0.53-2.8,2.76-1.64c2.32,1.21-0.31,5.96-3.18,4.5
						C33.42,24.33,33.5,23.37,33.56,22.38z"/>
				</g>
				<g>
					<g>
						<path class="st7" d="M21.56,24.04c-0.69-0.3-1.25-0.72-1.76-1.18l-0.25-0.22l0.19-0.36c0.3-0.57,0.62-1.12,1.02-1.63
							c0.4-0.51,0.83-1,1.4-1.4c-0.1,0.69-0.34,1.29-0.6,1.88c-0.27,0.59-0.61,1.13-0.98,1.65l-0.06-0.59
							C20.93,22.74,21.31,23.33,21.56,24.04z"/>
					</g>
					<path class="st8" d="M26.05,26.06c0,0-3.68,2.32-6.22-0.27"/>
					<g>
						<path class="st7" d="M36.4,22.05c-0.26-0.19-0.5-0.39-0.73-0.49c-0.11-0.06-0.22-0.05-0.21-0.02
							c0.01,0.03,0.02,0.02-0.06,0.17c-0.26,0.46-0.48,1.02-0.7,1.54l-0.12-0.51c0.2,0.21,0.35,0.4,0.49,0.66
							c0.11,0.24,0.33,0.56,0.11,1.06c-0.13,0.24-0.36,0.31-0.51,0.33c-0.16,0.02-0.3,0.02-0.43-0.01c-0.26-0.05-0.5-0.15-0.72-0.27
							c0.25-0.06,0.49-0.1,0.71-0.16c0.21-0.05,0.42-0.2,0.32-0.19c-0.03,0.05-0.08-0.13-0.21-0.28c-0.12-0.15-0.28-0.31-0.42-0.45
							l-0.22-0.22l0.1-0.29c0.21-0.61,0.5-1.17,0.95-1.69c0.09-0.09,0.32-0.36,0.64-0.36c0.32,0,0.49,0.17,0.61,0.29
							C36.23,21.43,36.35,21.73,36.4,22.05z"/>
					</g>
					<path class="st9" d="M19.84,19.77c-0.08,0.57-0.34,1-0.59,0.97c-0.24-0.03-0.37-0.52-0.29-1.09c0.08-0.57,0.34-1,0.59-0.97
						C19.79,18.72,19.92,19.21,19.84,19.77z"/>
					<path class="st9" d="M26.86,21.1c-0.08,0.57-0.34,1-0.59,0.97c-0.24-0.03-0.37-0.52-0.29-1.09c0.08-0.57,0.34-1,0.59-0.97
						C26.81,20.04,26.94,20.53,26.86,21.1z"/>
				</g>
			</g>
			<g>
				<g>
					<path class="st5" d="M13.82,94.1c-7.22,9.75,5.77,40.51,5.77,40.51s2.04-0.07,2.38-0.08c0.34-0.01,4.61-16.4,1.08-35.77
						c-0.07-0.37-2.16-3.32-2.05-3.71C16.96,93.34,17.73,96.13,13.82,94.1z"/>
					<path class="st6" d="M24.43,115c0.03-4.91-0.33-10.44-1.39-16.24c-0.07-0.37-2.16-3.32-2.05-3.71
						c-4.03-1.71-3.26,1.09-7.17-0.94c-2.93,3.96-2.53,11.37-1.02,18.79C16.63,113.87,20.51,114.59,24.43,115z"/>
					<path class="st5" d="M19.38,132.82c0,0-7.47,5.84-5.09,5.64c2.38-0.2,8.16-3.02,8.16-3.02l0.53-4.81L19.38,132.82z"/>
					<path class="st10" d="M16.94,134.82c0,0-0.79,1.23,0.7,1.17c1.49-0.06,4.88-1.29,4.88-1.29l-0.08,0.74c0,0-6.91,3.49-8.41,3.08
						C12.54,138.12,16.94,134.82,16.94,134.82z"/>
				</g>
				<g>
					<path class="st5" d="M34.42,93.3c8.04,9.09-2.24,40.85-2.24,40.85s-2.04,0.11-2.38,0.12c-0.34,0.02-6.01-15.94-4.16-35.55
						c0.03-0.37,1.87-3.5,1.73-3.87C31.23,92.81,30.7,95.66,34.42,93.3z"/>
					<path class="st6" d="M25.65,115.04c-0.45-4.89-0.57-10.43-0.02-16.3c0.03-0.37,1.87-3.5,1.73-3.87
						c3.87-2.05,3.34,0.8,7.06-1.56c3.26,3.69,3.51,11.11,2.64,18.63C33.32,113.23,29.53,114.28,25.65,115.04z"/>
					<path class="st5" d="M32.23,132.35c0,0,7.95,5.17,5.56,5.18c-2.39,0-8.39-2.3-8.39-2.3l-0.75-4.17L32.23,132.35z"/>
					<path class="st10" d="M34.82,134.14c0,0,0.89,1.16-0.6,1.22c-1.49,0.07-4.97-0.87-4.97-0.87l0.14,0.73c0,0,7.19,2.88,8.64,2.35
						C39.49,137.04,34.82,134.14,34.82,134.14z"/>
				</g>
				<g>
					<path class="st11" d="M32.71,55.63c0,0,9.63,10.05,7.84,55.39c0,0-20.1,2.54-30-0.65c0,0-15.31-41.01,4.14-56.76L32.71,55.63z"
						/>
					<path class="st12" d="M25.28,90.04c-5.47,3.96-11.69,6.54-18.13,8.46c1.59,7.01,3.4,11.87,3.4,11.87c9.9,3.19,30,0.66,30,0.66
						c0.66-16.83-0.25-28.8-1.65-37.19C35.52,80.11,31.14,85.8,25.28,90.04z"/>
				</g>
			</g>
			<g>
				<g>
					<path class="st8" d="M34.62,49.08c-0.5-1.55-0.93-3.13-1.24-4.73c-0.44-2.29-0.73-4.59-0.89-6.91
						c-1.23,0.99-3.23,1.92-6.4,2.02c-6.95,0.22-8.83-5.15-8.83-5.15s-3.83,3.39-4.92,8.03c-0.86,3.66,1.76,7.5,2.91,8.96
						l-0.55,2.31c0,0,7.53,4.33,18.02,2.02c0,0,1.39-1.95,2.65-4.72C35.08,50.31,34.82,49.71,34.62,49.08z"/>
					<path class="st2" d="M33.38,44.35c-0.09-0.46-0.17-0.92-0.24-1.39c-1.87,1.99-4.11,3.61-6.72,4.61
						c-3.31,1.28-6.96,1.64-10.44,0.83c-1.13-0.26-2.16-0.72-3.14-1.27c0.7,1.82,1.78,3.35,2.41,4.15l-0.55,2.31
						c0,0,7.53,4.33,18.02,2.02c0,0,1.39-1.95,2.65-4.72c-0.28-0.6-0.54-1.2-0.75-1.83C34.12,47.53,33.69,45.96,33.38,44.35z"/>
				</g>
				<g>
					<g>
						<g>
							<path class="st10" d="M17.26,34.31c0,0-2.43-0.42-6.31,5.05C4.27,48.79,2.5,74.73,3.68,85.93c0,0,5.11,2.75,13.17,2.95
								C16.85,88.88,14.53,47.73,17.26,34.31z"/>
							<path class="st2" d="M17.26,34.31c0,0-2.43-0.42-6.31,5.05C4.27,48.79,2.5,74.73,3.68,85.93c0,0,5.11,2.75,13.17,2.95
								C16.85,88.88,14.53,47.73,17.26,34.31z"/>
						</g>
						<g>
							<path class="st13" d="M33.16,35.33c0,0,4.21-0.52,7.01,3.9c3.59,5.67,6.71,36.75,5.13,47.91c0,0-5.2,2.57-13.26,2.48
								C32.04,89.62,26.28,49.58,33.16,35.33z"/>
							<path class="st2" d="M32.59,60.41c-0.89,0.7-1.82,1.32-2.77,1.87c0.3,14.01,2.22,27.33,2.22,27.33
								c8.06,0.09,13.26-2.48,13.26-2.48c1.09-7.68-0.06-24.83-2.05-36.61C40.14,54.24,36.4,57.41,32.59,60.41z"/>
						</g>
					</g>
					<g>
						<path class="st5" d="M23.68,76.61c0,0-4.47,5.74-1.77,4.39c0,0-0.84,2.11,1.27,0.59c0,0-0.42,1.77,0.76,0.51
							c0,0-0.76,2.53,3.12-2.61C30.94,74.34,23.68,76.61,23.68,76.61z"/>
						<path class="st6" d="M23.68,76.61c0,0-4.47,5.74-1.77,4.39c0,0-0.84,2.11,1.27,0.59c0,0-0.42,1.77,0.76,0.51
							c0,0-0.76,2.53,3.12-2.61C30.94,74.34,23.68,76.61,23.68,76.61z"/>
						<path class="st5" d="M19.63,78.99c0,0,3.11,6.57,3.12,3.56c0,0,1.5,1.7,1.1-0.86c0,0,1.39,1.17,0.79-0.45
							c0,0,1.92,1.82-0.93-3.96C20.86,71.49,19.63,78.99,19.63,78.99z"/>
						<path class="st13" d="M17.26,34.31l2.48,25.8l4.34,16.52l-4.37,2.74c0,0-5.96-7.11-9.02-14.42
							c-3.53-8.46-3.43-15.99-3.43-15.99S8.4,33.27,17.26,34.31z"/>
					</g>
				</g>
			</g>
		</g>
	</g>
</g>
</svg>
