<?xml version="1.0" encoding="UTF-8"?>
<svg width="284px" height="229px" viewBox="0 0 284 229" version="1.1" xmlns="http://www.w3.org/2000/svg" xmlns:xlink="http://www.w3.org/1999/xlink">
    <title>img-login</title>
    <g id="registro" stroke="none" stroke-width="1" fill="none" fill-rule="evenodd">
        <g id="web/sesion-finaliza" transform="translate(-662.000000, -269.000000)">
            <g id="body" transform="translate(285.000000, 0.000000)">
                <g id="img-login" transform="translate(379.000000, 270.000000)">
                    <circle id="Oval" fill="#EEEEEE" fill-rule="nonzero" cx="139.7" cy="112.8" r="112"></circle>
                    <g id="Group" transform="translate(98.000000, 47.000000)" stroke="#CECECE" stroke-linecap="round" stroke-linejoin="round" stroke-width="3">
                        <g transform="translate(0.000000, 77.000000)" id="Path">
                            <path d="M40.4,0.8 C37.7,0.7 40.7,13.6 38,13.8 C20.8,14.7 7.6,18.6 0.7,30.9 L0.7,35.5"></path>
                            <path d="M85.5,35.5 L85.5,30.9 C78.6,20.6 68.5,16.9 54.1,14.6 C52.7,14.4 52.3,3.7 50.8,0.8"></path>
                        </g>
                        <g transform="translate(4.000000, 0.000000)" id="Path">
                            <path d="M33.6,89.9 C28.1,89.2 23.5,87.8 19.6,85.9 C17.8,85 18.2,82 16.7,81 C15.2,79.9 11.9,80.8 10.7,79.5 C-2.9,65.3 1,41 3.2,28.6 C6.2,11.9 12.2,4 23,7 C33.8,-7.8 73.2,2.1 74.2,26.7 C74.9,45 80.3,67.3 69.1,80.1 C68.1,81.2 64.1,80.8 62.8,81.7 C61.6,82.7 61.6,86.3 60.1,87.1 C57.2,88.5 53.8,89.6 49.7,90.1"></path>
                            <path d="M47.5,35.5 L29.7,35.5 L10.2,41.4 C10.2,41.4 14.2,75.3 37.7,76.8 C62.5,78.4 67.5,41.4 67.5,41.4 L47.5,35.5 Z"></path>
                        </g>
                    </g>
                    <polygon id="Path" stroke="#EEEEEE" stroke-width="2" points="49.6 1.3 53.7 9.6 62.9 11 56.3 17.5 57.8 26.7 49.6 22.4 41.3 26.7 42.9 17.5 36.2 11 45.4 9.6"></polygon>
                    <polygon id="Path" stroke="#EEEEEE" stroke-width="2" points="9.8 63.2 13.8 69 20.9 69 16.5 74.6 18.7 81.4 12 79 6.3 83.2 6.5 76.1 0.8 71.9 7.6 69.9"></polygon>
                    <polygon id="Path" stroke="#EEEEEE" points="51.8 200.3 51.8 204.3 55.2 206.5 51.4 207.9 50.3 211.7 47.9 208.5 43.9 208.7 46.2 205.4 44.8 201.6 48.6 202.8"></polygon>
                    <polygon id="Path" stroke="#EEEEEE" points="228.8 13.3 228.9 17.3 232.2 19.5 228.4 20.8 227.3 24.7 224.9 21.5 220.9 21.7 223.2 18.4 221.8 14.6 225.6 15.8"></polygon>
                    <polygon id="Path" stroke="#EEEEEE" stroke-width="2" points="267.9 117.7 272.5 123.2 279.5 122.6 275.7 128.6 278.5 135.1 271.6 133.3 266.2 138 265.8 130.9 259.7 127.2 266.3 124.6"></polygon>
                    <polygon id="Path" stroke="#EEEEEE" stroke-width="2" points="217.3 209.7 218.5 215.1 223.6 217.3 218.8 220.1 218.4 225.6 214.2 221.9 208.8 223.2 211.1 218.1 208.1 213.4 213.7 213.9"></polygon>
                    <g id="Group" transform="translate(135.000000, 109.000000)" stroke="#CECECE" stroke-linecap="round" stroke-linejoin="round">
                        <path d="M13.9,0.7 C13.9,0.7 6.1,5.5 0.2,2.7" id="Path" stroke-width="2"></path>
                        <path d="M9,6.4 C9,6.4 6,7.3 4,6.5" id="Path"></path>
                    </g>
                    <path d="M194.6,187.2 L88.6,187.2 C85.3,187.2 82.6,184.5 82.6,181.2 L82.6,166 C82.6,162.7 85.3,160 88.6,160 L194.6,160 C197.9,160 200.6,162.7 200.6,166 L200.6,181.2 C200.7,184.5 198,187.2 194.6,187.2 Z" id="Path" stroke="#CECECE" stroke-width="3" stroke-linecap="round" stroke-linejoin="round"></path>
                    <g id="Group" transform="translate(97.000000, 169.000000)" stroke="#CECECE" stroke-linecap="round" stroke-linejoin="round">
                        <g id="Path">
                            <line x1="4.9" y1="0.2" x2="4.9" y2="9.6"></line>
                            <line x1="9.6" y1="4.9" x2="0.2" y2="4.9"></line>
                            <line x1="8.2" y1="8.2" x2="1.5" y2="1.6"></line>
                            <line x1="1.5" y1="8.2" x2="8.2" y2="1.6"></line>
                        </g>
                        <g transform="translate(26.000000, 0.000000)" id="Path">
                            <line x1="5.2" y1="0.2" x2="5.2" y2="9.6"></line>
                            <line x1="9.9" y1="4.9" x2="0.5" y2="4.9"></line>
                            <line x1="8.5" y1="8.2" x2="1.9" y2="1.6"></line>
                            <line x1="1.9" y1="8.2" x2="8.5" y2="1.6"></line>
                        </g>
                        <g transform="translate(52.000000, 0.000000)" id="Path">
                            <line x1="5.5" y1="0.2" x2="5.5" y2="9.6"></line>
                            <line x1="10.2" y1="4.9" x2="0.8" y2="4.9"></line>
                            <line x1="8.9" y1="8.2" x2="2.2" y2="1.6"></line>
                            <line x1="2.2" y1="8.2" x2="8.9" y2="1.6"></line>
                        </g>
                        <g transform="translate(79.000000, 0.000000)" id="Path">
                            <line x1="4.8" y1="0.2" x2="4.8" y2="9.6"></line>
                            <line x1="9.6" y1="4.9" x2="0.1" y2="4.9"></line>
                            <line x1="8.2" y1="8.2" x2="1.5" y2="1.6"></line>
                            <line x1="1.5" y1="8.2" x2="8.2" y2="1.6"></line>
                        </g>
                    </g>
                </g>
            </g>
        </g>
    </g>
</svg>