<?xml version="1.0" encoding="utf-8"?>
<!-- Generator: Adobe Illustrator 24.3.0, SVG Export Plug-In . SVG Version: 6.00 Build 0)  -->
<svg version="1.1" id="Capa_1" xmlns="http://www.w3.org/2000/svg" xmlns:xlink="http://www.w3.org/1999/xlink" x="0px" y="0px"
	 viewBox="0 0 200 120" style="enable-background:new 0 0 200 120;" xml:space="preserve">
<style type="text/css">
	.st0{opacity:0.3;fill:#221F1F;enable-background:new    ;}
	.st1{fill:#37EFE3;}
	.st2{fill:#00CDCC;}
	.st3{fill:#52C4B9;}
	.st4{fill:#FFFFFF;}
	.st5{fill:#3B4B5A;}
	.st6{fill:#CFCFCF;}
	.st7{fill:#BCBEC0;}
</style>
<g>
	<g>
		<g>
			<path class="st0" d="M102.51,92.59c0,1.42-7.21,2.56-15.17,2.56c-7.95,0-13.64-1.15-13.64-2.56c0-1.42,5.68-2.56,13.64-2.56
				C95.29,90.03,102.51,91.17,102.51,92.59z"/>
			<path class="st0" d="M129.97,89.34c0,1.42-6.45,2.56-14.4,2.56c-7.96,0-13.38-1.15-13.38-2.56c0-1.42,5.43-2.56,13.38-2.56
				S129.97,87.92,129.97,89.34z"/>
			<path class="st1" d="M132.49,47.6c0,0,1.08,1.17,2.84-2.54c1.76-3.7,0.56,4.61-1.36,6.37s-2.03-0.1-2.03-0.1L132.49,47.6z"/>
			<path class="st2" d="M124.17,43.88c0,0,5.85-2.22,8.62,3.14c2.77,5.36,0.39,8.13-1.47,9.05C129.47,57,124.17,43.88,124.17,43.88z
				"/>
			<path class="st2" d="M75.95,80.54l1.96,10.96c0,0,3.38,2.4,8.74,0.92s2.37-6.82,2.37-6.82L75.95,80.54z"/>
			<path class="st3" d="M105.88,83.32l1.29,6.51c0,0,3.51,1.48,7.39,0s0.92-9.29,0.92-9.29L105.88,83.32z"/>
			<path class="st1" d="M83.79,32.54c0,0-6.47-8.22-8.5-7.66c-2.03,0.56,0.92,14.27,0,16.46C74.37,43.54,83.79,32.54,83.79,32.54z"
				/>
			<path class="st3" d="M81.64,34.73c0,0-4.96-6.9-5.33-7.09s0.57,7.18,0.37,9.67C76.48,39.8,81.64,34.73,81.64,34.73z"/>
			<path class="st1" d="M112.71,82.43l2.04,7.76c0,0,5.54,2.67,10.72-1.46c0.55-4.68,1.02-16.1,1.02-16.1l-13.77,9.06"/>
			<path class="st1" d="M132.95,57.48c1.39,19.3-16.16,28.79-35.75,28.79S65.33,75.75,65.33,59.7s15.05-30.73,33.25-30.73
				C117.89,28.97,131.8,41.47,132.95,57.48z"/>
			<path class="st2" d="M84.9,40.58c-0.28-1.39,6.74-13.46,8.78-12.47c2.04,0.99,3.14,17.53,1.85,20.13
				C94.23,50.84,85.18,41.97,84.9,40.58z"/>
			<path class="st3" d="M87.34,39.93c0,0,4.21-8.42,5.32-8.51s1.29,15.5-0.55,13.99C90.26,43.91,87.24,41.04,87.34,39.93z"/>
			<path class="st3" d="M96.87,31.71c0,0,10.38-1.53,19.92,4.12c0.82,0.92,0.83,2.03,0.83,2.03s-8.29-4.62-19.92-3.71
				C97.6,33.1,96.87,31.71,96.87,31.71z"/>
			<path class="st1" d="M100.33,85.75l-1.85,7.14c0,0-2.99,1.41-10.59,0.52c-1.24-2.11-2.72-11.9-2.72-11.9L100.33,85.75z"/>
			<g>
				<path class="st2" d="M71.71,52.15c-1.68-0.79-9.1,0.8-9.1,0.8l1.65,23.27c0,0,6.44,0.93,9.11-0.65s4.23-5.65,3.77-12.21
					C76.67,56.8,73.39,52.94,71.71,52.15z"/>
				<path class="st1" d="M68.74,64.21c0.46,6.43-1.55,11.8-4.48,12.01s-5.67-4.83-6.13-11.26c-0.46-6.43,1.55-11.8,4.48-12.01
					C65.54,52.75,68.28,57.79,68.74,64.21z"/>
				<path class="st3" d="M62.44,67.84c0.04,0.54-0.37,1.01-0.91,1.05l-0.35,0.02c-0.54,0.04-1.01-0.37-1.05-0.91l-0.48-6.8
					c-0.04-0.54,0.37-1.01,0.91-1.05l0.35-0.02c0.54-0.04,1.01,0.37,1.05,0.91L62.44,67.84z"/>
				<path class="st3" d="M66.29,67.98c0.04,0.54-0.37,1.01-0.91,1.05l-0.34,0.02c-0.54,0.04-1.01-0.37-1.05-0.91l-0.48-6.8
					c-0.04-0.54,0.37-1.01,0.91-1.05l0.35-0.02c0.54-0.04,1.01,0.37,1.05,0.91L66.29,67.98z"/>
			</g>
			<g>
				<path class="st4" d="M75.74,47.91c-0.64,2.05,0.4,4.19,2.34,4.8c1.93,0.61,4.02-0.56,4.66-2.6c0.64-2.05-0.4-4.19-2.34-4.8
					C78.47,44.7,76.38,45.87,75.74,47.91z"/>
				<path class="st5" d="M76.12,48.03c-0.5,1.6,0.32,3.28,1.83,3.75s3.14-0.44,3.65-2.04c0.5-1.6-0.32-3.28-1.83-3.75
					C78.25,45.52,76.62,46.44,76.12,48.03z"/>
			</g>
			<g>
				<path class="st4" d="M73.14,47.49c-0.71,1.37-2.02,2.1-2.93,1.64c-0.91-0.47-1.08-1.96-0.37-3.34c0.71-1.37,2.02-2.1,2.93-1.64
					C73.68,44.62,73.85,46.12,73.14,47.49z"/>
				<path class="st5" d="M72.48,47.15c-0.55,1.07-1.58,1.65-2.29,1.28c-0.71-0.37-0.84-1.53-0.29-2.61
					c0.55-1.07,1.58-1.64,2.29-1.28C72.9,44.91,73.03,46.08,72.48,47.15z"/>
			</g>
		</g>
		<path class="st4" d="M81.08,47.76c0,0.37-0.3,0.67-0.67,0.67c-0.37,0-0.67-0.3-0.67-0.67s0.3-0.67,0.67-0.67
			S81.08,47.39,81.08,47.76z"/>
		<path class="st4" d="M72.22,45.8c-0.07,0.17-0.27,0.25-0.44,0.18c-0.17-0.07-0.25-0.27-0.18-0.44s0.27-0.25,0.44-0.18
			C72.21,45.44,72.29,45.63,72.22,45.8z"/>
	</g>
	<g>
		<path class="st6" d="M141.41,85.43c-1.69,5.7-7.68,8.96-13.39,7.27c-5.7-1.69-8.96-7.68-7.27-13.39s7.68-8.96,13.39-7.27
			C139.84,73.73,143.09,79.72,141.41,85.43z"/>
		<path class="st7" d="M139.54,84.88c-1.38,4.67-6.29,7.34-10.97,5.96c-4.67-1.38-7.34-6.29-5.96-10.97
			c1.38-4.67,6.29-7.34,10.97-5.96C138.26,75.29,140.92,80.2,139.54,84.88z"/>
		<path class="st1" d="M135.85,81.17c0.32-1.45-0.4-2.55-2.14-3.32l0.53-1.77l-2.1-0.63l-0.53,1.75c-0.86-0.15-1.6-0.11-2.22,0.13
			c-0.83,0.33-1.36,0.87-1.59,1.63c-0.21,0.71-0.12,1.38,0.26,2.01c0.39,0.63,1.14,1.24,2.25,1.83c1.12,0.58,1.81,1.02,2.07,1.31
			c0.27,0.29,0.34,0.63,0.22,1.03c-0.26,0.9-1.06,1.15-2.38,0.75c-1.41-0.42-2.04-1.19-1.88-2.31l-2.25-0.48
			c-0.2,1.83,0.66,3.17,2.56,4.02l-0.49,1.63l2.1,0.63l0.49-1.64c0.73,0.1,1.44,0.06,2.13-0.11c1.01-0.27,1.65-0.88,1.94-1.83
			c0.25-0.82,0.18-1.56-0.2-2.23c-0.37-0.67-1.1-1.28-2.17-1.84c-1.07-0.55-1.77-0.98-2.09-1.26c-0.33-0.29-0.43-0.62-0.32-1
			c0.19-0.62,0.86-0.76,2.03-0.41c1.16,0.35,1.67,0.86,1.53,1.54L135.85,81.17z"/>
	</g>
	<g>
		<g>
			<path class="st4" d="M138.8,81.31c0-0.85,0.37-2.13,0.65-2.41c0.27-0.27,1.57-0.65,2.41-0.65c-0.85,0-2.09-0.33-2.41-0.65
				c-0.34-0.34-0.65-1.57-0.65-2.41c0,0.87-0.33,2.09-0.69,2.45c-0.38,0.38-1.55,0.61-2.37,0.61c0.85,0,2.09,0.33,2.41,0.65
				C138.47,79.22,138.8,80.46,138.8,81.31z"/>
		</g>
		<g>
			<path class="st4" d="M140.84,81.79c0-0.3,0.13-0.76,0.23-0.86c0.1-0.1,0.56-0.23,0.86-0.23c-0.3,0-0.74-0.12-0.86-0.23
				c-0.12-0.12-0.23-0.56-0.23-0.86c0,0.31-0.12,0.74-0.25,0.87c-0.14,0.13-0.55,0.22-0.84,0.22c0.3,0,0.75,0.12,0.86,0.23
				C140.73,81.04,140.84,81.48,140.84,81.79z"/>
		</g>
		<g>
			<path class="st4" d="M136.85,84.09c0-0.42,0.18-1.05,0.32-1.19c0.14-0.13,0.77-0.32,1.19-0.32c-0.42,0-1.03-0.16-1.19-0.32
				c-0.17-0.17-0.32-0.77-0.32-1.19c0,0.43-0.16,1.03-0.34,1.21c-0.19,0.19-0.76,0.3-1.17,0.3c0.42,0,1.03,0.17,1.19,0.32
				C136.69,83.06,136.85,83.68,136.85,84.09z"/>
		</g>
	</g>
</g>
</svg>
