<?xml version="1.0" encoding="utf-8"?>
<!-- Generator: Adobe Illustrator 24.2.3, SVG Export Plug-In . SVG Version: 6.00 Build 0)  -->
<svg version="1.1" id="Capa_1" xmlns="http://www.w3.org/2000/svg" xmlns:xlink="http://www.w3.org/1999/xlink" x="0px" y="0px"
	 viewBox="0 0 50 50" style="enable-background:new 0 0 50 50;" xml:space="preserve">
<style type="text/css">
	.st0{fill:#37EFE3;}
</style>
<g>
	<path class="st0" d="M23.94,31.92c0.47,0.08,0.91-0.01,1.33-0.25c0.61-0.34,0.74-0.32,1.25,0.18c1.41,1.41,2.81,2.82,4.22,4.24
		c0.53,0.54,0.5,0.94-0.1,1.38c-0.5,0.36-1.02,0.72-1.54,1.05c-0.96,0.6-1.92,0.67-2.93,0.07c-6.21-3.68-10.53-8.92-12.93-15.73
		c-0.55-1.57-0.91-3.18-1.23-4.81c-0.27-1.38,0.14-2.44,1.35-3.19c0.47-0.3,0.92-0.63,1.39-0.93c0.5-0.32,0.93-0.21,1.18,0.33
		c0.86,1.94,1.7,3.89,2.54,5.83c0.16,0.37,0.06,0.67-0.26,0.92c-0.94,0.75-1.07,1.51-0.54,2.61c1.35,2.81,3.09,5.35,5.21,7.63
		C23.16,31.58,23.49,31.83,23.94,31.92z"/>
	<path class="st0" d="M24.88,12.94c-0.23-0.04-0.47-0.09-0.7-0.13c-0.62-0.13-0.97-0.53-0.89-1.04c0.08-0.53,0.54-0.84,1.19-0.76
		c1.02,0.12,2,0.41,2.95,0.79c6.36,2.56,10.32,8.71,10,15.55c-0.04,0.76-0.08,1.53-0.34,2.26c-0.21,0.61-0.62,0.92-1.11,0.8
		c-0.52-0.13-0.76-0.6-0.62-1.26c0.39-1.79,0.44-3.58,0.02-5.36c-1.24-5.28-4.38-8.88-9.56-10.64c-0.3-0.1-0.62-0.12-0.94-0.18
		C24.88,12.96,24.88,12.95,24.88,12.94z"/>
	<path class="st0" d="M25.76,16.59c0.86,0.29,1.72,0.74,2.49,1.36c2.6,2.09,4.08,4.76,4.15,8.14c0.01,0.65-0.34,1.06-0.9,1.06
		c-0.54,0.01-0.91-0.42-0.91-1.06c0-3.25-2.14-6.43-5.16-7.7c-0.13-0.06-0.27-0.11-0.39-0.19c-0.39-0.24-0.55-0.67-0.39-1.07
		C24.83,16.7,25.23,16.48,25.76,16.59z"/>
	<path class="st0" d="M21.04,19.12c-0.09,0.52-0.33,0.92-0.69,1.26c-0.42,0.41-0.64,0.37-0.88-0.18c-0.88-2.01-1.76-4.02-2.64-6.04
		c-0.16-0.36-0.32-0.73-0.48-1.09c-0.12-0.26-0.06-0.46,0.18-0.61c0.34-0.23,0.67-0.51,1.11-0.5c0.47,0.01,0.83,0.24,1.02,0.67
		c0.77,1.73,1.52,3.47,2.27,5.21C21.11,18.25,21.15,18.7,21.04,19.12z"/>
	<path class="st0" d="M28.22,29.62c0.45,0.11,0.85,0.3,1.17,0.63c1.31,1.31,2.61,2.62,3.92,3.93c0.36,0.36,0.47,0.8,0.28,1.27
		c-0.2,0.49-0.66,0.72-1.11,0.92c-0.16,0.07-0.3-0.08-0.41-0.19c-1.85-1.85-3.69-3.7-5.53-5.55c-0.32-0.32-0.28-0.53,0.12-0.75
		C27.15,29.6,27.68,29.54,28.22,29.62z"/>
</g>
</svg>
