<?xml version="1.0" encoding="utf-8"?>
<!-- Generator: Adobe Illustrator 24.2.1, SVG Export Plug-In . SVG Version: 6.00 Build 0)  -->
<svg version="1.1" id="Capa_1" xmlns="http://www.w3.org/2000/svg" xmlns:xlink="http://www.w3.org/1999/xlink" x="0px" y="0px"
	 viewBox="0 0 100 100" style="enable-background:new 0 0 100 100;" xml:space="preserve">
<style type="text/css">
	.st0{fill:#80808E;}
	.st1{font-family:'Roboto-Regular';}
	.st2{font-size:9.6072px;}
	.st3{fill:none;stroke:#80808E;stroke-width:0.75;stroke-linecap:round;stroke-linejoin:round;stroke-miterlimit:10;}
</style>
<g>
	<g>
		<text transform="matrix(1 0 0 1 47.0939 18.9492)" class="st0 st1 st2">1</text>
	</g>
	<g>
		<text transform="matrix(1 0 0 1 76.9748 33.2197)" class="st0 st1 st2">2</text>
	</g>
	<g>
		<text transform="matrix(1 0 0 1 81.1125 61.7617)" class="st0 st1 st2">3</text>
	</g>
	<g>
		<text transform="matrix(1 0 0 1 62.6662 86.1064)" class="st0 st1 st2">4</text>
	</g>
	<g>
		<text transform="matrix(1 0 0 1 31.1828 86.666)" class="st0 st1 st2">5</text>
	</g>
	<g>
		<text transform="matrix(1 0 0 1 13.4933 62.3213)" class="st0 st1 st2">6</text>
	</g>
	<g>
		<text transform="matrix(1 0 0 1 19.5891 33.5)" class="st0 st1 st2">7</text>
	</g>
	<g>
		<circle class="st3" cx="49.91" cy="51.34" r="19.69"/>
	</g>
	<g>
		<line class="st3" x1="49.8" y1="22.89" x2="49.8" y2="28.77"/>
		<line class="st3" x1="72.13" y1="33.65" x2="67.53" y2="37.31"/>
		<line class="st3" x1="77.61" y1="57.87" x2="71.88" y2="56.54"/>
		<line class="st3" x1="62.25" y1="77.12" x2="59.68" y2="71.83"/>
		<line class="st3" x1="37.01" y1="76.95" x2="39.64" y2="71.69"/>
		<line class="st3" x1="21.92" y1="57.55" x2="27.66" y2="56.29"/>
		<line class="st3" x1="27.62" y1="33.47" x2="32.19" y2="37.17"/>
	</g>
</g>
</svg>
