<?xml version="1.0" encoding="utf-8"?>
<!-- Generator: Adobe Illustrator 24.3.0, SVG Export Plug-In . SVG Version: 6.00 Build 0)  -->
<svg version="1.1" id="Capa_1" xmlns="http://www.w3.org/2000/svg" xmlns:xlink="http://www.w3.org/1999/xlink" x="0px" y="0px"
	 viewBox="0 0 200 120" style="enable-background:new 0 0 200 120;" xml:space="preserve">
<style type="text/css">
	.st0{fill:#37EFE3;}
	.st1{fill:url(#XMLID_4_);}
	.st2{fill:#00CDCC;}
	.st3{fill:url(#XMLID_5_);}
	.st4{fill:#3B4B5A;}
</style>
<g id="XMLID_508_">
	<g id="XMLID_224_">
		<path id="XMLID_425_" class="st0" d="M106.19,35.93c-2.57,0.24-4.35-0.78-5.32-1.58c-0.52-0.42-1.23-0.42-1.74,0
			c-0.97,0.8-2.75,1.82-5.32,1.58c-4.1-0.39-6.37-1.08-7.1,0.41l8.47,14.51l4.83,4.21l4.83-4.21l8.47-14.51
			C112.56,34.85,110.29,35.54,106.19,35.93z"/>
		
			<linearGradient id="XMLID_4_" gradientUnits="userSpaceOnUse" x1="91.7931" y1="80.34" x2="97.6353" y2="80.34" gradientTransform="matrix(1 0 0 -1 0 122)">
			<stop  offset="0" style="stop-color:#A3ADCA"/>
			<stop  offset="1" style="stop-color:#7D8FBD"/>
		</linearGradient>
		<path id="XMLID_418_" class="st1" d="M96.58,35.69c-0.79,0.23-1.71,0.34-2.77,0.24c-0.53-0.05-1.03-0.11-1.5-0.16l5.32,11.86
			L96.58,35.69z"/>
		<path id="XMLID_417_" class="st2" d="M96.58,35.69c-0.79,0.23-1.71,0.34-2.77,0.24c-0.53-0.05-1.03-0.11-1.5-0.16l5.32,11.86
			L96.58,35.69z"/>
		
			<linearGradient id="XMLID_5_" gradientUnits="userSpaceOnUse" x1="100.64" y1="79.975" x2="111.6707" y2="79.975" gradientTransform="matrix(1 0 0 -1 0 122)">
			<stop  offset="0" style="stop-color:#A3ADCA"/>
			<stop  offset="1" style="stop-color:#7D8FBD"/>
		</linearGradient>
		<path id="XMLID_414_" class="st3" d="M102.49,48.6l8.29-13.15c-1.15,0.06-2.67,0.31-4.59,0.49c-1.34,0.13-2.47-0.09-3.38-0.45
			l-2.17,12.15L102.49,48.6z"/>
		<path id="XMLID_412_" class="st2" d="M102.49,48.6l8.29-13.15c-1.15,0.06-2.67,0.31-4.59,0.49c-1.34,0.13-2.47-0.09-3.38-0.45
			l-2.17,12.15L102.49,48.6z"/>
		<path id="XMLID_426_" class="st0" d="M105.5,48.6l-0.16-0.01v-0.95L100,48.11l-5.35-0.48v0.95L94.5,48.6
			c0,0-23.1,18.13-19.99,45.23c0,0-0.64,10.4,25.49,9.99c26.14,0.41,25.49-9.99,25.49-9.99C128.6,66.73,105.5,48.6,105.5,48.6z"/>
		<path id="XMLID_237_" class="st4" d="M101.74,74.85v-5.09c1.5,0.18,3.05,0.69,4.58,1.56l1.5-3.68c-1.65-1.05-3.83-1.65-6.08-1.83
			v-3.26h-2.99v3.32c-4.73,0.54-7.04,3.26-7.04,6.44c0,4.28,3.71,5.39,7.04,6.2v5c-2.16-0.21-4.31-1.02-5.81-2.13l-1.65,3.65
			c1.65,1.29,4.49,2.21,7.45,2.4v3.26h2.99v-3.35c4.7-0.57,6.97-3.26,6.97-6.38C108.71,76.73,105.06,75.63,101.74,74.85z
			 M98.74,74.1c-1.32-0.42-2.22-0.99-2.22-2.04c0-0.99,0.63-1.86,2.22-2.22V74.1z M101.74,83.38v-4.13
			c1.29,0.45,2.16,1.02,2.16,2.07C103.89,82.27,103.23,83.05,101.74,83.38z"/>
		<g id="XMLID_406_">
			<g id="XMLID_409_">
				<path id="XMLID_410_" class="st2" d="M93.53,49.71c-0.58,0-1.06-0.45-1.11-1.03c-0.05-0.61,0.41-1.14,1.03-1.19l13.1-0.97
					c0.6-0.05,1.14,0.41,1.19,1.03c0.05,0.61-0.41,1.14-1.03,1.19l-13.1,0.97C93.59,49.71,93.56,49.71,93.53,49.71z"/>
			</g>
			<g id="XMLID_407_">
				<path id="XMLID_408_" class="st2" d="M106.57,51.07c-0.01,0-0.01,0-0.02,0l-13.14-0.25c-0.61-0.01-1.1-0.52-1.09-1.13
					s0.51-1.09,1.11-1.09c0.01,0,0.01,0,0.02,0l13.14,0.25c0.61,0.01,1.1,0.52,1.09,1.13S107.17,51.07,106.57,51.07z"/>
			</g>
		</g>
	</g>
	<g id="XMLID_330_">
		<path id="XMLID_331_" class="st0" d="M81.33,25.62c-0.43,4.18-2.74,7.4-5.58,7.63c2.84,0.24,5.15,3.46,5.58,7.63
			c0.43-4.18,2.74-7.4,5.58-7.63C84.08,33.01,81.77,29.79,81.33,25.62z"/>
		<path id="XMLID_1_" class="st0" d="M116.37,40.12c-0.22,2.15-1.41,3.81-2.87,3.92c1.46,0.12,2.65,1.78,2.87,3.92
			c0.22-2.15,1.41-3.81,2.87-3.92C117.78,43.93,116.59,42.27,116.37,40.12z"/>
		<path id="XMLID_2_" class="st0" d="M118.71,33.13c-0.13,1.29-0.84,2.28-1.72,2.35c0.88,0.07,1.59,1.07,1.72,2.35
			c0.13-1.29,0.84-2.28,1.72-2.35C119.56,35.41,118.85,34.42,118.71,33.13z"/>
		<path id="XMLID_337_" class="st0" d="M88.09,22.78c-0.25,2.39-1.57,4.24-3.2,4.37c1.63,0.14,2.95,1.98,3.2,4.37
			c0.25-2.39,1.57-4.24,3.2-4.37C89.66,27.02,88.34,25.17,88.09,22.78z"/>
	</g>
</g>
</svg>
