<?xml version="1.0" encoding="utf-8"?>
<!-- Generator: Adobe Illustrator 24.3.0, SVG Export Plug-In . SVG Version: 6.00 Build 0)  -->
<svg version="1.1" id="Capa_1" xmlns="http://www.w3.org/2000/svg" xmlns:xlink="http://www.w3.org/1999/xlink" x="0px" y="0px"
	 viewBox="0 0 200 120" style="enable-background:new 0 0 200 120;" xml:space="preserve">
<style type="text/css">
	.st0{fill:#37EFE3;}
	.st1{fill:#00CDCC;}
	.st2{fill:#FF4C4C;}
</style>
<g>
	<path class="st0" d="M78.69,30.43c0.91,4.25-1.41,8.35-5.17,9.15c-3.77,0.81-7.56-1.99-8.46-6.24s1.41-8.35,5.17-9.15
		C73.99,23.39,77.78,26.18,78.69,30.43z"/>
	<path class="st0" d="M71.75,41.63c0,0,4.94,1.45,6.59,3.88c1.65,2.42,2.32,16.94,2.04,28.11c-0.29,11.34-1.26,21.23-3,23.94
		c-1.28,1.99-2.71,1.74-3.49-0.19c-0.78-1.94-0.39-9.5-0.48-17.35c-0.08-6.51-0.29-10.08-1.65-9.5s-3.3,6.01-9.3,13.67
		C57.2,90.87,54.01,94.65,51.59,93c-2.42-1.65,2.04-7.17,5.82-12.79c3.59-5.33,4.36-9.3,5.52-15.12c1.16-5.82,0.68-17.83,0.39-19.58
		C63.03,43.77,65.55,39.6,71.75,41.63z"/>
	<path class="st0" d="M70.05,41.27c0,0-3-0.9-6.4,0.36c-3.39,1.26-4.31,7.17-11.97,8.82c-7.66,1.65-9.69-0.39-11.34,0.87
		S39.08,55,44.9,55.97s11.46-0.29,17.08-4.46C67.61,47.35,70.05,41.27,70.05,41.27z"/>
	<path class="st0" d="M76.52,43.81c0,0,3.85,2.33,4.87,4.94c0.91,2.34,0.84,7.91,2.47,11.63c1.82,4.14,5.02,6.98,5.23,8.8
		c0.25,2.05-1.02,2.98-3.27,1.16c-2.08-1.68-4.51-4.14-7.56-12.72C76.63,53.02,76.52,43.81,76.52,43.81z"/>
	<path class="st0" d="M119.37,30.43c-0.91,4.25,1.41,8.35,5.17,9.15c3.77,0.81,7.56-1.99,8.46-6.24c0.91-4.25-1.41-8.35-5.17-9.15
		C124.07,23.39,120.28,26.18,119.37,30.43z"/>
	
		<ellipse transform="matrix(0.209 -0.9779 0.9779 0.209 13.6285 147.9397)" class="st1" cx="98.26" cy="65.55" rx="6.49" ry="5.75"/>
	<path class="st0" d="M126.31,41.63c0,0-4.94,1.45-6.59,3.88s-2.32,16.94-2.04,28.11c0.29,11.34,1.26,21.23,3,23.94
		c1.28,1.99,2.71,1.74,3.49-0.19c0.78-1.94,0.39-9.5,0.48-17.35c0.08-6.51,0.29-10.08,1.65-9.5s3.3,6.01,9.3,13.67
		c5.25,6.69,8.43,10.47,10.86,8.82c2.42-1.65-2.04-7.17-5.82-12.79c-3.59-5.33-4.36-9.3-5.52-15.12s-0.68-17.83-0.39-19.58
		C135.03,43.77,132.51,39.6,126.31,41.63z"/>
	<path class="st0" d="M128.16,46.29c0,0-3.97-3.8-0.53-4.94c5.97-1.99,11.04-0.59,15.94-0.8c2.08-0.09,4.7-0.59,8.55-2.83
		c3.57-2.08,4.76-4.36,6.57-4.41c2.07-0.06,3.04,1.6-0.87,6.01c-3.91,4.41-9.11,7.56-16.57,8.43c-2.28,0.27-5.99,0.49-7.85,0.29
		C129.58,47.63,128.16,46.29,128.16,46.29z"/>
	<path class="st0" d="M122.94,43.02c0,0-5.05,2.4-6.3,5.56c-0.92,2.34-1.22,7.86-3.03,11.5c-2.02,4.05-5.35,6.73-5.65,8.53
		c-0.35,2.04,0.87,3.03,3.21,1.32c2.16-1.57,4.7-3.92,8.17-12.34C121.19,53.07,122.94,43.02,122.94,43.02z"/>
	<path class="st1" d="M108.34,74.14c1.53-2.21,2.47-4.6,2.14-6.15C110.1,66.16,108.5,67,108.5,67c-1.45,0.7-2.2,4.02-5.55,6.6
		c-2.6,2.01-6.61,2.13-9.34,0.31c-0.15-0.1-0.29-0.2-0.44-0.31c-3.35-2.59-4.1-5.91-5.55-6.6c0,0-1.6-0.84-1.99,0.99
		c-0.32,1.55,0.61,3.94,2.14,6.15c2.62,3.76,5.57,5.43,5.57,5.43s-0.66,4.31-1.4,10.48c-0.69,5.76-0.31,8.47,0.91,8.83
		c1.45,0.43,2.47-1.66,2.97-3.83c0.56-2.44,0.46-8.5,2.66-8.27c2.21,0.23,4.34,11.88,7,11.8c2.66-0.08,0.76-6.32-0.15-10.2
		c-0.75-3.18-1.88-7.53-2.26-9.01C103.92,78.83,106.24,77.17,108.34,74.14z"/>
	<path class="st2" d="M97.69,31.6c0.1-0.29,3.87-12.3,11.7-10.32c7.2,1.82,2.37,12.04-2.76,18.03c-4.8,5.6-8.29,8.89-9.16,8.51
		c-0.87-0.39-13.96-11.15-13.96-18.9c0-8.43,6.17-8.27,8.14-6.86C95.43,24.77,97.69,31.6,97.69,31.6z"/>
</g>
</svg>
