<?xml version="1.0" encoding="utf-8"?>
<!-- Generator: Adobe Illustrator 24.3.0, SVG Export Plug-In . SVG Version: 6.00 Build 0)  -->
<svg version="1.1" id="Capa_1" xmlns="http://www.w3.org/2000/svg" xmlns:xlink="http://www.w3.org/1999/xlink" x="0px" y="0px"
	 viewBox="0 0 660 150" style="enable-background:new 0 0 660 150;" xml:space="preserve">
<style type="text/css">
	.st0{clip-path:url(#SVGID_2_);}
	.st1{fill:none;stroke:#00CDCC;stroke-width:0.5;stroke-miterlimit:10;}
	.st2{fill:none;stroke:#00CECC;stroke-width:0.5;stroke-miterlimit:10;}
	.st3{fill:none;stroke:#01CECC;stroke-width:0.5;stroke-miterlimit:10;}
	.st4{fill:none;stroke:#01CECD;stroke-width:0.5;stroke-miterlimit:10;}
	.st5{fill:none;stroke:#02CECD;stroke-width:0.5;stroke-miterlimit:10;}
	.st6{fill:none;stroke:#02CFCD;stroke-width:0.5;stroke-miterlimit:10;}
	.st7{fill:none;stroke:#03CFCD;stroke-width:0.5;stroke-miterlimit:10;}
	.st8{fill:none;stroke:#03CFCE;stroke-width:0.5;stroke-miterlimit:10;}
	.st9{fill:none;stroke:#04D0CE;stroke-width:0.5;stroke-miterlimit:10;}
	.st10{fill:none;stroke:#05D0CE;stroke-width:0.5;stroke-miterlimit:10;}
	.st11{fill:none;stroke:#05D1CF;stroke-width:0.5;stroke-miterlimit:10;}
	.st12{fill:none;stroke:#06D1CF;stroke-width:0.5;stroke-miterlimit:10;}
	.st13{fill:none;stroke:#07D1CF;stroke-width:0.5;stroke-miterlimit:10;}
	.st14{fill:none;stroke:#07D2CF;stroke-width:0.5;stroke-miterlimit:10;}
	.st15{fill:none;stroke:#08D2CF;stroke-width:0.5;stroke-miterlimit:10;}
	.st16{fill:none;stroke:#08D2D0;stroke-width:0.5;stroke-miterlimit:10;}
	.st17{fill:none;stroke:#09D3D0;stroke-width:0.5;stroke-miterlimit:10;}
	.st18{fill:none;stroke:#0AD3D0;stroke-width:0.5;stroke-miterlimit:10;}
	.st19{fill:none;stroke:#0AD3D1;stroke-width:0.5;stroke-miterlimit:10;}
	.st20{fill:none;stroke:#0AD4D1;stroke-width:0.5;stroke-miterlimit:10;}
	.st21{fill:none;stroke:#0BD4D1;stroke-width:0.5;stroke-miterlimit:10;}
	.st22{fill:none;stroke:#0CD4D1;stroke-width:0.5;stroke-miterlimit:10;}
	.st23{fill:none;stroke:#0CD5D1;stroke-width:0.5;stroke-miterlimit:10;}
	.st24{fill:none;stroke:#0DD5D2;stroke-width:0.5;stroke-miterlimit:10;}
	.st25{fill:none;stroke:#0ED6D2;stroke-width:0.5;stroke-miterlimit:10;}
	.st26{fill:none;stroke:#0FD6D2;stroke-width:0.5;stroke-miterlimit:10;}
	.st27{fill:none;stroke:#0FD6D3;stroke-width:0.5;stroke-miterlimit:10;}
	.st28{fill:none;stroke:#0FD7D3;stroke-width:0.5;stroke-miterlimit:10;}
	.st29{fill:none;stroke:#10D7D3;stroke-width:0.5;stroke-miterlimit:10;}
	.st30{fill:none;stroke:#11D7D3;stroke-width:0.5;stroke-miterlimit:10;}
	.st31{fill:none;stroke:#11D8D3;stroke-width:0.5;stroke-miterlimit:10;}
	.st32{fill:none;stroke:#11D8D4;stroke-width:0.5;stroke-miterlimit:10;}
	.st33{fill:none;stroke:#12D8D4;stroke-width:0.5;stroke-miterlimit:10;}
	.st34{fill:none;stroke:#12D9D4;stroke-width:0.5;stroke-miterlimit:10;}
	.st35{fill:none;stroke:#13D9D4;stroke-width:0.5;stroke-miterlimit:10;}
	.st36{fill:none;stroke:#14D9D5;stroke-width:0.5;stroke-miterlimit:10;}
	.st37{fill:none;stroke:#14DAD5;stroke-width:0.5;stroke-miterlimit:10;}
	.st38{fill:none;stroke:#15DAD5;stroke-width:0.5;stroke-miterlimit:10;}
	.st39{fill:none;stroke:#16DAD5;stroke-width:0.5;stroke-miterlimit:10;}
	.st40{fill:none;stroke:#16DBD5;stroke-width:0.5;stroke-miterlimit:10;}
	.st41{fill:none;stroke:#16DBD6;stroke-width:0.5;stroke-miterlimit:10;}
	.st42{fill:none;stroke:#17DBD6;stroke-width:0.5;stroke-miterlimit:10;}
	.st43{fill:none;stroke:#17DCD6;stroke-width:0.5;stroke-miterlimit:10;}
	.st44{fill:none;stroke:#18DCD6;stroke-width:0.5;stroke-miterlimit:10;}
	.st45{fill:none;stroke:#18DCD7;stroke-width:0.5;stroke-miterlimit:10;}
	.st46{fill:none;stroke:#19DCD7;stroke-width:0.5;stroke-miterlimit:10;}
	.st47{fill:none;stroke:#19DDD7;stroke-width:0.5;stroke-miterlimit:10;}
	.st48{fill:none;stroke:#1ADDD7;stroke-width:0.5;stroke-miterlimit:10;}
	.st49{fill:none;stroke:#1BDDD7;stroke-width:0.5;stroke-miterlimit:10;}
	.st50{fill:none;stroke:#1BDED8;stroke-width:0.5;stroke-miterlimit:10;}
	.st51{fill:none;stroke:#1CDED8;stroke-width:0.5;stroke-miterlimit:10;}
	.st52{fill:none;stroke:#1CDFD8;stroke-width:0.5;stroke-miterlimit:10;}
	.st53{fill:none;stroke:#1DDFD8;stroke-width:0.5;stroke-miterlimit:10;}
	.st54{fill:none;stroke:#1DDFD9;stroke-width:0.5;stroke-miterlimit:10;}
	.st55{fill:none;stroke:#1EDFD9;stroke-width:0.5;stroke-miterlimit:10;}
	.st56{fill:none;stroke:#1EE0D9;stroke-width:0.5;stroke-miterlimit:10;}
	.st57{fill:none;stroke:#1FE0D9;stroke-width:0.5;stroke-miterlimit:10;}
	.st58{fill:none;stroke:#20E0DA;stroke-width:0.5;stroke-miterlimit:10;}
	.st59{fill:none;stroke:#20E1DA;stroke-width:0.5;stroke-miterlimit:10;}
	.st60{fill:none;stroke:#21E1DA;stroke-width:0.5;stroke-miterlimit:10;}
	.st61{fill:none;stroke:#21E2DA;stroke-width:0.5;stroke-miterlimit:10;}
	.st62{fill:none;stroke:#22E2DA;stroke-width:0.5;stroke-miterlimit:10;}
	.st63{fill:none;stroke:#22E2DB;stroke-width:0.5;stroke-miterlimit:10;}
	.st64{fill:none;stroke:#23E2DB;stroke-width:0.5;stroke-miterlimit:10;}
	.st65{fill:none;stroke:#23E3DB;stroke-width:0.5;stroke-miterlimit:10;}
	.st66{fill:none;stroke:#24E3DB;stroke-width:0.5;stroke-miterlimit:10;}
	.st67{fill:none;stroke:#24E3DC;stroke-width:0.5;stroke-miterlimit:10;}
	.st68{fill:none;stroke:#25E4DC;stroke-width:0.5;stroke-miterlimit:10;}
	.st69{fill:none;stroke:#26E4DC;stroke-width:0.5;stroke-miterlimit:10;}
	.st70{fill:none;stroke:#26E5DC;stroke-width:0.5;stroke-miterlimit:10;}
	.st71{fill:none;stroke:#26E5DD;stroke-width:0.5;stroke-miterlimit:10;}
	.st72{fill:none;stroke:#27E5DD;stroke-width:0.5;stroke-miterlimit:10;}
	.st73{fill:none;stroke:#28E5DD;stroke-width:0.5;stroke-miterlimit:10;}
	.st74{fill:none;stroke:#28E6DD;stroke-width:0.5;stroke-miterlimit:10;}
	.st75{fill:none;stroke:#29E6DD;stroke-width:0.5;stroke-miterlimit:10;}
	.st76{fill:none;stroke:#29E6DE;stroke-width:0.5;stroke-miterlimit:10;}
	.st77{fill:none;stroke:#2AE7DE;stroke-width:0.5;stroke-miterlimit:10;}
	.st78{fill:none;stroke:#2BE7DE;stroke-width:0.5;stroke-miterlimit:10;}
	.st79{fill:none;stroke:#2BE8DF;stroke-width:0.5;stroke-miterlimit:10;}
	.st80{fill:none;stroke:#2CE8DF;stroke-width:0.5;stroke-miterlimit:10;}
	.st81{fill:none;stroke:#2DE8DF;stroke-width:0.5;stroke-miterlimit:10;}
	.st82{fill:none;stroke:#2DE9DF;stroke-width:0.5;stroke-miterlimit:10;}
	.st83{fill:none;stroke:#2EE9E0;stroke-width:0.5;stroke-miterlimit:10;}
	.st84{fill:none;stroke:#2FEAE0;stroke-width:0.5;stroke-miterlimit:10;}
	.st85{fill:none;stroke:#30EAE0;stroke-width:0.5;stroke-miterlimit:10;}
	.st86{fill:none;stroke:#30EBE1;stroke-width:0.5;stroke-miterlimit:10;}
	.st87{fill:none;stroke:#31EBE1;stroke-width:0.5;stroke-miterlimit:10;}
	.st88{fill:none;stroke:#32EBE1;stroke-width:0.5;stroke-miterlimit:10;}
	.st89{fill:none;stroke:#32ECE1;stroke-width:0.5;stroke-miterlimit:10;}
	.st90{fill:none;stroke:#32ECE2;stroke-width:0.5;stroke-miterlimit:10;}
	.st91{fill:none;stroke:#33ECE2;stroke-width:0.5;stroke-miterlimit:10;}
	.st92{fill:none;stroke:#33EDE2;stroke-width:0.5;stroke-miterlimit:10;}
	.st93{fill:none;stroke:#34EDE2;stroke-width:0.5;stroke-miterlimit:10;}
	.st94{fill:none;stroke:#35EDE2;stroke-width:0.5;stroke-miterlimit:10;}
	.st95{fill:none;stroke:#35EDE3;stroke-width:0.5;stroke-miterlimit:10;}
	.st96{fill:none;stroke:#35EEE3;stroke-width:0.5;stroke-miterlimit:10;}
	.st97{fill:none;stroke:#36EEE3;stroke-width:0.5;stroke-miterlimit:10;}
	.st98{fill:none;stroke:#37EFE3;stroke-width:0.5;stroke-miterlimit:10;}
	.st99{opacity:0.15;fill:#37EFE3;}
</style>
<g>
	<defs>
		<path id="SVGID_1_" d="M656.2,67.1l-5.6-3.7c-17.2,16.7-38.5,30.1-62.8,40.9C411.2,182.1,74.9,114.4,0.6,57L-0.8,1.5
			c35.3,43.9,388.1,132.1,560,65.1c21.9-8.6,40.9-19.7,56-33.7l-4.4-4.4l42.8-3.6L656.2,67.1z"/>
	</defs>
	<clipPath id="SVGID_2_">
		<use xlink:href="#SVGID_1_"  style="overflow:visible;"/>
	</clipPath>
	<g class="st0">
		<line class="st1" x1="-0.8" y1="-48.1" x2="-31.5" y2="108.1"/>
		<line class="st1" x1="1.9" y1="-47.9" x2="-28.8" y2="108.4"/>
		<line class="st2" x1="4.6" y1="-47.6" x2="-26.1" y2="108.7"/>
		<line class="st3" x1="7.2" y1="-47.3" x2="-23.4" y2="109"/>
		<line class="st4" x1="9.9" y1="-47" x2="-20.7" y2="109.2"/>
		<line class="st4" x1="12.6" y1="-46.8" x2="-18" y2="109.5"/>
		<line class="st4" x1="15.3" y1="-46.5" x2="-15.3" y2="109.8"/>
		<line class="st5" x1="18" y1="-46.2" x2="-12.6" y2="110.1"/>
		<line class="st5" x1="20.7" y1="-45.9" x2="-9.9" y2="110.4"/>
		<line class="st5" x1="23.4" y1="-45.7" x2="-7.2" y2="110.6"/>
		<line class="st6" x1="26.1" y1="-45.4" x2="-4.5" y2="110.9"/>
		<line class="st6" x1="28.7" y1="-45.1" x2="-1.8" y2="111.2"/>
		<line class="st7" x1="31.4" y1="-44.8" x2="0.9" y2="111.5"/>
		<line class="st7" x1="34.1" y1="-44.6" x2="3.6" y2="111.7"/>
		<line class="st8" x1="36.8" y1="-44.3" x2="6.3" y2="112"/>
		<line class="st8" x1="39.5" y1="-44" x2="9.1" y2="112.3"/>
		<line class="st8" x1="42.2" y1="-43.7" x2="11.8" y2="112.6"/>
		<line class="st9" x1="44.9" y1="-43.5" x2="14.5" y2="112.8"/>
		<line class="st9" x1="47.6" y1="-43.2" x2="17.2" y2="113.1"/>
		<line class="st9" x1="50.2" y1="-42.9" x2="19.9" y2="113.4"/>
		<line class="st9" x1="52.9" y1="-42.6" x2="22.6" y2="113.7"/>
		<line class="st10" x1="55.6" y1="-42.4" x2="25.3" y2="114"/>
		<line class="st10" x1="58.3" y1="-42.1" x2="28" y2="114.2"/>
		<line class="st10" x1="61" y1="-41.8" x2="30.7" y2="114.5"/>
		<line class="st10" x1="63.7" y1="-41.5" x2="33.4" y2="114.8"/>
		<line class="st11" x1="66.4" y1="-41.3" x2="36.1" y2="115.1"/>
		<line class="st12" x1="69.1" y1="-41" x2="38.8" y2="115.3"/>
		<line class="st12" x1="71.7" y1="-40.7" x2="41.5" y2="115.6"/>
		<line class="st12" x1="74.4" y1="-40.4" x2="44.2" y2="115.9"/>
		<line class="st12" x1="77.1" y1="-40.2" x2="46.9" y2="116.2"/>
		<line class="st13" x1="79.8" y1="-39.9" x2="49.6" y2="116.5"/>
		<line class="st13" x1="82.5" y1="-39.6" x2="52.3" y2="116.7"/>
		<line class="st13" x1="85.2" y1="-39.4" x2="55" y2="117"/>
		<line class="st14" x1="87.9" y1="-39.1" x2="57.7" y2="117.3"/>
		<line class="st14" x1="90.6" y1="-38.8" x2="60.4" y2="117.6"/>
		<line class="st15" x1="93.2" y1="-38.5" x2="63.1" y2="117.8"/>
		<line class="st16" x1="95.9" y1="-38.3" x2="65.8" y2="118.1"/>
		<line class="st16" x1="98.6" y1="-38" x2="68.5" y2="118.4"/>
		<line class="st16" x1="101.3" y1="-37.7" x2="71.2" y2="118.7"/>
		<line class="st16" x1="104" y1="-37.4" x2="74" y2="119"/>
		<line class="st17" x1="106.7" y1="-37.2" x2="76.7" y2="119.2"/>
		<line class="st17" x1="109.4" y1="-36.9" x2="79.4" y2="119.5"/>
		<line class="st17" x1="112.1" y1="-36.6" x2="82.1" y2="119.8"/>
		<line class="st17" x1="114.7" y1="-36.3" x2="84.8" y2="120.1"/>
		<line class="st18" x1="117.4" y1="-36.1" x2="87.5" y2="120.3"/>
		<line class="st18" x1="120.1" y1="-35.8" x2="90.2" y2="120.6"/>
		<line class="st18" x1="122.8" y1="-35.5" x2="92.9" y2="120.9"/>
		<line class="st19" x1="125.5" y1="-35.2" x2="95.6" y2="121.2"/>
		<line class="st20" x1="128.2" y1="-35" x2="98.3" y2="121.4"/>
		<line class="st21" x1="130.9" y1="-34.7" x2="101" y2="121.7"/>
		<line class="st21" x1="133.6" y1="-34.4" x2="103.7" y2="122"/>
		<line class="st21" x1="136.2" y1="-34.1" x2="106.4" y2="122.3"/>
		<line class="st21" x1="138.9" y1="-33.9" x2="109.1" y2="122.6"/>
		<line class="st22" x1="141.6" y1="-33.6" x2="111.8" y2="122.8"/>
		<line class="st22" x1="144.3" y1="-33.3" x2="114.5" y2="123.1"/>
		<line class="st23" x1="147" y1="-33" x2="117.2" y2="123.4"/>
		<line class="st23" x1="149.7" y1="-32.8" x2="119.9" y2="123.7"/>
		<line class="st23" x1="152.4" y1="-32.5" x2="122.6" y2="123.9"/>
		<line class="st24" x1="155.1" y1="-32.2" x2="125.3" y2="124.2"/>
		<line class="st24" x1="157.7" y1="-31.9" x2="128" y2="124.5"/>
		<line class="st24" x1="160.4" y1="-31.7" x2="130.7" y2="124.8"/>
		<line class="st24" x1="163.1" y1="-31.4" x2="133.4" y2="125.1"/>
		<line class="st24" x1="165.8" y1="-31.1" x2="136.2" y2="125.3"/>
		<line class="st25" x1="168.5" y1="-30.8" x2="138.9" y2="125.6"/>
		<line class="st25" x1="171.2" y1="-30.6" x2="141.6" y2="125.9"/>
		<line class="st25" x1="173.9" y1="-30.3" x2="144.3" y2="126.2"/>
		<line class="st25" x1="176.6" y1="-30" x2="147" y2="126.4"/>
		<line class="st26" x1="179.2" y1="-29.8" x2="149.7" y2="126.7"/>
		<line class="st26" x1="181.9" y1="-29.5" x2="152.4" y2="127"/>
		<line class="st27" x1="184.6" y1="-29.2" x2="155.1" y2="127.3"/>
		<line class="st28" x1="187.3" y1="-28.9" x2="157.8" y2="127.5"/>
		<line class="st28" x1="190" y1="-28.7" x2="160.5" y2="127.8"/>
		<line class="st29" x1="192.7" y1="-28.4" x2="163.2" y2="128.1"/>
		<line class="st29" x1="195.4" y1="-28.1" x2="165.9" y2="128.4"/>
		<line class="st29" x1="198.1" y1="-27.8" x2="168.6" y2="128.7"/>
		<line class="st29" x1="200.7" y1="-27.6" x2="171.3" y2="128.9"/>
		<line class="st30" x1="203.4" y1="-27.3" x2="174" y2="129.2"/>
		<line class="st30" x1="206.1" y1="-27" x2="176.7" y2="129.5"/>
		<line class="st31" x1="208.8" y1="-26.7" x2="179.4" y2="129.8"/>
		<line class="st31" x1="211.5" y1="-26.5" x2="182.1" y2="130"/>
		<line class="st32" x1="214.2" y1="-26.2" x2="184.8" y2="130.3"/>
		<line class="st33" x1="216.9" y1="-25.9" x2="187.5" y2="130.6"/>
		<line class="st33" x1="219.6" y1="-25.6" x2="190.2" y2="130.9"/>
		<line class="st33" x1="222.2" y1="-25.4" x2="192.9" y2="131.2"/>
		<line class="st33" x1="224.9" y1="-25.1" x2="195.6" y2="131.4"/>
		<line class="st34" x1="227.6" y1="-24.8" x2="198.3" y2="131.7"/>
		<line class="st35" x1="230.3" y1="-24.5" x2="201.1" y2="132"/>
		<line class="st35" x1="233" y1="-24.3" x2="203.8" y2="132.3"/>
		<line class="st35" x1="235.7" y1="-24" x2="206.5" y2="132.5"/>
		<line class="st35" x1="238.4" y1="-23.7" x2="209.2" y2="132.8"/>
		<line class="st36" x1="241.1" y1="-23.4" x2="211.9" y2="133.1"/>
		<line class="st36" x1="243.7" y1="-23.2" x2="214.6" y2="133.4"/>
		<line class="st36" x1="246.4" y1="-22.9" x2="217.3" y2="133.7"/>
		<line class="st37" x1="249.1" y1="-22.6" x2="220" y2="133.9"/>
		<line class="st37" x1="251.8" y1="-22.3" x2="222.7" y2="134.2"/>
		<line class="st38" x1="254.5" y1="-22.1" x2="225.4" y2="134.5"/>
		<line class="st38" x1="257.2" y1="-21.8" x2="228.1" y2="134.8"/>
		<line class="st38" x1="259.9" y1="-21.5" x2="230.8" y2="135"/>
		<line class="st38" x1="262.6" y1="-21.2" x2="233.5" y2="135.3"/>
		<line class="st39" x1="265.2" y1="-21" x2="236.2" y2="135.6"/>
		<line class="st40" x1="267.9" y1="-20.7" x2="238.9" y2="135.9"/>
		<line class="st41" x1="270.6" y1="-20.4" x2="241.6" y2="136.1"/>
		<line class="st41" x1="273.3" y1="-20.1" x2="244.3" y2="136.4"/>
		<line class="st41" x1="276" y1="-19.9" x2="247" y2="136.7"/>
		<line class="st42" x1="278.7" y1="-19.6" x2="249.7" y2="137"/>
		<line class="st42" x1="281.4" y1="-19.3" x2="252.4" y2="137.3"/>
		<line class="st42" x1="284.1" y1="-19.1" x2="255.1" y2="137.5"/>
		<line class="st42" x1="286.7" y1="-18.8" x2="257.8" y2="137.8"/>
		<line class="st43" x1="289.4" y1="-18.5" x2="260.5" y2="138.1"/>
		<line class="st44" x1="292.1" y1="-18.2" x2="263.2" y2="138.4"/>
		<line class="st44" x1="294.8" y1="-18" x2="266" y2="138.6"/>
		<line class="st44" x1="297.5" y1="-17.7" x2="268.7" y2="138.9"/>
		<line class="st45" x1="300.2" y1="-17.4" x2="271.4" y2="139.2"/>
		<line class="st46" x1="302.9" y1="-17.1" x2="274.1" y2="139.5"/>
		<line class="st46" x1="305.6" y1="-16.9" x2="276.8" y2="139.8"/>
		<line class="st46" x1="308.2" y1="-16.6" x2="279.5" y2="140"/>
		<line class="st47" x1="310.9" y1="-16.3" x2="282.2" y2="140.3"/>
		<line class="st47" x1="313.6" y1="-16" x2="284.9" y2="140.6"/>
		<line class="st48" x1="316.3" y1="-15.8" x2="287.6" y2="140.9"/>
		<line class="st48" x1="319" y1="-15.5" x2="290.3" y2="141.1"/>
		<line class="st48" x1="321.7" y1="-15.2" x2="293" y2="141.4"/>
		<line class="st48" x1="324.4" y1="-14.9" x2="295.7" y2="141.7"/>
		<line class="st49" x1="327.1" y1="-14.7" x2="298.4" y2="142"/>
		<line class="st50" x1="329.7" y1="-14.4" x2="301.1" y2="142.3"/>
		<line class="st50" x1="332.4" y1="-14.1" x2="303.8" y2="142.5"/>
		<line class="st50" x1="335.1" y1="-13.8" x2="306.5" y2="142.8"/>
		<line class="st50" x1="337.8" y1="-13.6" x2="309.2" y2="143.1"/>
		<line class="st51" x1="340.5" y1="-13.3" x2="311.9" y2="143.4"/>
		<line class="st51" x1="343.2" y1="-13" x2="314.6" y2="143.6"/>
		<line class="st51" x1="345.9" y1="-12.7" x2="317.3" y2="143.9"/>
		<line class="st51" x1="348.5" y1="-12.5" x2="320" y2="144.2"/>
		<line class="st52" x1="351.2" y1="-12.2" x2="322.7" y2="144.5"/>
		<line class="st53" x1="353.9" y1="-11.9" x2="325.4" y2="144.7"/>
		<line class="st53" x1="356.6" y1="-11.6" x2="328.2" y2="145"/>
		<line class="st54" x1="359.3" y1="-11.4" x2="330.9" y2="145.3"/>
		<line class="st54" x1="362" y1="-11.1" x2="333.6" y2="145.6"/>
		<line class="st55" x1="364.7" y1="-10.8" x2="336.3" y2="145.9"/>
		<line class="st55" x1="367.4" y1="-10.5" x2="339" y2="146.1"/>
		<line class="st56" x1="370" y1="-10.3" x2="341.7" y2="146.4"/>
		<line class="st56" x1="372.7" y1="-10" x2="344.4" y2="146.7"/>
		<line class="st56" x1="375.4" y1="-9.7" x2="347.1" y2="147"/>
		<line class="st57" x1="378.1" y1="-9.5" x2="349.8" y2="147.2"/>
		<line class="st57" x1="380.8" y1="-9.2" x2="352.5" y2="147.5"/>
		<line class="st57" x1="383.5" y1="-8.9" x2="355.2" y2="147.8"/>
		<line class="st57" x1="386.2" y1="-8.6" x2="357.9" y2="148.1"/>
		<line class="st58" x1="388.9" y1="-8.4" x2="360.6" y2="148.4"/>
		<line class="st59" x1="391.5" y1="-8.1" x2="363.3" y2="148.6"/>
		<line class="st59" x1="394.2" y1="-7.8" x2="366" y2="148.9"/>
		<line class="st59" x1="396.9" y1="-7.5" x2="368.7" y2="149.2"/>
		<line class="st59" x1="399.6" y1="-7.3" x2="371.4" y2="149.5"/>
		<line class="st60" x1="402.3" y1="-7" x2="374.1" y2="149.7"/>
		<line class="st60" x1="405" y1="-6.7" x2="376.8" y2="150"/>
		<line class="st60" x1="407.7" y1="-6.4" x2="379.5" y2="150.3"/>
		<line class="st61" x1="410.4" y1="-6.2" x2="382.2" y2="150.6"/>
		<line class="st61" x1="413" y1="-5.9" x2="384.9" y2="150.8"/>
		<line class="st62" x1="415.7" y1="-5.6" x2="387.6" y2="151.1"/>
		<line class="st63" x1="418.4" y1="-5.3" x2="390.3" y2="151.4"/>
		<line class="st63" x1="421.1" y1="-5.1" x2="393.1" y2="151.7"/>
		<line class="st63" x1="423.8" y1="-4.8" x2="395.8" y2="152"/>
		<line class="st64" x1="426.5" y1="-4.5" x2="398.5" y2="152.2"/>
		<line class="st64" x1="429.2" y1="-4.2" x2="401.2" y2="152.5"/>
		<line class="st65" x1="431.9" y1="-4" x2="403.9" y2="152.8"/>
		<line class="st65" x1="434.5" y1="-3.7" x2="406.6" y2="153.1"/>
		<line class="st65" x1="437.2" y1="-3.4" x2="409.3" y2="153.3"/>
		<line class="st66" x1="439.9" y1="-3.1" x2="412" y2="153.6"/>
		<line class="st66" x1="442.6" y1="-2.9" x2="414.7" y2="153.9"/>
		<line class="st67" x1="445.3" y1="-2.6" x2="417.4" y2="154.2"/>
		<line class="st67" x1="448" y1="-2.3" x2="420.1" y2="154.5"/>
		<line class="st68" x1="450.7" y1="-2" x2="422.8" y2="154.7"/>
		<line class="st68" x1="453.4" y1="-1.8" x2="425.5" y2="155"/>
		<line class="st68" x1="456" y1="-1.5" x2="428.2" y2="155.3"/>
		<line class="st68" x1="458.7" y1="-1.2" x2="430.9" y2="155.6"/>
		<line class="st68" x1="461.4" y1="-0.9" x2="433.6" y2="155.8"/>
		<line class="st69" x1="464.1" y1="-0.7" x2="436.3" y2="156.1"/>
		<line class="st69" x1="466.8" y1="-0.4" x2="439" y2="156.4"/>
		<line class="st69" x1="469.5" y1="-0.1" x2="441.7" y2="156.7"/>
		<line class="st70" x1="472.2" y1="0.1" x2="444.4" y2="157"/>
		<line class="st71" x1="474.9" y1="0.4" x2="447.1" y2="157.2"/>
		<line class="st72" x1="477.5" y1="0.7" x2="449.8" y2="157.5"/>
		<line class="st72" x1="480.2" y1="1" x2="452.5" y2="157.8"/>
		<line class="st72" x1="482.9" y1="1.2" x2="455.3" y2="158.1"/>
		<line class="st72" x1="485.6" y1="1.5" x2="458" y2="158.3"/>
		<line class="st73" x1="488.3" y1="1.8" x2="460.7" y2="158.6"/>
		<line class="st74" x1="491" y1="2.1" x2="463.4" y2="158.9"/>
		<line class="st74" x1="493.7" y1="2.3" x2="466.1" y2="159.2"/>
		<line class="st74" x1="496.4" y1="2.6" x2="468.8" y2="159.4"/>
		<line class="st74" x1="499" y1="2.9" x2="471.5" y2="159.7"/>
		<line class="st75" x1="501.7" y1="3.2" x2="474.2" y2="160"/>
		<line class="st76" x1="504.4" y1="3.4" x2="476.9" y2="160.3"/>
		<line class="st76" x1="507.1" y1="3.7" x2="479.6" y2="160.6"/>
		<line class="st76" x1="509.8" y1="4" x2="482.3" y2="160.8"/>
		<line class="st77" x1="512.5" y1="4.3" x2="485" y2="161.1"/>
		<line class="st77" x1="515.2" y1="4.5" x2="487.7" y2="161.4"/>
		<line class="st77" x1="517.9" y1="4.8" x2="490.4" y2="161.7"/>
		<line class="st77" x1="520.5" y1="5.1" x2="493.1" y2="161.9"/>
		<line class="st77" x1="523.2" y1="5.4" x2="495.8" y2="162.2"/>
		<line class="st78" x1="525.9" y1="5.6" x2="498.5" y2="162.5"/>
		<line class="st78" x1="528.6" y1="5.9" x2="501.2" y2="162.8"/>
		<line class="st78" x1="531.3" y1="6.2" x2="503.9" y2="163.1"/>
		<line class="st79" x1="534" y1="6.5" x2="506.6" y2="163.3"/>
		<line class="st79" x1="536.7" y1="6.7" x2="509.3" y2="163.6"/>
		<line class="st80" x1="539.4" y1="7" x2="512" y2="163.9"/>
		<line class="st80" x1="542" y1="7.3" x2="514.7" y2="164.2"/>
		<line class="st80" x1="544.7" y1="7.6" x2="517.4" y2="164.4"/>
		<line class="st80" x1="547.4" y1="7.8" x2="520.2" y2="164.7"/>
		<line class="st81" x1="550.1" y1="8.1" x2="522.9" y2="165"/>
		<line class="st82" x1="552.8" y1="8.4" x2="525.6" y2="165.3"/>
		<line class="st82" x1="555.5" y1="8.7" x2="528.3" y2="165.6"/>
		<line class="st82" x1="558.2" y1="8.9" x2="531" y2="165.8"/>
		<line class="st82" x1="560.9" y1="9.2" x2="533.7" y2="166.1"/>
		<line class="st83" x1="563.5" y1="9.5" x2="536.4" y2="166.4"/>
		<line class="st83" x1="566.2" y1="9.8" x2="539.1" y2="166.7"/>
		<line class="st83" x1="568.9" y1="10" x2="541.8" y2="166.9"/>
		<line class="st83" x1="571.6" y1="10.3" x2="544.5" y2="167.2"/>
		<line class="st84" x1="574.3" y1="10.6" x2="547.2" y2="167.5"/>
		<line class="st84" x1="577" y1="10.8" x2="549.9" y2="167.8"/>
		<line class="st84" x1="579.7" y1="11.1" x2="552.6" y2="168"/>
		<line class="st84" x1="582.4" y1="11.4" x2="555.3" y2="168.3"/>
		<line class="st84" x1="585" y1="11.7" x2="558" y2="168.6"/>
		<line class="st85" x1="587.7" y1="11.9" x2="560.7" y2="168.9"/>
		<line class="st85" x1="590.4" y1="12.2" x2="563.4" y2="169.2"/>
		<line class="st86" x1="593.1" y1="12.5" x2="566.1" y2="169.4"/>
		<line class="st86" x1="595.8" y1="12.8" x2="568.8" y2="169.7"/>
		<line class="st87" x1="598.5" y1="13" x2="571.5" y2="170"/>
		<line class="st87" x1="601.2" y1="13.3" x2="574.2" y2="170.3"/>
		<line class="st87" x1="603.9" y1="13.6" x2="576.9" y2="170.5"/>
		<line class="st87" x1="606.5" y1="13.9" x2="579.6" y2="170.8"/>
		<line class="st87" x1="609.2" y1="14.1" x2="582.3" y2="171.1"/>
		<line class="st88" x1="611.9" y1="14.4" x2="585.1" y2="171.4"/>
		<line class="st89" x1="614.6" y1="14.7" x2="587.8" y2="171.7"/>
		<line class="st89" x1="617.3" y1="15" x2="590.5" y2="171.9"/>
		<line class="st89" x1="620" y1="15.2" x2="593.2" y2="172.2"/>
		<line class="st90" x1="622.7" y1="15.5" x2="595.9" y2="172.5"/>
		<line class="st91" x1="625.4" y1="15.8" x2="598.6" y2="172.8"/>
		<line class="st91" x1="628" y1="16.1" x2="601.3" y2="173"/>
		<line class="st91" x1="630.7" y1="16.3" x2="604" y2="173.3"/>
		<line class="st92" x1="633.4" y1="16.6" x2="606.7" y2="173.6"/>
		<line class="st93" x1="636.1" y1="16.9" x2="609.4" y2="173.9"/>
		<line class="st93" x1="638.8" y1="17.2" x2="612.1" y2="174.2"/>
		<line class="st93" x1="641.5" y1="17.4" x2="614.8" y2="174.4"/>
		<line class="st93" x1="644.2" y1="17.7" x2="617.5" y2="174.7"/>
		<line class="st93" x1="646.9" y1="18" x2="620.2" y2="175"/>
		<line class="st94" x1="649.5" y1="18.3" x2="622.9" y2="175.3"/>
		<line class="st95" x1="652.2" y1="18.5" x2="625.6" y2="175.5"/>
		<line class="st96" x1="654.9" y1="18.8" x2="628.3" y2="175.8"/>
		<line class="st96" x1="657.6" y1="19.1" x2="631" y2="176.1"/>
		<line class="st97" x1="660.3" y1="19.4" x2="633.7" y2="176.4"/>
		<line class="st97" x1="663" y1="19.6" x2="636.4" y2="176.6"/>
		<line class="st97" x1="665.7" y1="19.9" x2="639.1" y2="176.9"/>
		<line class="st97" x1="668.4" y1="20.2" x2="641.8" y2="177.2"/>
		<line class="st97" x1="671" y1="20.4" x2="644.5" y2="177.5"/>
		<line class="st98" x1="673.7" y1="20.7" x2="647.3" y2="177.8"/>
	</g>
</g>
<path class="st99" d="M587.3,104.6C410.5,182,74.9,114.4,0.6,57L-0.8,1.5c35.4,44,389.5,132.5,561,64.7L587.3,104.6z"/>
</svg>
