<?xml version="1.0" encoding="utf-8"?>
<!-- Generator: Adobe Illustrator 24.3.0, SVG Export Plug-In . SVG Version: 6.00 Build 0)  -->
<svg version="1.1" id="Capa_1" xmlns="http://www.w3.org/2000/svg" xmlns:xlink="http://www.w3.org/1999/xlink" x="0px" y="0px"
	 viewBox="0 0 200 120" style="enable-background:new 0 0 200 120;" xml:space="preserve">
<style type="text/css">
	.st0{fill:#FF4C4C;}
	.st1{fill:#37EFE3;}
	.st2{clip-path:url(#SVGID_6_);}
	.st3{fill:#FFFFFF;stroke:#00CDCC;stroke-miterlimit:10;}
	.st4{fill:none;stroke:#00CDCC;stroke-miterlimit:10;}
	.st5{clip-path:url(#SVGID_8_);}
	.st6{clip-path:url(#SVGID_10_);}
</style>
<g>
	<path class="st0" d="M96.1,81.79c0.08-0.25,3.34-10.63,10.11-8.92c6.22,1.57,2.05,10.4-2.39,15.58c-4.15,4.84-7.16,7.68-7.91,7.35
		s-12.06-9.63-12.06-16.33c0-7.28,5.33-7.15,7.03-5.92C94.15,75.88,96.1,81.79,96.1,81.79z"/>
	<g>
		<g>
			<g>
				<path id="SVGID_1_" class="st1" d="M112.37,39.27c0,8.33-6.75,15.09-15.09,15.09S82.2,47.6,82.2,39.27s6.75-15.09,15.09-15.09
					S112.37,30.94,112.37,39.27z"/>
			</g>
			<g>
				<defs>
					<path id="SVGID_3_" d="M112.37,39.27c0,8.33-6.75,15.09-15.09,15.09S82.2,47.6,82.2,39.27s6.75-15.09,15.09-15.09
						S112.37,30.94,112.37,39.27z"/>
				</defs>
				<clipPath id="SVGID_6_">
					<use xlink:href="#SVGID_3_"  style="overflow:visible;"/>
				</clipPath>
				<g class="st2">
					<path class="st3" d="M102.9,36.45c0,3.1-2.51,5.61-5.61,5.61s-5.61-2.51-5.61-5.61c0-3.1,2.51-5.61,5.61-5.61
						C100.38,30.84,102.9,33.35,102.9,36.45z"/>
					<path class="st3" d="M107.11,62.49c0,2.84-2.3,5.15-5.15,5.15h-9.35c-2.84,0-5.15-2.3-5.15-5.15V47.17
						c0-2.84,2.3-5.15,5.15-5.15h9.35c2.84,0,5.15,2.3,5.15,5.15V62.49z"/>
					<g>
						<line class="st4" x1="92.02" y1="47.11" x2="92.02" y2="64.83"/>
						<line class="st4" x1="102.54" y1="47.11" x2="102.54" y2="64.83"/>
					</g>
				</g>
			</g>
		</g>
	</g>
	<g>
		<g>
			<g>
				<path id="SVGID_2_" class="st1" d="M63.44,62.8c0,8.33-6.75,15.09-15.09,15.09S33.27,71.13,33.27,62.8s6.75-15.09,15.09-15.09
					S63.44,54.47,63.44,62.8z"/>
			</g>
			<g>
				<defs>
					<path id="SVGID_7_" d="M63.44,62.8c0,8.33-6.75,15.09-15.09,15.09S33.27,71.13,33.27,62.8s6.75-15.09,15.09-15.09
						S63.44,54.47,63.44,62.8z"/>
				</defs>
				<clipPath id="SVGID_8_">
					<use xlink:href="#SVGID_7_"  style="overflow:visible;"/>
				</clipPath>
				<g class="st5">
					<path class="st3" d="M53.97,59.98c0,3.1-2.51,5.61-5.61,5.61s-5.61-2.51-5.61-5.61c0-3.1,2.51-5.61,5.61-5.61
						C51.45,54.37,53.97,56.88,53.97,59.98z"/>
					<path class="st3" d="M58.18,86.02c0,2.84-2.3,5.15-5.15,5.15h-9.35c-2.84,0-5.15-2.3-5.15-5.15V70.7c0-2.84,2.3-5.15,5.15-5.15
						h9.35c2.84,0,5.15,2.3,5.15,5.15V86.02z"/>
					<g>
						<line class="st4" x1="43.09" y1="70.64" x2="43.09" y2="88.36"/>
						<line class="st4" x1="53.61" y1="70.64" x2="53.61" y2="88.36"/>
					</g>
				</g>
			</g>
		</g>
	</g>
	<g>
		<g>
			<g>
				<path id="SVGID_4_" class="st1" d="M166.44,62.8c0,8.33-6.75,15.09-15.09,15.09c-8.34,0-15.08-6.76-15.08-15.09
					s6.75-15.09,15.09-15.09S166.44,54.47,166.44,62.8z"/>
			</g>
			<g>
				<defs>
					<path id="SVGID_9_" d="M166.44,62.8c0,8.33-6.75,15.09-15.09,15.09c-8.34,0-15.08-6.76-15.08-15.09s6.75-15.09,15.09-15.09
						S166.44,54.47,166.44,62.8z"/>
				</defs>
				<clipPath id="SVGID_10_">
					<use xlink:href="#SVGID_9_"  style="overflow:visible;"/>
				</clipPath>
				<g class="st6">
					<path class="st3" d="M156.97,59.98c0,3.1-2.51,5.61-5.61,5.61c-3.1,0-5.61-2.51-5.61-5.61c0-3.1,2.51-5.61,5.61-5.61
						C154.45,54.37,156.97,56.88,156.97,59.98z"/>
					<path class="st3" d="M161.18,86.02c0,2.84-2.3,5.15-5.15,5.15h-9.35c-2.84,0-5.15-2.3-5.15-5.15V70.7
						c0-2.84,2.3-5.15,5.15-5.15h9.35c2.84,0,5.15,2.3,5.15,5.15V86.02z"/>
					<g>
						<line class="st4" x1="146.09" y1="70.64" x2="146.09" y2="88.36"/>
						<line class="st4" x1="156.61" y1="70.64" x2="156.61" y2="88.36"/>
					</g>
				</g>
			</g>
		</g>
	</g>
</g>
</svg>
