<svg width="55" height="55" viewBox="0 0 55 55" fill="none" xmlns="http://www.w3.org/2000/svg">
<g filter="url(#filter0_d)">
<rect x="6" y="49" width="43" height="43" rx="20" transform="rotate(-90 6 49)" fill="white"/>
</g>
<path d="M28 39C34.6274 39 40 33.6274 40 27C40 20.3726 34.6274 15 28 15C21.3726 15 16 20.3726 16 27C16 33.6274 21.3726 39 28 39Z" stroke="#1BEAE4" stroke-width="2" stroke-miterlimit="10"/>
<path d="M28 21V28" stroke="#1BEAE4" stroke-width="2" stroke-linecap="round" stroke-linejoin="round"/>
<path d="M28 34C28.8284 34 29.5 33.3284 29.5 32.5C29.5 31.6716 28.8284 31 28 31C27.1716 31 26.5 31.6716 26.5 32.5C26.5 33.3284 27.1716 34 28 34Z" fill="#1BEAE4"/>
<defs>
<filter id="filter0_d" x="0" y="0" width="55" height="55" filterUnits="userSpaceOnUse" color-interpolation-filters="sRGB">
<feFlood flood-opacity="0" result="BackgroundImageFix"/>
<feColorMatrix in="SourceAlpha" type="matrix" values="0 0 0 0 0 0 0 0 0 0 0 0 0 0 0 0 0 0 127 0"/>
<feMorphology radius="1" operator="dilate" in="SourceAlpha" result="effect1_dropShadow"/>
<feOffset/>
<feGaussianBlur stdDeviation="2.5"/>
<feColorMatrix type="matrix" values="0 0 0 0 0.745098 0 0 0 0 0.819608 0 0 0 0 0.819608 0 0 0 0.25 0"/>
<feBlend mode="normal" in2="BackgroundImageFix" result="effect1_dropShadow"/>
<feBlend mode="normal" in="SourceGraphic" in2="effect1_dropShadow" result="shape"/>
</filter>
</defs>
</svg>
