<?xml version="1.0" encoding="utf-8"?>
<!-- Generator: Adobe Illustrator 24.3.0, SVG Export Plug-In . SVG Version: 6.00 Build 0)  -->
<svg version="1.1" id="Capa_1" xmlns="http://www.w3.org/2000/svg" xmlns:xlink="http://www.w3.org/1999/xlink" x="0px" y="0px"
	 viewBox="0 0 50 50" style="enable-background:new 0 0 50 50;" xml:space="preserve">
<style type="text/css">
	.st0{fill:#FFFFFF;}
	.st1{fill:none;stroke:#4C426B;stroke-linecap:round;stroke-linejoin:round;stroke-miterlimit:10;}
	.st2{fill:#37EFE3;}
</style>
<g>
	<g>
		<path class="st0" d="M34.8,38.2H21.9c-1.7,0-3.1-1.4-3.1-3.1V16.8c0-1.7,1.4-3.1,3.1-3.1h12.9c1.7,0,3.1,1.4,3.1,3.1V35
			C38,36.8,36.5,38.2,34.8,38.2z"/>
		<path class="st1" d="M32.7,36.9H19.8c-1.7,0-3.1-1.4-3.1-3.1V15.5c0-1.7,1.4-3.1,3.1-3.1h12.9c1.7,0,3.1,1.4,3.1,3.1v18.3
			C35.8,35.5,34.4,36.9,32.7,36.9z"/>
		<path class="st1" d="M30.6,33.2h-8.8c-1.7,0-3.1-1.4-3.1-3.1V16.8c0-1.7,1.4-3.1,3.1-3.1h8.8c1.7,0,3.1,1.4,3.1,3.1v13.3
			C33.8,31.8,32.4,33.2,30.6,33.2z"/>
		<circle class="st1" cx="26.1" cy="35" r="0.8"/>
		<rect x="25.1" y="19.9" class="st2" width="1.9" height="7.4"/>
		<rect x="22.4" y="22.7" class="st2" width="7.4" height="1.9"/>
	</g>
</g>
</svg>
