<?xml version="1.0" encoding="utf-8"?>
<!-- Generator: Adobe Illustrator 24.3.0, SVG Export Plug-In . SVG Version: 6.00 Build 0)  -->
<svg version="1.1" id="Capa_1" xmlns="http://www.w3.org/2000/svg" xmlns:xlink="http://www.w3.org/1999/xlink" x="0px" y="0px"
	 viewBox="0 0 50 50" style="enable-background:new 0 0 50 50;" xml:space="preserve">
<style type="text/css">
	.st0{fill:#FFFFFF;}
	.st1{fill:none;stroke:#4C426B;stroke-linecap:round;stroke-linejoin:round;stroke-miterlimit:10;}
	.st2{fill:none;stroke:#37EFE3;stroke-linecap:round;stroke-linejoin:round;stroke-miterlimit:10;}
</style>
<g>
	<g>
		<path class="st0" d="M32.6,39h-8.5c-3,0-5.3-2.4-5.3-5.3V19.8c0-3,2.4-5.3,5.3-5.3h8.5c3,0,5.3,2.4,5.3,5.3v13.9
			C38,36.6,35.6,39,32.6,39z"/>
		<path class="st1" d="M30.5,37.8H22c-3,0-5.3-2.4-5.3-5.3v-14c0-2.9,2.4-5.3,5.3-5.3h8.5c2.9,0,5.3,2.4,5.3,5.3v13.9
			C35.8,35.3,33.4,37.8,30.5,37.8z"/>
		<circle class="st2" cx="29.8" cy="32.8" r="2.7"/>
		<circle class="st2" cx="29.8" cy="32.8" r="1.4"/>
		<g>
			<line class="st1" x1="19.9" y1="28" x2="32.5" y2="28"/>
			<line class="st1" x1="19.9" y1="24.4" x2="32.5" y2="24.4"/>
			<line class="st1" x1="19.9" y1="20.9" x2="32.5" y2="20.9"/>
			<line class="st1" x1="19.9" y1="17.3" x2="26.2" y2="17.3"/>
		</g>
	</g>
</g>
</svg>
