<svg width="43" height="43" viewBox="0 0 43 43" fill="none" xmlns="http://www.w3.org/2000/svg">
<circle cx="21.4744" cy="21.4744" r="21.4744" fill="#7CFCF4"/>
<path d="M12.75 25.5293C14.8901 25.5293 16.625 23.7944 16.625 21.6543C16.625 19.5142 14.8901 17.7793 12.75 17.7793C10.6099 17.7793 8.875 19.5142 8.875 21.6543C8.875 23.7944 10.6099 25.5293 12.75 25.5293Z" stroke="#424C5A" stroke-width="2" stroke-linecap="round" stroke-linejoin="round"/>
<path d="M26.3125 34.248C28.4526 34.248 30.1875 32.5132 30.1875 30.373C30.1875 28.2329 28.4526 26.498 26.3125 26.498C24.1724 26.498 22.4375 28.2329 22.4375 30.373C22.4375 32.5132 24.1724 34.248 26.3125 34.248Z" fill="white" stroke="#424C5A" stroke-width="2" stroke-linecap="round" stroke-linejoin="round"/>
<path d="M26.3125 16.8105C28.4526 16.8105 30.1875 15.0757 30.1875 12.9355C30.1875 10.7954 28.4526 9.06055 26.3125 9.06055C24.1724 9.06055 22.4375 10.7954 22.4375 12.9355C22.4375 15.0757 24.1724 16.8105 26.3125 16.8105Z" fill="white" stroke="#424C5A" stroke-width="2" stroke-linecap="round" stroke-linejoin="round"/>
<path d="M23.0532 15.0332L16.009 19.5616" stroke="#424C5A" stroke-width="2" stroke-linecap="round" stroke-linejoin="round"/>
<path d="M16.009 23.752L23.0532 28.2803" stroke="#424C5A" stroke-width="2" stroke-linecap="round" stroke-linejoin="round"/>
</svg>
