<svg width="68" height="73" viewBox="0 0 68 73" fill="none" xmlns="http://www.w3.org/2000/svg">
<circle cx="33.5641" cy="43.1539" r="29.2051" fill="#7CFCF4"/>
<path d="M34 19.125V23.375" stroke="#424C5A" stroke-width="2" stroke-linecap="round" stroke-linejoin="round"/>
<path d="M34 44.625V48.875" stroke="#424C5A" stroke-width="2" stroke-linecap="round" stroke-linejoin="round"/>
<path d="M34 59.5C48.0833 59.5 59.5 48.0833 59.5 34C59.5 19.9167 48.0833 8.5 34 8.5C19.9167 8.5 8.5 19.9167 8.5 34C8.5 48.0833 19.9167 59.5 34 59.5Z" stroke="#424C5A" stroke-width="2" stroke-linecap="round" stroke-linejoin="round"/>
<path d="M27.625 44.625H37.1875C38.5965 44.625 39.9477 44.0653 40.944 43.069C41.9403 42.0727 42.5 40.7215 42.5 39.3125C42.5 37.9035 41.9403 36.5523 40.944 35.556C39.9477 34.5597 38.5965 34 37.1875 34H30.8125C29.4035 34 28.0523 33.4403 27.056 32.444C26.0597 31.4477 25.5 30.0965 25.5 28.6875C25.5 27.2785 26.0597 25.9273 27.056 24.931C28.0523 23.9347 29.4035 23.375 30.8125 23.375H40.375" stroke="#424C5A" stroke-width="2" stroke-linecap="round" stroke-linejoin="round"/>
</svg>
