<svg width="68" height="73" viewBox="0 0 68 73" fill="none" xmlns="http://www.w3.org/2000/svg">
<circle cx="33.5641" cy="43.1539" r="29.2051" fill="#7CFCF4"/>
<path d="M53.125 59.5H14.8729C14.3093 59.5 13.7688 59.2761 13.3703 58.8776C12.9718 58.4791 12.7479 57.9386 12.7479 57.375V10.625C12.7479 10.0614 12.9718 9.52091 13.3703 9.1224C13.7688 8.72388 14.3093 8.5 14.8729 8.5H40.375L55.25 23.375V57.375C55.25 57.6541 55.195 57.9304 55.0882 58.1882C54.9815 58.446 54.8249 58.6803 54.6276 58.8776C54.4303 59.0749 54.196 59.2315 53.9382 59.3383C53.6804 59.445 53.4041 59.5 53.125 59.5Z" stroke="#424C5A" stroke-width="2" stroke-linecap="round" stroke-linejoin="round"/>
<path d="M40.375 8.5V23.375H55.2521" stroke="#424C5A" stroke-width="2" stroke-linecap="round" stroke-linejoin="round"/>
<path d="M25.5 36.125H42.5" stroke="#424C5A" stroke-width="2" stroke-linecap="round" stroke-linejoin="round"/>
<path d="M25.5 44.625H42.5" stroke="#424C5A" stroke-width="2" stroke-linecap="round" stroke-linejoin="round"/>
</svg>
