<svg width="52" height="48" viewBox="0 0 52 48" fill="none" xmlns="http://www.w3.org/2000/svg">
<circle cx="29.0181" cy="25.3125" r="22.1875" transform="rotate(90 29.0181 25.3125)" fill="#7CFCF4"/>
<path d="M39.0624 42H10.9359C10.5215 42 10.1241 41.842 9.83106 41.5607C9.53803 41.2794 9.37341 40.8978 9.37341 40.5V7.5C9.37341 7.10218 9.53803 6.72064 9.83106 6.43934C10.1241 6.15804 10.5215 6 10.9359 6H29.6874L40.6249 16.5V40.5C40.6249 40.697 40.5845 40.892 40.506 41.074C40.4275 41.256 40.3124 41.4214 40.1673 41.5607C40.0222 41.7 39.85 41.8104 39.6604 41.8858C39.4708 41.9612 39.2676 42 39.0624 42Z" stroke="#424C5A" stroke-width="2" stroke-linecap="round" stroke-linejoin="round"/>
<path d="M29.6875 6V16.5H40.6266" stroke="#424C5A" stroke-width="2" stroke-linecap="round" stroke-linejoin="round"/>
<path d="M18.75 25.5H31.25" stroke="#424C5A" stroke-width="2" stroke-linecap="round" stroke-linejoin="round"/>
<path d="M18.75 31.5H31.25" stroke="#424C5A" stroke-width="2" stroke-linecap="round" stroke-linejoin="round"/>
</svg>
