<svg width="43" height="44" viewBox="0 0 43 44" fill="none" xmlns="http://www.w3.org/2000/svg">
<circle cx="21.4744" cy="22.3201" r="21.4744" fill="#7CFCF4"/>
<path d="M14.7501 25C19.2374 25 22.8751 21.3623 22.8751 16.875C22.8751 12.3877 19.2374 8.75 14.7501 8.75C10.2627 8.75 6.62506 12.3877 6.62506 16.875C6.62506 21.3623 10.2627 25 14.7501 25Z" fill="white" stroke="#424C5A" stroke-width="2" stroke-miterlimit="10"/>
<path d="M25.2832 9.05207C26.4007 8.73721 27.5728 8.66548 28.7204 8.84172C29.8679 9.01796 30.9644 9.43807 31.936 10.0738C32.9075 10.7095 33.7316 11.546 34.3526 12.5269C34.9737 13.5079 35.3773 14.6106 35.5363 15.7607C35.6953 16.9108 35.6059 18.0816 35.2743 19.1943C34.9427 20.307 34.3765 21.3357 33.6139 22.2111C32.8513 23.0866 31.9099 23.7884 30.8531 24.2694C29.7964 24.7503 28.6489 24.9993 27.4878 24.9994" stroke="#424C5A" stroke-width="2" stroke-linecap="round" stroke-linejoin="round"/>
<path d="M3.49939 30.8432C4.76835 29.0382 6.45297 27.565 8.41103 26.548C10.3691 25.531 12.5431 25.0001 14.7495 25C16.9559 24.9999 19.13 25.5307 21.0881 26.5476C23.0463 27.5644 24.731 29.0375 26.0001 30.8424" stroke="#424C5A" stroke-width="2" stroke-linecap="round" stroke-linejoin="round"/>
<path d="M27.4878 25C29.6944 24.9984 31.8689 25.5285 33.8272 26.5455C35.7855 27.5625 37.4699 29.0364 38.7378 30.8424" stroke="#424C5A" stroke-width="2" stroke-linecap="round" stroke-linejoin="round"/>
</svg>
