<svg width="45" height="51" viewBox="0 0 45 51" fill="none" xmlns="http://www.w3.org/2000/svg">
<circle cx="22.7812" cy="30.584" r="19.9688" fill="#7CFCF4"/>
<path d="M36.5625 7.03125H8.4375C7.66085 7.03125 7.03125 7.66085 7.03125 8.4375V36.5625C7.03125 37.3392 7.66085 37.9688 8.4375 37.9688H36.5625C37.3392 37.9688 37.9688 37.3392 37.9688 36.5625V8.4375C37.9688 7.66085 37.3392 7.03125 36.5625 7.03125Z" fill="white" stroke="#424C5A" stroke-width="2" stroke-linecap="round" stroke-linejoin="round"/>
<path d="M30.9375 4.21875V9.84375" stroke="#424C5A" stroke-width="2" stroke-linecap="round" stroke-linejoin="round"/>
<path d="M14.0625 4.21875V9.84375" stroke="#424C5A" stroke-width="2" stroke-linecap="round" stroke-linejoin="round"/>
<path d="M7.03125 15.4688H37.9688" stroke="#424C5A" stroke-width="2" stroke-linecap="round" stroke-linejoin="round"/>
<path d="M15.293 18.1934H10.0195C9.87391 18.1934 9.75586 18.3114 9.75586 18.457V23.7305C9.75586 23.8761 9.87391 23.9941 10.0195 23.9941H15.293C15.4386 23.9941 15.5566 23.8761 15.5566 23.7305V18.457C15.5566 18.3114 15.4386 18.1934 15.293 18.1934Z" fill="#7CFCF4" stroke="#424C5A" stroke-linecap="round" stroke-linejoin="round"/>
<path d="M13.7109 20.0391L11.6016 22.1484" stroke="#424C5A" stroke-linecap="round" stroke-linejoin="round"/>
<path d="M13.7109 22.1484L11.6016 20.0391" stroke="#424C5A" stroke-linecap="round" stroke-linejoin="round"/>
<path d="M25.418 27.7559H20.1445C19.9989 27.7559 19.8809 27.8739 19.8809 28.0195V33.293C19.8809 33.4386 19.9989 33.5566 20.1445 33.5566H25.418C25.5636 33.5566 25.6816 33.4386 25.6816 33.293V28.0195C25.6816 27.8739 25.5636 27.7559 25.418 27.7559Z" fill="#7CFCF4" stroke="#424C5A" stroke-linecap="round" stroke-linejoin="round"/>
<path d="M23.8359 29.6016L21.7266 31.7109" stroke="#424C5A" stroke-linecap="round" stroke-linejoin="round"/>
<path d="M23.8359 31.7109L21.7266 29.6016" stroke="#424C5A" stroke-linecap="round" stroke-linejoin="round"/>
</svg>
