<svg width="50" height="50" viewBox="0 0 50 50" fill="none" xmlns="http://www.w3.org/2000/svg">
<circle cx="25" cy="25" r="25" fill="#7CFCF4"/>
<path d="M41.064 7.00569L4.67187 17.2701C4.36572 17.3565 4.09321 17.5342 3.89077 17.7796C3.68833 18.025 3.56561 18.3263 3.53901 18.6433C3.5124 18.9603 3.58318 19.2778 3.74189 19.5535C3.9006 19.8292 4.13967 20.0499 4.42715 20.1861L21.148 28.1065C21.4741 28.261 21.7367 28.5236 21.8912 28.8497L29.8116 45.5705C29.9478 45.858 30.1685 46.0971 30.4442 46.2558C30.7198 46.4145 31.0374 46.4853 31.3544 46.4587C31.6714 46.4321 31.9727 46.3093 32.2181 46.1069C32.4634 45.9045 32.6412 45.632 32.7275 45.3258L42.992 8.93368C43.0674 8.66636 43.0702 8.38377 43 8.11502C42.9299 7.84627 42.7894 7.60107 42.593 7.40467C42.3966 7.20827 42.1514 7.06777 41.8827 6.99764C41.6139 6.92752 41.3313 6.9303 41.064 7.00569Z" fill="white" stroke="#424C5A" stroke-width="2" stroke-linecap="round" stroke-linejoin="round"/>
<path d="M21.6536 28.3465L30.4925 19.5077" stroke="#424C5A" stroke-width="2" stroke-linecap="round" stroke-linejoin="round"/>
</svg>
