<svg width="50" height="44" viewBox="0 0 50 44" fill="none" xmlns="http://www.w3.org/2000/svg">
<circle cx="24.4155" cy="22.2097" r="21.4744" fill="#7CFCF4"/>
<path d="M8.23869 32.9546L35.7008 32.9546C37.2175 32.9546 38.447 31.7251 38.447 30.2084V10.9849C38.447 9.4682 37.2175 8.23868 35.7008 8.23868L8.23869 8.23868C6.722 8.23868 5.49248 9.4682 5.49248 10.9849V30.2084C5.49248 31.7251 6.722 32.9546 8.23869 32.9546Z" stroke="#424C5A" stroke-width="2" stroke-linecap="round" stroke-linejoin="round"/>
<path d="M27.4621 38.4468H16.4773" stroke="#424C5A" stroke-width="2" stroke-linecap="round" stroke-linejoin="round"/>
<path d="M5.49243 26.0889H38.447" stroke="#424C5A" stroke-width="2" stroke-linecap="round" stroke-linejoin="round"/>
<path d="M21.9697 32.9546V38.447" stroke="#424C5A" stroke-width="2" stroke-linecap="round" stroke-linejoin="round"/>
<path d="M42.4242 20.4546H33.3333C32.4965 20.4546 31.8181 21.1329 31.8181 21.9697V38.6364C31.8181 39.4732 32.4965 40.1516 33.3333 40.1516H42.4242C43.261 40.1516 43.9393 39.4732 43.9393 38.6364V21.9697C43.9393 21.1329 43.261 20.4546 42.4242 20.4546Z" fill="white" stroke="#424C5A" stroke-width="2" stroke-linecap="round" stroke-linejoin="round"/>
<path d="M31.8181 23.4849H43.9393" stroke="#424C5A" stroke-width="2" stroke-linecap="round" stroke-linejoin="round"/>
<path d="M31.8181 37.1211H43.9393" stroke="#424C5A" stroke-width="2" stroke-linecap="round" stroke-linejoin="round"/>
</svg>
