<svg width="50" height="50" viewBox="0 0 50 50" fill="none" xmlns="http://www.w3.org/2000/svg">
<circle cx="25.1764" cy="25.1763" r="21.5" fill="#7CFCF4"/>
<path d="M42.9688 34.2442V15.755C42.9687 15.4783 42.8953 15.2066 42.7558 14.9676C42.6164 14.7286 42.416 14.5309 42.1751 14.3948L25.7688 5.12168C25.5343 4.9891 25.2694 4.91943 25 4.91943C24.7306 4.91943 24.4657 4.9891 24.2312 5.12168L7.82491 14.3948C7.58403 14.5309 7.38362 14.7286 7.24417 14.9676C7.10473 15.2066 7.03125 15.4783 7.03125 15.755V34.2442C7.03125 34.5209 7.10473 34.7926 7.24417 35.0316C7.38362 35.2706 7.58403 35.4683 7.82491 35.6045L24.2312 44.8776C24.4657 45.0101 24.7306 45.0798 25 45.0798C25.2694 45.0798 25.5343 45.0101 25.7688 44.8776L42.1751 35.6045C42.416 35.4683 42.6164 35.2706 42.7558 35.0316C42.8953 34.7926 42.9688 34.5209 42.9688 34.2442V34.2442Z" stroke="#424C5A" stroke-width="2" stroke-linecap="round" stroke-linejoin="round"/>
<path d="M25 32.0312C28.8833 32.0312 32.0312 28.8833 32.0312 25C32.0312 21.1167 28.8833 17.9688 25 17.9688C21.1167 17.9688 17.9688 21.1167 17.9688 25C17.9688 28.8833 21.1167 32.0312 25 32.0312Z" stroke="#424C5A" stroke-width="2" stroke-linecap="round" stroke-linejoin="round"/>
</svg>
