<svg width="40" height="40" viewBox="0 0 40 40" fill="none" xmlns="http://www.w3.org/2000/svg">
<path d="M7.09837 27.6556C5.23472 24.5139 4.58205 20.8 5.26293 17.2112C5.9438 13.6223 7.91138 10.4055 10.7962 8.16474C13.681 5.92395 17.2846 4.81336 20.9303 5.0415C24.576 5.26963 28.0131 6.82081 30.596 9.40376C33.179 11.9867 34.7302 15.4237 34.9583 19.0694C35.1865 22.7151 34.0759 26.3187 31.8351 29.2036C29.5943 32.0884 26.3775 34.056 22.7887 34.7369C19.1999 35.4178 15.4859 34.7651 12.3443 32.9015L12.3443 32.9013L7.16359 34.3815C6.94925 34.4428 6.72242 34.4456 6.50663 34.3897C6.29084 34.3337 6.09392 34.2211 5.93629 34.0635C5.77867 33.9059 5.66606 33.709 5.61014 33.4932C5.55422 33.2774 5.55703 33.0506 5.61828 32.8362L7.09848 27.6555L7.09837 27.6556Z" stroke="#424C5A" stroke-width="2" stroke-linecap="round" stroke-linejoin="round"/>
<path d="M20.0001 21.875C21.0357 21.875 21.8751 21.0355 21.8751 20C21.8751 18.9645 21.0357 18.125 20.0001 18.125C18.9646 18.125 18.1251 18.9645 18.1251 20C18.1251 21.0355 18.9646 21.875 20.0001 21.875Z" fill="#424C5A"/>
<path d="M12.5 21.875C13.5355 21.875 14.375 21.0355 14.375 20C14.375 18.9645 13.5355 18.125 12.5 18.125C11.4645 18.125 10.625 18.9645 10.625 20C10.625 21.0355 11.4645 21.875 12.5 21.875Z" fill="#424C5A"/>
<path d="M27.5001 21.875C28.5356 21.875 29.3751 21.0355 29.3751 20C29.3751 18.9645 28.5356 18.125 27.5001 18.125C26.4645 18.125 25.6251 18.9645 25.6251 20C25.6251 21.0355 26.4645 21.875 27.5001 21.875Z" fill="#424C5A"/>
</svg>
