<svg width="39" height="39" viewBox="0 0 39 39" fill="none" xmlns="http://www.w3.org/2000/svg">
<path d="M6.90723 26.6057C5.11436 23.5833 4.48648 20.0105 5.1415 16.5579C5.79651 13.1054 7.68936 10.0107 10.4646 7.85507C13.2399 5.69938 16.7066 4.63097 20.2138 4.85044C23.7211 5.06992 27.0276 6.56218 29.5124 9.04703C31.9973 11.5319 33.4896 14.8384 33.7091 18.3456C33.9286 21.8529 32.8602 25.3196 30.7045 28.0949C28.5488 30.8701 25.4542 32.763 22.0017 33.418C18.5491 34.073 14.9762 33.4452 11.9539 31.6523L11.9539 31.6522L6.96997 33.0762C6.76377 33.1351 6.54556 33.1378 6.33796 33.084C6.13037 33.0302 5.94093 32.9219 5.78929 32.7702C5.63765 32.6186 5.52932 32.4291 5.47552 32.2215C5.42173 32.014 5.42443 31.7957 5.48335 31.5895L6.90734 26.6056L6.90723 26.6057Z" stroke="#AEAEAE" stroke-width="2" stroke-linecap="round" stroke-linejoin="round"/>
<path d="M19.3189 21.0441C20.3151 21.0441 21.1227 20.2365 21.1227 19.2403C21.1227 18.2441 20.3151 17.4365 19.3189 17.4365C18.3227 17.4365 17.5151 18.2441 17.5151 19.2403C17.5151 20.2365 18.3227 21.0441 19.3189 21.0441Z" fill="#AEAEAE"/>
<path d="M12.1038 21.0441C13.1 21.0441 13.9076 20.2365 13.9076 19.2403C13.9076 18.2441 13.1 17.4365 12.1038 17.4365C11.1076 17.4365 10.3 18.2441 10.3 19.2403C10.3 20.2365 11.1076 21.0441 12.1038 21.0441Z" fill="#AEAEAE"/>
<path d="M26.534 21.0441C27.5302 21.0441 28.3378 20.2365 28.3378 19.2403C28.3378 18.2441 27.5302 17.4365 26.534 17.4365C25.5378 17.4365 24.7302 18.2441 24.7302 19.2403C24.7302 20.2365 25.5378 21.0441 26.534 21.0441Z" fill="#AEAEAE"/>
</svg>
