<?xml version="1.0" encoding="utf-8"?>
<!-- Generator: Adobe Illustrator 24.2.1, SVG Export Plug-In . SVG Version: 6.00 Build 0)  -->
<svg version="1.1" id="Capa_1" xmlns="http://www.w3.org/2000/svg" xmlns:xlink="http://www.w3.org/1999/xlink" x="0px" y="0px"
	 viewBox="0 0 170 40" style="enable-background:new 0 0 170 40;" xml:space="preserve">
<style type="text/css">
	.st0{fill:#FFFFFF;}
	.st1{fill:#7CFCF4;}
	.st2{fill:#00CDCC;}
</style>
<g>
	<path class="st0" d="M21.74,29.86c-2.42,0-4.65-0.73-6.68-2.18c-0.31-0.22-0.47-0.54-0.47-0.94c0-0.31,0.11-0.58,0.34-0.79
		c0.22-0.21,0.49-0.32,0.81-0.32c0.27,0,0.48,0.07,0.64,0.2c1.81,1.23,3.65,1.85,5.51,1.85c1.05,0,1.91-0.25,2.59-0.76
		c0.67-0.5,1.01-1.17,1.01-2v-0.07c0-0.78-0.37-1.39-1.09-1.81c-0.73-0.43-1.81-0.84-3.24-1.24c-0.87-0.25-1.57-0.47-2.08-0.67
		s-1.1-0.49-1.75-0.86s-1.13-0.83-1.45-1.39c-0.31-0.56-0.47-1.22-0.47-1.98v-0.07c0-1.48,0.55-2.68,1.66-3.59
		c1.11-0.92,2.52-1.38,4.25-1.38c1.88,0,3.73,0.49,5.54,1.48c0.42,0.25,0.64,0.6,0.64,1.08c0,0.31-0.11,0.58-0.34,0.79
		c-0.22,0.21-0.49,0.32-0.81,0.32c-0.2,0-0.39-0.04-0.57-0.13c-1.57-0.9-3.08-1.34-4.53-1.34c-1.01,0-1.82,0.23-2.44,0.71
		c-0.62,0.47-0.92,1.08-0.92,1.81v0.07c0,0.31,0.09,0.6,0.27,0.87s0.38,0.49,0.6,0.67c0.22,0.18,0.58,0.37,1.06,0.57
		c0.48,0.2,0.87,0.35,1.16,0.44c0.29,0.09,0.75,0.24,1.38,0.44c0.65,0.2,1.19,0.38,1.63,0.54c0.44,0.16,0.93,0.38,1.48,0.66
		s0.99,0.58,1.31,0.91c0.32,0.32,0.6,0.73,0.82,1.23c0.22,0.49,0.34,1.04,0.34,1.65v0.07c0,1.61-0.58,2.88-1.75,3.81
		C25.01,29.4,23.53,29.86,21.74,29.86"/>
	<path class="st0" d="M34,35.46c-0.96,0-1.92-0.17-2.9-0.51c-0.55-0.23-0.82-0.6-0.82-1.13c0-0.32,0.11-0.59,0.34-0.8
		c0.23-0.22,0.49-0.32,0.78-0.32c0.16,0,0.38,0.05,0.65,0.14c0.61,0.2,1.25,0.31,1.91,0.31c0.79,0,1.46-0.24,2-0.73
		c0.53-0.49,1.05-1.29,1.55-2.4l0.14-0.27l-7.37-15.62c-0.11-0.27-0.17-0.51-0.17-0.72c0-0.36,0.13-0.67,0.39-0.92
		s0.57-0.37,0.94-0.37c0.61,0,1.06,0.34,1.33,1.02l6.14,13.85l5.46-13.88c0.25-0.66,0.67-0.99,1.26-0.99c0.37,0,0.67,0.12,0.92,0.37
		s0.38,0.56,0.38,0.92c0,0.16-0.05,0.37-0.14,0.65L39.9,30.48c-0.75,1.8-1.59,3.07-2.51,3.84C36.47,35.08,35.34,35.46,34,35.46"/>
	<path class="st0" d="M49.79,28.38V13.3c0-0.36,0.12-0.67,0.37-0.92c0.25-0.26,0.55-0.39,0.91-0.39s0.66,0.12,0.92,0.37
		s0.39,0.56,0.39,0.94v1.78c1.46-2.19,3.33-3.29,5.61-3.29c2.6,0,4.46,1.15,5.58,3.46c1.5-2.31,3.54-3.46,6.11-3.46
		c1.99,0,3.56,0.63,4.72,1.88c1.15,1.26,1.73,2.96,1.73,5.11v9.61c0,0.36-0.12,0.67-0.37,0.92c-0.25,0.26-0.55,0.39-0.91,0.39
		s-0.67-0.13-0.92-0.39c-0.26-0.26-0.39-0.57-0.39-0.92v-9c0-1.68-0.4-2.97-1.19-3.88c-0.79-0.91-1.9-1.36-3.31-1.36
		c-1.37,0-2.5,0.48-3.41,1.44c-0.91,0.96-1.36,2.27-1.36,3.93v8.87c0,0.36-0.13,0.67-0.39,0.92c-0.26,0.26-0.57,0.39-0.92,0.39
		c-0.36,0-0.66-0.13-0.91-0.39s-0.37-0.57-0.37-0.92v-9.07c0-1.61-0.4-2.88-1.19-3.8c-0.79-0.92-1.89-1.38-3.27-1.38
		c-1.39,0-2.54,0.51-3.46,1.54s-1.38,2.34-1.38,3.93v8.77c0,0.38-0.12,0.7-0.37,0.94c-0.25,0.25-0.55,0.37-0.91,0.37
		c-0.38,0-0.69-0.13-0.94-0.39C49.92,29.05,49.79,28.74,49.79,28.38"/>
	<path class="st0" d="M80.77,34.01V13.55c0-0.36,0.12-0.67,0.37-0.92c0.25-0.26,0.55-0.39,0.91-0.39s0.67,0.12,0.92,0.37
		c0.26,0.25,0.39,0.56,0.39,0.94v2.35c1.75-2.58,3.96-3.86,6.65-3.86c2.22,0,4.15,0.82,5.81,2.45c1.66,1.63,2.49,3.82,2.49,6.55
		v0.07c0,2.71-0.83,4.89-2.49,6.55c-1.66,1.66-3.59,2.49-5.81,2.49c-2.73,0-4.95-1.23-6.65-3.7v7.56c0,0.38-0.12,0.69-0.37,0.94
		s-0.55,0.37-0.91,0.37c-0.38,0-0.69-0.13-0.94-0.39C80.9,34.67,80.77,34.37,80.77,34.01 M89.54,27.83c1.75,0,3.2-0.6,4.37-1.81
		c1.16-1.21,1.75-2.83,1.75-4.87v-0.07c0-1.99-0.59-3.61-1.78-4.85s-2.63-1.86-4.33-1.86c-1.68,0-3.15,0.63-4.4,1.9
		s-1.88,2.86-1.88,4.79v0.07c0,1.95,0.63,3.56,1.88,4.82C86.39,27.2,87.86,27.83,89.54,27.83"/>
	<path class="st0" d="M102.19,28.45V5.87c0-0.36,0.12-0.68,0.37-0.94c0.25-0.26,0.56-0.39,0.92-0.39s0.68,0.13,0.94,0.39
		s0.39,0.57,0.39,0.94v22.58c0,0.39-0.13,0.71-0.38,0.95c-0.25,0.25-0.56,0.37-0.92,0.37c-0.37,0-0.68-0.13-0.94-0.39
		C102.32,29.12,102.19,28.81,102.19,28.45"/>
	<path class="st0" d="M109.07,6.89V6.45c0-0.41,0.15-0.74,0.45-1.01c0.29-0.26,0.66-0.39,1.09-0.39c0.46,0,0.83,0.13,1.13,0.39
		c0.29,0.26,0.44,0.6,0.44,1.01v0.44c0,0.41-0.15,0.75-0.44,1.01c-0.3,0.26-0.67,0.39-1.13,0.39c-0.43,0-0.8-0.13-1.09-0.39
		C109.21,7.64,109.07,7.3,109.07,6.89 M109.31,28.45V13.13c0-0.36,0.13-0.68,0.37-0.94c0.25-0.26,0.56-0.39,0.92-0.39
		c0.39,0,0.71,0.13,0.95,0.37c0.25,0.25,0.37,0.57,0.37,0.95v15.31c0,0.39-0.13,0.71-0.37,0.95c-0.25,0.25-0.56,0.37-0.92,0.37
		s-0.68-0.13-0.94-0.39C109.43,29.12,109.31,28.81,109.31,28.45"/>
	<path class="st0" d="M118.47,28.38V14.44h-1.41c-0.31,0-0.58-0.11-0.79-0.34c-0.21-0.22-0.32-0.49-0.32-0.81
		c0-0.29,0.11-0.55,0.33-0.77c0.23-0.22,0.48-0.34,0.77-0.34h1.41v-1.51c0-1.97,0.5-3.46,1.51-4.47c0.9-0.9,2.14-1.34,3.73-1.34
		c0.78,0,1.47,0.07,2.05,0.2c0.63,0.13,0.94,0.5,0.94,1.11c0,0.34-0.12,0.62-0.37,0.84c-0.25,0.22-0.54,0.31-0.87,0.27
		c-0.72-0.11-1.19-0.17-1.41-0.17c-2.02,0-3.02,1.23-3.02,3.69v1.41h4.5c0.31,0,0.58,0.11,0.81,0.32c0.22,0.21,0.34,0.48,0.34,0.79
		s-0.11,0.58-0.34,0.79c-0.22,0.21-0.49,0.32-0.81,0.32h-4.47v13.94c0,0.36-0.12,0.67-0.37,0.92c-0.25,0.26-0.55,0.39-0.91,0.39
		s-0.67-0.13-0.93-0.39C118.59,29.05,118.47,28.74,118.47,28.38 M129.25,7.16V6.72c0-0.4,0.15-0.73,0.44-0.99
		c0.29-0.26,0.65-0.39,1.08-0.39c0.45,0,0.82,0.13,1.11,0.39c0.29,0.26,0.44,0.59,0.44,0.99v0.44c0,0.4-0.15,0.73-0.44,0.99
		c-0.29,0.26-0.66,0.39-1.11,0.39c-0.43,0-0.78-0.13-1.08-0.39C129.4,7.89,129.25,7.56,129.25,7.16 M129.45,28.38V13.3
		c0-0.36,0.12-0.67,0.37-0.92c0.25-0.26,0.55-0.39,0.91-0.39s0.67,0.12,0.92,0.37c0.26,0.25,0.39,0.56,0.39,0.94v15.08
		c0,0.38-0.13,0.7-0.37,0.94c-0.25,0.25-0.55,0.37-0.91,0.37c-0.38,0-0.69-0.13-0.94-0.39C129.57,29.05,129.45,28.74,129.45,28.38"
		/>
	<path class="st0" d="M145.48,30.1c-2.51,0-4.62-0.88-6.33-2.65s-2.57-3.88-2.57-6.35v-0.07c0-2.49,0.86-4.62,2.57-6.4
		s3.82-2.67,6.33-2.67c2.42,0,4.55,0.84,6.38,2.52c0.27,0.22,0.4,0.53,0.4,0.91c0,0.36-0.12,0.66-0.37,0.89s-0.54,0.35-0.87,0.35
		c-0.31,0-0.59-0.1-0.84-0.3c-1.5-1.39-3.08-2.08-4.74-2.08c-1.75,0-3.22,0.65-4.42,1.95c-1.2,1.3-1.8,2.89-1.8,4.77v0.07
		c0,1.88,0.61,3.48,1.83,4.79s2.74,1.97,4.55,1.97c1.72,0,3.34-0.71,4.84-2.12c0.22-0.22,0.47-0.33,0.74-0.33
		c0.31,0,0.59,0.12,0.82,0.35c0.24,0.24,0.35,0.51,0.35,0.82c0,0.32-0.11,0.58-0.34,0.81C150.17,29.17,147.99,30.1,145.48,30.1"/>
	<path class="st0" d="M160.23,29.9c-1.75,0-3.26-0.48-4.55-1.44c-1.29-0.96-1.93-2.28-1.93-3.96v-0.07c0-1.79,0.67-3.17,2.02-4.15
		c1.34-0.97,3.15-1.46,5.41-1.46c1.81,0,3.59,0.25,5.34,0.74v-0.6c0-1.55-0.45-2.72-1.34-3.53c-0.9-0.81-2.17-1.21-3.83-1.21
		c-1.55,0-3.05,0.32-4.5,0.97c-0.16,0.07-0.31,0.1-0.47,0.1c-0.31,0-0.58-0.11-0.81-0.34c-0.22-0.22-0.33-0.48-0.33-0.77
		c0-0.54,0.23-0.9,0.71-1.07c1.81-0.78,3.71-1.18,5.68-1.18c2.46,0,4.33,0.64,5.61,1.91c1.19,1.19,1.78,2.88,1.78,5.07v9.51
		c0,0.36-0.12,0.66-0.35,0.91c-0.24,0.25-0.53,0.37-0.89,0.37s-0.66-0.12-0.89-0.35c-0.23-0.24-0.35-0.52-0.35-0.86v-1.58
		C164.99,28.9,162.9,29.9,160.23,29.9 M160.74,27.85c1.61,0,2.98-0.44,4.11-1.33c1.13-0.88,1.7-2.01,1.7-3.37v-1.68
		c-1.7-0.49-3.4-0.74-5.11-0.74c-1.61,0-2.86,0.32-3.75,0.97c-0.88,0.65-1.33,1.52-1.33,2.62v0.07c0,1.05,0.42,1.89,1.26,2.52
		C158.47,27.53,159.51,27.85,160.74,27.85"/>
	<rect x="1" y="12.97" class="st1" width="6.89" height="6.89"/>
	<rect x="1.04" y="22.05" class="st2" width="6.89" height="6.89"/>
</g>
</svg>
