<?xml version="1.0" encoding="utf-8"?>
<!-- Generator: Adobe Illustrator 24.2.1, SVG Export Plug-In . SVG Version: 6.00 Build 0)  -->
<svg version="1.1" id="Capa_1" xmlns="http://www.w3.org/2000/svg" xmlns:xlink="http://www.w3.org/1999/xlink" x="0px" y="0px"
	 viewBox="0 0 70 70" style="enable-background:new 0 0 70 70;" xml:space="preserve">
<style type="text/css">
	.st0{fill-rule:evenodd;clip-rule:evenodd;}
</style>
<desc>Created with Sketch.</desc>
<g id="user">
	<path id="Shape" class="st0" d="M63.1,53.3c-5.5-8.1-17.6-12.8-30.9-12.3C20.5,41.5,11.1,46.2,7,53.5c-0.2,0.3-0.3,0.6-0.3,1v13.6
		c0,1.1,1,1.9,1.9,1.9c1,0,1.9-1,1.9-1.9V55c3.4-5.7,11.6-9.4,21.5-9.9c11.6-0.5,22.1,3.4,27,10v12.9c0,1.1,1,1.9,1.9,1.9
		c1,0,1.9-1,1.9-1.9V54.5C63.5,54.2,63.3,53.7,63.1,53.3z M35.8,39.8c7.9,0,14.4-5,15.5-12c0-0.2,0-0.2,0-0.3V13.9
		c0-7.8-7-13.9-15.5-13.9c-8.7,0-15.5,6.1-15.5,13.9v13.4c0,0.2,0,0.2,0,0.3C21.4,34.8,28,39.8,35.8,39.8z M24.3,13.9
		c0-5.5,5-9.9,11.5-9.9c6.3,0,11.5,4.5,11.5,9.9v13.4c-1,4.8-5.7,8.4-11.5,8.4s-10.7-3.6-11.5-8.4V13.9z"/>
</g>
</svg>
