<?xml version="1.0" encoding="utf-8"?>
<!-- Generator: Adobe Illustrator 24.2.1, SVG Export Plug-In . SVG Version: 6.00 Build 0)  -->
<svg version="1.1" id="Capa_1" xmlns="http://www.w3.org/2000/svg" xmlns:xlink="http://www.w3.org/1999/xlink" x="0px" y="0px"
	 viewBox="0 0 70 70" style="enable-background:new 0 0 70 70;" xml:space="preserve">
<style type="text/css">
	.st0{fill-rule:evenodd;clip-rule:evenodd;}
</style>
<desc>Created with Sketch.</desc>
<g id="user-close">
	<path id="Shape" class="st0" d="M59.9,10.5c-0.1-0.1-0.1-0.2-0.2-0.3c-0.1-0.1-0.2-0.1-0.3-0.2C53,3.8,44.4,0,34.9,0
		C15.7,0,0,15.7,0,34.9C0,44.4,3.8,53,10,59.4c0.1,0.1,0.1,0.2,0.2,0.3c0.1,0.1,0.2,0.1,0.3,0.2c6.3,6.2,14.9,10,24.4,10
		C54.3,70,70,54.3,70,35.1C69.9,25.5,66.1,16.8,59.9,10.5z M2.9,34.9c0-17.6,14.4-32.1,32.1-32.1c8.3,0,15.9,3.2,21.6,8.4L44.4,23.5
		v-3.2c-0.2-4.5-4.4-8.2-9.2-8.2c-5.2,0-9.2,3.7-9.2,8.3V28c0,0.1,0,0.1,0,0.2c0.5,3.3,3.1,6,6.7,6.9l-3.1,3.1
		c-5.2,0.9-9.3,3.3-11.2,6.8c-0.1,0.2-0.1,0.5-0.1,0.7v3.8l-6.9,6.9C6.1,50.9,2.9,43.2,2.9,34.9z M41.5,20.3v6l-6.2,6.3
		c0,0,0,0-0.1,0c-3.1,0-5.9-2.1-6.3-4.6v-7.6c0-3,2.8-5.4,6.3-5.4C38.7,14.9,41.3,17.8,41.5,20.3z M25.1,42.7l-4,4v-0.6
		C21.9,44.7,23.4,43.6,25.1,42.7z M34.9,67c-8.3,0-15.9-3.2-21.6-8.4l4.8-4.8c0.1,0.7,0.7,1.3,1.4,1.3c0.8,0,1.4-0.7,1.4-1.4v-2.8
		l9.8-9.8c0.6-0.1,1.2-0.1,1.8-0.2c6.5-0.3,12.6,1.8,15.3,5.4v7.3c0,0.8,0.7,1.4,1.4,1.4s1.4-0.7,1.4-1.4v-7.7
		c0-0.3-0.1-0.6-0.2-0.8c-3.1-4.4-9.5-7.1-16.7-7.1l2.5-2.5c3.9-0.6,7-3.3,7.8-7c0-0.1,0-0.2,0-0.2v-0.5l14.2-14.2
		c5.2,5.7,8.4,13.3,8.4,21.6C67,52.6,52.6,67,34.9,67z"/>
</g>
</svg>
