<?xml version="1.0" encoding="utf-8"?>
<!-- Generator: Adobe Illustrator 24.2.1, SVG Export Plug-In . SVG Version: 6.00 Build 0)  -->
<svg version="1.1" id="Capa_1" xmlns="http://www.w3.org/2000/svg" xmlns:xlink="http://www.w3.org/1999/xlink" x="0px" y="0px"
	 viewBox="0 0 70 70" style="enable-background:new 0 0 70 70;" xml:space="preserve">
<style type="text/css">
	.st0{fill-rule:evenodd;clip-rule:evenodd;}
</style>
<desc>Created with Sketch.</desc>
<g id="Vacaciones">
	<path id="Shape" class="st0" d="M43.3,13.7C43.3,13.7,43.4,13.7,43.3,13.7c0.1,0,0.4,0,0.5,0c0.3,0,0.8-0.1,1.1-0.6
		c1.1-1.6,2.5-3.5,3.3-5.8c0.4-1-0.3-2.1-1.3-2.5c-1-0.4-2-0.1-2.6,0.6c-1.1,1.5-2.1,3.2-3,5.3c-0.3,0.8-0.3,1.4,0.1,2
		C41.6,13.2,42.4,13.6,43.3,13.7z M31.4,15.1c-10.8,0-19.8,8.8-19.8,19.8c0,4.2,1.3,8.1,3.7,11.5c0.3,0.4,0.6,0.5,1,0.5h30.1
		c0.4,0,0.8-0.3,1-0.5c2.4-3.4,3.7-7.3,3.7-11.5C51.1,23.9,42.3,15.1,31.4,15.1z M45.8,44.3H17c-1.9-2.8-2.9-6.1-2.9-9.5
		c0-9.5,7.7-17.3,17.3-17.3s17.3,7.7,17.3,17.3C48.6,38.2,47.7,41.4,45.8,44.3z M58.1,29.8h-0.9c-0.8,0-1.5,0-2.1,0
		c-1.3,0-2,1-2.1,2.1c0,1.1,0.8,2,1.8,2.3c1,0.1,2.1,0.3,3.2,0.3c1.1,0,2.1-0.1,3.3-0.3c1-0.1,1.8-1.1,1.8-2.1
		c0-1.3-0.9-2.1-2.1-2.3c-0.6,0-1.3,0-1.9,0H58.1z M29,6.4c0,0.6,0,1.4,0,2c0.1,1.3,1,2.1,2.1,2.1c0,0,0,0,0.1,0
		c1.1,0,2.1-0.8,2.3-1.9c0.4-1.9,0.3-3.8,0.1-5.7V2.8c-0.1-1.1-1-2.1-2.1-2.1c-1.4,0-2.3,0.9-2.4,2.3c0,0.6,0,1.3,0,1.9v0.8l0,0
		L29,6.4z M52,22.4c0.4,0,0.9-0.1,1.3-0.4c1-0.5,2.1-1.1,3.2-1.8l1.3-0.8c0.9-0.5,1.3-1.3,1.3-2.3c0-0.1,0-0.1,0-0.3
		c-0.3-1.1-0.9-1.6-1.3-1.8c-0.5-0.3-1.3-0.4-2.3,0.1c-1.5,0.8-2.9,1.6-4.4,2.5c-1.3,0.8-1.6,2-1,3.2C50.5,22,51.2,22.4,52,22.4z
		 M39.7,53.7L39.7,53.7c-4,0-8.2,0-12.2,0h-6.3c-1.3,0-4.7,1.8-4.8,4.2c0,0.4,0.1,0.8,0.4,1c0.3,0.3,0.6,0.4,0.9,0.4h26.1
		c0.4,0,0.9-0.3,1.1-0.6c0.3-0.4,0.3-0.9,0-1.3C43.9,55.8,41.4,53.7,39.7,53.7z M20.1,56.7c0.4-0.3,0.8-0.5,1-0.5h6.3
		c4,0,8.2,0,12.2,0c0.3,0,0.6,0.3,1,0.5H20.1z M68.7,32.2c-0.8-0.6-1.5-0.8-2.4-0.6c-1.1,0.1-2.3,1-3.5,2.8
		c-1.8,2.4-3.4,4.8-5.2,7.1c-1.8,2.4-3.5,4.9-5.3,7.3c-0.4,0.5-0.8,0.6-1.3,0.8c-11.2,0-22.7,0-33.8,0H16c-1.8,0-3.7,0-5.4,0
		c-1.3,0-2.5,0-3.8,0c-1,0-1.8,0.3-2.4,0.9c-0.4,0.4-1,1.1-0.9,2.4c0,2,1.3,3.3,3.3,3.4c0.3,0,0.4,0,0.6,0c0.3,0,0.4,0,0.6,0
		c1,0.1,2,0.1,3,0c0.6,0,1.1,0,1.8,0c-0.8,1.6-1.6,3.2-2.5,4.7c-0.8,1.3-1.4,2.5-2.1,3.9c-0.1,0.1-0.1,0.3-0.3,0.4
		c-0.4,0.6-1.3,1.9-0.4,3.2c0.6,0.9,1.5,1,2.3,1c0.4,0,0.8,0,1-0.1c0.3,0,0.5-0.1,0.6-0.1l0,0c1.4,0,2-1.1,2.3-1.6l0.4-0.8
		c0.4-0.8,0.9-1.5,1.3-2.4c0.4-0.9,0.8-1.4,2.4-1.4h3.7c6.2,0.1,12.6,0.3,18.8-0.1c3.7-0.1,5.3,0.8,6.1,3.5c1,3.3,4,2.9,5,2.8
		c0.4,0,1.5-0.1,2-1.1c0.4-0.6,0.3-1.4-0.3-2.3c-1.1-1.9-2.1-3.9-3.2-5.9c-0.3-0.5-0.6-1.1-0.9-1.6c-0.4-0.6-0.8-1.4-1.1-2h0.4
		c1.6,0,3.3,0,4.9,0c1.5,0,2.6-0.5,3.4-1.6c2-2.8,4-5.5,6.1-8.3c1.9-2.6,3.9-5.3,5.8-8.1C69.4,36.9,71.3,34.2,68.7,32.2z M66.5,36.8
		c-1.9,2.6-3.9,5.3-5.8,7.9c-2,2.8-4,5.5-6.1,8.3c-0.4,0.5-0.6,0.6-1.4,0.6c-1.6,0-3.3,0-4.9,0h-2.1c-0.4,0-0.8,0.1-1,0.5
		c-0.3,0.4-0.3,0.6-0.1,1c0.4,1.6,1.1,3,1.9,4.3c0.3,0.5,0.6,1,0.9,1.5c1,1.9,2,3.8,3.2,5.8c-1.4,0.1-1.8-0.3-2-1
		c-1.5-4.9-5.2-5.4-8.6-5.3c-6.2,0.3-12.5,0.1-18.7,0.1h-3.8c-1.5,0-3.7,0.3-4.8,2.9c-0.3,0.8-0.6,1.4-1.1,2.1l-0.5,0.8
		c0,0.1-0.1,0.3-0.3,0.4c-0.3,0-0.6,0-0.9,0.1c-0.1,0-0.5,0-0.6,0.1c0-0.1,0.1-0.1,0.1-0.3c0.1-0.3,0.4-0.5,0.4-0.8
		c0.6-1.3,1.4-2.5,2-3.8c1.1-2,2.4-4.2,3.4-6.6c0.1-0.4,0.1-0.8,0-1c-0.1-0.4-0.5-0.6-0.9-0.6c-0.9-0.1-1.6-0.3-2.4-0.3
		c-0.5,0-1,0-1.5,0c-0.9,0-1.8,0.1-2.5,0c-0.4,0-0.6,0-1,0c-0.1,0-0.3,0-0.4,0c-0.6,0-0.9-0.3-0.9-0.9c0-0.1,0-0.4,0.1-0.5
		c0.1-0.1,0.4-0.1,0.8-0.1c1.3,0,2.5,0,3.8,0c1.8,0,3.7,0,5.4,0h1.3c11.1,0,22.5,0,33.8,0c1.9,0,2.8-0.9,3.3-1.8
		c1.8-2.5,3.5-4.9,5.3-7.3c1.8-2.4,3.4-4.8,5.2-7.1c1-1.4,1.6-1.6,1.8-1.6c0,0,0.3,0,0.5,0.1C67.5,34.5,67.9,34.7,66.5,36.8z
		 M17.5,12.7c0.4,0.6,1.1,1,1.9,1c0.3,0,0.4,0,0.6-0.1c1-0.3,1.6-1,1.6-2.4c0-0.1,0-0.4-0.1-0.5c-0.9-2-2-3.9-3.3-5.5
		C18,4.7,17.5,4.5,17,4.5c-0.6-0.1-1.3,0.1-1.8,0.5c-0.9,0.8-1.1,1.8-0.6,2.8C15.6,9.4,16.5,11,17.5,12.7z M4.8,34.5
		C4.9,34.5,4.9,34.5,4.8,34.5h0.8c0.6,0,1.3,0,1.9,0c1.4-0.1,2.4-1,2.4-2.3c0-1.3-1-2.3-2.4-2.3c-1.6,0-3.4,0-5,0
		c-0.8,0-1.4,0.3-1.8,0.8C0.4,31,0,31.5,0,32.4c0,1.3,1,2.1,2.4,2.3c0.4,0,0.8,0,1.1,0c0.3,0,0.5,0,0.8,0L4.8,34.5z M4.7,19.4
		c1.6,1.1,3.3,2.1,4.9,2.9c0.4,0.1,0.8,0.3,1,0.3c0.8,0,1.5-0.4,1.9-1.1c0.6-1.1,0.3-2.5-0.9-3.3c-1.4-0.9-2.8-1.6-4.2-2.4
		c-0.3-0.1-0.6-0.3-0.8-0.4H6.6c-0.1-0.1-0.4-0.1-0.5-0.1c-1.5,0.1-2,1-2.1,1.5C3.5,17.7,3.9,18.7,4.7,19.4z"/>
</g>
</svg>
