<svg width="68" height="73" viewBox="0 0 68 73" fill="none" xmlns="http://www.w3.org/2000/svg">
<circle cx="33.5641" cy="43.1539" r="29.2051" fill="#7CFCF4"/>
<path d="M34 59.5C48.0833 59.5 59.5 48.0833 59.5 34C59.5 19.9167 48.0833 8.5 34 8.5C19.9167 8.5 8.5 19.9167 8.5 34C8.5 48.0833 19.9167 59.5 34 59.5Z" stroke="#424C5A" stroke-width="2" stroke-miterlimit="10"/>
<path d="M56.8875 45.2553L42.4677 36.3865C42.2149 36.2311 41.9324 36.1303 41.6383 36.0906L35.5771 35.2736C35.1219 35.2122 34.6592 35.3 34.2581 35.5237C33.857 35.7474 33.5392 36.095 33.3522 36.5145L29.7135 44.6794C29.5443 45.0591 29.4901 45.4801 29.5578 45.8902C29.6254 46.3004 29.8119 46.6817 30.0941 46.987L35.0879 52.3883C35.3142 52.6332 35.4798 52.9279 35.5712 53.2486C35.6626 53.5694 35.6772 53.9071 35.6139 54.2345L34.5967 59.4929" stroke="#424C5A" stroke-width="2" stroke-linecap="round" stroke-linejoin="round"/>
<path d="M17.2529 14.7701L14.8771 20.388C14.6653 20.889 14.6535 21.452 14.8444 21.9613L17.8966 30.1076C18.0216 30.4411 18.2285 30.738 18.4982 30.9707C18.7678 31.2035 19.0917 31.3647 19.44 31.4395L25.1323 32.663C25.4482 32.7309 25.7444 32.8699 25.9985 33.0694C26.2525 33.269 26.4577 33.5239 26.5985 33.8147L27.6094 35.903C27.7833 36.2624 28.055 36.5655 28.3933 36.7776C28.7316 36.9897 29.1228 37.1022 29.5221 37.1022H33.0901" stroke="#424C5A" stroke-width="2" stroke-linecap="round" stroke-linejoin="round"/>
<path d="M40.4967 9.3363L42.976 13.7771C43.2103 14.1969 43.2954 14.6838 43.2173 15.1582C43.1392 15.6327 42.9025 16.0666 42.5459 16.3891L35.3977 22.8537C35.2764 22.9634 35.1428 23.0588 34.9996 23.1378L31.7479 24.9336C31.4334 25.1073 31.0799 25.1984 30.7206 25.1984H25.0508C24.6326 25.1984 24.2238 25.3217 23.8755 25.553C23.5271 25.7842 23.2547 26.1131 23.0924 26.4984L20.8805 31.7494" stroke="#424C5A" stroke-width="2" stroke-linecap="round" stroke-linejoin="round"/>
</svg>
