<svg width="67" height="67" viewBox="0 0 67 67" fill="none" xmlns="http://www.w3.org/2000/svg">
<circle cx="33.5" cy="33.5" r="33.5" fill="#7CFCF4"/>
<path d="M45.9375 22.9375C47.5253 22.9375 48.8125 21.6503 48.8125 20.0625C48.8125 18.4747 47.5253 17.1875 45.9375 17.1875C44.3497 17.1875 43.0625 18.4747 43.0625 20.0625C43.0625 21.6503 44.3497 22.9375 45.9375 22.9375Z" stroke="#424C5A" stroke-width="2" stroke-linecap="round" stroke-linejoin="round"/>
<path d="M45.9375 17.1875V15.0312" stroke="#424C5A" stroke-width="2" stroke-linecap="round" stroke-linejoin="round"/>
<path d="M43.4477 18.625L41.5803 17.5469" stroke="#424C5A" stroke-width="2" stroke-linecap="round" stroke-linejoin="round"/>
<path d="M43.4477 21.5L41.5803 22.5781" stroke="#424C5A" stroke-width="2" stroke-linecap="round" stroke-linejoin="round"/>
<path d="M45.9375 22.9375V25.0938" stroke="#424C5A" stroke-width="2" stroke-linecap="round" stroke-linejoin="round"/>
<path d="M48.4273 21.5L50.2947 22.5781" stroke="#424C5A" stroke-width="2" stroke-linecap="round" stroke-linejoin="round"/>
<path d="M48.4273 18.625L50.2947 17.5469" stroke="#424C5A" stroke-width="2" stroke-linecap="round" stroke-linejoin="round"/>
<path d="M15.5684 48.8108C17.3357 45.7517 19.8769 43.2116 22.9368 41.4456C25.9966 39.6796 29.4673 38.75 33.0002 38.75C36.5331 38.75 40.0038 39.6798 43.0636 41.4458C46.1234 43.2119 48.6646 45.7521 50.4319 48.8112" stroke="#424C5A" stroke-width="2" stroke-linecap="round" stroke-linejoin="round"/>
<path d="M43.5345 31.8697C42.6741 33.8276 41.2847 35.5067 39.5223 36.7181C37.7599 37.9296 35.6946 38.6254 33.5584 38.7273C31.4222 38.8293 29.3 38.3333 27.4303 37.2951C25.5606 36.2569 24.0175 34.7178 22.9747 32.8507C21.9318 30.9836 21.4305 28.8626 21.527 26.7262C21.6236 24.5898 22.3142 22.5227 23.5212 20.7573C24.7283 18.9919 26.4039 17.5982 28.3596 16.7329C30.3153 15.8676 32.4737 15.5651 34.5919 15.8593" stroke="#424C5A" stroke-width="2" stroke-linecap="round" stroke-linejoin="round"/>
</svg>
