<?xml version="1.0" encoding="utf-8"?>
<!-- Generator: Adobe Illustrator 24.2.1, SVG Export Plug-In . SVG Version: 6.00 Build 0)  -->
<svg version="1.1" id="Capa_1" xmlns="http://www.w3.org/2000/svg" xmlns:xlink="http://www.w3.org/1999/xlink" x="0px" y="0px"
	 viewBox="0 0 70 70" style="enable-background:new 0 0 70 70;" xml:space="preserve">
<style type="text/css">
	.st0{fill-rule:evenodd;clip-rule:evenodd;}
</style>
<desc>Created with Sketch.</desc>
<g id="attention">
	<path id="Shape" class="st0" d="M49.4,22.2c0.2,0.5,0.7,0.7,1.3,0.7c0.2,0,0.6-0.1,0.8-0.2l13-8.1c0.7-0.5,0.9-1.3,0.5-2
		c-0.5-0.7-1.3-0.9-2-0.5l-13,8.1C49.2,20.7,48.9,21.7,49.4,22.2z M43.2,17.3c0.2,0.1,0.6,0.2,0.8,0.2c0.5,0,0.9-0.2,1.2-0.7L53.6,4
		c0.5-0.7,0.2-1.6-0.5-2c-0.7-0.5-1.6-0.2-2,0.5l-8.4,12.9C42.3,16,42.5,17,43.2,17.3z M68.6,27.4l-15.3-0.8c-0.8,0-1.5,0.6-1.5,1.4
		c0,0.8,0.6,1.5,1.4,1.5l15.3,0.8c0,0,0,0,0.1,0c0.8,0,1.4-0.6,1.4-1.4C70,28.2,69.4,27.5,68.6,27.4z M52,43.3l-0.1-0.5
		c-3.5-12-10.2-21.5-19.9-28.1c-3-2.1-5.8-2.6-8-1.4c-1.4,0.8-3,2.7-2.9,7.3c0.2,5-1.4,9.5-4.7,12.8c-3.9,4-8.2,7.5-12.6,11.1
		c-3.9,3.2-4.8,6.9-2.7,10.8C3.2,59,7.9,60.6,12,58.9c0.4-0.1,0.9-0.1,1.4-0.1h0.5c2.5-0.1,3.6,1.5,5.4,4c2,3,3.4,5,5.4,5.4
		c0.2,0,0.5,0.1,0.7,0.1c1.8,0,3.5-1.2,6.2-3l0.2-0.1c0.4-0.2,0.7-0.5,1.1-0.8c0.8-0.8,1.3-1.8,1.3-2.7c0-0.9-0.6-1.9-1.5-2.8
		l-0.7-0.6c-1.4-1.3-2.9-2.6-4-4c-1.4-1.8-1.3-2.3-1.3-2.3s0.2-0.6,2.7-1.2c4.4-1.2,9-0.8,14.4,1.2c3.6,1.4,5.7,0.6,6.8-0.4
		c1.2-0.9,2.3-2.9,1.6-6.9C52.1,44,52.1,43.7,52,43.3z M30,60.2l0.7,0.6c0.5,0.4,0.6,0.6,0.6,0.7c0,0-0.1,0.2-0.4,0.6
		c-0.1,0.1-0.4,0.2-0.6,0.4L30,62.6c-2.1,1.4-4,2.7-4.7,2.6c-0.8-0.1-2.1-2.1-3.5-4.1c-1.6-2.3-3.6-5.3-7.7-5.3h-0.6
		c-0.8,0-1.8,0-2.6,0.4c-2.7,1.2-5.8,0.1-7.1-2.3c-1.4-2.6-0.7-4.9,2-7c3-2.5,6-4.9,8.8-7.4c0.9,3.6,3.4,10.1,9.5,12
		c-0.1,1.5,0.9,3,1.9,4.3C26.9,57.5,28.5,58.9,30,60.2z M48.7,48.9c-0.7,0.6-2.1,0.6-4-0.1c-6-2.2-11.1-2.6-16.1-1.3
		c-1.2,0.4-2.3,0.7-3.3,1.3c-6.3-1.6-8.1-9.5-8.5-11.8c0.6-0.6,1.2-1.2,1.8-1.6c3.9-3.9,5.7-9,5.5-14.9c-0.1-2.5,0.4-4.1,1.4-4.6
		c1.1-0.6,2.9-0.1,4.9,1.3c9.1,6.2,15.4,15.1,18.7,26.4l0.1,0.4c0.1,0.2,0.1,0.6,0.1,0.8C49.6,46.8,49.4,48.3,48.7,48.9z M46,41.8
		c-1.3-8-9.9-19.5-16.5-22c-0.7-0.2-1.8,0-2.5,0.6c-0.7,0.6-0.9,1.5-0.6,2.5c2,6.3,9.1,18.5,15.4,22.5c0.4,0.2,1.3,0.8,2.2,0.8
		c0.4,0,0.8-0.1,1.2-0.4c1.3-0.9,0.9-2.7,0.7-3.6V41.8z M29.6,23.1c5.5,3,12.4,12.8,13.6,19.3l0.1,0.4C38,39.2,31.8,29.2,29.6,23.1z
		"/>
</g>
</svg>
