<?xml version="1.0" encoding="utf-8"?>
<!-- Generator: Adobe Illustrator 24.2.1, SVG Export Plug-In . SVG Version: 6.00 Build 0)  -->
<svg version="1.1" id="Capa_1" xmlns="http://www.w3.org/2000/svg" xmlns:xlink="http://www.w3.org/1999/xlink" x="0px" y="0px"
	 viewBox="0 0 70 70" style="enable-background:new 0 0 70 70;" xml:space="preserve">
<style type="text/css">
	.st0{fill-rule:evenodd;clip-rule:evenodd;}
</style>
<desc>Created with Sketch.</desc>
<g id="Ausencias">
	<path id="Shape" class="st0" d="M10.5,54.5c-0.7-0.3-1.5,0-1.8,0.7c-1.1,2.5-1.8,5.3-2.1,8.1C6.4,64,7,64.7,7.8,64.8h0.1
		c0.7,0,1.3-0.6,1.4-1.3c0.3-2.5,1-4.9,2-7.3C11.4,55.6,11.2,54.7,10.5,54.5z M42,4.8c2.1,1.3,3.8,2.9,5,5.2
		c0.3,0.4,0.7,0.7,1.3,0.7c0.3,0,0.4,0,0.7-0.1c0.7-0.4,1-1.3,0.6-2c-1.4-2.5-3.5-4.6-6-6.2c-0.7-0.4-1.5-0.1-2,0.4
		C41.1,3.5,41.4,4.3,42,4.8z M19.7,17.9L19.7,17.9c0.8,0,1.4-0.6,1.4-1.4c0-2.5,0.7-4.9,2-6.9c0.4-0.7,0.1-1.5-0.6-2
		c-0.7-0.4-1.5-0.1-2,0.6c-1.4,2.5-2.2,5.3-2.2,8.3C18.3,17.2,19,17.9,19.7,17.9z M27.4,4.8c0.3,0,0.4,0,0.7-0.1
		c2.1-1.1,4.3-1.8,6.9-1.8c0.8,0,1.5-0.6,1.5-1.4c0-0.7-0.7-1.4-1.4-1.4H35c-2.9,0-5.7,0.7-8.1,2.1c-0.7,0.4-1,1.3-0.6,2
		C26.4,4.5,27,4.8,27.4,4.8z M43.6,29.3c-0.4-0.7-1.3-1-2-0.6c-2.1,1.1-4.5,1.8-6.9,1.8h-0.1c-0.8,0-1.4,0.6-1.4,1.4
		c0,0.8,0.7,1.4,1.4,1.4c2.9,0,5.7-0.7,8.3-2.1C43.8,30.7,44.1,29.8,43.6,29.3z M48.8,16.8c0,2.4-0.7,4.8-2,6.9
		c-0.4,0.7-0.1,1.5,0.4,2c0.3,0.1,0.4,0.1,0.7,0.1c0.4,0,1-0.3,1.3-0.7c1.5-2.5,2.2-5.3,2.4-8.3c0-0.8-0.6-1.4-1.4-1.4l0,0
		C49.4,15.4,48.8,16,48.8,16.8z M42.5,41.7c2.4,0.7,4.8,1.8,6.9,3.2c0.3,0.1,0.6,0.3,0.8,0.3c0.4,0,0.8-0.3,1.1-0.6
		c0.4-0.7,0.3-1.5-0.4-2c-2.4-1.5-4.9-2.8-7.6-3.6c-0.7-0.3-1.5,0.1-1.8,1C41.3,40.9,41.8,41.4,42.5,41.7z M50.9,67.2h-8l0,0
		c-0.8,0-1.4,0.6-1.4,1.4s0.6,1.4,1.4,1.4h8l0,0c0.8,0,1.4-0.6,1.4-1.4S51.6,67.2,50.9,67.2z M60.2,57.4c0.1,0,0.4,0,0.6-0.1
		c0.7-0.3,1.1-1.1,0.7-1.8c-1.1-2.5-2.5-5-4.3-7.1c-0.4-0.6-1.4-0.7-2-0.1c-0.6,0.6-0.7,1.4-0.1,2c1.5,2,2.9,4.2,3.9,6.4
		C59,57,59.6,57.4,60.2,57.4z M18.9,67.2h-8c-0.8,0-1.4,0.6-1.4,1.4S10,70,10.9,70h8c0.8,0,1.4-0.6,1.4-1.4S19.7,67.2,18.9,67.2z
		 M35,37.8c-2.8,0-5.6,0.4-8.3,1.1c-0.7,0.3-1.1,1-1,1.7c0.1,0.6,0.7,1,1.4,1c0.1,0,0.3,0,0.4,0c2.4-0.7,4.9-1.1,7.4-1.1l0,0
		c0.8,0,1.4-0.6,1.4-1.4C36.4,38.2,35.8,37.8,35,37.8z M63.7,67.1c0-1.1,0-2.4-0.1-3.6c0-0.8-0.7-1.3-1.5-1.3s-1.4,0.7-1.3,1.5
		c0.1,1.1,0.1,2.2,0.1,3.4l0,0h-2l0,0c-0.8,0-1.4,0.6-1.4,1.4s0.6,1.4,1.4,1.4h2.2c1.5,0,2.5-0.8,2.5-2.5V67.1z M19.3,42.4
		C16.9,44,14.8,45.8,13,48c-0.6,0.6-0.4,1.5,0.1,2c0.3,0.3,0.6,0.3,0.8,0.3c0.4,0,0.8-0.1,1.1-0.6c1.7-2,3.5-3.6,5.6-5
		c0.7-0.4,0.8-1.3,0.4-2C20.7,42.3,19.8,42,19.3,42.4z M27.3,31.1c0.4,0,1-0.3,1.3-0.7c0.4-0.7,0.1-1.5-0.4-2
		c-2.1-1.3-3.8-3.1-5-5.2c-0.4-0.7-1.3-1-2-0.6c-0.7,0.4-0.8,1.3-0.6,2c1.4,2.5,3.5,4.6,6,6.2C26.7,31.1,27,31.1,27.3,31.1z
		 M34.8,67.2h-8l0,0c-0.8,0-1.4,0.6-1.4,1.4S26,70,26.8,70h8l0,0c0.8,0,1.4-0.6,1.4-1.4S35.7,67.2,34.8,67.2z"/>
</g>
</svg>
