<?xml version="1.0" encoding="utf-8"?>
<!-- Generator: Adobe Illustrator 24.2.1, SVG Export Plug-In . SVG Version: 6.00 Build 0)  -->
<svg version="1.1" id="Capa_1" xmlns="http://www.w3.org/2000/svg" xmlns:xlink="http://www.w3.org/1999/xlink" x="0px" y="0px"
	 viewBox="0 0 70 70" style="enable-background:new 0 0 70 70;" xml:space="preserve">
<style type="text/css">
	.st0{fill-rule:evenodd;clip-rule:evenodd;}
</style>
<desc>Created with Sketch.</desc>
<g id="Bonificaciones">
	<path id="Shape" class="st0" d="M33.1,48.3c-1-0.9-2.3-0.9-3.4,0.1c-0.1,0.1-0.2,0.2-0.4,0.2l-0.1,0.1c-0.5,0.4-1,0.5-1.5,0.2
		c-0.5-0.1-0.9-0.6-1-1.2v-0.2c0-0.2-0.1-0.5-0.1-0.7c-0.4-1.3-1.6-2.1-2.9-1.8c-0.4,0-0.7,0.2-1,0.2c-0.1,0-0.1,0.1-0.2,0.1
		c-0.7,0.2-1.5-0.1-1.8-0.7c-0.1-0.2-0.4-1-1.1-1.3l-1.5-0.7L10,62.6l4.3-0.2c1.5-0.1,2.8-0.1,4.3-0.2c1.5-0.1,1.5-0.1,2.6,1
		c0.2,0.2,0.5,0.5,0.6,0.7c0.2,0.2,0.4,0.4,0.6,0.6l4.8,5l2.3-5.8c1.6-4,3.2-8.1,4.9-12.1C34.9,49.9,33.5,48.7,33.1,48.3z
		 M26.4,62.6L25.9,64l-1.5-1.6c-0.1-0.2-0.4-0.4-0.5-0.6c-0.2-0.2-0.5-0.5-0.7-0.7c-1.5-1.6-2.1-2-3.6-2c-0.4,0-1,0-1.5,0.1
		c-1.2,0-2.5,0.1-3.7,0.2l4.7-11.6c1.1,0.7,2.6,1.1,3.9,0.6c0.1,0,0.2-0.1,0.5-0.1l0.1,0.4c0.4,1.6,1.5,2.9,2.9,3.4
		c1.5,0.5,3.1,0.2,4.3-0.7C29.5,55,27.9,58.8,26.4,62.6z M39.1,44.7L39.1,44.7L39.1,44.7c1.3,1,3.1,1.2,4.4,0.7
		c1.3-0.5,2.3-1.8,2.7-3.3c1.2,0.4,2.2,0.4,3.3,0c1.8-0.9,2.8-2.7,2.5-4.8h0.2c2.1-0.1,3.6-1.3,4-3.3c0.2-1.2-0.1-2.3-0.5-3.2
		c1.5-0.6,2.6-1.8,2.8-3.3c0.2-1.5-0.4-3.1-1.6-4c1.2-1.1,1.8-2.7,1.6-4c-0.2-1.5-1.3-2.6-2.9-3.3c0.9-1.5,0.9-3.1,0.1-4.4
		c-0.7-1.2-2.1-2.1-3.8-2.1c0.2-1.7-0.2-3.2-1.3-4.2S48,4.3,46.3,4.8c-0.4-1.7-1.3-2.9-2.7-3.4c-1.3-0.5-2.9-0.2-4.3,0.9
		C38.4,0.7,37.1,0,35.6,0l0,0c-1.5,0-2.8,0.9-3.7,2.2c-1.3-1.1-2.9-1.3-4.3-0.9c-1.3,0.5-2.5,1.7-2.7,3.4c-1.6-0.5-3.2-0.2-4.4,0.7
		c-1.1,1-1.6,2.5-1.3,4.2c-1.7,0.1-3.1,0.9-3.8,2.1c-0.7,1.2-0.7,2.8,0.1,4.4c-1.6,0.6-2.6,1.8-2.9,3.2c-0.2,1.5,0.2,2.9,1.6,4
		c-1.2,1-1.8,2.6-1.6,4c0.2,1.6,1.3,2.8,2.8,3.3c-0.4,0.7-0.7,1.8-0.5,2.9c0.2,1.6,1.3,3.4,4.3,3.6c0,0.2,0,0.4,0,0.5v0.1
		c0,1.5,0.6,2.8,1.7,3.7c1.1,0.9,2.6,1,4.2,0.5c0.4,1.6,1.3,2.9,2.7,3.4c1.3,0.5,2.9,0.2,4.3-0.7l0,0l0,0c0.9,1.3,2.2,2.2,3.7,2.2
		l0,0C36.9,47,38.3,46.2,39.1,44.7z M36.4,43.3c-0.2,0.5-0.6,0.7-1.1,0.7l0,0c-0.4,0-0.9-0.2-1.1-0.7c-0.5-0.7-1-1.6-2.1-1.8
		c-0.1,0-0.2,0-0.4,0c-0.9,0-1.6,0.5-2.2,1c-0.5,0.4-0.9,0.5-1.3,0.4c-0.4-0.1-0.7-0.6-0.7-1.1c-0.1-0.7-0.4-1.7-1.3-2.3
		c-0.9-0.5-1.8-0.2-2.6,0c-0.5,0.2-1.1,0.1-1.3-0.1c-0.4-0.2-0.5-0.7-0.5-1.1l0,0c0,0,0-0.1,0-0.2c0.1-0.6,0.4-1.7-0.4-2.6
		c-0.6-0.7-1.6-0.9-2.5-1c-1.1,0-1.2-0.4-1.3-1.1c0-0.2,0-0.6,0.4-1.2c0.2-0.4,0.7-1.5,0.4-2.5c-0.5-1.1-1.6-1.3-2-1.5
		c-0.7-0.2-1-0.6-1-1c-0.1-0.5,0.1-1,0.5-1.2c0.9-0.6,1.3-1.3,1.3-2.1c0.1-1.1-0.6-1.8-1.2-2.3c-0.5-0.5-0.9-1-0.7-1.3
		c0.1-0.4,0.5-0.7,1.2-1c0.4-0.1,1.5-0.5,1.8-1.6c0.4-1.1-0.1-2.1-0.4-2.5c-0.4-0.6-0.5-1.2-0.2-1.6c0.2-0.4,0.7-0.6,1.5-0.6
		c0.4,0,1.6,0,2.3-1C22.2,11,22,9.8,22,9.4c-0.1-0.6,0-1.2,0.4-1.5c0.4-0.2,0.9-0.2,1.5-0.1c0.6,0.2,1.6,0.5,2.6,0
		c0.9-0.5,1.2-1.5,1.3-2.2c0.1-0.6,0.4-1.1,0.9-1.2c0.4-0.1,0.9,0,1.3,0.5c0.6,0.5,1.5,1,2.5,0.9c1.1-0.2,1.7-1.2,2-1.7
		c0.4-0.5,0.7-0.9,1.1-0.9l0,0c0.4,0,0.9,0.4,1.1,0.9c0.4,0.7,1,1.5,2,1.7c1,0.2,1.8-0.4,2.5-0.9c0.5-0.4,1-0.6,1.3-0.4
		c0.4,0.1,0.7,0.6,0.9,1.2c0.1,0.7,0.4,1.6,1.3,2.2c0.9,0.5,1.8,0.2,2.6,0c0.6-0.2,1.2-0.2,1.5,0.1C49,8.3,49.1,8.9,49,9.6
		c-0.1,0.4-0.2,1.6,0.5,2.5s2,1,2.3,1c0.7,0,1.2,0.2,1.5,0.6c0.2,0.4,0.1,0.9-0.2,1.5c-0.4,0.6-0.7,1.5-0.4,2.5c0.4,1,1.2,1.5,2,1.7
		c0.6,0.2,1,0.6,1.1,1c0.1,0.4-0.1,0.9-0.7,1.3c-0.6,0.5-1.3,1.3-1.2,2.3c0.1,1,0.9,1.7,1.5,2.2c0.4,0.2,0.6,0.7,0.5,1.2
		c0,0.4-0.2,0.7-1,1c-0.7,0.2-1.6,0.6-2,1.5c-0.4,1,0,1.8,0.4,2.6c0.2,0.6,0.4,1,0.4,1.2c-0.1,0.6-0.5,0.9-1.2,1H52
		c-0.4,0-0.7,0-1.1,0.1c-0.7,0.1-2.3,0.9-1.8,3.4c0.1,0.4,0.1,1.2-0.6,1.5c-0.2,0.1-0.5,0.1-1.1-0.1c-0.5-0.1-1.6-0.6-2.6,0
		c-0.9,0.5-1.2,1.5-1.3,2.3c-0.1,0.6-0.4,1-0.7,1.1c-0.4,0.1-0.9,0-1.3-0.4c-0.7-0.5-1.6-1.1-2.6-1C37.6,41.6,36.9,42.4,36.4,43.3z
		 M35.7,22.6c-1.7-0.7-2.5-1.2-2.5-2.2c0-0.7,0.6-1.7,2.1-1.7c1.2,0,2.1,0.4,2.5,0.6l0.5-1.2c-0.6-0.4-1.3-0.6-2.6-0.7v-1.8h-1.2v2
		c-1.8,0.2-2.9,1.5-2.9,3.2c0,1.7,1.2,2.6,3.2,3.4c1.5,0.6,2.2,1.2,2.2,2.3c0,1.1-1,2-2.3,2c-1.1,0-2.1-0.4-2.8-0.9l-0.5,1.3
		c0.7,0.5,1.8,0.9,2.9,0.9v2h1.2v-2.1c2-0.4,3.1-1.7,3.1-3.3C38.8,24.4,37.8,23.4,35.7,22.6z M59.7,59.5c-0.4-0.9-0.7-1.7-1.1-2.6
		l-6.5-15.1l-1.6,2.5c-0.9,1.3-1.2,1.5-2.7,1c-0.4-0.1-1.3-0.5-2.3,0.1c-1,0.5-1.2,1.6-1.3,2c0,0.1-0.1,0.4-0.1,0.5
		c0,0.1-0.1,0.4-0.1,0.5c-0.2,0.6-0.7,1-1.3,1c-0.4,0-0.7-0.1-1.3-0.7c-1.1-1-2.3-1-3.4-0.2s-1.8,2.5-1.2,3.8L44.2,70l1.8-2.3
		c0.1-0.1,0.1-0.2,0.2-0.2l1.3-1.5c1-1.2,2.1-2.3,3.1-3.6c0.1-0.1,0.1-0.2,0.5-0.1c1.1,0.1,2.3,0.1,3.4,0.1c1.1,0,2.2,0.1,3.3,0.1
		c0.4,0,1.3,0.1,2-0.7C60.1,60.9,60.1,60.3,59.7,59.5z M54.7,59.1c-1.1,0-2.2-0.1-3.4-0.1c-1.2-0.1-2.2,0.4-2.9,1.2
		c-1,1.2-2,2.3-3.1,3.4L45,64l-5.5-13c0.7,0.6,1.7,1.2,3.1,1.2l0,0c2,0,3.7-1.3,4.3-3.2c0.1-0.2,0.1-0.5,0.2-0.7v-0.1
		c1.7,0.5,3.1,0.5,4.3-0.4l4.4,10.3c0.1,0.4,0.2,0.7,0.5,1C55.7,59.1,55.2,59.1,54.7,59.1z M51.9,23.5c0-4.4-1.7-8.6-4.8-11.6
		s-7.2-4.8-11.6-4.8l0,0c-9.1,0-16.5,7.4-16.5,16.4s7.4,16.5,16.4,16.5l0,0c4.4,0,8.5-1.7,11.6-4.8C50.2,32.1,51.9,28,51.9,23.5z
		 M35.5,36.9L35.5,36.9C27.9,36.9,22,31,22,23.4c0-7.4,6-13.4,13.5-13.4l0,0c3.6,0,7,1.3,9.4,3.9c2.6,2.6,3.9,5.9,3.9,9.6
		c0,3.6-1.3,7-3.9,9.4C42.3,35.6,39,36.9,35.5,36.9z"/>
</g>
</svg>
