<?xml version="1.0" encoding="utf-8"?>
<!-- Generator: Adobe Illustrator 24.2.1, SVG Export Plug-In . SVG Version: 6.00 Build 0)  -->
<svg version="1.1" id="Capa_1" xmlns="http://www.w3.org/2000/svg" xmlns:xlink="http://www.w3.org/1999/xlink" x="0px" y="0px"
	 viewBox="0 0 70 70" style="enable-background:new 0 0 70 70;" xml:space="preserve">
<style type="text/css">
	.st0{fill-rule:evenodd;clip-rule:evenodd;}
</style>
<desc>Created with Sketch.</desc>
<g id="card-rut">
	<path id="Shape" class="st0" d="M42.1,28.6c-0.6,0-1.1,0.4-1.1,1.1v9.6c0,0.6,0.4,1.1,1.1,1.1s1.1-0.4,1.1-1.1v-9.6
		C43.2,29,42.8,28.6,42.1,28.6z M45.2,28.6c-0.6,0-1.1,0.4-1.1,1.1v9.6c0,0.6,0.4,1.1,1.1,1.1s1.1-0.4,1.1-1.1v-9.6
		C46.3,29,45.7,28.6,45.2,28.6z M53.3,40.3c0.6,0,1.1-0.4,1.1-1.1v-9.6c0-0.6-0.4-1.1-1.1-1.1s-1.1,0.4-1.1,1.1v9.6
		C52.4,39.7,52.8,40.3,53.3,40.3z M17.9,18.7H4.4c-0.6,0-1.1,0.4-1.1,1.1c0,0.7,0.4,1.1,1.1,1.1h13.5c0.6,0,1.1-0.4,1.1-1.1
		C19.1,19.1,18.5,18.7,17.9,18.7z M65.3,14.2H4.7c-2.5,0-4.5,2-4.5,4.5v5.6c0,0.1-0.1,0.3-0.1,0.4c0,0.1,0,0.3,0.1,0.4v18.6
		C0.1,44,0,44.1,0,44.2c0,0.1,0,0.3,0.1,0.4v6.6c0,2.5,2,4.5,4.5,4.5h60.8c2.5,0,4.5-2,4.5-4.5V18.8C70,16.3,67.9,14.2,65.3,14.2z
		 M2.3,18.8c0-1.3,1.1-2.4,2.4-2.4h45.4v7.6L2.3,23.8V18.8z M2.3,25.9L33,26v17.2H2.3V25.9z M67.7,51.3c0,1.3-1.1,2.4-2.4,2.4H4.7
		c-1.3,0-2.4-1.1-2.4-2.4v-5.9h30.9c0.1,0.3,0.6,0.6,0.8,0.6c0.3,0,0.7-0.1,0.8-0.6h33v5.9H67.7z M67.7,43.3H35V26h15.1
		c0.1,0.3,0.6,0.6,1,0.6c0.4,0,0.7-0.3,1-0.6h15.8v17.2H67.7z M67.7,23.9H52.1v-7.6h13.3c1.3,0,2.4,1.1,2.4,2.4V23.9z M59,40.3
		c0.6,0,1.1-0.4,1.1-1.1v-9.6c0-0.6-0.4-1.1-1.1-1.1c-0.7,0-1.1,0.4-1.1,1.1v9.6C58,39.7,58.4,40.3,59,40.3z M56.5,40.3
		c0.6,0,1.1-0.4,1.1-1.1v-9.6c0-0.6-0.4-1.1-1.1-1.1s-1.1,0.4-1.1,1.1v9.6C55.5,39.7,55.9,40.3,56.5,40.3z M47.7,28.6
		c-0.6,0-1.1,0.4-1.1,1.1v9.6c0,0.6,0.4,1.1,1.1,1.1c0.7,0,1.1-0.4,1.1-1.1v-9.6C48.8,29,48.4,28.6,47.7,28.6z M50.8,28.6
		c-0.6,0-1.1,0.4-1.1,1.1v9.6c0,0.6,0.4,1.1,1.1,1.1c0.7,0,1.1-0.4,1.1-1.1v-9.6C51.9,29,51.4,28.6,50.8,28.6z M62.1,40.3
		c0.6,0,1.1-0.4,1.1-1.1v-9.6c0-0.6-0.4-1.1-1.1-1.1S61,28.9,61,29.6v9.6C61.1,39.7,61.5,40.3,62.1,40.3z"/>
</g>
</svg>
