<?xml version="1.0" encoding="utf-8"?>
<!-- Generator: Adobe Illustrator 24.2.1, SVG Export Plug-In . SVG Version: 6.00 Build 0)  -->
<svg version="1.1" id="Capa_1" xmlns="http://www.w3.org/2000/svg" xmlns:xlink="http://www.w3.org/1999/xlink" x="0px" y="0px"
	 viewBox="0 0 70 70" style="enable-background:new 0 0 70 70;" xml:space="preserve">
<style type="text/css">
	.st0{fill-rule:evenodd;clip-rule:evenodd;}
</style>
<desc>Created with Sketch.</desc>
<g id="chat">
	<path id="Shape" class="st0" d="M35.7,29.8c-2.5,0-4.6,2.1-4.6,4.6c0,2.4,2,4.5,4.5,4.5c2.5,0,4.6-2.1,4.6-4.5
		C40.2,31.9,38.2,29.8,35.7,29.8z M20.1,29.8c-2.5,0-4.6,2.1-4.6,4.6c0,2.4,2,4.5,4.5,4.5s4.5-2.1,4.6-4.5
		C24.6,31.9,22.7,29.8,20.1,29.8z M60,11.2C52.8,3.3,43.6-0.4,32.9,0C17.1,1,4.1,13,1.7,28.8c-1.3,8.7,0.5,17,5.4,24.3
		c0.9,1.4,1.4,2.8,1.4,4.5v7.8c0,2.3,1.3,3.8,3.4,4.5c0.1,0,0.3,0.1,0.6,0.1h0.9c0.1,0,0.3-0.1,0.5,0c1.1-0.3,2.3-0.7,3.3-1.2
		c1.7-0.7,3.5-1.4,5.5-2c1-0.5,2.3-0.5,3.5,0c2.9,0.7,5.9,1.2,9.5,1.2c7.8-0.2,14.6-2.8,20.5-7.7c7-5.8,11.2-13.1,12.2-22
		C69.8,28,66.9,18.8,60,11.2z M65.8,38.2c-1.1,8.2-4.9,14.9-11.4,20.2c-5.3,4.5-11.7,6.9-18.8,7.1c-3.3,0-6.1-0.5-8.8-1.1
		c-1.8-0.5-3.5-0.5-5.1,0c-1.9,0.6-3.8,1.4-5.6,2c-0.9,0.3-1.9,0.7-3,1h-0.5c0-0.1-0.1-0.1-0.3-0.1c-1-0.5-1.5-0.9-1.5-2.1v-7.8
		c0-2.2-0.5-4.1-1.7-5.9c-4.4-6.8-6.1-14.2-5-22.4C6.5,14.7,18.5,3.6,33,2.6c9.9-0.5,18.2,3,24.9,10.5
		C64.4,20.1,67.1,28.6,65.8,38.2z M51.3,29.8c-2.5,0-4.6,2.1-4.6,4.6c0,2.4,2,4.5,4.5,4.5c2.5,0,4.6-2,4.6-4.5S53.8,29.8,51.3,29.8z
		"/>
</g>
</svg>
