<?xml version="1.0" encoding="utf-8"?>
<!-- Generator: Adobe Illustrator 24.3.0, SVG Export Plug-In . SVG Version: 6.00 Build 0)  -->
<svg version="1.1" id="Capa_1" xmlns="http://www.w3.org/2000/svg" xmlns:xlink="http://www.w3.org/1999/xlink" x="0px" y="0px"
	 viewBox="0 0 70 70" style="enable-background:new 0 0 70 70;" xml:space="preserve">
<style type="text/css">
	.st0{fill-rule:evenodd;clip-rule:evenodd;}
</style>
<desc>Created with Sketch.</desc>
<path class="st0" d="M35.1,0C15.7,0,0,15.6,0,34.9S15.6,70,35.1,70S70,54.4,70,34.9S54.4,0,35.1,0z M33.2,54.1
	c-1.3,0-2.6-0.3-3.7-1.1l-16.1-10c-3.4-2.1-4.3-6.4-2.3-9.6c2.1-3.4,6.4-4.3,9.6-2.3l10.9,6.7l15.9-19.5c2.5-3,6.9-3.5,9.8-1
	c2.9,2.5,3.5,6.9,1,9.8L38.6,51.5C37.2,53.2,35.3,54.1,33.2,54.1z"/>
</svg>
