<?xml version="1.0" encoding="utf-8"?>
<!-- Generator: Adobe Illustrator 24.2.1, SVG Export Plug-In . SVG Version: 6.00 Build 0)  -->
<svg version="1.1" id="Capa_1" xmlns="http://www.w3.org/2000/svg" xmlns:xlink="http://www.w3.org/1999/xlink" x="0px" y="0px"
	 viewBox="0 0 70 70" style="enable-background:new 0 0 70 70;" xml:space="preserve">
<style type="text/css">
	.st0{fill-rule:evenodd;clip-rule:evenodd;}
</style>
<desc>Created with Sketch.</desc>
<g id="Dias-trabajados">
	<path id="Shape" class="st0" d="M38.4,46.7c-1.8,0-3.3,1.5-3.3,3.3c0,1.8,1.5,3.3,3.3,3.3c1.8,0,3.3-1.5,3.3-3.3
		C41.7,48.2,40.3,46.7,38.4,46.7z M25.8,36.6c-2.1,0-3.9,1.8-3.9,3.9s1.8,3.9,3.9,3.9c2.1,0,3.9-1.8,3.9-3.9S27.9,36.6,25.8,36.6z
		 M25.8,43.1c-1.5,0-2.6-1.1-2.6-2.6c0-1.5,1.1-2.6,2.6-2.6c1.5,0,2.6,1.1,2.6,2.6C28.4,41.9,27.3,43.1,25.8,43.1z M25.8,46.7
		c-1.8,0-3.3,1.5-3.3,3.3c0,1.8,1.5,3.3,3.3,3.3s3.3-1.5,3.3-3.3C29.1,48.2,27.7,46.7,25.8,46.7z M63.5,64.9c-0.8,0-1.3,0.5-1.3,1.3
		v0.5c0,0.5-0.4,0.9-0.9,0.9H10.6c-3.6,0-6.6-3-6.6-6.6V17.2c0-0.6,0.5-1,1-1h0.5c0.8,0,1.3-0.5,1.3-1.3c0-0.8-0.5-1.3-1.3-1.3H5
		c-2,0-3.5,1.6-3.5,3.5v43.7c0,5,4.1,9.1,9.1,9.1h50.7c1.9,0,3.4-1.5,3.4-3.4v-0.5C64.7,65.5,64.2,64.9,63.5,64.9z M25.8,34.2
		c1.8,0,3.3-1.5,3.3-3.3c0-1.8-1.5-3.3-3.3-3.3s-3.3,1.5-3.3,3.3C22.5,32.7,24,34.2,25.8,34.2z M51.1,46.1c-2.1,0-3.9,1.8-3.9,3.9
		c0,2.1,1.8,3.9,3.9,3.9c2.1,0,3.9-1.8,3.9-3.9C55,47.8,53.2,46.1,51.1,46.1z M51.1,52.6c-1.5,0-2.6-1.1-2.6-2.6
		c0-1.5,1.1-2.6,2.6-2.6c1.5,0,2.6,1.1,2.6,2.6C53.7,51.5,52.6,52.6,51.1,52.6z M51.1,26.8c-2.1,0-3.9,1.8-3.9,3.9s1.8,3.9,3.9,3.9
		c2.1,0,3.9-1.8,3.9-3.9S53.2,26.8,51.1,26.8z M51.1,33.3c-1.5,0-2.6-1.1-2.6-2.6c0-1.5,1.1-2.6,2.6-2.6c1.5,0,2.6,1.1,2.6,2.6
		C53.7,32.2,52.6,33.3,51.1,33.3z M51.1,36.6c-2.1,0-3.9,1.8-3.9,3.9s1.8,3.9,3.9,3.9c2.1,0,3.9-1.8,3.9-3.9S53.2,36.6,51.1,36.6z
		 M51.1,43.1c-1.5,0-2.6-1.1-2.6-2.6c0-1.5,1.1-2.6,2.6-2.6c1.5,0,2.6,1.1,2.6,2.6C53.7,41.9,52.6,43.1,51.1,43.1z M38.4,27.7
		c-1.8,0-3.3,1.5-3.3,3.3c0,1.8,1.5,3.3,3.3,3.3c1.8,0,3.3-1.5,3.3-3.3C41.7,29.2,40.3,27.7,38.4,27.7z M38.4,37.2
		c-1.8,0-3.3,1.5-3.3,3.3s1.5,3.3,3.3,3.3c1.8,0,3.3-1.5,3.3-3.3S40.3,37.2,38.4,37.2z M61.4,8.5h-8.8V1.9c0-1-0.9-1.9-1.9-1.9
		c-1,0-1.9,0.9-1.9,1.9v6.6H27.7V1.9c0-1-0.9-1.9-1.9-1.9c-1,0-1.9,0.9-1.9,1.9v6.6h-8.3c-4,0-7.1,3.3-7.1,7.1v40.8
		c0,4,3.3,7.1,7.1,7.1h45.7c4,0,7.1-3.3,7.1-7.1V15.8C68.5,11.8,65.4,8.5,61.4,8.5z M66,56.6c0,2.6-2.1,4.6-4.6,4.6H15.7
		c-2.6,0-4.6-2.1-4.6-4.6V15.8c0-2.6,2.1-4.6,4.6-4.6H24v8.6c0,1,0.9,1.9,1.9,1.9s1.9-0.9,1.9-1.9V11h21v8.6c0,1,0.9,1.9,1.9,1.9
		c1,0,1.9-0.9,1.9-1.9V11h8.8c2.6,0,4.6,2.1,4.6,4.6V56.6z"/>
</g>
</svg>
