<?xml version="1.0" encoding="utf-8"?>
<!-- Generator: Adobe Illustrator 24.2.1, SVG Export Plug-In . SVG Version: 6.00 Build 0)  -->
<svg version="1.1" id="Capa_1" xmlns="http://www.w3.org/2000/svg" xmlns:xlink="http://www.w3.org/1999/xlink" x="0px" y="0px"
	 viewBox="0 0 70 70" style="enable-background:new 0 0 70 70;" xml:space="preserve">
<style type="text/css">
	.st0{fill-rule:evenodd;clip-rule:evenodd;}
</style>
<desc>Created with Sketch.</desc>
<g id="flag">
	<path id="Shape" class="st0" d="M10.9,6.5c0.1,0,0.3,0,0.3,0c0.7-0.1,1-0.9,0.9-1.6c-0.3-0.9,0.3-2,1.3-2.4c0.4-0.1,0.9-0.1,1.1,0
		c0.4,0.1,0.9,0.7,1.1,1.3c0.3,0.6,1,1,1.6,0.7c0.6-0.3,1-1,0.7-1.6c-0.4-1.1-1.3-2.2-2.4-2.6c-1-0.4-2.2-0.4-3,0
		c-2,0.9-3.3,3.3-2.6,5.3C9.8,6.2,10.4,6.5,10.9,6.5z M60.5,31.4L49,22.7L51.3,11c0.1-0.4,0-0.9-0.3-1.1c-0.3-0.3-0.7-0.4-1.1-0.3
		c-6,1.1-9.6,1.4-14.2,1.7l-1.3-5.5c-0.1-0.6-0.6-0.9-1.1-1C20.6,4.3,15.7,5.6,9.6,8.7c-0.6,0.3-0.7,0.9-0.6,1.4
		c0,0.1,0.1,0.3,0.1,0.4v24.4c-0.1,0.1-0.3,0.4-0.3,0.7v30c0,2.4,1.9,4.3,4.3,4.3s4.3-1.9,4.3-4.3V34.5c4.7-1.3,8.9-1.9,13.8-1.7
		l2.3,4.5c0.1,0.4,0.6,0.7,1.1,0.7c3.6,0,14.5,0,25.6-4.5c0.4-0.1,0.7-0.6,0.7-1S60.9,31.6,60.5,31.4z M15.1,65.5
		c0,1-0.7,1.9-1.9,1.9c-1.1,0-1.9-0.7-1.9-1.9V36.4c0.1,0,0.3-0.1,0.4-0.1c1-0.3,2.2-0.6,3.2-0.7v30H15.1z M11.7,33.8V10.4
		c5.2-2.4,9.6-3.4,20.5-3.2l1.1,4.9c0,0.1-0.1,0.3,0,0.4c0,0.3,0.1,0.6,0.3,0.7l4,17.7C27.6,29.5,21,30.8,11.7,33.8z M35.4,35.5
		l-1.3-2.4c1.6,0.1,3.2,0.3,4.9,0.6c0.4,0,0.9-0.1,1.1-0.4c0.3-0.3,0.4-0.7,0.3-1.1l-4.3-18.5c4-0.1,7.3-0.4,12.4-1.3l-2,10.8
		c-0.1,0.4,0.1,0.9,0.4,1.1l10.3,7.8C48,35.2,39.2,35.5,35.4,35.5z"/>
</g>
</svg>
