<?xml version="1.0" encoding="utf-8"?>
<!-- Generator: Adobe Illustrator 24.2.1, SVG Export Plug-In . SVG Version: 6.00 Build 0)  -->
<svg version="1.1" id="Capa_1" xmlns="http://www.w3.org/2000/svg" xmlns:xlink="http://www.w3.org/1999/xlink" x="0px" y="0px"
	 viewBox="0 0 70 70" style="enable-background:new 0 0 70 70;" xml:space="preserve">
<style type="text/css">
	.st0{fill-rule:evenodd;clip-rule:evenodd;}
</style>
<desc>Created with Sketch.</desc>
<g id="heart-two">
	<path id="Shape" class="st0" d="M65.9,26.3c-3.8-3.8-10.5-5.6-18,0.4c-6.4-4.8-11.3-4.5-14.4-3.3c-3.8,1.5-6.7,5.3-7.5,9.9
		c-0.8,4.9,1,9.7,4.6,12.5c0.8,0.7,1.8,1.5,2.7,2.5c-0.5-0.4-1.4-0.3-1.9,0.1l-3.4,3c-3.3-2.5-13.2-10.1-21.6-19.6
		c-5-5.6-3.4-13.7,1-18.1c5-5,12.3-4.2,19.3,2c0.7,0.5,1.6,0.5,2.3,0c6.3-6,11.8-5.9,15.5-4.6c5.2,1.8,8.6,6.3,9,9.7
		c0.1,1,1.1,1.6,1.9,1.5c1-0.1,1.6-1,1.5-1.9C56.1,15.2,51.3,10,45.6,8.1C42,6.9,35.2,5.9,27.7,12.4C18.2,4.7,9.8,6.7,5,11.6
		c-5.4,5.4-7.4,15.8-1.1,22.9c10.5,11.7,23.1,20.7,23.3,20.8c0.3,0.3,0.7,0.3,1,0.3c0.4,0,0.8-0.1,1.1-0.4l4.5-3.7
		c0.7-0.5,0.8-1.5,0.3-2.3c5.3,5,12.7,12.9,12.7,13.1c0.3,0.4,0.8,0.5,1.2,0.5c0.4,0,0.8-0.1,1.1-0.4c0.5-0.5,13.5-12.3,18.2-18.2
		C71.8,38.8,70.2,30.8,65.9,26.3z M64.8,41.7C61,46.5,51.4,55.5,48,58.6c-3-3.3-11.2-11.7-15.1-15.1c-2.7-2.2-3.9-5.7-3.4-9.4
		c0.5-3.4,2.6-6.3,5.3-7.4c0.8-0.3,1.8-0.5,2.7-0.5c2.9,0,6.1,1.4,9.4,4.1c0.7,0.5,1.6,0.5,2.2,0c5.2-4.8,10.5-5.3,14.3-1.5
		C66.7,32,68,38,64.8,41.7z"/>
</g>
</svg>
