<?xml version="1.0" encoding="utf-8"?>
<!-- Generator: Adobe Illustrator 24.2.1, SVG Export Plug-In . SVG Version: 6.00 Build 0)  -->
<svg version="1.1" id="Capa_1" xmlns="http://www.w3.org/2000/svg" xmlns:xlink="http://www.w3.org/1999/xlink" x="0px" y="0px"
	 viewBox="0 0 70 70" style="enable-background:new 0 0 70 70;" xml:space="preserve">
<style type="text/css">
	.st0{fill-rule:evenodd;clip-rule:evenodd;}
</style>
<desc>Created with Sketch.</desc>
<g id="Licencias">
	<path id="Shape" class="st0" d="M29.5,21.3c0-2.1-0.5-4.4-1.5-6.3c-0.4-0.8-1.5-1.2-2.3-0.8c-0.8,0.4-1.2,1.5-0.8,2.3
		c0.7,1.5,1.1,3.1,1.1,4.8c0,6.3-5.1,11.5-11.5,11.5c-6.1,0-11.2-4.9-11.5-10.9c0-0.1,0.1-0.3,0.1-0.4c0-6.3,5.1-11.5,11.5-11.5
		c1.1,0,2,0.1,3.1,0.4l0,0c-0.9,0.1-1.5,1.1-1.3,2c0.1,0.4,0.3,0.8,0.7,1.1c0.3,0.3,0.7,0.4,1.1,0.4c0.1,0,0.1,0,0.3,0l4.7-0.8
		c0.4-0.1,0.9-0.4,1.1-0.8c0.1-0.3,0.3-0.7,0.3-0.9c0-0.4,0-0.7-0.1-0.9l-1.1-3.9c-0.1-0.4-0.4-0.8-0.8-1.1
		c-0.4-0.3-0.8-0.3-1.3-0.1c-0.9,0.3-1.3,1.2-1.2,2L20,7.7c-1.6-0.7-3.3-0.9-5.2-0.9c-7.9,0-14.4,6.3-14.7,14C0,21,0,21.1,0,21.4
		c0,8.1,6.7,14.8,14.8,14.8C22.9,35.9,29.5,29.4,29.5,21.3z M29.1,61.4h-3.9l0,0c0-0.5,0-0.9,0-1.5c0-0.9-0.7-1.7-1.6-1.7
		c-0.9,0-1.7,0.7-1.7,1.6c0,0.5,0,1.2,0,1.7c0,0.3,0,0.5,0,0.8c0,1.2,0.5,2.7,2.8,2.7h4.3c0.9,0,1.6-0.8,1.6-1.6
		C30.5,62.6,30,61.4,29.1,61.4z M12.8,12.6v8.5l-5.9,5.2c-0.7,0.7-0.8,1.7-0.1,2.4c0.3,0.4,0.8,0.5,1.2,0.5c0.4,0,0.8-0.1,1.1-0.4
		l6.4-5.7c0.4-0.3,0.5-0.8,0.5-1.2v-9.3c0-0.9-0.8-1.6-1.6-1.6C13.6,11,12.8,11.7,12.8,12.6z M45.9,33.4c0.9,0,1.6-0.8,1.6-1.6
		c0-0.9-0.8-1.6-1.7-1.7c-2.3,0-4.5-0.8-6.3-2.1c-0.8-0.5-1.7-0.4-2.4,0.4c-0.5,0.8-0.4,1.7,0.4,2.4C40,32.3,42.8,33.4,45.9,33.4z
		 M56.4,15.9c0.3,0.7,0.9,1.2,1.6,1.2c0.1,0,0.3,0,0.5-0.1c0.9-0.3,1.3-1.2,1.1-2.1c-0.9-2.9-2.7-5.3-5.1-7.2
		c-0.8-0.5-1.7-0.4-2.4,0.4c-0.5,0.8-0.4,1.7,0.4,2.3C54.4,11.8,55.7,13.7,56.4,15.9z M38.8,10.6c0.4,0,0.7-0.1,0.9-0.3
		c1.9-1.3,4-2,6.4-2h0.1V5h-0.1c-2.9,0-5.9,0.9-8.3,2.7c-0.8,0.5-0.9,1.6-0.4,2.3C37.7,10.3,38.3,10.6,38.8,10.6z M29.6,43.7
		c-2.3,2.1-4,4.5-5.3,7.3c-0.4,0.8,0,1.9,0.8,2.3c0.3,0.1,0.5,0.1,0.7,0.1c0.7,0,1.2-0.4,1.5-0.9c1.2-2.4,2.7-4.5,4.7-6.3
		c0.7-0.7,0.7-1.7,0.1-2.4C31.3,43.1,30.3,43,29.6,43.7z M54.3,30.7c2.4-1.7,4.3-4.3,5.2-7.1c0.3-0.9-0.1-1.9-1.1-2.1
		c-0.9-0.3-1.9,0.1-2.1,1.1c-0.7,2.1-2.1,4-4,5.3c-0.8,0.5-0.9,1.6-0.4,2.3c0.3,0.4,0.8,0.7,1.3,0.7C53.6,31,54,31,54.3,30.7z
		 M53.7,42.1c2.4,0.9,4.7,2.4,6.5,4.3c0.3,0.3,0.8,0.4,1.2,0.4c0.4,0,0.9-0.1,1.2-0.5c0.7-0.7,0.7-1.7,0-2.4
		c-2.3-2.1-4.8-3.7-7.6-4.9c-0.8-0.4-1.9,0.1-2.1,0.9C52.7,40.6,52.9,41.7,53.7,42.1z M62.8,61.4h-8.4l0,0c-0.9,0-1.6,0.8-1.6,1.6
		s0.8,1.6,1.6,1.7h8.4l0,0c0.9,0,1.6-0.8,1.6-1.6C64.5,62.2,63.7,61.4,62.8,61.4z M69.7,56.9c-0.4-2-1.1-3.9-1.9-5.7
		c-0.4-0.8-1.3-1.2-2.3-0.8c-0.8,0.4-1.2,1.3-0.8,2.3c0.8,1.6,1.3,3.2,1.6,4.9c0.1,0.8,0.3,1.6,0.3,2.5s0.8,1.6,1.6,1.6
		c0,0,0,0,0.1,0c0.9,0,1.6-0.8,1.6-1.7C70,58.7,69.9,57.8,69.7,56.9z M34.7,13.5c-0.9-0.3-1.9,0.1-2.1,1.1c-0.5,1.5-0.7,2.9-0.7,4.4
		v0.1c0,1.5,0.3,2.8,0.7,4.3c0.3,0.7,0.9,1.2,1.6,1.2c0.1,0,0.4,0,0.5-0.1c0.9-0.3,1.3-1.2,1.1-2.1c-0.3-1.1-0.5-2.1-0.5-3.3
		s0.3-2.3,0.5-3.3C36,14.9,35.5,13.9,34.7,13.5z M46,61.4h-8.4l0,0c-0.9,0-1.6,0.8-1.6,1.6c0,0.9,0.8,1.7,1.6,1.7H46l0,0
		c0.9,0,1.6-0.8,1.6-1.6C47.6,62.2,46.9,61.4,46,61.4z M46,37.1c-3.1,0-6,0.5-8.8,1.6c-0.8,0.4-1.3,1.3-0.9,2.1
		c0.3,0.7,0.9,1.1,1.6,1.1c0.3,0,0.4,0,0.7-0.1c2.4-0.9,4.9-1.5,7.6-1.5l0,0c0.9,0,1.6-0.8,1.6-1.6C47.7,37.9,46.9,37.1,46,37.1z"/>
</g>
</svg>
