<?xml version="1.0" encoding="utf-8"?>
<!-- Generator: Adobe Illustrator 24.2.1, SVG Export Plug-In . SVG Version: 6.00 Build 0)  -->
<svg version="1.1" id="Capa_1" xmlns="http://www.w3.org/2000/svg" xmlns:xlink="http://www.w3.org/1999/xlink" x="0px" y="0px"
	 viewBox="0 0 70 70" style="enable-background:new 0 0 70 70;" xml:space="preserve">
<style type="text/css">
	.st0{fill-rule:evenodd;clip-rule:evenodd;}
</style>
<desc>Created with Sketch.</desc>
<g id="money">
	<path id="Shape" class="st0" d="M67.1,27.6L63.6,7.1c-0.4-2.4-2.7-3.8-5-3.5l-55,9.1c-2.4,0.4-3.9,2.5-3.5,5l5.2,31.7
		c0,0.3,0.1,0.4,0.3,0.6v12.1c0,2.5,1.8,4.3,4.3,4.3h55.8c2.2,0,4.3-2.1,4.3-4.6v-30C70,29.7,68.9,28.2,67.1,27.6z M59,6.5
		c1-0.1,1.7,0.6,1.8,1.1l1.3,7.7c-0.1,0-0.3,0-0.3,0c-5.2,0.7-10-2.5-11-7.4L59,6.5z M2.9,17.4c-0.1-0.6-0.1-1.7,1.1-1.8l7.7-1.3
		c0.6,5.2-2.7,9.8-7.5,10.9L2.9,17.4z M5.7,31.8V34l-1-6.3c6.4-1.3,10.7-7.4,9.9-14.1l33.5-5.4c1.1,5.7,6.4,9.9,12.4,9.9
		c0.6,0,1.3,0,1.8-0.1c0.1,0,0.3-0.1,0.4-0.1l1.5,9.6H47.5c0-0.4-0.1-0.8-0.1-1.3c0-0.3-0.1-0.6-0.1-0.7c0-0.1,0-0.1,0-0.3
		c-0.7-3.6-2.7-6.8-5.6-8.9c-2.8-2-6.3-2.8-9.8-2.1c-6.4,1.3-11.2,7-11,13.3h-11C7.3,27.5,5.7,29.3,5.7,31.8z M36.8,24.7
		c-0.7-1.4-1.8-2-2.7-2L34,21.9c0-0.3-0.3-0.4-0.6-0.4S33,21.8,33,22l0.1,0.8c-1.1,0.4-1.8,1.5-1.7,2.7c0.3,1.3,1.1,1.7,2.1,2H23.5
		c-0.1-5,3.6-9.5,8.8-10.6c2.7-0.4,5.3,0.1,7.5,1.7c2.4,1.7,3.9,4,4.5,7c0,0.4,0.1,0.8,0.1,1.1c0,0.3,0.1,0.6,0.1,0.7h-8.2
		c0-0.1-0.1-0.4-0.3-0.4c-0.3-0.1-0.7-0.3-1-0.3l-0.6-2.9c0.6,0.1,1.1,0.6,1.5,1.3c0.1,0.3,0.4,0.4,0.7,0.3
		C36.8,25.2,36.9,25,36.8,24.7z M33.8,26.5c-0.7-0.1-1.3-0.4-1.3-1.1c-0.1-0.7,0.3-1.1,0.8-1.4L33.8,26.5z M16.5,30.3
		c-0.6,4.2-3.9,7.5-8.1,8.1v-6.7c0-1,0.6-1.5,1.5-1.5h6.6V30.3z M9.8,63.8c-1,0-1.5-0.6-1.5-1.5v-6.7c4.2,0.6,7.5,3.9,8.1,8.1H9.8
		V63.8z M67.2,62.1c0,1-0.8,1.8-1.5,1.8H59c0.6-4.2,3.9-7.5,8.1-8.1v6.3H67.2z M67.2,52.9c-5.7,0.7-10.3,5.2-11,11H19.3
		c-0.7-5.7-5.2-10.3-11-11V41.3c5.7-0.7,10.3-5.2,11-11h36.8c0.7,5.7,5.2,10.3,11,11V52.9z M67.2,38.4c-4.2-0.6-7.5-3.9-8.1-8.1h6.6
		c1,0,1.5,0.6,1.5,1.5V38.4z M38.6,46.9v-3.2c0.6,0.1,1,0.7,1.3,1.7l1-0.3c-0.4-1.5-1.4-2.2-2.4-2.4V42h-1.1v0.7
		c-1.3,0.3-2.1,1.3-2.1,2.5c0,1.4,1,2,2.1,2.4V50c-0.4-0.3-0.8-0.7-1-1.4l-1,0.3c0.4,1.3,1.1,2.1,2,2.4v2h1.1v-1.7
		c0.1,0,0.3,0,0.4,0c1.3-0.3,2-1.3,1.8-2.4C40.5,47.7,39.6,47.2,38.6,46.9z M37.6,46.5c-0.6-0.3-1-0.7-1-1.3c0-0.7,0.4-1.3,1-1.4
		V46.5z M38.9,50.2c-0.1,0-0.1,0-0.3,0V48c0.6,0.3,1.1,0.6,1.3,1.1C40,49.7,39.4,50.1,38.9,50.2z M37.8,33.9
		c-7.4,0-13.3,6-13.3,13.3c0,7.4,6,13.3,13.3,13.3c7.4,0,13.3-6,13.3-13.3C51.2,39.9,45.2,33.9,37.8,33.9z M37.8,57.8
		c-5.9,0-10.5-4.7-10.5-10.5c0-5.7,4.7-10.5,10.5-10.5c5.7,0,10.5,4.7,10.5,10.5C48.2,53,43.6,57.8,37.8,57.8z"/>
</g>
</svg>
