<?xml version="1.0" encoding="utf-8"?>
<!-- Generator: Adobe Illustrator 24.2.1, SVG Export Plug-In . SVG Version: 6.00 Build 0)  -->
<svg version="1.1" id="Capa_1" xmlns="http://www.w3.org/2000/svg" xmlns:xlink="http://www.w3.org/1999/xlink" x="0px" y="0px"
	 viewBox="0 0 70 70" style="enable-background:new 0 0 70 70;" xml:space="preserve">
<style type="text/css">
	.st0{fill-rule:evenodd;clip-rule:evenodd;}
</style>
<desc>Created with Sketch.</desc>
<g id="screen">
	<path id="Shape" class="st0" d="M63.8,4.2H6.2C2.3,4.2,0,7.5,0,10.5v38.9c0,3.9,3.3,6.2,6.2,6.2h21.2v1.6h-5.6
		c-2.2,0-4.2,2-4.2,4.2v2.8c0,0.9,0.6,1.6,1.6,1.6h32.7c0.9,0,1.6-0.6,1.6-1.6v-2.8v-0.2c-0.3-2.2-2.3-4.1-4.5-4.1h-5.3v-1.6h20.2
		c3.7,0,6.2-3.1,6.2-6.1V10.5C70,6.6,66.7,4.2,63.8,4.2z M48.7,60.3c0.8,0,1.4,0.6,1.6,1.1v1.1H20.8v-1.2c0-0.5,0.6-1.1,1.1-1.1h5.9
		c1.4,0,2.8-1.2,2.8-2.8v-1.9h9.8v1.9c0,1.4,1.2,2.8,2.8,2.8h5.5V60.3z M66.1,49.5c0,0.9-0.8,2.2-2.3,2.2H6.2
		c-1.1,0-2.3-0.9-2.3-2.3v-1.9h62.3v2H66.1z M66.1,44.4H3.9V10.5c0-1.1,0.9-2.3,2.3-2.3h57.5c1.1,0,2.3,0.9,2.3,2.3V44.4z"/>
</g>
</svg>
