<?xml version="1.0" encoding="utf-8"?>
<!-- Generator: Adobe Illustrator 24.2.1, SVG Export Plug-In . SVG Version: 6.00 Build 0)  -->
<svg version="1.1" id="Capa_1" xmlns="http://www.w3.org/2000/svg" xmlns:xlink="http://www.w3.org/1999/xlink" x="0px" y="0px"
	 viewBox="0 0 70 70" style="enable-background:new 0 0 70 70;" xml:space="preserve">
<style type="text/css">
	.st0{fill-rule:evenodd;clip-rule:evenodd;}
</style>
<desc>Created with Sketch.</desc>
<g id="send">
	<path id="Shape" class="st0" d="M68.9,32.7L2.9,1.3C2.3,1,1.7,1,1.1,1.5C0.5,1.9,0.2,2.4,0.2,3.2v22.4c0,0.8,0.3,1.4,0.9,1.7
		l13.1,7.3L0.9,42.9C0.3,43.2,0,43.8,0,44.5v22.4c0,0.6,0.3,1.2,0.9,1.7c0.3,0.2,0.6,0.3,1.1,0.3c0.3,0,0.6,0,0.9-0.2l66-32.4
		c0.6-0.3,1.1-1.1,1.1-1.7C70.1,33.6,69.7,33,68.9,32.7z M4,24.5V6.1l55.7,26.3H18.6L4,24.5z M4,63.7V45.4l14.6-9.1h41.4L4,63.7z"/>
</g>
</svg>
