<?xml version="1.0" encoding="utf-8"?>
<!-- Generator: Adobe Illustrator 24.2.1, SVG Export Plug-In . SVG Version: 6.00 Build 0)  -->
<svg version="1.1" id="Capa_1" xmlns="http://www.w3.org/2000/svg" xmlns:xlink="http://www.w3.org/1999/xlink" x="0px" y="0px"
	 viewBox="0 0 70 70" style="enable-background:new 0 0 70 70;" xml:space="preserve">
<style type="text/css">
	.st0{fill-rule:evenodd;clip-rule:evenodd;}
</style>
<desc>Created with Sketch.</desc>
<g id="star-spiral">
	<path id="Shape" class="st0" d="M47.3,31.1l-7.4-1.3l-3.4-6.6c-0.3-0.5-0.8-0.9-1.5-0.9c-0.7,0-1.2,0.4-1.5,0.9l-3.2,6.6l-7.5,1.3
		c-0.7,0.1-1.1,0.5-1.3,1.2c-0.1,0.7,0,1.2,0.4,1.7l5.4,5.1l-1.2,7.4c-0.1,0.7,0.1,1.2,0.7,1.6c0.5,0.4,1.2,0.4,1.7,0.1l6.6-3.8
		l6.6,3.5c0.3,0.1,0.5,0.1,0.8,0.1c0.4,0,0.7-0.1,0.9-0.3c0.5-0.4,0.8-1.1,0.7-1.6l-1.2-7.4l5.4-5.1c0.4-0.4,0.7-1.1,0.4-1.7
		C48.5,31.7,48,31.1,47.3,31.1z M39.9,37.2c-0.4,0.4-0.5,0.9-0.5,1.5l0.8,4.8l-4.3-2.3c-0.5-0.3-1.1-0.3-1.6,0L30,43.5l0.8-4.8
		c0.1-0.5-0.1-1.1-0.5-1.5l-3.5-3.4l5-0.8c0.5-0.1,0.9-0.4,1.2-0.9l2.1-4.4l2.1,4.4c0.3,0.5,0.7,0.8,1.2,0.9l5,0.8L39.9,37.2z
		 M68.9,37.8C69.7,37,70.1,36,70,35c-0.1-0.8-0.5-1.6-1.1-2l-4.6-5.6c0-0.1-0.1-0.1-0.1-0.3c0,0,0,0,0-0.1l1.7-6.3
		c0.4-1.9-0.4-3.5-2.3-4.4c-0.1,0-0.1-0.1-0.3-0.1l-7.2-2.3c-0.1-0.1-0.4-0.3-0.5-0.5L54,7c-0.5-2-2.5-3.2-4.7-2.7L43.4,6h-0.1
		c-0.1,0-0.3,0-0.4-0.1l-5.1-4.4c-1.5-1.5-3.6-1.5-5.2,0l-5.2,4.7c-0.1,0-0.1,0.1-0.3,0.1h-0.1L20.5,5c-2-0.5-4,0.7-4.6,2.5l-2,6.8
		c0,0.1,0,0.1,0,0.3c0,0-0.1,0-0.1,0.1l-6.8,1.6c-2,0.5-3.2,2.5-2.5,4.7l2,6.2l0,0c0,0-0.1,0.1-0.1,0.3l-5.1,5.1
		C1,32.7,1,32.7,0.9,32.9c-0.4,0.5-1.1,1.7-0.8,3.1c0.1,0.7,0.5,1.2,0.9,1.6l4.6,5.4c0.1,0.3,0.3,0.5,0.3,0.7l-1.3,6.8
		c-0.5,2,0.5,3.8,2.7,4.3l6.4,1.3c0.1,0,0.1,0.1,0.3,0.4l1.6,6.6c0.5,2,2.5,3.1,4.6,2.7h0.1l5.6-2l0,0c0.1,0,0.3,0,0.4,0.1l5.8,5
		l0.1,0.1c0.7,0.4,1.5,0.7,2.4,0.7c0.8,0,1.6-0.3,2.4-0.7c0.1,0,0.1-0.1,0.3-0.1l5.5-5.2c0.1,0,0.3,0,0.5,0l6.6,1.6
		c2,0.5,4-0.7,4.6-2.5l1.9-6.3c0.1-0.1,0.3-0.4,0.5-0.5l6.3-1.6c0.9-0.3,1.9-0.9,2.3-1.7c0.4-0.8,0.5-1.7,0.3-2.7l-2.3-6.2
		c0,0,0.1-0.1,0.1-0.3L68.9,37.8z M61.5,40.9c-1.1,1.1-1.5,2.7-0.9,3.8l2.3,6c0,0,0,0.1-0.3,0.1L56,52.6c-0.1,0-0.3,0.1-0.3,0.1
		c-0.9,0.4-1.7,1.3-2.1,2.1c0,0.1-0.1,0.1-0.1,0.3l-2,6.6c-0.1,0.3-0.5,0.3-0.5,0.1l-6.8-1.7c-0.1,0-0.3,0-0.4,0
		c-0.9,0-2.1,0-3.1,1.1l-5.2,5c-0.3,0.1-0.5,0.1-0.8,0l-5.9-5c-0.1-0.1-0.3-0.1-0.4-0.3c-0.7-0.4-2.1-0.9-3.4-0.4l-5.5,1.9
		c-0.1,0-0.4,0-0.5-0.3l-1.7-6.8c0-0.1-0.1-0.3-0.1-0.4c-0.3-0.7-0.9-1.7-2.4-2.3h-0.1L8,51.3c-0.1,0-0.3-0.1-0.3,0c0,0,0-0.1,0-0.3
		l1.5-7.1c0-0.1,0-0.3,0-0.3c0-0.9-0.4-1.7-0.8-2.4c0-0.1-0.1-0.3-0.3-0.4l-4.8-5.6c0,0,0-0.1-0.1-0.1c0-0.1,0.1-0.1,0.1-0.3l5-5
		c1.1-1.1,1.5-2.5,0.9-3.8l-1.9-6c0,0-0.1-0.4,0.3-0.5l7.1-2c0.1,0,0.3,0,0.3-0.1c0.9-0.4,1.9-1.3,2-2.7l2-6.7
		c0.1-0.3,0.5-0.3,0.5-0.1l6.3,1.3c1.2,0.5,2.3,0,3-0.4c0.1,0,0.3-0.1,0.4-0.3l5.4-4.8c0,0,0,0,0.1,0c0.1-0.1,0.3-0.1,0.5,0l5.4,4.8
		c0.1,0.1,0.3,0.1,0.4,0.3c0.7,0.4,2.1,0.8,3.4,0.4l5.8-1.6c0,0,0.4-0.1,0.5,0.3l1.7,6.6c0,0.1,0.1,0.3,0.1,0.3
		c0.4,0.9,1.3,1.7,2.1,2.1c0.1,0,0.1,0.1,0.3,0.1l7.2,2.3c0.5,0.3,0.4,0.4,0.4,0.5L61,25.9c-0.5,1.2,0,2.3,0.4,3.1
		c0,0.1,0.1,0.3,0.1,0.3l4.8,5.9c0,0.1,0.1,0.1,0.3,0.3c0,0,0,0.1-0.1,0.1L61.5,40.9z"/>
</g>
</svg>
