<?xml version="1.0" encoding="utf-8"?>
<!-- Generator: Adobe Illustrator 24.2.1, SVG Export Plug-In . SVG Version: 6.00 Build 0)  -->
<svg version="1.1" id="Capa_1" xmlns="http://www.w3.org/2000/svg" xmlns:xlink="http://www.w3.org/1999/xlink" x="0px" y="0px"
	 viewBox="0 0 70 70" style="enable-background:new 0 0 70 70;" xml:space="preserve">
<style type="text/css">
	.st0{fill-rule:evenodd;clip-rule:evenodd;}
</style>
<desc>Created with Sketch.</desc>
<g id="access">
	<path id="Shape" class="st0" d="M19.8,38.8h7.1v-4.5h-7.1V38.8z M31.1,55.4h7.1v-4.5h-7.1V55.4z M19.8,47.3h7.1v-4.5h-7.1V47.3z
		 M60,5.2c-16.6-7-32.9-7-49.8,0c-0.6,0.3-1,0.8-1,1.5v56.8c0,0.6,0.4,1.3,1,1.5c8.8,3.2,17.4,4.9,25.7,4.9s16.4-1.7,24-4.9
		c0.6-0.3,1-0.8,1-1.4V6.9C60.9,6.1,60.5,5.5,60,5.2z M57.6,62.5c-13.9,5.7-29.2,5.7-45.3,0V7.8c15.2-6.1,30.1-6.1,45.3,0V62.5z
		 M31.1,47.3h7.1v-4.5h-7.1V47.3z M19.8,55.4h7.1v-4.5h-7.1V55.4z M18.5,14.1v14.6c0,0.9,0.8,1.5,1.5,1.5h28.8
		c0.9,0,1.5-0.8,1.5-1.5V14.1c0-0.9-0.8-1.5-1.5-1.5H20.2C19.3,12.5,18.5,13.2,18.5,14.1z M21.9,15.7h25.5V27H21.9V15.7z M42.2,38.8
		h7.1v-4.5h-7.1V38.8z M42.2,47.3h7.1v-4.5h-7.1V47.3z M31.1,38.8h7.1v-4.5h-7.1V38.8z M42.2,55.4h7.1v-4.5h-7.1V55.4z"/>
</g>
</svg>
