<?xml version="1.0" encoding="utf-8"?>
<!-- Generator: Adobe Illustrator 24.2.1, SVG Export Plug-In . SVG Version: 6.00 Build 0)  -->
<svg version="1.1" id="Capa_1" xmlns="http://www.w3.org/2000/svg" xmlns:xlink="http://www.w3.org/1999/xlink" x="0px" y="0px"
	 viewBox="0 0 70 70" style="enable-background:new 0 0 70 70;" xml:space="preserve">
<style type="text/css">
	.st0{fill-rule:evenodd;clip-rule:evenodd;}
</style>
<desc>Created with Sketch.</desc>
<g id="admiration">
	<path id="Shape" class="st0" d="M35,0C15.7,0,0,15.7,0,35s15.7,35,35,35s35-15.7,35-35S54.3,0,35,0z M35,66.8
		C17.4,66.8,3.2,52.6,3.2,35S17.4,3.2,35,3.2S66.8,17.5,66.8,35C66.8,52.6,52.6,66.8,35,66.8z M35,26.9c-1.3,0-2.3,1.1-2.3,2.7
		l-0.2,22.4c0,1.6,1,2.7,2.3,2.7h1c1.3,0,2.3-1.1,2.3-2.7l-0.7-22.4C37.3,28.1,36.3,26.9,35,26.9z M35,15.3c-2.3,0-3.9,1.9-3.9,4.3
		s1.6,4.3,3.9,4.3s3.9-1.9,3.9-4.3S37.3,15.3,35,15.3z"/>
</g>
</svg>
