<?xml version="1.0" encoding="utf-8"?>
<!-- Generator: Adobe Illustrator 24.2.1, SVG Export Plug-In . SVG Version: 6.00 Build 0)  -->
<svg version="1.1" id="Capa_1" xmlns="http://www.w3.org/2000/svg" xmlns:xlink="http://www.w3.org/1999/xlink" x="0px" y="0px"
	 viewBox="0 0 70 70" style="enable-background:new 0 0 70 70;" xml:space="preserve">
<style type="text/css">
	.st0{fill-rule:evenodd;clip-rule:evenodd;}
</style>
<desc>Created with Sketch.</desc>
<g id="afiliacion">
	<path id="Shape" class="st0" d="M39.7,20.3c0.8,0,1.4-0.6,1.4-1.4V8.4c0-0.8-0.6-1.4-1.4-1.4h-9.1c-0.8,0-1.4,0.6-1.4,1.4v10.5
		c0,0.8,0.6,1.4,1.4,1.4H39.7z M32,9.8h6.4v7.7H32V9.8z M52.4,46H31.5c-0.8,0-1.4,0.6-1.4,1.4c0,0.8,0.6,1.4,1.4,1.4h20.8
		c0.8,0,1.4-0.6,1.4-1.4C53.8,46.5,53.2,46,52.4,46z M52.4,30.7H31.5c-0.8,0-1.4,0.6-1.4,1.4c0,0.8,0.6,1.4,1.4,1.4h20.8
		c0.8,0,1.4-0.6,1.4-1.4C53.8,31.2,53.2,30.7,52.4,30.7z M52.4,13.3h-8c-0.8,0-1.4,0.6-1.4,1.4c0,0.8,0.6,1.4,1.4,1.4h8
		c0.8,0,1.4-0.6,1.4-1.4C53.8,13.8,53.2,13.3,52.4,13.3z M60.1,0H23.8c-2.3,0-4.3,1.9-4.3,4.3v1.5h-0.1h-2.6c-2.3,0-4.3,1.9-4.3,4.3
		v1.4H9.9c-2.3,0-4.3,1.9-4.3,4.3v49.7c0,2.3,1.9,4.3,4.3,4.3L42.2,70h4c2.3,0,4.3-1.9,4.3-4.3v-1.2h2.6c2.3,0,4.3-1.9,4.3-4.3v-1.7
		h2.8c2.3,0,4.3-1.9,4.3-4.3v-50C64.4,1.9,62.5,0,60.1,0z M47.7,65.7c0,1-0.8,1.5-1.5,1.5L9.9,67c-1,0-1.5-0.8-1.5-1.5V15.7
		c0-1,0.8-1.5,1.5-1.5h2.6v45.7c0,2.3,1.9,4.3,4.3,4.3l30.9,0.3V65.7z M54.6,58.5v1.7c0,1-0.8,1.5-1.5,1.5l-36.3-0.3
		c-1,0-1.5-0.8-1.5-1.5V10.1c0-1,0.8-1.5,1.5-1.5h2.6h0.1V54c0,2.3,1.9,4.3,4.3,4.3L54.6,58.5L54.6,58.5z M61.6,54.3
		c0,1-0.8,1.5-1.5,1.5l-36.3-0.3l0,0c-1,0-1.5-0.8-1.5-1.5V4.3c0-1,0.8-1.5,1.5-1.5h36.3c1,0,1.5,0.8,1.5,1.5V54.3z M52.4,38.4H31.5
		c-0.8,0-1.4,0.6-1.4,1.4s0.6,1.4,1.4,1.4h20.8c0.8,0,1.4-0.6,1.4-1.4S53.2,38.4,52.4,38.4z M52.4,23.1H31.5c-0.8,0-1.4,0.6-1.4,1.4
		c0,0.8,0.6,1.4,1.4,1.4h20.8c0.8,0,1.4-0.6,1.4-1.4C53.8,23.6,53.2,23.1,52.4,23.1z"/>
</g>
</svg>
