<?xml version="1.0" encoding="utf-8"?>
<!-- Generator: Adobe Illustrator 24.2.1, SVG Export Plug-In . SVG Version: 6.00 Build 0)  -->
<svg version="1.1" id="Capa_1" xmlns="http://www.w3.org/2000/svg" xmlns:xlink="http://www.w3.org/1999/xlink" x="0px" y="0px"
	 viewBox="0 0 70 70" style="enable-background:new 0 0 70 70;" xml:space="preserve">
<style type="text/css">
	.st0{fill-rule:evenodd;clip-rule:evenodd;}
</style>
<desc>Created with Sketch.</desc>
<g id="card-cedula-retiro">
	<path id="Shape" class="st0" d="M5.4,50.5h57.4v-8.2H5.4V50.5z M7.5,44.5h53.2v4H7.5V44.5z M49.4,35.9H28.7V38h20.8v-2.1H49.4z
		 M61.5,24.6H28.7v2.1h32.8V24.6z M61.5,29.6H28.7v2.1h32.8V29.6z M25.7,21.5H5.7V40h20.1V21.5z M23.6,37.9H7.8V23.6h15.8V37.9z
		 M65.3,14.1H4.5c-2.5,0-4.5,2-4.5,4.5v32.7c0,2.5,2,4.5,4.5,4.5h60.9c2.5,0,4.5-2,4.5-4.5V18.8C70,16.3,67.9,14.1,65.3,14.1z
		 M67.7,51.3c0,1.3-1.1,2.4-2.4,2.4H4.5c-1.3,0-2.4-1.1-2.4-2.4V18.8c0-1.3,1.1-2.4,2.4-2.4h60.9c1.3,0,2.4,1.1,2.4,2.4v32.5H67.7z"
		/>
</g>
</svg>
