<?xml version="1.0" encoding="utf-8"?>
<!-- Generator: Adobe Illustrator 24.2.1, SVG Export Plug-In . SVG Version: 6.00 Build 0)  -->
<svg version="1.1" id="Capa_1" xmlns="http://www.w3.org/2000/svg" xmlns:xlink="http://www.w3.org/1999/xlink" x="0px" y="0px"
	 viewBox="0 0 70 70" style="enable-background:new 0 0 70 70;" xml:space="preserve">
<style type="text/css">
	.st0{fill-rule:evenodd;clip-rule:evenodd;}
</style>
<desc>Created with Sketch.</desc>
<g id="clock">
	<path id="Shape" class="st0" d="M65,22.9c-0.4-0.8-1.4-1.1-2.2-0.8c-0.8,0.4-1.1,1.4-0.8,2.2c1.9,3.8,2.9,8.1,2.9,12.6
		c0,16.5-13.5,30-30,30S5,53.4,5,36.9s13.5-30,30-30c5.6,0,11.3,1.7,15.9,4.6l-8,1.5c-0.9,0.1-1.4,1-1.3,1.9
		c0.1,0.8,0.8,1.3,1.5,1.3c0.1,0,0.1,0,0.3,0l11.2-2c0.4-0.1,0.9-0.4,1-0.8c0.3-0.4,0.3-0.8,0.3-1c0.1-0.4,0-0.9-0.3-1.3l-2.8-9.9
		c-0.3-0.9-1.1-1.4-1.9-1.1C50,0.3,49.6,1.2,49.7,2l1.7,6c-5-2.8-10.8-4.4-16.5-4.4c-18.2,0.1-33,15.1-33,33.4S16.7,70,35,70
		s33.1-14.9,33.1-33.1C68.1,31.9,67,27.1,65,22.9z M34,16.9c-0.9,0-1.5,0.8-1.5,1.5v22.5c0,0.6,0.4,1.1,0.9,1.4L52.1,52
		c0.3,0.1,0.5,0.1,0.8,0.1c0.6,0,1.1-0.3,1.4-0.9c0.4-0.8,0.1-1.8-0.6-2.2l-18-9.3V18.5C35.5,17.6,34.9,16.9,34,16.9z"/>
</g>
</svg>
