<?xml version="1.0" encoding="utf-8"?>
<!-- Generator: Adobe Illustrator 24.2.1, SVG Export Plug-In . SVG Version: 6.00 Build 0)  -->
<svg version="1.1" id="Capa_1" xmlns="http://www.w3.org/2000/svg" xmlns:xlink="http://www.w3.org/1999/xlink" x="0px" y="0px"
	 viewBox="0 0 70 70" style="enable-background:new 0 0 70 70;" xml:space="preserve">
<style type="text/css">
	.st0{fill-rule:evenodd;clip-rule:evenodd;}
</style>
<desc>Created with Sketch.</desc>
<g id="doc-edit">
	<path id="Shape" class="st0" d="M15.7,29.5h24.8c1.1,0,1.9-0.9,1.9-1.9c0-0.9-0.9-1.9-1.9-1.9H15.7c-1.1,0-1.9,0.9-1.9,1.9
		C13.8,28.6,14.6,29.5,15.7,29.5z M15.7,21.1h24.8c1.1,0,1.9-0.9,1.9-1.9c0-0.9-0.9-1.9-1.9-1.9H15.7c-1.1,0-1.9,0.9-1.9,1.9
		C13.8,20.2,14.6,21.1,15.7,21.1z M55.2,27.2V5.3c0-3-2.3-5.3-5.3-5.3H6.5c-3,0-5.3,2.3-5.3,5.3v59.4c0,3,2.3,5.3,5.3,5.3h43.4
		c3,0,5.3-2.3,5.3-5.3V42.2l6.1-6.1c0.3-0.3,0.6-0.9,0.6-1.4c0-0.5-0.2-0.9-0.6-1.4L55.2,27.2z M51.3,64.7c0,0.8-0.6,1.4-1.4,1.4
		H6.5c-0.8,0-1.4-0.6-1.4-1.4V5.3c0-0.8,0.6-1.4,1.4-1.4h43.4c0.8,0,1.4,0.6,1.4,1.4v21.9L31,47.3c-0.3,0.3-0.5,0.6-0.5,0.9
		l-2.2,9.2c-0.2,0.6,0,1.4,0.6,1.9c0.3,0.3,0.8,0.5,1.4,0.5c0.2,0,0.3,0,0.6,0l8.9-2.7c0.3-0.2,0.6-0.3,0.8-0.5l10.6-10.6V64.7z
		 M38,53.8l-5.2,1.6l1.2-5.5l19.1-19.1l3.9,3.9L38,53.8z M68.3,26.2l-6.7-6.7c-0.8-0.8-2-0.8-2.8,0l-1.6,1.4
		c-0.8,0.9-1.2,2.2-1.2,3.3c0,1.2,0.5,2.3,1.4,3.3l3,3l0,0c0.9,0.9,2,1.4,3.1,1.4c0.2,0,0.3,0,0.3,0c1.1-0.2,1.9-0.6,2.5-1.4
		l1.7-1.2c0.5-0.3,0.6-0.9,0.8-1.4C69,27.2,68.8,26.6,68.3,26.2z M63.8,27.5c-0.2,0.2-0.2,0.3-0.3,0.5c0,0-0.2,0-0.5-0.3l-3-3
		c-0.2-0.2-0.3-0.3-0.3-0.5c0-0.2,0.2-0.3,0.3-0.5l0.2-0.2L63.8,27.5L63.8,27.5z M32.9,37.3c0-1.1-0.9-1.9-1.9-1.9H15.8
		c-1.1,0-1.9,0.9-1.9,1.9c0,0.9,0.9,1.9,1.9,1.9H31C32.1,39.2,32.9,38.3,32.9,37.3z"/>
</g>
</svg>
