<?xml version="1.0" encoding="utf-8"?>
<!-- Generator: Adobe Illustrator 24.2.1, SVG Export Plug-In . SVG Version: 6.00 Build 0)  -->
<svg version="1.1" id="Capa_1" xmlns="http://www.w3.org/2000/svg" xmlns:xlink="http://www.w3.org/1999/xlink" x="0px" y="0px"
	 viewBox="0 0 70 70" style="enable-background:new 0 0 70 70;" xml:space="preserve">
<style type="text/css">
	.st0{fill-rule:evenodd;clip-rule:evenodd;}
</style>
<desc>Created with Sketch.</desc>
<g id="doc-novedad">
	<path id="Shape" class="st0" d="M31.2,21.9h17.4c0.8,0,1.4-0.7,1.4-1.4s-0.7-1.4-1.4-1.4H31.2c-0.8,0-1.4,0.7-1.4,1.4
		S30.4,21.9,31.2,21.9z M31.2,26.8h28.4c0.8,0,1.4-0.7,1.4-1.4S60.3,24,59.6,24H31.2c-0.8,0-1.4,0.7-1.4,1.4S30.4,26.8,31.2,26.8z
		 M30.4,57.3l7.5-7.6c0.3-0.4,0.5-0.9,0.3-1.5c-0.2-0.5-0.7-0.9-1.2-0.9l-10.5-1.4l-4.8-9.6c-0.2-0.5-0.8-0.8-1.3-0.8
		c-0.6,0-1,0.4-1.3,0.8l-4.5,9.8L4,47.6c-0.6,0.1-1,0.5-1.2,1.1c-0.1,0.6,0,1.1,0.3,1.5l7.7,7.4L9.3,68.4c-0.1,0.6,0.1,1.1,0.6,1.4
		c0.2,0.1,0.6,0.2,0.8,0.2s0.5-0.1,0.7-0.2l9.3-5.2l9.4,4.8c0.5,0.2,1,0.2,1.5-0.1c0.5-0.4,0.7-0.9,0.6-1.4L30.4,57.3z M27.4,57.1
		l1.6,8.5l-7.5-3.9c-0.5-0.2-0.9-0.2-1.4,0l-7.4,4.1l1.3-8.5c0.1-0.5-0.1-0.9-0.5-1.3l-6.1-5.9l8.3-1.4c0.5-0.1,0.9-0.4,1-0.8
		l3.6-7.8l3.9,7.6c0.2,0.5,0.6,0.7,1.2,0.8l8.4,1.1l-5.9,6.1C27.4,56.1,27.3,56.6,27.4,57.1z M31.2,31.6h28.4c0.8,0,1.4-0.7,1.4-1.4
		c0-0.7-0.7-1.4-1.4-1.4H31.2c-0.8,0-1.4,0.7-1.4,1.4C29.8,30.9,30.4,31.6,31.2,31.6z M67.2,12.5C67.2,12.5,67.2,12.4,67.2,12.5
		c0-0.4-0.1-0.7-0.3-0.9l-2.1-2.1l-8.2-8.8c-0.2-0.4-0.7-0.5-1-0.5C55.3,0,55.2,0,55,0H27.1c-2.4,0-4.5,2.1-4.5,4.6v28.6
		c0,0.8,0.7,1.4,1.4,1.4c0.7,0,1.4-0.7,1.4-1.4V4.6c0-0.8,0.7-1.6,1.6-1.6h27.1v9.4c0,0.8,0.6,1.4,1.4,1.4l8.9,0.4v39.1
		c0,1.3-1,2.4-2.3,2.4H38.4c-0.8,0-1.4,0.7-1.4,1.4c0,0.7,0.7,1.4,1.4,1.4H62c2.9,0,5.2-2.4,5.2-5.3V12.5L67.2,12.5z M57,10.8V5.5
		l5.3,5.4L57,10.8z M31.2,36.5h28.4c0.8,0,1.4-0.7,1.4-1.4s-0.6-1.5-1.4-1.5H31.2c-0.8,0-1.4,0.7-1.4,1.4S30.4,36.5,31.2,36.5z
		 M31.2,41.3h28.4c0.8,0,1.4-0.7,1.4-1.4c0-0.7-0.7-1.4-1.4-1.4H31.2c-0.8,0-1.4,0.7-1.4,1.4C29.8,40.6,30.4,41.3,31.2,41.3z"/>
</g>
</svg>
