<?xml version="1.0" encoding="utf-8"?>
<!-- Generator: Adobe Illustrator 24.2.1, SVG Export Plug-In . SVG Version: 6.00 Build 0)  -->
<svg version="1.1" id="Capa_1" xmlns="http://www.w3.org/2000/svg" xmlns:xlink="http://www.w3.org/1999/xlink" x="0px" y="0px"
	 viewBox="0 0 70 70" style="enable-background:new 0 0 70 70;" xml:space="preserve">
<style type="text/css">
	.st0{fill-rule:evenodd;clip-rule:evenodd;}
</style>
<desc>Created with Sketch.</desc>
<g id="doc">
	<path id="Shape" class="st0" d="M37.9,32.1H23.5c-0.9,0-1.6,0.7-1.6,1.5c0,0.7,0.8,1.5,1.6,1.5h14.3c0.9,0,1.6-0.7,1.6-1.5
		C39.4,32.8,38.8,32.1,37.9,32.1z M46.7,16H23.5c-0.9,0-1.6,0.7-1.6,1.5s0.8,1.5,1.6,1.5h23.1c0.9,0,1.6-0.7,1.6-1.5
		S47.5,16,46.7,16z M58.4,1.3C57.5,0.4,56.3-0.1,55,0H15c-2.7,0-4.8,2.1-4.8,4.7v54.6c0,2.6,2.1,4.9,4.8,4.9H38v4.1
		c0,0.7,0.4,1.2,0.9,1.4c0.5,0.3,1.2,0.3,1.7-0.1l4.1-3l3.7,3c0.3,0.3,0.7,0.4,1.1,0.4c0.3,0,0.5,0,0.7-0.1c0.5-0.3,0.9-0.8,0.9-1.4
		v-4.1H55c2.7,0,4.8-2.1,4.8-4.7V4.8C59.9,3.4,59.4,2.3,58.4,1.3z M48,64l-2.2-1.6c-0.6-0.5-1.6-0.5-2.2,0l-2.8,1.7v-7.3
		c1.2,0.4,2.3,0.6,3.6,0.6c1.3,0,2.5-0.2,3.6-0.6V64H48z M45.2,54c-3.2,0-5.8-2.7-5.8-5.8s2.7-5.8,5.8-5.8s5.8,2.7,5.8,5.8
		S48.5,54,45.2,54z M56.9,59.8c0,0.8-0.7,1.5-1.5,1.5h-3.9v-6c1.6-1.6,2.6-3.9,2.6-6.4c0-5.1-4.2-9.2-9.3-9.2s-9.3,4.1-9.3,9.2
		c0,2.5,0.9,4.7,2.6,6.4v6H14.6c-0.8,0-1.5-0.7-1.5-1.6V4.4c0-0.8,0.7-1.5,1.5-1.5h40.7c0.4,0,0.8,0.1,1.1,0.4
		c0.3,0.3,0.4,0.7,0.4,1.1v55.4H56.9z M46.7,23.3H23.5c-0.9,0-1.6,0.7-1.6,1.5c0,0.7,0.8,1.5,1.6,1.5h23.1c0.9,0,1.6-0.7,1.6-1.5
		C48.1,24.1,47.5,23.3,46.7,23.3z"/>
</g>
</svg>
