<?xml version="1.0" encoding="utf-8"?>
<!-- Generator: Adobe Illustrator 24.2.1, SVG Export Plug-In . SVG Version: 6.00 Build 0)  -->
<svg version="1.1" id="Capa_1" xmlns="http://www.w3.org/2000/svg" xmlns:xlink="http://www.w3.org/1999/xlink" x="0px" y="0px"
	 viewBox="0 0 70 70" style="enable-background:new 0 0 70 70;" xml:space="preserve">
<style type="text/css">
	.st0{fill-rule:evenodd;clip-rule:evenodd;}
</style>
<desc>Created with Sketch.</desc>
<g id="edit">
	<path id="Shape" class="st0" d="M45.2,12.1c-0.7-0.7-1.9-0.7-2.6,0L4.9,49.8c-0.3,0.3-0.4,0.6-0.4,0.9l-4,17.2
		c-0.1,0.6,0,1.3,0.6,1.7C1.3,69.9,1.7,70,2.3,70c0.1,0,0.3,0,0.6-0.1l16.3-4.6c0.3-0.1,0.6-0.3,0.7-0.4l37.7-37.7
		c0.3-0.3,0.6-0.9,0.6-1.3s-0.1-0.9-0.6-1.3L45.2,12.1z M17.7,61.9L4.6,65.8l3.3-13.7L44,16l9.8,9.8L17.7,61.9z M69.1,13L56.7,0.5
		c-0.7-0.7-1.9-0.7-2.6,0l-4.2,4.2c-1.2,1.2-1.2,3,0,4.2l10.8,10.8c0.6,0.6,1.3,0.9,2,0.9s1.4-0.3,2-0.9l4.2-4.2
		C69.9,14.7,69.9,13.7,69.1,13z M62.9,16.6l-9.8-9.8l2.5-2.5l9.8,9.8L62.9,16.6z"/>
</g>
</svg>
