<?xml version="1.0" encoding="utf-8"?>
<!-- Generator: Adobe Illustrator 24.2.1, SVG Export Plug-In . SVG Version: 6.00 Build 0)  -->
<svg version="1.1" id="Capa_1" xmlns="http://www.w3.org/2000/svg" xmlns:xlink="http://www.w3.org/1999/xlink" x="0px" y="0px"
	 viewBox="0 0 70 70" style="enable-background:new 0 0 70 70;" xml:space="preserve">
<style type="text/css">
	.st0{fill-rule:evenodd;clip-rule:evenodd;}
</style>
<desc>Created with Sketch.</desc>
<g id="folder">
	<path id="Shape" class="st0" d="M69.3,22.1c-0.9-1.1-2.4-1.8-4.1-1.8h-3v-2.1c0-2.6-2.4-5.4-5.7-5.4h-31c-1,0-1.4-0.4-1.7-0.7
		l-2-3.1c-0.1-0.3-0.3-0.4-0.6-0.6c-1.4-1-2.6-1.4-4.5-1.4H5.7C2.8,6.9,0,8.8,0,12.3v46c0,0.3,0.1,0.6,0.3,0.9
		c0,0.9,0.1,1.7,0.7,2.4c0.7,0.9,1.8,1.4,3.3,1.4c0.3,0,0.6,0,0.9-0.1h52.6c2.8,0,5.5-2.1,6.1-5l6-32C70.2,24.4,70,23.1,69.3,22.1z
		 M3.4,12.1c0-1.7,2-1.8,2.1-1.8h11.1c1,0,1.4,0.1,2.3,0.7l1.8,2.8c1,1.6,2.7,2.4,4.7,2.4h31c1.4,0,2.1,1.1,2.1,1.8v2.1H14.3
		c-3.7,0-6.8,2.3-7.2,5.4L3.4,42.9V12.1z M66.4,24.6c0,0.1-0.1,0.3-0.1,0.3l-6,32.1c-0.3,1.1-1.4,2.1-2.6,2.1H4.8
		c-0.1,0-0.3,0-0.3,0c-0.6,0.1-0.9,0-0.9,0s0-0.1,0.1-0.4c0-0.1,0-0.1,0.1-0.3l6.5-32.1c0.3-1.4,1.8-2.6,3.8-2.6h50.9
		c0.7,0,1.1,0.3,1.1,0.3C66.5,24.1,66.5,24.3,66.4,24.6z"/>
</g>
</svg>
