<?xml version="1.0" encoding="utf-8"?>
<!-- Generator: Adobe Illustrator 24.2.1, SVG Export Plug-In . SVG Version: 6.00 Build 0)  -->
<svg version="1.1" id="Capa_1" xmlns="http://www.w3.org/2000/svg" xmlns:xlink="http://www.w3.org/1999/xlink" x="0px" y="0px"
	 viewBox="0 0 70 70" style="enable-background:new 0 0 70 70;" xml:space="preserve">
<style type="text/css">
	.st0{fill-rule:evenodd;clip-rule:evenodd;}
</style>
<desc>Created with Sketch.</desc>
<g id="planilla">
	<path id="Shape" class="st0" d="M47.5,46h-4.7l-0.1-0.1v-4.7c0-1.6-1.2-2.8-2.8-2.8h-3c-1.6,0-2.8,1.2-2.8,2.8v4.7L33.9,46h-4.7
		c-1.6,0-2.8,1.2-2.8,2.8v3c0,1.6,1.2,2.8,2.8,2.8h4.7l0.1,0.1v4.7c0,1.6,1.2,2.8,2.8,2.8h3c1.6,0,2.8-1.2,2.8-2.8v-4.7l0.1-0.1h4.7
		c1.6,0,2.8-1.2,2.8-2.8v-3C50.4,47.2,49.1,46,47.5,46z M47.7,51.8l-0.1,0.1h-4.7c-1.6,0-2.8,1.2-2.8,2.8v4.7l-0.1,0.1h-3l-0.1-0.1
		v-4.7c0-1.6-1.2-2.8-2.8-2.8h-4.7L29,51.8v-3l0.1-0.1h4.7c1.6,0,2.8-1.2,2.8-2.8v-4.7l0.1-0.1h3l0.1,0.1v4.7c0,1.6,1.2,2.8,2.8,2.8
		h4.7l0.1,0.1V51.8L47.7,51.8z M69.4,33.8c-0.5-0.9-1.5-1.5-3-1.9L45.9,3.1c-0.3-0.3-0.5-0.5-0.9-0.5s-0.7,0-1.1,0.3l-1.8,1.4
		l-2.8-2.7c-0.5-0.5-1.4-0.5-1.9,0L17.6,20.5H8.5c-0.3,0-2.3,0-3.9,1.6c-1.4,1.4-2,3.2-2,5.7V35l-2.2,2c-0.5,0.5-0.5,1.2-0.1,1.8
		l2.3,3v21.7c0,2.2,1.5,5.4,5.4,5.4h43.6c0.4,0,0.8,0.1,1.2,0.1c2.3,0,5.5-1.1,7-5c2-5,9.7-26.4,9.7-26.5
		C69.7,37.3,70.5,35.5,69.4,33.8z M38.3,4.3l1.6,1.6L22.2,19.8L38.3,4.3z M44.4,5.8l18.5,25.8H56c0-0.3-0.1-0.7-0.3-0.9L41.2,13.6
		c-0.5-0.5-1.4-0.7-1.9-0.1c-0.5,0.5-0.7,1.4-0.1,1.9l13.9,16.4h-7.2c0-0.3-0.1-0.5-0.3-0.8l-9.9-12.5c-0.4-0.5-1.4-0.7-1.9-0.3
		c-0.5,0.4-0.7,1.4-0.3,1.9l9.1,11.6h-6c0-0.3-0.1-0.7-0.3-0.8l-6.8-8.1c-0.5-0.5-1.4-0.7-1.9-0.1c-0.5,0.5-0.7,1.4-0.1,1.9l6.1,7.2
		H19.2c-0.1,0-4.2,0-5.5,5.5c-0.3,0.9-0.8,2.7-1.5,4.7l-5.3-6.8L44.4,5.8z M5.3,27.8c0-4.3,2.7-4.6,3.1-4.6h6.4l-9.5,9.2V27.8z
		 M3.1,38.2l1.5-1.5l5.8,7.4c0.3,0.3,0.5,0.4,0.8,0.4c-0.3,0.9-0.7,1.8-0.9,2.8L3.1,38.2z M5.3,45.3l4.1,5.1
		c-1.5,4.5-3.1,8.8-4.1,11.5V45.3z M67.1,36.5C67,36.8,59.3,58,57.4,63c-1.5,3.9-5,3.2-5.4,3.2c-0.1,0-0.1,0-0.3,0H8
		c-0.5,0-0.9-0.1-1.4-0.3c0.1-0.1,0.1-0.3,0.3-0.4C7.2,64.6,15,42.8,16.3,38c0.8-3.2,2.7-3.4,3-3.4h44.7c2.6,0,3.1,0.7,3.2,0.8
		C67.4,35.7,67.1,36.4,67.1,36.5z"/>
</g>
</svg>
