<?xml version="1.0" encoding="utf-8"?>
<!-- Generator: Adobe Illustrator 24.2.1, SVG Export Plug-In . SVG Version: 6.00 Build 0)  -->
<svg version="1.1" id="Capa_1" xmlns="http://www.w3.org/2000/svg" xmlns:xlink="http://www.w3.org/1999/xlink" x="0px" y="0px"
	 viewBox="0 0 70 70" style="enable-background:new 0 0 70 70;" xml:space="preserve">
<style type="text/css">
	.st0{fill-rule:evenodd;clip-rule:evenodd;}
</style>
<desc>Created with Sketch.</desc>
<g id="Prestamos">
	<path id="Shape" class="st0" d="M18.5,39c0.2,0.3,0.6,0.6,1,0.6c0.2,0,0.3,0,0.6-0.1c0.6-0.3,0.7-1,0.5-1.6L12.8,24
		c-0.2-0.3-0.2-0.7-0.1-1c0.1-0.3,0.3-0.7,0.7-0.8l5.1-2.6c0.6-0.3,0.8-1,0.5-1.6c-0.3-0.6-1-0.8-1.6-0.5l-5.1,2.6
		c-0.9,0.5-1.5,1.3-1.8,2.2c-0.2,0.9-0.1,2,0.3,2.8L18.5,39z M69.8,41.3c0-2.3,0-4.7,0-7c0-0.5-0.1-0.9-0.5-1.1
		c-0.2-0.2-0.6-0.3-1.1-0.2c-0.2,0.1-0.5,0.1-0.7,0.2c-0.6,0.1-1,0.3-1.6,0.3c-1.8,0.3-3.8,0.5-5.4,0.6l-2.6,0.2
		c-0.7,0-1.3,0.6-1.3,1.1c0,0.1,0,0.3,0,0.5c-0.1-0.1-0.3-0.2-0.5-0.2c-1.1-0.5-2.4-0.9-3.6-1.4l-1-0.3c-0.8-0.3-1.5-0.6-2.3-0.9
		c-0.7-0.2-1.4-0.6-2.1-0.8l5.5-13.1c0.3-0.7,0.2-1.6-0.1-2.3c-0.3-0.7-1-1.3-1.8-1.4l-6.9-1.7c-0.6-0.1-1.1,0.2-1.4,0.8v-1.4
		c0-0.9-0.5-1.8-1.1-2.5c-0.7-0.6-1.7-0.9-2.6-0.8l-16.8,1.7c-0.9,0.1-1.8,0.6-2.4,1.4c-0.6,0.8-0.8,1.6-0.7,2.5l3.6,23.1
		c0,0.1,0.1,0.2,0.1,0.3c-0.2,0.1-0.3,0.1-0.6,0.2l-1.4,0.5c-0.9,0.3-1.7,0.6-2.6,0.9c-0.5,0.1-0.8,0.3-1.3,0.6
		c-0.3,0.2-0.8,0.3-1.1,0.5c-0.2,0.1-0.3,0.2-0.5,0.3c0-0.3,0-0.6-0.1-0.9c-0.2-0.6-0.7-1-1.1-1.3c-1.8-0.8-3.7-1.4-5.5-2.1
		c-1.1-0.3-2.3-0.7-3.4-1H4.6c-0.3-0.1-0.5-0.2-0.6-0.3c-0.6-0.7-1.4-1.1-2.1-1.6c-0.2-0.1-0.8-0.5-1.4-0.1C0,34.8,0,35.5,0,35.8
		v13.1c0,3,0,5.9,0,8.9v0.2c0,0.9,0.3,1.4,1.1,1.5h0.2c0.2,0,0.5,0.1,0.6,0.1c0.7,0,1.3-0.2,1.7-0.8c0.6-0.6,1-1.3,1.6-1.8l1.3-1.5
		c0,0.1,0,0.3,0,0.5c0.1,0.6,0.6,0.9,0.8,0.9c1.4,0.8,2.6,1.3,3.9,1.6c1.5,0.5,2.8,0.6,3.9,0.6h0.1c1.3-0.1,2.4-0.2,3.7-0.1
		c0.9,0,1.7-0.1,2.6-0.5c0.2,0.1,0.5,0.1,0.8,0.1c0.2,0.2,0.5,0.3,0.7,0.6c0.8,0.7,1.6,1,2.5,1.1c0.2,0,0.3,0,0.6,0
		c0.9,0,1.7-0.3,2.3-0.9c0.6-0.6,0.9-1.1,1-2c0.6-0.1,1.3-0.3,1.8-1c0.2-0.3,0.3-0.6,0.5-0.8c0-0.1,0.1-0.1,0.1-0.2
		c0.2-0.5,0.3-0.9,0.3-1.4c0.1-0.1,0.3-0.1,0.5-0.2c0.7-0.3,1.4-0.8,1.7-1.4c0.5,0.6,1,1.1,2.1,1.3c1.1,0.1,2.2-0.6,2.5-1.5
		c0.1-0.2,0.2-0.7,0.1-1c0.1-0.1,0.2-0.3,0.2-0.6c0.6,0.7,1.3,1.1,1.8,1.6c0.2,0.1,0.3,0.2,0.6,0.3c0.3,0.2,0.6,0.3,0.7,0.5
		c0.6,0.6,1.3,1,2.2,1.1c0.2,0,0.5,0.1,0.9,0.1c0.6,0.3,1.3,0.7,2.1,0.8c0.1,0,0.3,0,0.5,0c0.7,0,1.1-0.2,1.5-0.7
		c0.7-0.8,1-2.1,0.5-3.2c0.1-0.2,0.1-0.5,0.1-0.6c2,0.6,4.1,1,6.6,0.6c1.4-0.2,2.4-0.6,3.3-1l0.2-0.1c0.1-0.1,0.2-0.1,0.3-0.1
		c0.3,0,0.8-0.1,1-0.3c0.1-0.1,0.2-0.2,0.2-0.3c0,0.6,0,1.1-0.1,1.8c-0.1,0.7,0.1,1.4,0.6,1.7c0.3,0.3,0.8,0.6,1.4,0.6
		c0.1,0,0.2,0,0.3,0l1.3-0.2c1.1-0.1,2.3-0.3,3.3-0.5c0.8-0.1,1.3-0.7,1.3-1.4c0-2.3,0-4.7,0-7L69.8,41.3z M6.1,52.3
		c-0.3,0.5-0.8,1-1.1,1.5l-1.4,1.7c-0.5,0.5-0.8,1-1.3,1.5c0-2.6,0-5.3,0-7.9V47v-9.1c0.3,0.5,1,0.7,1.5,0.9h0.1
		c1.1,0.3,2.2,0.7,3.3,1c1.7,0.6,3.4,1.1,5.2,1.8c-0.2,0.5-0.5,0.9-0.8,1.4L11.1,44c-0.7,1-1.3,2.2-2,3.2l-0.3,0.7
		C8,49.3,7.1,50.9,6.1,52.3z M37.4,49.4c-0.9,0.6-0.9,1.4-0.8,2c0,0,0,0-0.1,0.1c-0.1,0-0.2-0.1-0.6-0.5c0-0.1-0.1-0.2-0.1-0.3
		c-0.1-0.1-0.1-0.3-0.2-0.5c-0.1-0.3-0.3-0.7-0.6-0.9c-0.5-0.7-1.1-0.5-1.4-0.5c-0.5,0.1-0.9,0.6-0.9,1.3c-0.1,0.9-0.5,1.4-1.3,1.7
		c-0.2,0.1-0.6,0.2-0.9,0.3c-0.3,0.1-0.7,0.3-0.8,0.7c-0.1,0.2-0.1,0.7-0.1,1c0,0.1,0.1,0.2-0.1,0.6c-0.1,0.1-0.1,0.3-0.2,0.5
		c0,0.1-0.1,0.2-0.1,0.3c-0.1,0.1-0.2,0.2-0.7,0.2c-0.2,0-0.7-0.1-1.1,0.2c-0.1,0.1-0.7,0.7-0.3,1.5c0,0.3-0.1,0.6-0.3,0.7
		c-0.2,0.2-0.6,0.3-0.9,0.2c-0.5-0.1-0.9-0.3-1.5-0.8c-0.2-0.1-0.5-0.3-0.6-0.6c-0.3-0.3-0.7-0.5-1.1-0.5l0,0c-0.1,0-0.1,0-0.1,0
		c-0.2-0.1-0.7-0.3-1.4-0.1c-0.7,0.2-1.3,0.3-2.1,0.3c-1.3,0-2.6,0.1-3.9,0.1h-0.1c-0.9,0.1-1.8-0.1-3.1-0.5
		c-0.8-0.2-1.6-0.6-2.4-0.9c1.1-1.4,2.1-2.9,2.9-4.4l0.2-0.5c1.1-1.8,2.3-3.8,3.3-5.6l0.3-0.7c0.1-0.2,0.2-0.5,0.3-0.7
		c0.3-0.1,0.7-0.2,0.9-0.5c0.3-0.1,0.7-0.3,1.1-0.5c0.8-0.3,1.7-0.6,2.5-0.9l1.4-0.5c0.3-0.1,0.7-0.2,1-0.3c0.6-0.2,1-0.2,1.8,0
		c0.5,0.1,0.9,0.5,1.4,0.7l0.5,0.2c1.3,0.7,2.6,1.3,4,1.8c0.7,0.2,1.4,0.7,2.2,1.4c1.3,1.1,2.2,2.3,2.9,3.6c0.3,0.6,0.9,0.8,1.5,0.7
		c0,0,0,0,0.1,0l0,0C37.7,49.3,37.5,49.3,37.4,49.4z M59,47.9l-0.2,0.1c-0.7,0.3-1.5,0.7-2.6,0.8c-2.1,0.3-4-0.1-5.7-0.6
		c-1.3-0.3-2.5-0.9-3.9-1.6c-0.6-0.2-1-0.2-1.6,0h-0.1c-0.5,0-0.9,0.2-1.1,0.6c-0.3,0.3-0.5,0.8-0.5,1.1c0,0.5,0.2,0.9,0.6,1.1
		c0.3,0.2,0.8,0.5,1.3,0.3c0.6-0.1,1.3-0.1,2.1,0c0.2,0,0.5,0.1,0.6,0.3l0,0c-0.5,0.6-0.3,1.3,0.1,1.8c0.1,0.1,0,0.3,0,0.5l0,0
		c-0.5-0.1-0.9-0.3-1.4-0.6c-0.6-0.3-1-0.3-1.4-0.2c-0.1,0-0.1,0-0.2,0c-0.3-0.1-0.6-0.2-0.8-0.5c-0.3-0.5-0.8-0.7-1.3-0.9
		c-0.1-0.1-0.2-0.1-0.5-0.2c-0.5-0.3-1-0.7-1.5-1.3c-0.1-0.1-0.2-0.2-0.2-0.3c-0.1-0.2-0.3-0.5-0.6-0.7c-0.5-0.7-1.1-0.6-1.3-0.5
		c-0.1,0-0.1,0-0.2,0.1c-0.1-0.1-0.2-0.2-0.3-0.3c-0.8-1.4-1.8-2.5-3.1-3.8c-1-0.9-2-1.5-3-1.8c-1.4-0.5-2.5-1-3.7-1.6l-0.3-0.2
		c-0.6-0.3-1.1-0.7-1.8-0.9c-0.6-0.2-1-0.2-1.5-0.2c0-0.1,0-0.2,0-0.2L21,15.1c0-0.3,0-0.7,0.2-0.9c0.2-0.2,0.5-0.5,0.8-0.5L38.9,12
		c0.3,0,0.7,0.1,0.9,0.2c0.2,0.2,0.3,0.5,0.3,0.8l0.8,25.1c-0.9,0.1-1.7,0.3-2.6,0.7c-0.8,0.2-1.7,0.7-2.3,1.5
		c-0.6,0.8-0.7,1.7-0.5,2.6c0.2,0.9,0.8,1.6,1.6,2.1c1.1,0.6,2.3,0.6,3.4,0.6l0,0c1,0,2-0.2,3-0.5l0.7-0.1c0.7-0.1,1.3-0.3,2-0.2
		h0.1c0.1,0.5,0.5,0.8,0.9,0.8c0.7,0.1,1.1-0.3,1.3-1c0.2-0.6,0.1-1,0-1.1c-0.2-0.3-0.5-0.7-1-0.8c-0.6-0.1-1.1-0.1-1.4-0.1
		c-0.9,0-1.7,0.1-2.5,0.3l-0.7,0.1c-0.9,0.2-1.7,0.3-2.5,0.3c-0.9,0-1.7,0-2.4-0.3c-0.2-0.1-0.3-0.3-0.5-0.6c-0.1-0.2,0-0.6,0.1-0.8
		c0.2-0.3,0.6-0.5,1.1-0.7c1.1-0.3,2.2-0.6,3.2-0.7c0.1,0,0.2,0,0.5,0c1,0.1,2,0,2.8,0l1-0.1l0,0c0.7,0,1.1-0.5,1.3-0.9
		c0.1-0.5,0-1-0.6-1.4c-0.5-0.3-1-0.3-1.5,0h-0.5c-0.6,0.1-1.3,0.1-2,0l-0.7-23c0.1,0.3,0.3,0.6,0.8,0.7l6.9,1.7
		c0.1,0,0.2,0.1,0.2,0.2c0,0.1,0.1,0.2,0,0.3l-5.7,13.8c-0.1,0.1-0.2,0.2-0.3,0.5c0,0.1-0.1,0.3-0.1,0.5l-0.9,2.3
		c-0.2,0.6,0,1.3,0.6,1.5c0.1,0.1,0.3,0.1,0.5,0.1c0.5,0,0.9-0.2,1-0.7l0.7-1.7c0.7,0.2,1.4,0.6,2.2,0.8c0.8,0.3,1.5,0.6,2.3,0.9
		l1,0.3c1.1,0.5,2.3,0.9,3.6,1.4c0.5,0.6,1,0.9,1.7,1.1c0.2,0,0.3,0.1,0.7,0.7c0.2,0.6,0.5,1.1,0.7,1.8c0.1,0.2,0.1,0.5,0.2,0.7
		c0.2,0.6,0.3,1.1,0.5,1.8c0.2,1.1,0.6,2.4,0.6,3.7C59.3,47.8,59.2,47.8,59,47.9z M67.5,50.4c-0.9,0.1-1.7,0.2-2.6,0.3l-0.9,0.1
		c0.2-1.7,0.1-3.4-0.1-5.4c-0.1-0.9-0.3-1.8-0.5-2.5c-0.3-1.5-0.8-3-1.5-4.7c-0.2-0.7-0.6-1.3-1-1.8c1.6-0.1,3.6-0.3,5.5-0.6
		c0.5-0.1,0.9-0.2,1.4-0.3v7.1v1.6C67.5,46.2,67.5,48.3,67.5,50.4z M35.5,31.4c-0.2-1-0.9-1.6-1.7-1.6c-0.9,0-1.5,0.6-1.8,1.6
		c-0.3,0.9-0.7,1.3-1.1,1.3c-0.5,0-0.9-0.3-0.9-1.1c0-0.7,0.2-1,0.3-1.3L29.5,30c-0.2,0.3-0.3,0.7-0.3,1.4h-1v0.7h1
		c0.1,0.9,0.8,1.6,1.6,1.6c0.9,0,1.4-0.7,1.8-1.7c0.3-0.8,0.7-1.1,1.3-1.1c0.6,0,1,0.5,1,1.3c0,0.6-0.2,1.1-0.5,1.5l0.7,0.2
		c0.2-0.3,0.5-1,0.5-1.6h1v-0.7h-1.1V31.4z M38,31.7c0-3.2-2.6-5.7-5.7-5.7c-3.2,0-5.7,2.6-5.7,5.7c0,3.2,2.6,5.7,5.7,5.7
		C35.5,37.5,38,34.8,38,31.7z M32.3,36.3c-2.5,0-4.6-2.1-4.6-4.6s2.1-4.6,4.6-4.6s4.6,2.1,4.6,4.6S34.8,36.3,32.3,36.3z"/>
</g>
</svg>
