<?xml version="1.0" encoding="utf-8"?>
<!-- Generator: Adobe Illustrator 24.2.1, SVG Export Plug-In . SVG Version: 6.00 Build 0)  -->
<svg version="1.1" id="Capa_1" xmlns="http://www.w3.org/2000/svg" xmlns:xlink="http://www.w3.org/1999/xlink" x="0px" y="0px"
	 viewBox="0 0 70 70" style="enable-background:new 0 0 70 70;" xml:space="preserve">
<style type="text/css">
	.st0{fill-rule:evenodd;clip-rule:evenodd;}
</style>
<desc>Created with Sketch.</desc>
<g id="star">
	<path id="Shape" class="st0" d="M69.9,27.2c-0.1-0.7-0.7-1.2-1.5-1.3l-22.1-3.5L36.6,2.5c-0.3-0.6-0.9-1-1.6-1
		c-0.7,0-1.3,0.4-1.6,1l-9.8,19.9L1.5,25.8c-0.7,0.1-1.3,0.6-1.5,1.3c-0.1,0.7,0,1.3,0.4,1.9l15.8,15.3l-3.8,22.1
		c-0.1,0.7,0.1,1.3,0.7,1.8c0.3,0.3,0.7,0.3,1,0.3c0.3,0,0.6,0,0.9-0.1L35,57.8l19.9,10.5c0.6,0.3,1.3,0.3,1.9-0.1
		c0.6-0.4,0.9-1.2,0.7-1.8l-3.8-22.1l15.8-15.3C69.9,28.6,70.2,27.9,69.9,27.2z M50.5,42.5c-0.4,0.4-0.6,1-0.6,1.6l3.4,19.3
		l-17.5-9.2C35.6,54,35.3,54,35,54c-0.3,0-0.6,0-0.9,0.1l-17.5,9.2l3.4-19.3c0.1-0.6-0.1-1.2-0.6-1.6L5.5,29.1L24.9,26
		c0.6-0.1,1-0.4,1.3-1L35,7.4l8.6,17.4c0.3,0.6,0.7,0.9,1.3,1l19.4,3.1L50.5,42.5z"/>
</g>
</svg>
