<?xml version="1.0" encoding="utf-8"?>
<!-- Generator: Adobe Illustrator 24.2.1, SVG Export Plug-In . SVG Version: 6.00 Build 0)  -->
<svg version="1.1" id="Capa_1" xmlns="http://www.w3.org/2000/svg" xmlns:xlink="http://www.w3.org/1999/xlink" x="0px" y="0px"
	 viewBox="0 0 70 70" style="enable-background:new 0 0 70 70;" xml:space="preserve">
<style type="text/css">
	.st0{fill-rule:evenodd;clip-rule:evenodd;}
</style>
<desc>Created with Sketch.</desc>
<g id="store">
	<path id="Shape" class="st0" d="M60.6,14.1c0-0.8-0.7-1.5-1.6-1.5h-6.7h-0.3h-3.4v-2.3C48.4,3.1,43.1-0.1,38.1,0
		c-1.1,0-2.3,0.3-3.4,0.5C33.6,0.1,32.3,0,31.1,0H31c-5.2,0-10.7,3.7-11,10.5v2.2h-9.2c-0.8,0-1.5,0.7-1.5,1.5v54.2
		c0,0.8,0.7,1.6,1.5,1.6h41.5c0.5,0,1.1-0.3,1.4-0.8l2.4-1.8l2.3,1.5c0.5,0.3,1.1,0.3,1.6,0s0.8-0.8,0.8-1.4L60.6,14.1z M45.5,10.3
		v2.2h-3.9v-2.3c-0.1-3.1-1.2-5.6-2.9-7.2C41.9,3.3,45.3,5.3,45.5,10.3z M34.5,3.8c2,1,3.8,3,3.9,6.5v2.2h-8.3v-2.2
		C30.3,7.1,32.2,4.9,34.5,3.8z M30.2,3.1c-1.8,1.8-3,4.2-3.1,7.2v2.2h-3.9v-2.2C23.4,6,26.6,3.5,30.2,3.1z M50.7,66.9H12.4V15.8h7.7
		v7.1h-1.4c-0.8,0-1.5,0.7-1.5,1.5c0,0.8,0.7,1.5,1.5,1.5h5.3c0.8,0,1.5-0.7,1.5-1.5c0-0.8-0.7-1.5-1.5-1.5h-0.8v-7.1h15.2v7.1h-1.1
		c-0.8,0-1.6,0.7-1.6,1.5c0,0.8,0.7,1.5,1.6,1.5h5c0.8,0,1.6-0.7,1.6-1.5c0-0.8-0.7-1.5-1.6-1.5h-0.8v-7.1h9.1V66.9L50.7,66.9z
		 M57,64.2c-0.5-0.4-1.2-0.3-1.8,0l-1.4,1V15.8h3.5l0.3,48.9L57,64.2z"/>
</g>
</svg>
