<?xml version="1.0" encoding="utf-8"?>
<!-- Generator: Adobe Illustrator 24.2.1, SVG Export Plug-In . SVG Version: 6.00 Build 0)  -->
<svg version="1.1" id="Capa_1" xmlns="http://www.w3.org/2000/svg" xmlns:xlink="http://www.w3.org/1999/xlink" x="0px" y="0px"
	 viewBox="0 0 70 70" style="enable-background:new 0 0 70 70;" xml:space="preserve">
<style type="text/css">
	.st0{fill-rule:evenodd;clip-rule:evenodd;}
</style>
<desc>Created with Sketch.</desc>
<g id="task">
	<path id="Shape" class="st0" d="M56.3,12.9h-4.8v-2c0-2.1-1.6-3.7-3.7-3.7h-3.6C43.1,3,39.6,0,35,0s-8.4,3.1-9.4,7.3h-4.3
		c-2.1,0-3.7,1.6-3.7,3.7v2h-4c-2.8,0-5,2.1-5,5V65c0,2.8,2.1,5,5,5h42.7c2.8,0,5-2.1,5-5V17.9C61.3,15.1,59.2,12.9,56.3,12.9z
		 M21.3,11c0-0.1,0-0.1,0.1-0.1h5.8c1,0,1.7-0.9,1.7-1.7c0-3,2.7-5.5,6-5.5c3.1,0,5.7,2.4,6,5.7c0.1,0.9,0.9,1.6,1.7,1.6h5.1
		c0.1,0,0.1,0,0.1,0.1v7.1c0,0.1,0,0.1-0.1,0.1H21.5c-0.1,0-0.1,0-0.1-0.1V11z M57.8,65c0,0.9-0.6,1.4-1.4,1.4H13.7
		c-0.9,0-1.4-0.6-1.4-1.4V17.9c0-0.9,0.6-1.4,1.4-1.4h4v1.7c0,2.1,1.6,3.7,3.7,3.7h26.5c2.1,0,3.7-1.6,3.7-3.7v-1.7h4.8
		c0.9,0,1.4,0.6,1.4,1.4V65z M35,11.7c1.3,0,2.3-1,2.3-2.3s-1-2.3-2.3-2.3s-2.3,1-2.3,2.3S33.7,11.7,35,11.7z M46.4,31.7L30.3,48.9
		l-6.4-5.7c-0.7-0.7-1.8-0.6-2.6,0.1c-0.7,0.7-0.6,1.8,0.1,2.6l7.7,6.8c0.3,0.3,0.7,0.4,1.1,0.4c0.4,0,1-0.1,1.3-0.6l17.2-18.5
		c0.7-0.7,0.6-1.8-0.1-2.6C48.2,31,47.1,31,46.4,31.7z"/>
</g>
</svg>
