<?xml version="1.0" encoding="utf-8"?>
<!-- Generator: Adobe Illustrator 24.2.1, SVG Export Plug-In . SVG Version: 6.00 Build 0)  -->
<svg version="1.1" id="Capa_1" xmlns="http://www.w3.org/2000/svg" xmlns:xlink="http://www.w3.org/1999/xlink" x="0px" y="0px"
	 viewBox="0 0 70 70" style="enable-background:new 0 0 70 70;" xml:space="preserve">
<style type="text/css">
	.st0{fill-rule:evenodd;clip-rule:evenodd;}
</style>
<desc>Created with Sketch.</desc>
<g id="account">
	<path id="Shape" class="st0" d="M31.6,57.4H16.3c-0.9,0-1.5,0.6-1.5,1.5c0,0.9,0.6,1.5,1.5,1.5h15.2c0.9,0,1.5-0.6,1.5-1.5
		C33,58,32.4,57.4,31.6,57.4z M16,48.3h16.7c0.9,0,1.5-0.6,1.5-1.5v-28c0-0.9-0.6-1.5-1.5-1.5H16c-0.9,0-1.5,0.6-1.5,1.5v28
		C14.6,47.6,15.3,48.3,16,48.3z M17.5,20.4h13.8v25H17.5V20.4z M22.6,12.6h24.7c0.9,0,1.5-0.6,1.5-1.5c0-0.9-0.6-1.5-1.5-1.5H22.6
		c-0.9,0-1.5,0.6-1.5,1.5C21.2,12,21.9,12.6,22.6,12.6z M25,31.5c-1.8-0.6-2.1-0.7-2.1-1.3c0-0.9,0.9-1.3,1.5-1.3
		c0.6,0,1.2,0.1,1.3,1c0.1,0.7,0.9,1.3,1.8,1.2c0.7-0.1,1.3-0.9,1.2-1.8c-0.3-1.6-1.3-2.8-2.9-3.2v-0.6c0-0.9-0.6-1.5-1.5-1.5
		s-1.5,0.6-1.5,1.5v0.7c-1.6,0.6-2.9,1.9-2.9,4c0,2.8,2.5,3.7,4.1,4.1c1.5,0.4,1.6,0.6,1.8,0.9c-0.1,0.4-0.7,0.7-1,0.7
		c-0.9,0.1-1.8-0.1-2.1-0.4c-0.4-0.7-1.3-0.9-2.1-0.4c-0.7,0.4-0.9,1.3-0.4,2.1c0.6,0.9,1.5,1.5,2.6,1.8v0.6c0,0.9,0.6,1.5,1.5,1.5
		s1.5-0.6,1.5-1.5v-0.7c1.5-0.4,2.5-1.6,2.8-2.9v-0.1C29.1,32.7,26.6,31.9,25,31.5z M54.7,17.4H38c-0.9,0-1.5,0.6-1.5,1.5v11.6
		c0,0.9,0.6,1.5,1.5,1.5h16.7c0.9,0,1.5-0.6,1.5-1.5V18.9C56.2,18,55.4,17.4,54.7,17.4z M53.2,29H39.5v-8.6h13.8V29z M56.7,0H13.4
		c-2.9,0-5.3,2.5-5.3,5.3v59.5c0,2.9,2.5,5.3,5.3,5.3h43.2c2.6,0,5.3-1.9,5.3-5V5.3C62,2.5,59.5,0,56.7,0z M58.4,65
		c0,1-1,1.3-1.6,1.3H13.4c-1,0-1.6-0.9-1.6-1.6V5.3c0-0.7,0.7-1.6,1.6-1.6h43.2c1,0,1.6,0.9,1.6,1.6V65H58.4z M41.1,51.7H16.3
		c-0.9,0-1.5,0.6-1.5,1.5c0,0.9,0.6,1.5,1.5,1.5h24.7c0.9,0,1.5-0.6,1.5-1.5C42.5,52.3,42,51.7,41.1,51.7z M54.7,34.1H38
		c-0.9,0-1.5,0.6-1.5,1.5v11.6c0,0.9,0.6,1.5,1.5,1.5h16.7c0.9,0,1.5-0.6,1.5-1.5V35.6C56.2,34.7,55.4,34.1,54.7,34.1z M53.2,45.7
		H39.5v-8.6h13.8V45.7z"/>
</g>
</svg>
