<?xml version="1.0" encoding="utf-8"?>
<!-- Generator: Adobe Illustrator 24.2.1, SVG Export Plug-In . SVG Version: 6.00 Build 0)  -->
<svg version="1.1" id="Capa_1" xmlns="http://www.w3.org/2000/svg" xmlns:xlink="http://www.w3.org/1999/xlink" x="0px" y="0px"
	 viewBox="0 0 70 70" style="enable-background:new 0 0 70 70;" xml:space="preserve">
<style type="text/css">
	.st0{fill-rule:evenodd;clip-rule:evenodd;}
</style>
<desc>Created with Sketch.</desc>
<g id="ahorro">
	<path id="Shape" class="st0" d="M21.2,25.7c-2.6,0-4.9,2.2-4.9,4.9s2.2,4.9,4.9,4.9c2.6,0,4.9-2.2,4.9-4.9
		C26,27.8,23.8,25.7,21.2,25.7z M21.2,32.4c-1,0-1.9-0.9-1.9-1.9s0.9-1.9,1.9-1.9c1,0,1.9,0.9,1.9,1.9S22.2,32.4,21.2,32.4z
		 M68.4,38.7c-2.4-2.5-6.8-3.1-9.6-2.8c0-0.1,0-0.1,0-0.3c-0.7-6.9-3.4-12.3-7.2-15.1c1.6-2.1,2.5-4.7,2.5-7.5
		c0-6.8-5.4-12.2-12.2-12.2c-6.8,0-12.2,5.4-12.2,12.2c0,0.4,0,0.9,0.1,1.2c-3.5-7.8-17.6-7.2-18.2-7.2c-0.6,0-1,0.4-1.3,0.9
		c-0.1,0.6-0.1,1.2,0.3,1.6c2.4,2.6,3.7,6.3,4.1,10.9c-2.8,2.5-4.9,5.9-6.2,10H5.1c-2.5,0-5.1,1.9-5.1,5.1v5.9
		c0,2.5,1.9,5.1,5.1,5.1h2.6c0.3,5.3,2.4,9.3,6.2,11.9v9.1c0,0.9,0.6,1.5,1.5,1.5h11c0.9,0,1.5-0.6,1.5-1.5v-3.4h11.9v3.7
		c0,0.9,0.6,1.5,1.5,1.5H52c0.9,0,1.5-0.6,1.5-1.5V57.3c3.7-4,5.9-10.9,5.6-18.4c2.1-0.3,5.6,0,7.2,1.8c0.7,0.9,1,1.9,0.6,3.4
		c-0.4,1.9-1.8,2.2-2.2,2.2c-0.7,0-1.2-0.3-1.3-0.4c-0.1-0.3,0.1-0.9,1.2-1.8c0.6-0.6,0.7-1.5,0.1-2.1c-0.6-0.6-1.5-0.7-2.1-0.1
		c-2.6,2.4-2.2,4.3-1.9,5.1c0.6,1.5,2.1,2.4,3.8,2.4c0.1,0,0.3,0,0.4,0c1.9-0.1,4.1-1.3,4.9-4.4C70.4,41.9,69.4,39.9,68.4,38.7z
		 M14.6,10.2c3.7,0.1,10,1.2,12.3,4.9c-3.7,0.6-6.9,1.8-9.6,3.4C16.8,15.3,15.9,12.5,14.6,10.2z M50.9,55.7c-0.3,0.3-0.4,0.7-0.4,1
		v10h-7.8v-3.7c0-0.9-0.6-1.5-1.5-1.5H26.3c-0.9,0-1.5,0.6-1.5,1.5v3.4h-8.1v-8.5c0-0.4-0.3-1-0.7-1.3c-3.8-2.4-5.6-5.9-5.6-11.3
		c0-0.9-0.6-1.5-1.5-1.5H4.9c-1.3,0-2.2-1.2-2.2-2.2v-5.9c0-1.3,1.2-2.2,2.2-2.2h4.4c0.6,0,1.2-0.4,1.5-1
		c2.8-8.8,8.4-13.5,17.6-14.7c0.3,0.1,0.6,0.1,0.9,0.1c0.1,0,0.4-0.1,0.6-0.3c0.3,0,0.6,0,0.7,0c0.3,0.9,0.7,1.6,1.2,2.4
		c0.4,0.6,1.5,0.7,2.1,0.3c0.6-0.4,0.7-1.5,0.3-2.1c-1-1.3-1.6-3.2-1.6-5c0-5.1,4.1-9.3,9.3-9.3S51,8.1,51,13.2
		c0,3.5-1.9,6.8-5.1,8.2c-0.7,0.3-1,1.2-0.6,1.9c0.3,0.6,0.7,0.9,1.3,0.9c0.3,0,0.4,0,0.6-0.1c0.7-0.4,1.5-0.9,2.1-1.3
		c3.2,2.1,5.6,7.1,6.3,13.4C56.7,44.1,54.7,51.9,50.9,55.7z M31.5,22.1c-0.7,0.1-1.5,0.7-1.3,1.6c0,0.9,0.7,1.3,1.6,1.3
		c0,0,7.5-0.6,11.8,3.4c0.3,0.3,0.6,0.4,1,0.4c0.4,0,0.7-0.1,1-0.4c0.6-0.6,0.4-1.5-0.1-2.1C40.3,21.3,31.8,21.9,31.5,22.1z
		 M40,18.8v0.9c0,0.4,0.3,0.7,0.7,0.7c0.4,0,0.7-0.3,0.7-0.7v-0.6h0.1c0.1,0,0.3,0,0.4,0c1.9,0,3.4-0.9,4.1-2.5
		c0.3-0.6,0.3-1.3,0.1-1.8c-0.6-1.3-2.2-2.1-4-2.8c-1.2-0.6-2.9-1.2-2.8-1.9c0.1-0.9,0.7-1.2,1.2-1.3c0.4-0.1,1.2-0.1,1.8,0
		c0,0.1,0.1,0.3,0.4,0.4c0.1,0,0.1,0,0.3,0c0.1,0,0.3,0,0.3-0.1c0.6,0.3,1.2,0.7,1.8,1.3c0.3,0.3,0.7,0.3,1,0c0.3-0.3,0.3-0.7,0-1
		c-0.6-0.7-1.3-1.3-2.1-1.6l0.4-0.9c0.1-0.4,0-0.7-0.4-0.9c-0.4-0.1-0.7,0-0.9,0.4l-0.4,1c-0.9-0.3-1.8-0.1-2.5,0
		C39.1,8,38.4,8.8,38.1,10c-0.3,1.8,1.8,2.6,3.7,3.4c1.3,0.6,2.8,1.2,3.1,1.9c0,0.1,0.1,0.3,0,0.7c-0.7,1.6-2.6,1.6-3.1,1.6
		c-1.6-0.1-2.9-1-3.2-2.2c-0.1-0.4-0.4-0.6-0.9-0.6C37.2,15,37,15.3,37,15.7C37.5,17.2,38.5,18.2,40,18.8z"/>
</g>
</svg>
