<?xml version="1.0" encoding="utf-8"?>
<!-- Generator: Adobe Illustrator 24.2.1, SVG Export Plug-In . SVG Version: 6.00 Build 0)  -->
<svg version="1.1" id="Capa_1" xmlns="http://www.w3.org/2000/svg" xmlns:xlink="http://www.w3.org/1999/xlink" x="0px" y="0px"
	 viewBox="0 0 70 70" style="enable-background:new 0 0 70 70;" xml:space="preserve">
<style type="text/css">
	.st0{fill-rule:evenodd;clip-rule:evenodd;}
</style>
<desc>Created with Sketch.</desc>
<g id="amplify">
	<path id="Shape" class="st0" d="M45.7,31.8c0-9.1-7.5-16.6-16.6-16.6s-16.6,7.5-16.6,16.6s7.5,16.6,16.6,16.6S45.7,40.9,45.7,31.8z
		 M29.1,45c-7.2,0-13.1-5.9-13.1-13.1s5.9-13.1,13.1-13.1s13.1,5.9,13.1,13.1S36.2,45,29.1,45z M1.8,25c1,0,1.7-0.8,1.7-1.7V3.5
		h19.1c1,0,1.7-0.8,1.7-1.7S23.5,0,22.5,0H1.8c-1,0-1.7,0.8-1.7,1.7v21.7C0.1,24.3,0.8,25,1.8,25z M22.5,66.5h-19V48
		c0-1-0.8-1.7-1.7-1.7c-0.8,0-1.7,0.8-1.7,1.7v20.3c0,1,0.8,1.7,1.7,1.7h20.8c1,0,1.7-0.8,1.7-1.7S23.5,66.5,22.5,66.5z M68.2,0
		H46.8c-1,0-1.7,0.8-1.7,1.7c0,0.8,0.8,1.7,1.7,1.7h19.6v19.9c0,1,0.8,1.7,1.7,1.7s1.7-0.8,1.7-1.7V1.7C69.9,0.7,69.2,0,68.2,0z
		 M68.2,46.2c-1,0-1.7,0.8-1.7,1.7v18.7H46.8c-1,0-1.7,0.8-1.7,1.7c0,0.8,0.8,1.7,1.7,1.7h21.4c1,0,1.7-0.8,1.7-1.7V48
		C69.9,47,69.2,46.2,68.2,46.2z M52.2,58.2c0.1,0,0.3,0,0.4,0c1.4-0.1,2.6-0.7,3.7-1.8c1.1-1,1.7-2.4,1.7-4c0-1.4-0.6-2.8-1.5-3.9
		c0-0.1-0.1-0.1-0.1-0.3l-8.4-7.5c-0.7-0.6-1.8-0.6-2.4,0.1L40,46.8c-0.3,0.3-0.6,0.8-0.4,1.2c0,0.4,0.3,1,0.6,1.2l8.3,7.3
		C49.5,57.7,50.8,58.2,52.2,58.2z M46.9,44.5l7.1,6.2c0.4,0.6,0.6,1.1,0.7,1.8c0,0.6-0.1,1-0.4,1.2L54.1,54
		c-0.6,0.6-1.1,0.8-1.7,0.8c-0.6,0-1-0.1-1.5-0.7l-7.1-6.2L46.9,44.5z"/>
</g>
</svg>
