<?xml version="1.0" encoding="utf-8"?>
<!-- Generator: Adobe Illustrator 24.2.1, SVG Export Plug-In . SVG Version: 6.00 Build 0)  -->
<svg version="1.1" id="Capa_1" xmlns="http://www.w3.org/2000/svg" xmlns:xlink="http://www.w3.org/1999/xlink" x="0px" y="0px"
	 viewBox="0 0 70 70" style="enable-background:new 0 0 70 70;" xml:space="preserve">
<style type="text/css">
	.st0{fill-rule:evenodd;clip-rule:evenodd;}
</style>
<desc>Created with Sketch.</desc>
<g id="archive">
	<path id="Shape" class="st0" d="M25.6,36.5h26.8c0.9,0,1.5-0.6,1.5-1.5c0-0.9-0.6-1.5-1.5-1.5H25.6c-0.9,0-1.5,0.6-1.5,1.5
		C24,35.9,24.6,36.5,25.6,36.5z M25.6,25.6h26.8c0.9,0,1.5-0.6,1.5-1.5c0-0.9-0.6-1.5-1.5-1.5H25.6c-0.9,0-1.5,0.6-1.5,1.5
		C24,24.9,24.6,25.6,25.6,25.6z M68.5,45.8c0-0.2,0-0.2,0-0.3c0-0.2,0-0.2-0.2-0.3v-0.2l-7.6-10.7V12.5c0-0.9-0.6-1.5-1.5-1.5h-6.7
		V1.5C52.5,0.6,51.9,0,51,0H9.4C8.5,0,7.9,0.6,7.9,1.5v20.9l0,0H3.1l0,0c-0.2,0-0.3,0-0.5,0.2l0,0c0,0-0.2,0-0.2,0.2
		c-0.2,0-0.2,0.2-0.3,0.2L2,23.1c-0.2,0.2-0.2,0.2-0.2,0.3c0,0,0,0.2-0.2,0.2c0,0.2-0.2,0.3-0.2,0.6v23.2c0,0.3,0.2,0.6,0.3,0.9
		L18,69.4l0,0c0.2,0.2,0.2,0.2,0.3,0.3c0,0,0.2,0,0.2,0.2C18.6,70,18.9,70,19,70h47.7c0.9,0,1.5-0.6,1.5-1.5V46
		C68.5,46,68.5,46,68.5,45.8z M60.6,39.8l3.3,4.6h-3.3V39.8z M7.7,25.6L7.7,25.6v2l-1.5-2H7.7z M17.7,64l-13-17.2V28.5l13,16.6V64z
		 M17.7,11c-0.9,0-1.5,0.6-1.5,1.5v25.4l-5.4-7c0.2-0.3,0.3-0.5,0.3-0.8V3.1h38.3V11H17.7z M18.9,41.5c0.2-0.3,0.3-0.6,0.3-0.9V14.1
		h38.3v30.4h-6.3c-0.9,0-1.5,0.6-1.5,1.5v3.3H35.8V46c0-0.9-0.6-1.5-1.5-1.5H20.8l0,0c0-0.3-0.2-0.6-0.3-0.9L18.9,41.5z M65.4,66.9
		H20.8V47.5h11.9v3.3c0,0.9,0.6,1.5,1.5,1.5h16.9c0.9,0,1.5-0.6,1.5-1.5v-3.3h12.7V66.9L65.4,66.9z M25.6,30.2h26.8
		c0.9,0,1.5-0.6,1.5-1.5s-0.6-1.5-1.5-1.5H25.6c-0.9,0-1.5,0.6-1.5,1.5S24.6,30.2,25.6,30.2z"/>
</g>
</svg>
