<?xml version="1.0" encoding="utf-8"?>
<!-- Generator: Adobe Illustrator 24.2.1, SVG Export Plug-In . SVG Version: 6.00 Build 0)  -->
<svg version="1.1" id="Capa_1" xmlns="http://www.w3.org/2000/svg" xmlns:xlink="http://www.w3.org/1999/xlink" x="0px" y="0px"
	 viewBox="0 0 70 70" style="enable-background:new 0 0 70 70;" xml:space="preserve">
<style type="text/css">
	.st0{fill-rule:evenodd;clip-rule:evenodd;}
</style>
<desc>Created with Sketch.</desc>
<g id="arrow-lg-top">
	<path id="Path" class="st0" d="M9.4,27.3c1.2,1.2,3,1.2,4.2,0L31.4,10v57c0,1.7,1.3,3,3,3s3-1.3,3-3V9.9l18.3,17.6
		c1.2,1.2,3,1,4.2-0.2c1.2-1.2,1-3-0.2-4.2L36.4,0.9c-0.5-0.5-1.3-0.8-2-0.8c-0.7,0-1.5,0.3-2,0.8L9.6,23.2
		C8.4,24.3,8.3,26.2,9.4,27.3z"/>
</g>
</svg>
