<?xml version="1.0" encoding="utf-8"?>
<!-- Generator: Adobe Illustrator 24.2.1, SVG Export Plug-In . SVG Version: 6.00 Build 0)  -->
<svg version="1.1" id="Capa_1" xmlns="http://www.w3.org/2000/svg" xmlns:xlink="http://www.w3.org/1999/xlink" x="0px" y="0px"
	 viewBox="0 0 70 70" style="enable-background:new 0 0 70 70;" xml:space="preserve">
<style type="text/css">
	.st0{fill-rule:evenodd;clip-rule:evenodd;}
</style>
<desc>Created with Sketch.</desc>
<g id="bell">
	<path id="Shape" class="st0" d="M41.7,62.7c-0.7-0.4-1.6-0.1-1.9,0.7c-1.1,2.4-3,3.7-4.9,3.6c-1.9,0-3.7-1.4-4.6-3.5
		c-0.3-0.7-1.1-1.1-1.8-0.8c-0.7,0.4-1,1.2-0.8,1.9c1.3,3.2,4,5.3,7.1,5.4c0.1,0,0.1,0,0.2,0c3,0,5.7-1.9,7.3-5.3
		C42.7,63.9,42.4,63.1,41.7,62.7z M30.3,5.9c0.8,0.1,1.4-0.3,1.7-1.1c0.2-1.4,1.4-1.9,2.4-1.9c1,0,2.2,0.5,2.4,1.9
		c0.1,0.7,0.7,1.1,1.3,1.1c0.1,0,0.1,0,0.2,0c0.8-0.1,1.2-0.9,1.1-1.7C39,1.7,36.9,0,34.2,0l0,0c-2.7,0-4.8,1.7-5.2,4.2
		C29,5,29.5,5.7,30.3,5.9z M56.5,46.9c-2.6-1.8-2-8.9-1.6-13.5c0.1-2.1,0.4-4,0.2-5.3c0.4-4-0.8-9.8-4.8-14.3
		c-3.7-4-8.9-6.2-15.4-6.4c-6-0.1-11.1,1.8-14.6,5.5c-4.6,4.9-5.9,11.7-5.4,16c0.1,1.3,0.2,2.5,0.5,3.7c0.7,5.9,1.5,12.4-0.8,14
		c-4.1,2-6.9,6.7-6.1,10.3c0.2,1.2,1.4,4,6.1,4h41.7h0.1c2.9-0.4,4.9-2,5.4-4.6C62.4,53.1,60.1,48.9,56.5,46.9z M58.8,55.9
		c-0.2,1.3-1.2,2-2.7,2.2H14.5c-1.9,0-2.9-0.6-3.3-1.7c-0.5-2,1.4-5.5,4.6-7c0.1,0,0.1-0.1,0.1-0.1c4-2.6,3.2-9.4,2.2-16.7
		c-0.1-1.3-0.4-2.4-0.5-3.7c-0.4-3.7,0.7-9.5,4.7-13.7c2.9-3,6.9-4.6,11.7-4.6c0.2,0,0.4,0,0.6,0l0,0c5.7,0.1,10.2,2,13.2,5.3
		c3.4,3.8,4.3,8.7,4.1,12.1c0,0.1,0,0.1,0,0.2c0.1,1,0,2.9-0.2,4.9c-0.5,5.9-1.2,13.5,2.9,16.2c0,0,0.1,0,0.1,0.1
		C57.7,50.8,59.1,53.9,58.8,55.9z"/>
</g>
</svg>
