<?xml version="1.0" encoding="utf-8"?>
<!-- Generator: Adobe Illustrator 24.2.1, SVG Export Plug-In . SVG Version: 6.00 Build 0)  -->
<svg version="1.1" id="Capa_1" xmlns="http://www.w3.org/2000/svg" xmlns:xlink="http://www.w3.org/1999/xlink" x="0px" y="0px"
	 viewBox="0 0 70 70" style="enable-background:new 0 0 70 70;" xml:space="preserve">
<style type="text/css">
	.st0{fill-rule:evenodd;clip-rule:evenodd;}
</style>
<desc>Created with Sketch.</desc>
<g id="bubble">
	<path id="Shape" class="st0" d="M69.5,23.8c-1.2-6.7-5.2-12.6-11.3-16.6c-8-5.5-18.5-7.3-28.8-5.2c-19.3,3.9-32,19.3-29,35.2
		c2.3,11,11.7,19.4,24.5,22c3.2,5.3,9.6,9.7,14.4,9.7c0.4,0,0.6,0,1-0.1c0.6-0.1,2.1-0.2,2.5-1.6c0.5-1.3-0.5-2.4-1.8-3.9
		c-1-1-2.2-2.3-2.9-3.9c0.7-0.1,1.6-0.2,2.5-0.5c10.4-2.1,19.4-7.8,24.6-15.7C69.4,37.2,70.9,30.5,69.5,23.8z M62.8,41.7
		C58,48.9,49.7,54.2,40.1,56.1c-1.8,0.4-3.2,0.5-4.1,0.5H34l0.6,1.9c0.8,3,3,5.3,4.4,6.9c0.1,0.1,0.2,0.2,0.4,0.4
		c-3.5-0.1-9.3-3.6-12-8.7l-0.4-0.6l-0.7-0.1c-12-2.2-20.8-9.7-22.7-19.7C0.9,22.7,12.8,8.4,30.2,5c2.5-0.5,5.1-0.7,7.6-0.7
		c6.9,0,13.5,1.8,18.7,5.5c5.5,3.6,9,8.9,10.1,14.7l0,0C67.7,30.3,66.5,36.2,62.8,41.7z"/>
</g>
</svg>
