<?xml version="1.0" encoding="utf-8"?>
<!-- Generator: Adobe Illustrator 24.2.1, SVG Export Plug-In . SVG Version: 6.00 Build 0)  -->
<svg version="1.1" id="Capa_1" xmlns="http://www.w3.org/2000/svg" xmlns:xlink="http://www.w3.org/1999/xlink" x="0px" y="0px"
	 viewBox="0 0 70 70" style="enable-background:new 0 0 70 70;" xml:space="preserve">
<style type="text/css">
	.st0{fill-rule:evenodd;clip-rule:evenodd;}
</style>
<desc>Created with Sketch.</desc>
<g id="calendar">
	<path id="Shape" class="st0" d="M47.8,44.6h9.9c1,0,1.7-0.8,1.7-1.7V32.1c0-1-0.8-1.7-1.7-1.7h-9.9c-1,0-1.7,0.8-1.7,1.7v10.8
		C46.1,43.7,46.8,44.6,47.8,44.6z M49.6,33.8H56v7.3h-6.4V33.8z M23.3,8.8h23.6c1,0,1.7-0.8,1.7-1.7c0-0.8-0.8-1.7-1.7-1.7H23.3
		c-1,0-1.7,0.8-1.7,1.7C21.7,8,22.4,8.8,23.3,8.8z M52,16.8c1,0,1.7-0.8,1.7-1.7V2.2c0-1-0.8-1.7-1.7-1.7c-0.8,0-1.7,0.8-1.7,1.7
		v12.9C50.2,15.9,51,16.8,52,16.8z M17.9,16.3c1,0,1.7-0.8,1.7-1.7V1.8c0-1-0.8-1.7-1.7-1.7c-0.8,0-1.7,0.8-1.7,1.7v12.9
		C16.2,15.5,16.9,16.3,17.9,16.3z M58.1,5.3c-1,0-1.7,0.8-1.7,1.7s0.8,1.7,1.7,1.7c4.8,0,8.2,3.6,8.2,8.7V21H3.5v-3.6
		c0-5,3.5-8.7,8.2-8.7c1,0,1.7-0.8,1.7-1.7s-0.8-1.7-1.7-1.7C5,5.3,0,10.5,0,17.5v40.7c0,6.6,5.2,11.7,11.7,11.7h46.5
		c6.3,0,11.7-5.3,11.7-11.7V17.5C69.9,10.6,64.8,5.3,58.1,5.3z M66.4,58.1c0,4.5-3.8,8.2-8.2,8.2H11.7c-4.6,0-8.2-3.6-8.2-8.2V24.6
		h62.9V58.1z M13,60.8h9.9c1,0,1.7-0.8,1.7-1.7V48.3c0-1-0.8-1.7-1.7-1.7H13c-1,0-1.7,0.8-1.7,1.7v10.8C11.2,59.9,12,60.8,13,60.8z
		 M14.7,50h6.4v7.3h-6.4V50z M13,44.6h9.9c1,0,1.7-0.8,1.7-1.7V32.1c0-1-0.8-1.7-1.7-1.7H13c-1,0-1.7,0.8-1.7,1.7v10.8
		C11.2,43.7,12,44.6,13,44.6z M14.7,33.8h6.4v7.3h-6.4V33.8z M29.9,44.6h9.9c1,0,1.7-0.8,1.7-1.7V32.1c0-1-0.8-1.7-1.7-1.7h-9.9
		c-1,0-1.7,0.8-1.7,1.7v10.8C28.2,43.7,28.9,44.6,29.9,44.6z M31.7,33.8h6.4v7.3h-6.4V33.8z M29.9,60.8h9.9c1,0,1.7-0.8,1.7-1.7
		V48.3c0-1-0.8-1.7-1.7-1.7h-9.9c-1,0-1.7,0.8-1.7,1.7v10.8C28.2,59.9,28.9,60.8,29.9,60.8z M31.7,50h6.4v7.3h-6.4V50z"/>
</g>
</svg>
