<?xml version="1.0" encoding="utf-8"?>
<!-- Generator: Adobe Illustrator 24.2.1, SVG Export Plug-In . SVG Version: 6.00 Build 0)  -->
<svg version="1.1" id="Capa_1" xmlns="http://www.w3.org/2000/svg" xmlns:xlink="http://www.w3.org/1999/xlink" x="0px" y="0px"
	 viewBox="0 0 70 70" style="enable-background:new 0 0 70 70;" xml:space="preserve">
<style type="text/css">
	.st0{fill-rule:evenodd;clip-rule:evenodd;}
</style>
<desc>Created with Sketch.</desc>
<g id="camera">
	<path id="Shape" class="st0" d="M34.7,29.4c-5.2,0-9.4,4.2-9.4,9.4s4.2,9.4,9.4,9.4s9.4-4.2,9.4-9.4C44.1,33.7,39.9,29.4,34.7,29.4
		z M34.7,45.2c-3.4,0-6.3-2.8-6.3-6.3c0-3.4,2.8-6.3,6.3-6.3s6.3,2.8,6.3,6.3C41,42.4,38.3,45.2,34.7,45.2z M34.7,22.7
		c-8.9,0-16.1,7.3-16.1,16.1c0,8.9,7.3,16.1,16.1,16.1c8.9,0,16.1-7.3,16.1-16.1C50.8,30,43.6,22.7,34.7,22.7z M34.7,51.9
		c-7.1,0-13-5.8-13-13s5.8-13,13-13s13,5.8,13,13S41.9,51.9,34.7,51.9z M67.6,17.8c-1.6-1.6-3.9-2.7-6.3-2.7h-8.6
		c-1-4.5-4.3-8.8-10-9.2l0,0H27.4c-5.8,0.3-8.8,4.9-9.5,9.2H8.8C4,15.1,0,19,0,23.9v31.4c0,4.8,3.9,8.8,8.8,8.8h52.4
		c4.8,0,8.8-3.9,8.8-8.8V24.1C70,21.7,69.1,19.4,67.6,17.8z M66.7,55.3c0,3.1-2.5,5.7-5.7,5.7H8.6C5.5,61,3,58.5,3,55.3V23.9
		c0-3.1,2.5-5.7,5.7-5.7h11.8l0.1-1.3c0.4-3.7,2.4-7.6,6.7-7.9h15.2c4.8,0.4,7,4.5,7.3,7.9l0.1,1.3h11.3c1.5,0,3,0.6,4,1.6
		c1,1,1.5,2.4,1.3,3.9v31.6H66.7z"/>
</g>
</svg>
