<?xml version="1.0" encoding="utf-8"?>
<!-- Generator: Adobe Illustrator 24.2.1, SVG Export Plug-In . SVG Version: 6.00 Build 0)  -->
<svg version="1.1" id="Capa_1" xmlns="http://www.w3.org/2000/svg" xmlns:xlink="http://www.w3.org/1999/xlink" x="0px" y="0px"
	 viewBox="0 0 70 70" style="enable-background:new 0 0 70 70;" xml:space="preserve">
<style type="text/css">
	.st0{fill-rule:evenodd;clip-rule:evenodd;}
</style>
<desc>Created with Sketch.</desc>
<g id="card-arl">
	<path id="Shape" class="st0" d="M65.3,14.1H4.5c-2.5,0-4.5,2-4.5,4.5v32.7c0,2.5,2,4.5,4.5,4.5h60.9c2.5,0,4.5-2,4.5-4.5V18.8
		C70,16.3,67.9,14.1,65.3,14.1z M67.7,51.3c0,1.3-1.1,2.4-2.4,2.4H4.5c-1.3,0-2.4-1.1-2.4-2.4V18.8c0-1.3,1.1-2.4,2.4-2.4h60.9
		c1.3,0,2.4,1.1,2.4,2.4v32.5H67.7z M46.2,33.4h1.4v-4.9h1.4c1.4,0,2,0.6,2.3,2.3c0.3,1.4,0.6,2.4,0.7,2.7h1.6
		c-0.3-0.4-0.6-1.6-0.8-3.1c-0.3-1.1-0.8-2-1.7-2.3l0,0c1.1-0.4,2.1-1.4,2.1-3c0-0.8-0.3-1.7-0.8-2.1c-0.7-0.7-1.7-1-3.3-1
		c-1,0-2.1,0.1-2.8,0.3l0,0V33.4z M47.7,23.1c0.3-0.1,0.7-0.1,1.4-0.1c1.6,0,2.7,0.7,2.7,2.1c0,1.3-1,2.1-2.5,2.1h-1.6V23.1z
		 M51.6,43h-17c-0.6,0-1.1,0.4-1.1,1.1c0,0.7,0.4,1.1,1.1,1.1h17c0.6,0,1.1-0.4,1.1-1.1C52.7,43.4,52.2,43,51.6,43z M61.7,32.1h-4.8
		V21.9h-1.6v11.5h6.4V32.1z M28.7,23.3c-4.4,0.4-7.8-0.8-10.5-3.8c-0.1-0.3-0.4-0.3-0.7-0.4c-0.3,0-0.6,0.1-0.7,0.3
		c-3.7,3.1-6.8,4.4-9.9,4c-0.3,0-0.6,0-0.8,0.3c-0.3,0.1-0.4,0.4-0.4,0.8v18.1c0,0.4,0.1,0.7,0.4,0.8l10.7,7.1
		c0.1,0.1,0.4,0.1,0.6,0.1s0.4,0,0.6-0.1l11.3-7.1c0.3-0.1,0.6-0.6,0.6-0.8V24.3c0-0.3-0.1-0.6-0.3-0.8C29.3,23.3,29,23.3,28.7,23.3
		z M27.7,41.9l-10.3,6.4l-9.6-6.4V25.5c3.1,0,6.2-1.3,9.6-4c2.8,2.8,6.2,4.1,10.5,4v16.4H27.7z M61.5,36.9H34.6
		c-0.6,0-1.1,0.4-1.1,1.1c0,0.7,0.4,1.1,1.1,1.1h26.9c0.6,0,1.1-0.4,1.1-1.1C62.6,37.3,62.1,36.9,61.5,36.9z M37.6,29.7h4.1l1.3,3.5
		h1.6l-4-11.3h-1.8l-3.8,11.5h1.6L37.6,29.7z M39.2,25.3c0.3-0.7,0.4-1.4,0.6-2.1l0,0c0.1,0.7,0.3,1.4,0.6,2.1l1.1,3.3H38L39.2,25.3
		z M24.7,33.1h-5.7v-5.7c0-0.6-0.4-1.1-1.1-1.1s-1.1,0.4-1.1,1.1v5.7h-5.7c-0.6,0-1.1,0.4-1.1,1.1c0,0.7,0.4,1.1,1.1,1.1h5.7V41
		c0,0.6,0.4,1.1,1.1,1.1s1.1-0.4,1.1-1.1v-5.7h5.7c0.6,0,1.1-0.4,1.1-1.1C25.9,33.5,25.3,33.1,24.7,33.1z"/>
</g>
</svg>
