<?xml version="1.0" encoding="utf-8"?>
<!-- Generator: Adobe Illustrator 24.2.1, SVG Export Plug-In . SVG Version: 6.00 Build 0)  -->
<svg version="1.1" id="Capa_1" xmlns="http://www.w3.org/2000/svg" xmlns:xlink="http://www.w3.org/1999/xlink" x="0px" y="0px"
	 viewBox="0 0 70 70" style="enable-background:new 0 0 70 70;" xml:space="preserve">
<style type="text/css">
	.st0{fill-rule:evenodd;clip-rule:evenodd;}
</style>
<desc>Created with Sketch.</desc>
<g id="card-cedula-tiro">
	<path id="Shape" class="st0" d="M10.7,45.5c0.6,0,1.1-0.4,1.1-1.1v-3c0.3-0.7,0.7-1.4,2.4-1.8h5.4c1.4,0.3,2.4,0.8,3,1.8v3
		c0,0.6,0.4,1.1,1.1,1.1c0.7,0,1.1-0.4,1.1-1.1v-3.3c0-0.1,0-0.3-0.1-0.6c-0.8-1.7-2.5-2.8-4.7-3.3h-0.1h-5.5h-0.1
		c-2.7,0.6-3.8,2.1-4.2,3.4c0,0.1,0,0.1,0,0.3v3.1C9.8,45.1,10.2,45.5,10.7,45.5z M17.3,37.2c2.4,0,4.5-2,4.5-4.5v-1.8
		c0-2.5-2-4.5-4.5-4.5s-4.5,2-4.5,4.5v1.7C12.7,35.1,14.7,37.2,17.3,37.2z M14.8,30.8c0-1.3,1.1-2.4,2.4-2.4s2.4,1.1,2.4,2.4v1.7
		c0,1.3-1.1,2.4-2.4,2.4s-2.4-1.1-2.4-2.4V30.8z M61.5,24.6H34.6c-0.6,0-1.1,0.4-1.1,1.1c0,0.7,0.4,1.1,1.1,1.1h26.9
		c0.6,0,1.1-0.4,1.1-1.1C62.6,25,62.1,24.6,61.5,24.6z M65.3,14.1H4.5c-2.5,0-4.5,2-4.5,4.5v32.7c0,2.5,2,4.5,4.5,4.5h60.9
		c2.5,0,4.5-2,4.5-4.5V18.8C70,16.3,67.9,14.1,65.3,14.1z M67.7,51.3c0,1.3-1.1,2.4-2.4,2.4H4.5c-1.3,0-2.4-1.1-2.4-2.4V18.8
		c0-1.3,1.1-2.4,2.4-2.4h60.9c1.3,0,2.4,1.1,2.4,2.4v32.5H67.7z M61.5,33.8H34.6c-0.6,0-1.1,0.4-1.1,1.1s0.4,1.1,1.1,1.1h26.9
		c0.6,0,1.1-0.4,1.1-1.1S62.1,33.8,61.5,33.8z M51.6,43h-17c-0.6,0-1.1,0.4-1.1,1.1c0,0.7,0.4,1.1,1.1,1.1h17c0.6,0,1.1-0.4,1.1-1.1
		C52.7,43.4,52.2,43,51.6,43z M28.8,23.3H6.6c-0.6,0-1.1,0.4-1.1,1.1v22.3c0,0.6,0.4,1.1,1.1,1.1h22.1c0.6,0,1.1-0.4,1.1-1.1V24.3
		C29.8,23.8,29.4,23.3,28.8,23.3z M27.7,45.7H7.8V25.5h19.9V45.7z"/>
</g>
</svg>
