<?xml version="1.0" encoding="utf-8"?>
<!-- Generator: Adobe Illustrator 24.2.1, SVG Export Plug-In . SVG Version: 6.00 Build 0)  -->
<svg version="1.1" id="Capa_1" xmlns="http://www.w3.org/2000/svg" xmlns:xlink="http://www.w3.org/1999/xlink" x="0px" y="0px"
	 viewBox="0 0 70 70" style="enable-background:new 0 0 70 70;" xml:space="preserve">
<style type="text/css">
	.st0{fill-rule:evenodd;clip-rule:evenodd;}
</style>
<desc>Created with Sketch.</desc>
<g id="card">
	<path id="Shape" class="st0" d="M18.3,37.8H6c-0.7,0-1.3,0.6-1.3,1.3s0.6,1.3,1.3,1.3h12.2c0.7,0,1.3-0.6,1.3-1.3
		S19,37.8,18.3,37.8z M6.7,35h14.1c0.7,0,1.3-0.6,1.3-1.3v-8.3c0-0.7-0.6-1.3-1.3-1.3H6.7c-0.7,0-1.3,0.6-1.3,1.3v8.3
		C5.5,34.4,6,35,6.7,35z M8,26.7h11.5v5.8H8V26.7z M33.6,37.8H21.5c-0.7,0-1.3,0.6-1.3,1.3s0.6,1.3,1.3,1.3h12.1
		c0.7,0,1.3-0.6,1.3-1.3S34.3,37.8,33.6,37.8z M64.4,37.8H52.3c-0.7,0-1.3,0.6-1.3,1.3s0.6,1.3,1.3,1.3h12.1c0.7,0,1.3-0.6,1.3-1.3
		S65.1,37.8,64.4,37.8z M61.4,43.7c-0.7,0-1.4,0.1-2.1,0.6c-0.6-0.4-1.3-0.6-2.1-0.6c-2.4,0-4.2,1.8-4.2,4.2c0,2.4,1.8,4.2,4.2,4.2
		c0.7,0,1.4-0.3,2.1-0.6c0.7,0.4,1.4,0.6,2.1,0.6c2.4,0,4.2-1.8,4.2-4.2C65.6,45.5,63.8,43.7,61.4,43.7z M57.2,49.6
		c-1,0-1.7-0.7-1.7-1.7c0-1,0.7-1.7,1.7-1.7s1.7,0.7,1.7,1.7C58.9,48.9,58.2,49.6,57.2,49.6z M61.4,49.6c-0.1,0-0.3,0-0.3,0
		c0.1-0.6,0.3-1,0.3-1.7c0-0.6-0.1-1.1-0.3-1.7c0.1,0,0.3,0,0.3,0c1,0,1.7,0.7,1.7,1.7C63.1,48.9,62.4,49.6,61.4,49.6z M65.4,14.1
		H4.8c-2.7,0-4.8,2.1-4.8,4.8v32.3c0,2.7,2.1,4.8,4.8,4.8h60.4c2.7,0,4.8-2.1,4.8-4.6V18.8C70,16.2,67.9,14.1,65.4,14.1z M67.5,51.3
		c0,1.1-1,2.1-2.2,2.1H4.8c-1.3,0-2.2-1-2.2-2.2V18.8c0-1.3,1-2.2,2.2-2.2h60.6c1.1,0,2.1,1,2.1,2.2V51.3z M49.1,37.8H36.8
		c-0.7,0-1.3,0.6-1.3,1.3s0.6,1.3,1.3,1.3h12.2c0.7,0,1.3-0.6,1.3-1.3S49.8,37.8,49.1,37.8z"/>
</g>
</svg>
