<?xml version="1.0" encoding="utf-8"?>
<!-- Generator: Adobe Illustrator 24.2.1, SVG Export Plug-In . SVG Version: 6.00 Build 0)  -->
<svg version="1.1" id="Capa_1" xmlns="http://www.w3.org/2000/svg" xmlns:xlink="http://www.w3.org/1999/xlink" x="0px" y="0px"
	 viewBox="0 0 70 70" style="enable-background:new 0 0 70 70;" xml:space="preserve">
<style type="text/css">
	.st0{fill-rule:evenodd;clip-rule:evenodd;}
</style>
<desc>Created with Sketch.</desc>
<g id="chair">
	<path id="Shape" class="st0" d="M69.1,51.7c-1-0.6-2.2-0.3-2.7,0.6c-2.2,3.4-5.5,6.1-9.6,8.2l-3.4-13.2l3.9-0.5
		c0.3,0,0.6-0.2,0.8-0.3c2.4-1.6,2.9-4.8,2.4-7.1c-0.5-2.4-1.9-3.9-4-4.2c-0.2,0-0.5,0-0.6,0L50.6,36L49,29.7c3.4-1,6.3-2.2,8.2-3.7
		c1-0.6,1.1-1.9,0.5-2.7c-0.6-1-1.9-1.1-2.7-0.5c-5.9,4.3-24.7,6.9-31.5,7.5c0,0,0,0-0.2,0L15.8,3.1c-0.2-0.3-0.3-0.6-0.5-0.8
		c-2.1-2.1-5.9-1.9-8.8-0.8C4.2,2.4,2.8,4,2.8,5.8c0,0.2,0,0.5,0.2,0.6c10,29.9,14.1,40.3,16.5,43.8l-1.9,13
		c-5.6-1.6-10.6-4-14.1-7.1c-0.8-0.8-2.1-0.6-2.9,0.2s-0.6,2.1,0.2,2.9c4.2,3.7,10.3,6.4,17,8.2c0.3,0.3,0.6,0.5,1.1,0.5
		c0.2,0,0.2,0,0.3,0c0.2,0,0.3,0,0.6-0.2c4.5,1,9.5,1.6,14.3,1.6c3.1,0,5.9-0.2,9-0.6C55.3,67,64.8,62,69.7,54.4
		C70.2,53.6,70.1,52.3,69.1,51.7z M45.2,30.7l1.4,5.8l-20.7,3.2L24.3,34C26.9,33.9,36.5,32.9,45.2,30.7z M6.8,5.6
		c0.3-0.3,1.3-0.8,2.7-1.1c1.1-0.2,1.9,0,2.4,0.2l10.6,37.9c0.3,1,1.3,1.6,2.2,1.4l31.3-4.8c0.2,0.2,0.5,0.6,0.5,1.1
		c0.2,1,0,2.1-0.5,2.7l-33.9,4.5C19.8,43,11.9,21.2,6.8,5.6z M42.4,64.9c-7.1,1-14.5,0.6-21-0.6L23,51.4l26.3-3.5l3.5,14.3
		C49.8,63.4,46.3,64.2,42.4,64.9z"/>
</g>
</svg>
