<?xml version="1.0" encoding="utf-8"?>
<!-- Generator: Adobe Illustrator 24.2.1, SVG Export Plug-In . SVG Version: 6.00 Build 0)  -->
<svg version="1.1" id="Capa_1" xmlns="http://www.w3.org/2000/svg" xmlns:xlink="http://www.w3.org/1999/xlink" x="0px" y="0px"
	 viewBox="0 0 70 70" style="enable-background:new 0 0 70 70;" xml:space="preserve">
<style type="text/css">
	.st0{fill-rule:evenodd;clip-rule:evenodd;}
</style>
<desc>Created with Sketch.</desc>
<g id="check">
	<path id="Shape" class="st0" d="M48.4,24.1L33.3,42l-10.9-6.5c-1.5-0.9-3.4-0.4-4.3,1.1c-0.9,1.5-0.4,3.4,1.1,4.3l13.2,7.9
		c0.5,0.3,1,0.5,1.7,0.5c0.9,0,1.8-0.4,2.4-1.1l16.8-20c1.1-1.4,1-3.3-0.4-4.5C51.5,22.5,49.5,22.7,48.4,24.1z M35,0
		C15.7,0,0,15.7,0,35s15.7,35,35,35s35-15.7,35-35S54.3,0,35,0z M35,66.2c-17.2,0-31.2-14-31.2-31.2S17.8,3.8,35,3.8
		s31.2,14,31.2,31.2S52.2,66.2,35,66.2z"/>
</g>
</svg>
