<?xml version="1.0" encoding="utf-8"?>
<!-- Generator: Adobe Illustrator 24.2.1, SVG Export Plug-In . SVG Version: 6.00 Build 0)  -->
<svg version="1.1" id="Capa_1" xmlns="http://www.w3.org/2000/svg" xmlns:xlink="http://www.w3.org/1999/xlink" x="0px" y="0px"
	 viewBox="0 0 70 70" style="enable-background:new 0 0 70 70;" xml:space="preserve">
<style type="text/css">
	.st0{fill-rule:evenodd;clip-rule:evenodd;}
</style>
<desc>Created with Sketch.</desc>
<g id="close">
	<path id="Path" class="st0" d="M39.6,35.1L68.8,5.6c1.3-1.3,1.3-3.3,0-4.6c-1.3-1.3-3.3-1.3-4.6,0L34.8,30.4L5.8,1
		C4.5-0.3,2.5-0.3,1.2,1c-1.3,1.3-1.3,3.3,0,4.6l29.2,29.5L1.2,64.5c-1.3,1.3-1.3,3.3,0,4.6C1.8,69.8,2.7,70,3.6,70
		c0.9,0,1.8-0.2,2.4-0.9l29-29.5l29,29.5c0.7,0.7,1.5,0.9,2.4,0.9s1.8-0.2,2.4-0.9c1.3-1.3,1.3-3.3,0-4.6L39.6,35.1z"/>
</g>
</svg>
