<?xml version="1.0" encoding="utf-8"?>
<!-- Generator: Adobe Illustrator 24.2.1, SVG Export Plug-In . SVG Version: 6.00 Build 0)  -->
<svg version="1.1" id="Capa_1" xmlns="http://www.w3.org/2000/svg" xmlns:xlink="http://www.w3.org/1999/xlink" x="0px" y="0px"
	 viewBox="0 0 70 70" style="enable-background:new 0 0 70 70;" xml:space="preserve">
<style type="text/css">
	.st0{fill-rule:evenodd;clip-rule:evenodd;}
</style>
<desc>Created with Sketch.</desc>
<g id="close-full">
	<path id="Shape" class="st0" d="M35,0C15.7,0,0,15.7,0,35s15.7,35,35,35s35-15.7,35-35S54.3,0,35,0z M48.4,46.1
		c0.6,0.6,0.6,1.7,0,2.3c-0.3,0.3-0.8,0.5-1.1,0.5s-0.8-0.1-1.1-0.5L35,37.3L23.9,48.4c-0.3,0.3-0.8,0.5-1.1,0.5s-0.8-0.1-1.1-0.5
		c-0.6-0.6-0.6-1.7,0-2.3L32.7,35L21.6,23.9c-0.6-0.6-0.6-1.7,0-2.3s1.7-0.6,2.3,0L35,32.7l11.1-11.1c0.6-0.6,1.7-0.6,2.3,0
		s0.6,1.7,0,2.3L37.3,35L48.4,46.1z"/>
</g>
</svg>
