<?xml version="1.0" encoding="utf-8"?>
<!-- Generator: Adobe Illustrator 24.2.1, SVG Export Plug-In . SVG Version: 6.00 Build 0)  -->
<svg version="1.1" id="Capa_1" xmlns="http://www.w3.org/2000/svg" xmlns:xlink="http://www.w3.org/1999/xlink" x="0px" y="0px"
	 viewBox="0 0 70 70" style="enable-background:new 0 0 70 70;" xml:space="preserve">
<style type="text/css">
	.st0{fill-rule:evenodd;clip-rule:evenodd;}
</style>
<desc>Created with Sketch.</desc>
<g id="cure">
	<path id="Shape" class="st0" d="M37.3,35.3c-0.9,0-1.6,0.7-1.6,1.6c0,0.9,0.7,1.6,1.6,1.6c0.9,0,1.6-0.7,1.6-1.6
		C38.9,36,38.2,35.3,37.3,35.3z M29.4,35.3c-0.9,0-1.6,0.7-1.6,1.6c0,0.9,0.7,1.6,1.6,1.6c0.9,0,1.6-0.7,1.6-1.6
		C31,36,30.3,35.3,29.4,35.3z M33.1,39.6c-0.9,0-1.6,0.7-1.6,1.6s0.7,1.6,1.6,1.6c0.9,0,1.6-0.7,1.6-1.6S34,39.6,33.1,39.6z
		 M33.1,31.2c-0.9,0-1.6,0.7-1.6,1.6c0,0.9,0.7,1.6,1.6,1.6c0.9,0,1.6-0.7,1.6-1.6C34.7,31.9,34,31.2,33.1,31.2z M38.7,17.4
		c-0.6-0.6-1.4-0.6-2,0L18.5,35.6c-0.6,0.6-0.6,1.4,0,2l13.9,14.1c0.3,0.3,0.6,0.4,1,0.4l0,0c0.4,0,0.7-0.1,1-0.4l18.4-18.3
		c0.3-0.3,0.4-0.6,0.4-1c0-0.4-0.1-0.7-0.4-1L38.7,17.4z M33.4,48.7L21.5,36.6l16.2-16.2l12.1,12.1L33.4,48.7z M42.2,33.9
		c0.9,0,1.6-0.7,1.6-1.6c0-0.9-0.7-1.6-1.6-1.6c-0.9,0-1.6,0.7-1.6,1.6C40.6,33,41.3,33.9,42.2,33.9z M65,5c-7.2-6.6-18.4-6.6-25,0
		L5,40.1c-6.6,7.2-6.6,18.4,0,25c3.2,3.3,7.8,4.9,12.2,4.9c4.6,0,9.2-1.6,12.8-4.9L65,30C71.7,22.8,71.7,11.6,65,5z M62.5,27.6
		L27.5,62.5c-5.7,5.3-14.9,5.3-20.1,0l0,0c-5.3-5.3-5.3-14.2,0-20L42.3,7.6c2.6-2.6,6.2-3.9,9.8-3.9c3.6,0,7.3,1.3,10.2,3.9
		C67.8,12.8,67.8,21.8,62.5,27.6z M36.1,28.4c0,0.9,0.7,1.6,1.6,1.6c0.9,0,1.6-0.7,1.6-1.6s-0.7-1.6-1.6-1.6
		C37,26.8,36.1,27.6,36.1,28.4z"/>
</g>
</svg>
