<?xml version="1.0" encoding="utf-8"?>
<!-- Generator: Adobe Illustrator 24.2.1, SVG Export Plug-In . SVG Version: 6.00 Build 0)  -->
<svg version="1.1" id="Capa_1" xmlns="http://www.w3.org/2000/svg" xmlns:xlink="http://www.w3.org/1999/xlink" x="0px" y="0px"
	 viewBox="0 0 70 70" style="enable-background:new 0 0 70 70;" xml:space="preserve">
<style type="text/css">
	.st0{fill-rule:evenodd;clip-rule:evenodd;}
</style>
<desc>Created with Sketch.</desc>
<g id="desprendibles-nómina">
	<path id="Shape" class="st0" d="M45.4,41.1H19.6c-0.7,0-1.2,0.5-1.2,1.2c0,0.7,0.5,1.2,1.2,1.2h25.8c0.7,0,1.2-0.5,1.2-1.2
		C46.6,41.6,46.1,41.1,45.4,41.1z M45.4,35.4H19.6c-0.7,0-1.2,0.5-1.2,1.2c0,0.7,0.5,1.2,1.2,1.2h25.8c0.7,0,1.2-0.5,1.2-1.2
		C46.6,35.8,46.1,35.4,45.4,35.4z M47.4,5.3c0,0.1-0.1,0.4-0.1,0.5c0,0.1,0,0.1-0.1,0.2c-0.2,0.7-0.4,1.6-0.6,2.3
		c-0.7,3.1-1.6,6.1-2.3,9.2c-0.6,2.3,0.6,4.2,2.8,4.8c2,0.5,4-0.7,4.6-3c0.1-0.6,0.2-1.2,0.5-1.8c0.5-1.8,1-3.7,1.3-5.5
		c0.1-0.2,0.1-0.5,0.2-0.8c0.6-2.3,1.1-4.4,1.7-6.7c0.4-1.7-0.5-3.2-2-3.6c-1.6-0.4-3.1,0.6-3.5,2.3c-0.2,1.1-0.6,2.3-0.8,3.4
		c-0.2,0.8-0.4,1.6-0.6,2.4c-0.5,1.9-1,3.7-1.4,5.6c0,0.2-0.1,0.5-0.1,0.7c0,1,0.8,1.7,1.8,1.8c1,0.1,1.8-0.5,2-1.4
		c0.2-1.1,0.6-2.3,0.8-3.4c0.2-1.1,0.5-2.2,0.8-3.2c0.2-0.7,0.4-1.4,0.6-2.2c0-0.1,0-0.2,0-0.2c0-0.2-0.1-0.5-0.4-0.5
		c-0.2-0.1-0.5,0-0.6,0.2c-0.1,0.2-0.1,0.5-0.2,0.6c-0.1,0.4-0.2,0.8-0.4,1.2c-0.2,1-0.5,1.9-0.7,2.8c-0.4,1.3-0.7,2.8-1,4.1
		c-0.1,0.6-0.7,1.1-1.2,1c-0.5-0.1-0.8-0.7-0.7-1.3c0.5-1.8,0.8-3.6,1.3-5.4c0.2-0.8,0.4-1.7,0.6-2.4c0.4-1.2,0.6-2.5,1-3.7
		C50.9,2,52,1.6,53,1.9c1,0.2,1.4,1.3,1.2,2.4c-0.5,1.9-1,3.7-1.3,5.5c-0.4,1.3-0.6,2.6-1,4c-0.5,1.8-0.8,3.6-1.3,5.4
		c0,0.2-0.1,0.5-0.2,0.7c-0.5,1.1-1.8,1.7-3,1.4c-1.7-0.4-2.5-1.8-2.2-3.6c0.7-3,1.4-6,2.3-9.1c0.2-0.7,0.4-1.6,0.6-2.3V6.2
		c0-0.2,0.1-0.5,0.1-0.7c0-0.2-0.1-0.5-0.4-0.5C47.6,4.9,47.5,5,47.4,5.3z M45.4,29.7H19.6c-0.7,0-1.2,0.5-1.2,1.2
		c0,0.7,0.5,1.2,1.2,1.2h25.8c0.7,0,1.2-0.5,1.2-1.2C46.6,30.2,46.1,29.7,45.4,29.7z M61.8,47.2c-1.9-1.9-4.4-3.1-7.1-3.6l-0.1-26.1
		c-0.2,0.8-0.4,1.7-0.6,2.4c-0.4,1.2-1,2.3-1.8,3.1l0.1,20.4c-3.6,0-6.8,1.4-9.3,4c-2.5,2.5-3.8,5.9-3.8,9.5c0,0.2,0,0.5,0,0.7
		l-20,0.1l0,0c-1.8,0-3.5-0.7-4.8-1.9c-1.3-1.3-2-3-2-4.8L12,15.3c0-1.8,0.7-3.5,1.9-4.8c1.3-1.3,3-2,4.8-2l25.5-0.1L44.9,6
		L18.8,6.1c-2.4,0-4.8,1-6.5,2.8s-2.6,4.1-2.6,6.5l0.2,35.6c0,2.4,1,4.8,2.8,6.5c1.7,1.7,4.1,2.6,6.5,2.6h0.1l20.4-0.1
		c0.6,2.4,1.8,4.6,3.6,6.2c2.6,2.5,6,3.8,9.3,3.8c3.5,0,6.8-1.3,9.5-4c2.5-2.5,3.8-5.9,3.8-9.5C65.7,53,64.3,49.7,61.8,47.2z
		 M60.2,64.4c-2,2-4.8,3.2-7.7,3.2c-3,0-5.6-1.1-7.8-3.1c-1.3-1.3-2.3-2.9-2.8-4.6c-0.2-0.7-0.4-1.6-0.5-2.4c0-0.2,0-0.5,0-0.7
		c0-2.9,1.1-5.6,3.1-7.8c2-2,4.8-3.2,7.7-3.2l0,0h0.1c0.7,0,1.6,0.1,2.3,0.2c2,0.5,3.8,1.4,5.4,2.9c2,2,3.2,4.8,3.2,7.7
		C63.5,59.6,62.3,62.3,60.2,64.4z M53.5,55.9c-0.1,0-0.2-0.1-0.4-0.1c-1.2-0.5-1.7-1-1.8-1.7c0,0,0,0,0-0.1c0-0.4,0.1-0.8,0.6-1.1
		c0.2-0.2,0.7-0.4,1.2-0.4c0.5,0,1,0.1,1.3,0.2c0.4,0.1,0.7,0.2,0.8,0.4l0.5-1.1c-0.2-0.1-0.6-0.4-1.1-0.5c-0.4-0.1-0.7-0.1-1.1-0.1
		v-1.7h-1.1v1.7c-0.1,0-0.1,0-0.2,0c-1.4,0.4-2.3,1.3-2.3,2.6c0,0.5,0.1,1,0.4,1.3c0.4,0.6,1.1,1.1,1.9,1.4c0.1,0.1,0.4,0.1,0.5,0.2
		c1.2,0.5,1.9,1.1,1.9,2c0,1-0.8,1.7-2,1.7c-1,0-1.8-0.4-2.4-0.7l-0.4,1.1c0.6,0.5,1.6,0.7,2.6,0.7v1.8h1.1v-1.8
		c1.8-0.2,2.6-1.6,2.6-2.9C56.2,57.5,55.3,56.6,53.5,55.9z M8.7,52.1H8.6c-1.1,0-2-1-2-2V7.9c0-3,2.4-5.4,5.4-5.4h32.4
		c0.7,0,1.3,0.6,1.3,1.3l0,0c0.5-0.6,1.1-1,1.9-1.1c0,0,0,0,0-0.1c0-0.1,0.1-0.2,0.1-0.5C47,0.8,45.7,0,44.3,0H11.9
		C7.6,0,4.1,3.5,4.1,7.8V50c0,2.4,2,4.4,4.4,4.4h0.2c0.7,0,1.2-0.5,1.2-1.2C10,52.5,9.4,52.1,8.7,52.1z M46.1,24.3
		c-0.2-0.1-0.5-0.1-0.7-0.2H19.6c-0.7,0-1.2,0.5-1.2,1.2s0.5,1.2,1.2,1.2h25.8c0.7,0,1.2-0.5,1.2-1.2C46.6,24.9,46.4,24.6,46.1,24.3
		z"/>
</g>
</svg>
