<?xml version="1.0" encoding="utf-8"?>
<!-- Generator: Adobe Illustrator 24.2.1, SVG Export Plug-In . SVG Version: 6.00 Build 0)  -->
<svg version="1.1" id="Capa_1" xmlns="http://www.w3.org/2000/svg" xmlns:xlink="http://www.w3.org/1999/xlink" x="0px" y="0px"
	 viewBox="0 0 70 70" style="enable-background:new 0 0 70 70;" xml:space="preserve">
<style type="text/css">
	.st0{fill-rule:evenodd;clip-rule:evenodd;}
</style>
<desc>Created with Sketch.</desc>
<g id="doc-down">
	<path id="Shape" class="st0" d="M23,25.5h15.9c1,0,1.6-0.8,1.6-1.6c0-0.8-0.8-1.6-1.6-1.6H23c-1,0-1.6,0.8-1.6,1.6
		C21.4,24.6,22.1,25.5,23,25.5z M44.9,51.3c-0.5-0.7-1.6-0.8-2.5-0.3l-5,4.1v-17c0-1-0.8-1.6-1.8-1.6c-1,0-1.6,0.8-1.6,1.6v17.2
		l-5.3-4.2c-0.7-0.5-1.8-0.4-2.5,0.3c-0.5,0.7-0.4,1.8,0.3,2.5l8.2,6.4c0.3,0.3,0.7,0.4,1.1,0.4c0.4,0,0.8-0.1,1.1-0.4l7.9-6.4
		C45.5,53.1,45.6,52,44.9,51.3z M23,14.6h22.3c1,0,1.6-0.8,1.6-1.6c0-0.8-0.8-1.6-1.6-1.6H23c-1,0-1.6,0.8-1.6,1.6
		C21.4,13.8,22.1,14.6,23,14.6z M56.2,0H13.8c-2.9,0-5,2.2-5,5V65c0,2.7,2.3,5,5,5h13.1c1,0,1.6-0.8,1.6-1.6c0-0.8-0.8-1.6-1.6-1.6
		H13.6c-1,0-1.6-0.8-1.6-1.6V5c0-1.1,0.7-1.6,1.6-1.6h42.6c1.1,0,1.6,0.7,1.6,1.6V65c0,1.1-0.7,1.6-1.6,1.6H44c-1,0-1.6,0.8-1.6,1.6
		c0,0.8,0.8,1.6,1.6,1.6h12.3c2.9,0,5-2.2,5-5V5C61.3,2.2,59.1,0,56.2,0z"/>
</g>
</svg>
