<?xml version="1.0" encoding="utf-8"?>
<!-- Generator: Adobe Illustrator 24.2.1, SVG Export Plug-In . SVG Version: 6.00 Build 0)  -->
<svg version="1.1" id="Capa_1" xmlns="http://www.w3.org/2000/svg" xmlns:xlink="http://www.w3.org/1999/xlink" x="0px" y="0px"
	 viewBox="0 0 70 70" style="enable-background:new 0 0 70 70;" xml:space="preserve">
<style type="text/css">
	.st0{fill-rule:evenodd;clip-rule:evenodd;}
</style>
<desc>Created with Sketch.</desc>
<g id="doc-close">
	<path id="Shape" class="st0" d="M21.4,18.8c-0.5,0.1-0.8,0.5-0.7,1.1c0.1,0.5,0.5,0.7,0.8,0.7h0.1l26.2-4.1
		c0.5-0.1,0.8-0.5,0.7-1.1c-0.1-0.5-0.6-0.8-1.1-0.7L21.4,18.8z M22.3,24.9c-0.5,0.1-0.8,0.6-0.7,1.1c0.1,0.5,0.5,0.7,0.8,0.7h0.1
		l26.2-4.3c0.5-0.1,0.8-0.6,0.7-1.1c-0.1-0.5-0.6-0.8-1.1-0.7L22.3,24.9z M20.8,15h0.1l25.9-4.1c0.5-0.1,0.8-0.5,0.7-1.1
		c-0.1-0.5-0.5-0.8-1.1-0.7l-25.9,4.1c-0.5,0.1-0.8,0.5-0.7,1.1C20,14.6,20.3,15,20.8,15z M17.4,36c0.4,0.1,0.7,0.1,1.1,0l6.5-3.7
		l5.2,4.3c0.2,0.2,0.5,0.2,0.7,0.2c0.1,0,0.1,0,0.2,0c0.4-0.1,0.6-0.2,0.8-0.6l2.7-5.1h4l3.6,3.7c0.5,0.5,1.1,0.5,1.6,0.1l5.1-4.1
		l2.9,1.3c0.6,0.2,1.2,0,1.6-0.5l2.9-5.2c0.1-0.2,0.2-0.5,0.1-0.7L52.6,1.1c0-0.4-0.2-0.6-0.5-0.8C51.8,0,51.5,0,51.2,0L13.7,6.2
		c-0.6,0.1-1.1,0.7-1,1.3l4.1,27.4C16.8,35.4,17.1,35.7,17.4,36z M15.2,8.4l35.1-5.8L54,25.5l-2.2,3.9l-2.7-1.1
		c-0.4-0.1-0.8-0.1-1.2,0.1l-4.8,3.9L39.9,29c-0.2-0.2-0.5-0.4-0.8-0.4h-5.2c-0.5,0-0.8,0.2-1.1,0.6l-2.3,4.3l-4.7-3.9
		c-0.2-0.2-0.5-0.2-0.7-0.2s-0.4,0-0.6,0.1l-5.7,3.3L15.2,8.4z M23.7,49.7h26.4c0.5,0,1-0.4,1-1c0-0.6-0.4-1-1-1H23.7
		c-0.5,0-1,0.4-1,1C22.8,49.4,23.2,49.7,23.7,49.7z M50,58.2c0.1-0.5,0.2-1.1,0.2-1.6c0-2.8-2.3-5.1-5.1-5.1c-2.8,0-5.1,2.3-5.1,5.1
		c0,0.7,0.1,1.3,0.4,1.9l-2.1,4c-0.1,0.2-0.1,0.5,0,0.7c0.1,0.2,0.2,0.5,0.5,0.5l4.1,1.6c0.1,0,0.2,0,0.4,0c0.4,0,0.7-0.2,0.8-0.6
		l1.2-3l1.3,3c0.1,0.2,0.2,0.4,0.5,0.5c0.1,0,0.2,0,0.4,0c0.1,0,0.2,0,0.4-0.1l3.9-1.8c0.2-0.1,0.4-0.2,0.5-0.5c0.1-0.2,0-0.5,0-0.7
		L50,58.2z M42.8,63.4l-2.3-0.8l1.1-2.2c0.5,0.5,1.2,1,1.9,1.2L42.8,63.4z M45.2,60.1c-1.8,0-3.4-1.4-3.4-3.4c0-1.9,1.4-3.4,3.4-3.4
		c1.9,0,3.4,1.4,3.4,3.4C48.6,58.7,47,60.1,45.2,60.1z M48,63.4l-0.8-1.9c0.7-0.2,1.3-0.7,1.8-1.3l1.1,2.2L48,63.4z M56.4,38.4
		c-0.5-0.1-1,0-1.3,0.4l-2.8,3.5L49.6,41c-0.4-0.1-0.8-0.1-1.1,0.1l-4.9,3.3l-2.8-4.2c-0.2-0.4-0.5-0.5-0.8-0.6l-5.2-0.5
		c-0.4,0-0.7,0.1-1.1,0.4l-3.3,3.9L26.7,39c-0.4-0.4-0.8-0.5-1.3-0.4l-7.6,3.1c-0.5,0.2-0.7,0.6-0.7,1.1v25.9c0,0.7,0.5,1.2,1.2,1.2
		h37.8c0.7,0,1.2-0.5,1.2-1.2V39.3C57.3,38.9,56.9,38.4,56.4,38.4z M54.9,67.6H19.5v-24l5.9-2.4l4,4.7c0.2,0.2,0.6,0.5,1,0.5l0,0
		c0.4,0,0.7-0.1,1-0.5l3.9-4.5l4,0.4l3,4.7c0.1,0.2,0.5,0.5,0.7,0.5c0.2,0,0.6,0,1-0.1l5.4-3.5l3,1.3c0.5,0.2,1.1,0.1,1.4-0.4
		l1.2-1.6L54.9,67.6L54.9,67.6z M36.9,53.7H23.7c-0.5,0-1,0.4-1,1s0.4,1,1,1h13.2c0.5,0,1-0.4,1-1S37.4,53.7,36.9,53.7z M36.9,59.7
		H23.7c-0.5,0-1,0.4-1,1c0,0.6,0.4,1,1,1h13.2c0.5,0,1-0.4,1-1C37.8,60.1,37.4,59.7,36.9,59.7z"/>
</g>
</svg>
