<?xml version="1.0" encoding="utf-8"?>
<!-- Generator: Adobe Illustrator 24.2.1, SVG Export Plug-In . SVG Version: 6.00 Build 0)  -->
<svg version="1.1" id="Capa_1" xmlns="http://www.w3.org/2000/svg" xmlns:xlink="http://www.w3.org/1999/xlink" x="0px" y="0px"
	 viewBox="0 0 70 70" style="enable-background:new 0 0 70 70;" xml:space="preserve">
<style type="text/css">
	.st0{fill-rule:evenodd;clip-rule:evenodd;}
</style>
<desc>Created with Sketch.</desc>
<g id="down">
	<path id="Shape" class="st0" d="M33.4,52.2c0.3,0.3,0.9,0.6,1.3,0.6c0.4,0,0.9-0.1,1.3-0.6l17.8-17.2c0.7-0.7,0.7-1.9,0-2.7
		c-0.7-0.7-1.9-0.7-2.7,0L36.6,46.6V1.8c0-1-0.9-1.8-1.8-1.8S33,0.9,33,1.8v44.6L18.4,32.2c-0.7-0.7-1.9-0.7-2.7,0
		c-0.7,0.7-0.7,1.9,0,2.7L33.4,52.2z M60,51.5c-1,0-1.8,0.9-1.8,1.8v8.7c0,2.1-1.6,4.3-4.3,4.3H15.8c-2.1,0-4.3-1.6-4.3-4.3v-8.7
		c0-1-0.9-1.8-1.8-1.8c-0.9,0-1.8,0.9-1.8,1.8v8.7c0,4.9,4.2,8.1,8.1,8.1H54c4.9,0,8.1-4.2,8.1-8.1v-8.7
		C61.8,52.2,60.9,51.5,60,51.5z"/>
</g>
</svg>
