<?xml version="1.0" encoding="utf-8"?>
<!-- Generator: Adobe Illustrator 24.2.1, SVG Export Plug-In . SVG Version: 6.00 Build 0)  -->
<svg version="1.1" id="Capa_1" xmlns="http://www.w3.org/2000/svg" xmlns:xlink="http://www.w3.org/1999/xlink" x="0px" y="0px"
	 viewBox="0 0 70 70" style="enable-background:new 0 0 70 70;" xml:space="preserve">
<style type="text/css">
	.st0{fill-rule:evenodd;clip-rule:evenodd;}
</style>
<desc>Created with Sketch.</desc>
<g id="eye">
	<path id="Shape" class="st0" d="M35.1,24.7c-5.7,0-10.3,4.7-10.3,10.3c0,5.7,4.7,10.3,10.3,10.3c5.7,0,10.3-4.7,10.3-10.3
		C45.3,29.3,40.8,24.7,35.1,24.7z M35.1,42c-3.9,0-7-3.1-7-7s3.1-7,7-7s7,3.1,7,7S39,42,35.1,42z M69.7,35
		c-8.2-15.3-20.5-24.2-33.9-24.3C22.1,10.6,9.2,19.4,0.4,34.9L0,35.7l0.4,0.8c7.4,14.2,20.9,22.9,35.2,22.9c0.1,0,0.3,0,0.3,0
		c14.3-0.1,26.6-8.4,33.8-22.9l0.4-0.8L69.7,35z M36,56c-0.1,0-0.3,0-0.3,0c-12.9,0-24.9-7.8-31.9-20.4C11.8,21.9,23.4,14,35.5,14
		c0.1,0,0.3,0,0.3,0c11.9,0.1,23.1,8.1,30.6,21.8C59.7,48.5,48.7,55.9,36,56z"/>
</g>
</svg>
