<?xml version="1.0" encoding="utf-8"?>
<!-- Generator: Adobe Illustrator 24.2.1, SVG Export Plug-In . SVG Version: 6.00 Build 0)  -->
<svg version="1.1" id="Capa_1" xmlns="http://www.w3.org/2000/svg" xmlns:xlink="http://www.w3.org/1999/xlink" x="0px" y="0px"
	 viewBox="0 0 70 70" style="enable-background:new 0 0 70 70;" xml:space="preserve">
<style type="text/css">
	.st0{fill-rule:evenodd;clip-rule:evenodd;}
</style>
<desc>Created with Sketch.</desc>
<g id="filter">
	<path id="Shape" class="st0" d="M11.6,46.7V6.2c0-0.9-0.7-1.6-1.6-1.6c-0.7,0-1.6,0.7-1.6,1.6v40.6C3.6,47.5,0,51.5,0,56.4
		c0,5.5,4.5,9.9,9.9,9.9s9.9-4.5,9.9-9.9C19.7,51.5,16.2,47.5,11.6,46.7z M9.9,63.1c-3.6,0-6.5-3-6.5-6.5c0-3.6,3-6.7,6.5-6.7
		c3.5,0,6.5,3,6.5,6.7C16.4,60.1,13.6,63.1,9.9,63.1z M60,4c-5.5,0-9.9,4.5-9.9,9.9c0,4.8,3.5,9,8.3,9.7v40.6c0,0.9,0.7,1.6,1.6,1.6
		c0.7,0,1.7-0.7,1.7-1.6V23.6c4.8-0.7,8.3-4.8,8.3-9.7C69.9,8.3,65.5,4,60,4z M60,20.5c-3.6,0-6.5-3-6.5-6.5s3-6.5,6.5-6.5
		c3.5,0,6.5,3,6.5,6.5S63.6,20.5,60,20.5z M35.5,25V5.3c0-0.9-0.7-1.6-1.6-1.6c-0.7,0-1.6,0.7-1.6,1.6V25c-4.8,0.7-8.3,4.8-8.3,9.7
		c0,4.8,3.5,9,8.3,9.7v19.3c0,0.9,0.7,1.6,1.6,1.6c0.7,0,1.6-0.7,1.6-1.6V44.4c4.8-0.7,8.3-4.8,8.3-9.7C43.6,29.9,40,25.9,35.5,25z
		 M33.8,41.4c-3.6,0-6.7-3-6.7-6.7s3-6.5,6.7-6.5s6.5,3,6.5,6.5C40.3,38.3,37.4,41.4,33.8,41.4z"/>
</g>
</svg>
