<?xml version="1.0" encoding="utf-8"?>
<!-- Generator: Adobe Illustrator 24.2.1, SVG Export Plug-In . SVG Version: 6.00 Build 0)  -->
<svg version="1.1" id="Capa_1" xmlns="http://www.w3.org/2000/svg" xmlns:xlink="http://www.w3.org/1999/xlink" x="0px" y="0px"
	 viewBox="0 0 70 70" style="enable-background:new 0 0 70 70;" xml:space="preserve">
<style type="text/css">
	.st0{fill-rule:evenodd;clip-rule:evenodd;}
</style>
<desc>Created with Sketch.</desc>
<g id="firma">
	<path id="Shape" class="st0" d="M66.4,57.9c-3.5-2.5-6.9-3.5-10-3c-5.4,0.8-8.9,5.9-11.2,9.2c-0.4,0.5-0.7,1-1.1,1.4
		c0.2-1.4,0.7-3.7,1.2-5.2c1.4-5.1,2.3-9-0.4-10c-2.5-0.8-4.9,2.3-8.9,7.2c-1,1.3-2.3,3.1-3.3,4.1c0-0.8,0-1.9,0.1-2.7
		c0.2-3.5,0.4-7.2-2.2-8.1c-2.7-1-4.4,2.4-6.2,5.7c-0.5,1-1.1,2.2-1.6,2.9c-0.1-0.1-0.1-0.6-0.1-0.8c-0.1-1.3-0.4-2.9-1.7-3.7
		c-2-1.1-7.8,1.7-17.3,8.6c-0.7,0.5-0.9,1.4-0.4,2c0.5,0.7,1.5,0.8,2.1,0.4c5.7-4.1,11.8-7.7,13.8-8.2c0.1,0.4,0.1,1,0.2,1.3
		c0.1,1.4,0.5,3.9,2.8,4.1c2.1,0.2,3.2-2,4.8-4.9c0.6-1.2,1.7-3.3,2.3-4c0.4,1,0.1,3.4,0.1,4.8c-0.2,3.4-0.4,6.3,2.1,6.6
		c1.9,0.2,3.3-1.7,6.8-6c1.4-1.8,3.7-4.8,5.1-5.8c-0.1,1.4-0.7,4.2-1.2,6c-1.4,5.1-2.3,9,0.4,10c0.2,0.1,0.5,0.1,0.7,0.1
		c1.5,0,2.7-1.7,4.3-3.9c2.1-3,5.1-7.2,9.3-8c2.3-0.4,4.9,0.5,7.6,2.4c0.7,0.5,1.6,0.4,2.1-0.4C67.1,59.4,67,58.4,66.4,57.9z
		 M6.1,51.7c0.1,0,0.4,0,0.5-0.1l10.1-3.2l0,0c1.1-0.4,2.2-1,2.9-1.8L47,19.1l0.7,0.7l-9.8,9.9c-0.6,0.6-0.6,1.6,0,2.2
		c0.2,0.2,0.7,0.5,1.1,0.5c0.4,0,0.7-0.1,1.1-0.5l13.1-13.2c0.6-0.6,0.6-1.6,0-2.2c-0.6-0.6-1.6-0.6-2.2,0l-1.2,1.2L49.1,17l4.9-4.9
		c1.3-1.4,2.2-3.2,2.3-5.1c0.1-2-0.6-3.7-2-5.1c-1.3-1.4-3.1-2-5-2c-1.8,0.1-3.7,0.9-5,2.3L9.8,36.8C9,37.7,8.3,38.7,8,39.7l-3.3,10
		c-0.2,0.5,0,1.1,0.4,1.6C5.3,51.6,5.8,51.7,6.1,51.7z M46.1,4.5C47,3.6,48.1,3,49.3,3c0.1,0,0.1,0,0.3,0c1,0,1.9,0.4,2.7,1
		c0.8,0.8,1.2,1.8,1,2.8c0,1.2-0.5,2.3-1.4,3.2l-3.6,3.6L42.6,8L46.1,4.5z M40.2,10.7l5.4,5.4L19.1,42.6l-5.4-5.4L40.2,10.7z
		 M9.9,41.6c0.3-0.6,0.6-1.3,1.1-1.8l0.3-0.3l5.5,5.5l-0.1,0.1c-0.5,0.5-1.1,0.9-1.8,1.1l-7.3,2.4L9.9,41.6z"/>
</g>
</svg>
