<?xml version="1.0" encoding="utf-8"?>
<!-- Generator: Adobe Illustrator 24.2.1, SVG Export Plug-In . SVG Version: 6.00 Build 0)  -->
<svg version="1.1" id="Capa_1" xmlns="http://www.w3.org/2000/svg" xmlns:xlink="http://www.w3.org/1999/xlink" x="0px" y="0px"
	 viewBox="0 0 70 70" style="enable-background:new 0 0 70 70;" xml:space="preserve">
<style type="text/css">
	.st0{fill-rule:evenodd;clip-rule:evenodd;}
</style>
<desc>Created with Sketch.</desc>
<g id="folder-h">
	<path id="Shape" class="st0" d="M69.9,30.8v-3.2c0-7.5-6-13.5-13.5-13.5H13.6c-7.5,0-13.5,6-13.5,13.5v3.2C0,31.3,0,31.7,0.1,32
		v23.4c0,7.5,6,13.5,13.5,13.5h42.8c7.5,0,13.5-6,13.5-13.5V32.1C70,31.7,70,31.3,69.9,30.8z M66.3,30.5l-17.2,9.2
		c-0.9,0.4-1.1,1.6-0.7,2.4c0.3,0.6,1,1,1.6,1c0.3,0,0.6,0,0.9-0.1l15.5-8.3v21c0,5.5-4.5,9.9-9.9,9.9h-5.5V50.8
		c0-1-0.9-1.7-1.7-1.7c-0.9,0-1.7,0.9-1.7,1.7v14.6H21.9V50.8c0-1-0.9-1.7-1.7-1.7s-1.7,0.9-1.7,1.7v14.6h-4.9
		c-5.5,0-9.9-4.5-9.9-9.9V34.9l15.7,8.5l0.1-0.3c0.1,0,0.4,0.1,0.6,0.1c0.6,0,1.3-0.3,1.6-1c0.4-0.9,0.1-2-0.7-2.4L3.7,30.5v-2.7
		c0-5.5,4.5-9.9,9.9-9.9h42.8c5.5,0,9.9,4.5,9.9,9.9V30.5z M21.4,12.2c1-0.1,1.7-1,1.6-2c0,0-0.1-2.3,1.1-3.9c0.9-1,2.4-1.6,4.5-1.6
		H43c0.9,0,5.2,0.3,5.2,5.6c0,1,0.9,1.7,1.7,1.7c0.9,0,1.7-0.9,1.7-1.7c0-7.3-5.7-9.2-8.8-9.2H28.5c-3.2,0-5.5,0.9-7.2,2.7
		c-2.4,2.7-2,6.5-2,6.6C19.5,11.6,20.4,12.3,21.4,12.2z M44.8,40h-5c-0.9,0-1.6-0.7-1.6-1.6v-5c0-0.9-0.7-1.6-1.6-1.6h-3.2
		c-0.9,0-1.6,0.7-1.6,1.6v5c0,0.9-0.7,1.6-1.6,1.6h-5c-0.9,0-1.6,0.7-1.6,1.6v3.2c0,0.9,0.7,1.6,1.6,1.6h5c0.9,0,1.6,0.7,1.6,1.6v5
		c0,0.9,0.7,1.6,1.6,1.6h3.2c0.9,0,1.6-0.7,1.6-1.6v-5c0-0.9,0.7-1.6,1.6-1.6h5c0.9,0,1.6-0.7,1.6-1.6v-3.2
		C46.3,40.7,45.6,40,44.8,40z"/>
</g>
</svg>
