<?xml version="1.0" encoding="utf-8"?>
<!-- Generator: Adobe Illustrator 24.2.1, SVG Export Plug-In . SVG Version: 6.00 Build 0)  -->
<svg version="1.1" id="Capa_1" xmlns="http://www.w3.org/2000/svg" xmlns:xlink="http://www.w3.org/1999/xlink" x="0px" y="0px"
	 viewBox="0 0 70 70" style="enable-background:new 0 0 70 70;" xml:space="preserve">
<style type="text/css">
	.st0{fill-rule:evenodd;clip-rule:evenodd;}
</style>
<desc>Created with Sketch.</desc>
<g id="hammer">
	<path id="Shape" class="st0" d="M45.7,21.5c1,1,2.3,1.5,3.8,1.5c0.2,0,0.3,0,0.5,0c1.3-0.2,2.3-0.7,2.9-1.5l0.3-0.3
		c1-1,1.5-2.3,1.5-3.6c0-1.3-0.5-2.6-1.5-3.6l-12-12.5l-0.2-0.2c-2.3-1.8-4.9-1.8-6.9,0l-0.7,0.3c-0.2,0-0.3,0.2-0.5,0.3
		c-2,2-2,5.2,0,7.2L45.7,21.5z M35.6,4.3L36.2,4c0.2,0,0.3-0.2,0.5-0.3c0.3-0.3,1-1,2.6,0l12,12.3c0.3,0.3,0.5,0.8,0.5,1.3
		c0,0.5-0.2,1-0.5,1.3l-0.7,0.7c0,0-0.2,0.2-0.2,0.3c0,0-0.3,0.2-0.7,0.3c-0.7,0-1.3-0.2-1.6-0.5L35.7,6.9
		C35.1,6.1,34.9,5.1,35.6,4.3z M9.5,33.5c-2-2-5.2-2-7.2,0L1.8,34c-2,2-2,5.2,0,7.2l12.5,12.5c1,1,2.3,1.5,3.6,1.5
		c0.2,0,0.3,0,0.5,0c1.1-0.2,2.1-0.7,2.8-1.5l0.3-0.3c2-2,2-5.2,0-7.2L9.5,33.5z M19,50.8l-0.5,0.5c0,0-0.2,0.2-0.2,0.3
		C18.2,51.8,18,52,17.9,52c-0.3,0-1,0-1.3-0.5L4.1,39c-0.7-0.7-0.7-1.8,0-2.6l0.5-0.5c0.3-0.3,0.8-0.5,1.3-0.5c0.5,0,1,0.2,1.3,0.5
		l12,12.5C19.8,49,19.8,50.2,19,50.8z M69.6,59.7c-0.2-2.1-1.1-4.1-2.9-5.2L45.1,32.8c-0.7-0.7-1.6-0.7-2.3,0L32.1,43.5
		c-0.7,0.7-0.7,1.6,0,2.3l21.8,21.8c1.6,1.6,3.8,2.5,6.1,2.5c2.1,0,4.4-0.8,6.1-2.5l1.3-1.3l0,0C69,64.4,69.8,62.1,69.6,59.7z
		 M64.9,63.8l-1.3,1.3c-2,2-5.4,2-7.4,0L35.6,44.6l8.4-8.4l20.6,20.6l0.2,0.2c1,0.7,1.6,1.8,1.6,2.9C66.5,61.3,66,62.8,64.9,63.8z
		 M45.1,24L31.8,10.2c-0.3-0.3-0.7-0.5-1.1-0.5c-0.3,0-0.8,0.2-1.1,0.5L11.3,28.9c-0.7,0.7-0.7,1.6,0,2.3l13.3,13.8
		c0.3,0.3,0.7,0.5,1.1,0.5l0,0c0.5,0,0.8-0.2,1.1-0.5l18.2-18.7C45.7,25.6,45.7,24.6,45.1,24z M25.7,41.3l-11-11.5l15.9-16.2
		l11,11.5L25.7,41.3z"/>
</g>
</svg>
