<?xml version="1.0" encoding="utf-8"?>
<!-- Generator: Adobe Illustrator 24.2.1, SVG Export Plug-In . SVG Version: 6.00 Build 0)  -->
<svg version="1.1" id="Capa_1" xmlns="http://www.w3.org/2000/svg" xmlns:xlink="http://www.w3.org/1999/xlink" x="0px" y="0px"
	 viewBox="0 0 70 70" style="enable-background:new 0 0 70 70;" xml:space="preserve">
<style type="text/css">
	.st0{fill-rule:evenodd;clip-rule:evenodd;}
</style>
<desc>Created with Sketch.</desc>
<g id="health">
	<path id="Shape" class="st0" d="M62.9,9.8c-0.4-0.3-0.8-0.5-1.3-0.4c-10.9,1.1-18.1-1.5-24.9-9c-0.5-0.6-1.5-0.6-2.1-0.1
		c-8.8,7-18.1,10.2-26.2,9.2c-0.5,0-0.9,0.1-1.3,0.4c-0.4,0.3-0.5,0.8-0.5,1.1v41.1c0,0.5,0.3,1.1,0.8,1.4l27.3,16.2
		c0.3,0.1,0.5,0.3,0.8,0.3c0.3,0,0.6-0.1,0.9-0.3l26.3-16.2c0.5-0.3,0.8-0.8,0.8-1.4V11C63.4,10.6,63.2,10.2,62.9,9.8z M60.2,51.2
		L35.6,66.3L9.9,51.2V12.7C18,13.1,27,10,35.4,3.7c6.8,7.1,14.4,9.9,24.8,9.1V51.2z M50.5,33.3H36.6V19.4c0-0.9-0.8-1.5-1.5-1.5
		c-0.8,0-1.5,0.8-1.5,1.5v13.8H19.6c-0.9,0-1.5,0.8-1.5,1.5c0,0.8,0.8,1.5,1.5,1.5h13.8V50c0,0.9,0.8,1.5,1.5,1.5
		c0.8,0,1.5-0.8,1.5-1.5V36.4h13.8c0.9,0,1.5-0.8,1.5-1.5C51.7,34.1,51.4,33.3,50.5,33.3z"/>
</g>
</svg>
