<?xml version="1.0" encoding="utf-8"?>
<!-- Generator: Adobe Illustrator 24.2.1, SVG Export Plug-In . SVG Version: 6.00 Build 0)  -->
<svg version="1.1" id="Capa_1" xmlns="http://www.w3.org/2000/svg" xmlns:xlink="http://www.w3.org/1999/xlink" x="0px" y="0px"
	 viewBox="0 0 70 70" style="enable-background:new 0 0 70 70;" xml:space="preserve">
<style type="text/css">
	.st0{fill-rule:evenodd;clip-rule:evenodd;}
</style>
<desc>Created with Sketch.</desc>
<g id="heart">
	<path id="Shape" class="st0" d="M63.6,10.6c-6.1-6.1-16.8-9.1-28.9,0.7c-8.3-6-16.4-8-23.2-5.3C5.7,8.3,1.3,14.1,0.2,21.1
		C-0.8,28.5,1.8,35.5,7.4,40C15,46,33,64.3,33.1,64.5c0.4,0.4,1.1,0.7,1.7,0.7c0.5,0,1.1-0.1,1.5-0.5c0.9-0.8,21.6-18.8,29.4-27.4
		C71.4,31.1,72.2,19.1,63.6,10.6z M62.4,34C56,41.1,40.2,55.1,35,59.6C30.3,55,16.9,41.5,10.4,36.3C6.1,32.8,4,27.5,4.9,21.8
		c0.8-5.3,4-9.7,8.5-11.5c1.5-0.5,3.1-0.8,4.7-0.8c4.7,0,10,2.3,15.4,6.7c0.9,0.7,2.1,0.7,3.1-0.1c8.7-7.7,17.6-8.5,24-2.1
		C65.5,19,67.5,28.5,62.4,34z"/>
</g>
</svg>
