<?xml version="1.0" encoding="utf-8"?>
<!-- Generator: Adobe Illustrator 24.2.1, SVG Export Plug-In . SVG Version: 6.00 Build 0)  -->
<svg version="1.1" id="Capa_1" xmlns="http://www.w3.org/2000/svg" xmlns:xlink="http://www.w3.org/1999/xlink" x="0px" y="0px"
	 viewBox="0 0 70 70" style="enable-background:new 0 0 70 70;" xml:space="preserve">
<style type="text/css">
	.st0{fill-rule:evenodd;clip-rule:evenodd;}
</style>
<desc>Created with Sketch.</desc>
<g id="Incapacidades">
	<path id="Shape" class="st0" d="M33,30.8L33,30.8c8.6,0,15.5-6.8,15.6-15.2c0-4.2-1.5-8.2-4.5-11.1C41.3,1.7,37.5,0,33.3,0l0,0
		c-8.7,0-15.5,6.8-15.5,15.3c0,4.1,1.5,8,4.5,11C25.1,29.1,29,30.8,33,30.8z M33.2,3.1L33.2,3.1c3.3,0,6.4,1.3,8.6,3.6
		c2.3,2.3,3.6,5.5,3.6,8.9c0,6.6-5.6,12-12.4,12l0,0c-3.2,0-6.3-1.3-8.6-3.6c-2.2-2.3-3.4-5.5-3.4-8.7C20.9,8.3,26.3,3.1,33.2,3.1z
		 M25.8,30.7c-0.3-0.9-1-1.4-1.9-1.1c-4,0.9-14.2,5.7-13.2,17.1c0.5,6.5,1,13.3,1.5,19.8l0.1,2c0,0.9,0.8,1.5,1.5,1.5H14
		c0.9,0,1.5-0.8,1.5-1.7l-0.1-2c-0.5-6.5-0.9-13.2-1.5-19.8c-0.8-9.1,7.4-13,10.7-13.7C25.4,32.3,25.9,31.6,25.8,30.7z M48,30.5
		c-0.1-0.1-0.3-0.3-0.4-0.3h-0.1c-1.7-0.6-3.4-1.1-5.5-1.4c-0.9-0.1-1.7,0.5-1.8,1.4s0.5,1.7,1.4,1.8c1.1,0.1,2.3,0.4,3.3,0.6
		l-7.8,22.1c-4.7-0.3-8.3,0-10.3,2C25.6,58,25,59.5,25,61.4c0,5.7,4.5,7,6.4,7c0.3,0,1.4,0.1,3.1,0.3c0.5,0,3.1,0.3,6.5,0.3
		c0.6,0,1.4,0,2,0c2.4,0,5-0.1,7-0.5c1.9-0.4,3.3-1,4.5-1.8l0,0l0,0c0.5-0.3,0.8-0.6,0.9-1.1c0,0.4-0.1,0.6-0.4,1
		c2.3-1.8,3.1-4.1,3.1-5.5c0.3-3.6,0.5-5.2,0.6-6.9c0.3-1.7,0.4-3.3,0.6-6.8C59.7,41.8,56,34,48,30.5z M33.4,65.4
		c-1-0.1-1.8-0.1-1.8-0.1h-0.1c-0.4,0-3.3-0.1-3.3-3.8c0-1.4,0.4-2,0.8-2.3c1.1-1,3.8-1.3,7.2-1.1L33.4,65.4z M43,65.8
		c-2.2,0-4.5,0-6.3-0.1l2.7-7.7l1.1-3.1l6-17.2l0.4,2l1.8,8.9l3.2,15.6C49.4,65.3,46.1,65.7,43,65.8z M55.5,53.6
		c-0.3,1.8-0.4,3.4-0.6,7.2c0,0.1,0,0.4-0.1,0.8l0,0l-5.4-26.8c4.9,3.2,7.3,8.4,6.9,12.4C55.9,50.3,55.7,52,55.5,53.6z"/>
</g>
</svg>
