<?xml version="1.0" encoding="utf-8"?>
<!-- Generator: Adobe Illustrator 24.2.1, SVG Export Plug-In . SVG Version: 6.00 Build 0)  -->
<svg version="1.1" id="Capa_1" xmlns="http://www.w3.org/2000/svg" xmlns:xlink="http://www.w3.org/1999/xlink" x="0px" y="0px"
	 viewBox="0 0 70 70" style="enable-background:new 0 0 70 70;" xml:space="preserve">
<style type="text/css">
	.st0{fill-rule:evenodd;clip-rule:evenodd;}
</style>
<desc>Created with Sketch.</desc>
<g id="money-bag">
	<path id="Shape" class="st0" d="M63.5,46.4c-0.7-11.8-9.1-25.5-20.1-30.7c5.1-6.2,7.3-10.4,6.5-12.4c0-0.1-0.1-0.4-0.3-0.6
		c-1.3-1.5-3.6-1.4-6.3-1.3c-2.1,0.1-4.6,0.3-6.9-0.4c-3.8-1.3-9-1.7-12.2,0.1c-1.1,0.6-1.8,1.5-2.1,2.8c-0.3,1.1,0,2.4,0.6,3.2
		l5.2,8.1c-2.7,1.3-5.3,3.2-8,5.9C12,29.2,6,41.2,6.4,48.4c0.3,5.8,2.5,10.7,6.6,14.3c5.3,4.8,13.3,7.3,22.9,7.3c1,0,2,0,2.9-0.1
		c9.5-0.6,16.3-2.9,20.4-7.6C62.4,58.6,64,53.2,63.5,46.4z M25.6,5.3c-0.1-0.1-0.1-0.3,0-0.4c0-0.3,0.1-0.4,0.4-0.6
		c2-1.1,6-1,9.5,0.1c2.8,0.8,5.8,0.7,8,0.6c1,0,2.2-0.1,2.9,0c-0.7,1.7-3.4,5.6-6.5,9.4c-1.4-0.4-2.8-0.7-4.2-0.7
		c-1.4-0.1-2.9,0.1-4.5,0.6L25.6,5.3z M56.4,60c-3.4,3.8-9.3,5.9-18,6.3c-10,0.6-18.1-1.7-23.3-6.3c-3.4-3.1-5.2-7.2-5.5-11.9
		c-0.3-5.3,4.8-16.7,12.5-24.4c3.1-3.1,7.7-6.6,12.6-6.6c0.1,0,0.4,0,0.7,0l0,0C46,17.8,58.9,30.8,59.9,46.6
		C60.4,52.5,59.2,56.9,56.4,60z M29.3,24.2c-0.4-0.8-1.5-1.1-2.4-0.7c-0.4,0.3-11.9,7-13.5,20.6c-0.1,1,0.6,1.8,1.5,2h0.1
		c0.8,0,1.7-0.7,1.7-1.5c1.4-11.8,11.6-18,11.8-18.1C29.4,26.1,29.7,25.1,29.3,24.2z M36.5,43.3c-2.8-0.8-3.6-1.4-3.6-2.7
		c0-1.8,1.4-2.7,2.8-2.8c0.6,0,2.4,0,2.8,2.2c0.1,1,1.1,1.5,2,1.4c1-0.1,1.5-1,1.4-2c-0.4-2.5-2.1-4.4-4.4-4.9v-1.3
		c0-1-0.8-1.7-1.7-1.7c-0.8,0-1.7,0.8-1.7,1.7v1.3c-2.5,0.7-4.6,2.8-4.6,6c0,4.1,3.6,5.2,6,6c2.9,1,3.2,1.3,3.1,2.1
		c-0.3,1.4-1.7,1.8-2.4,2c-1.5,0.3-3.2-0.3-3.6-1.3c-0.4-0.8-1.5-1.1-2.4-0.7c-0.8,0.4-1.1,1.5-0.7,2.4c0.8,1.7,2.7,2.8,4.8,3.1v1.4
		c0,1,0.8,1.7,1.7,1.7c0.8,0,1.7-0.8,1.7-1.7v-1.5c2.2-0.7,3.9-2.4,4.4-4.6C42.5,45.3,38.8,44.2,36.5,43.3z"/>
</g>
</svg>
