<?xml version="1.0" encoding="utf-8"?>
<!-- Generator: Adobe Illustrator 24.2.1, SVG Export Plug-In . SVG Version: 6.00 Build 0)  -->
<svg version="1.1" id="Capa_1" xmlns="http://www.w3.org/2000/svg" xmlns:xlink="http://www.w3.org/1999/xlink" x="0px" y="0px"
	 viewBox="0 0 70 70" style="enable-background:new 0 0 70 70;" xml:space="preserve">
<style type="text/css">
	.st0{fill-rule:evenodd;clip-rule:evenodd;}
</style>
<desc>Created with Sketch.</desc>
<g id="more">
	<path id="Path" class="st0" d="M37.5,37.3l30.1-0.2c1.3,0,2.4-1,2.4-2.4c0-1.3-1-2.4-2.4-2.4H37.3l0.2-30c0-1.3-1-2.4-2.4-2.4
		c-1.4,0-2.4,1-2.4,2.4l-0.2,30.1L2.4,32.7c-1.3,0-2.4,1-2.4,2.4c0,0.6,0.3,1.3,0.8,1.8c0.5,0.5,1,0.8,1.8,0.8l30-0.2l-0.2,30
		c0,0.6,0.3,1.3,0.8,1.8c0.5,0.5,1,0.8,1.8,0.8c1.3,0,2.4-1,2.4-2.4L37.5,37.3z"/>
</g>
</svg>
