<?xml version="1.0" encoding="utf-8"?>
<!-- Generator: Adobe Illustrator 24.2.1, SVG Export Plug-In . SVG Version: 6.00 Build 0)  -->
<svg version="1.1" id="Capa_1" xmlns="http://www.w3.org/2000/svg" xmlns:xlink="http://www.w3.org/1999/xlink" x="0px" y="0px"
	 viewBox="0 0 70 70" style="enable-background:new 0 0 70 70;" xml:space="preserve">
<style type="text/css">
	.st0{fill-rule:evenodd;clip-rule:evenodd;}
</style>
<desc>Created with Sketch.</desc>
<g id="off">
	<path id="Shape" class="st0" d="M45.9,6.4c-1-0.4-2.2,0.1-2.7,1.2c-0.4,1,0.1,2.2,1.2,2.7C56,14.5,63.5,25.1,63.5,37.2
		c0,15.8-12.8,28.7-28.7,28.7S6.3,53,6.3,37.2c0-12.1,7.5-22.7,19.1-26.9c1-0.4,1.6-1.6,1.2-2.7C26.2,6.6,25,6,24,6.4
		C10.7,11.2,2.2,23.3,2.2,37.2C2.2,55.2,16.9,70,35,70s32.8-14.8,32.8-32.8C67.8,23.3,59.3,11.2,45.9,6.4z M35,36
		c1.2,0,2.1-0.9,2.1-2.1V2.1C37.1,0.9,36.2,0,35,0s-2.1,0.9-2.1,2.1v31.8C32.9,35.1,33.8,36,35,36z"/>
</g>
</svg>
