<?xml version="1.0" encoding="utf-8"?>
<!-- Generator: Adobe Illustrator 24.2.1, SVG Export Plug-In . SVG Version: 6.00 Build 0)  -->
<svg version="1.1" id="Capa_1" xmlns="http://www.w3.org/2000/svg" xmlns:xlink="http://www.w3.org/1999/xlink" x="0px" y="0px"
	 viewBox="0 0 70 70" style="enable-background:new 0 0 70 70;" xml:space="preserve">
<style type="text/css">
	.st0{fill-rule:evenodd;clip-rule:evenodd;}
</style>
<desc>Created with Sketch.</desc>
<g id="payroll">
	<path id="Shape" class="st0" d="M22.1,22.9h-4.3c-1,0-1.6,0.6-1.6,1.6c0,1,0.6,1.6,1.6,1.6h4.3c1,0,1.6-0.6,1.6-1.6
		C23.7,23.5,22.9,22.9,22.1,22.9z M13,53.3h5.7V59c0,1,0.6,1.6,1.6,1.6c1,0,1.6-0.6,1.6-1.6v-5.7H27c1,0,1.6-0.6,1.6-1.6
		c0-1-0.6-1.6-1.6-1.6h-5.2v-5.6c0-1-0.6-1.6-1.6-1.6c-1,0-1.6,0.6-1.6,1.6v5.7h-5.7c-1,0-1.6,0.6-1.6,1.6
		C11.3,52.9,12.1,53.3,13,53.3z M17.8,13.7h4.3c1,0,1.6-0.6,1.6-1.6c0-1-0.6-1.6-1.6-1.6h-4.3c-1,0-1.6,0.6-1.6,1.6
		C16.2,13,16.8,13.7,17.8,13.7z M44,24c0.3,0.3,0.8,0.5,1.1,0.5c0.3,0,0.8-0.2,1.1-0.5l4.1-3.8l4.1,3.8c0.3,0.3,0.6,0.5,1.1,0.5
		c0.5,0,0.8-0.2,1.1-0.5c0.6-0.6,0.6-1.6,0-2.2l-4-3.7l4-3.7c0.6-0.6,0.6-1.6,0-2.2c-0.6-0.6-1.6-0.6-2.2,0L50.3,16l-4.1-3.8
		c-0.6-0.6-1.6-0.6-2.2,0c-0.6,0.6-0.6,1.6,0,2.2l4,3.7l-4,3.7C43.3,22.4,43.3,23.3,44,24z M43.7,56.8h14c1,0,1.6-0.6,1.6-1.6
		c0-1-0.6-1.6-1.6-1.6h-14c-1,0-1.6,0.6-1.6,1.6C42.1,56.2,42.9,56.8,43.7,56.8z M13,20h14c1,0,1.6-0.6,1.6-1.6s-0.6-1.6-1.6-1.6H13
		c-1,0-1.6,0.6-1.6,1.6S12.1,20,13,20z M43.7,50.2h14c1,0,1.6-0.6,1.6-1.6c0-1-0.6-1.6-1.6-1.6h-14c-1,0-1.6,0.6-1.6,1.6
		C42.1,49.5,42.9,50.2,43.7,50.2z M66.3,0H3.8c-1,0-1.6,0.6-1.6,1.6v31.9c-0.2,0.2-0.2,0.5-0.2,0.8c0,0.3,0.2,0.5,0.2,0.8v32.9
		c0,1,0.6,1.6,1.6,1.6h30c0.3,0.3,0.6,0.5,1.1,0.5s0.8-0.2,1.1-0.5h30.3c1,0,1.6-0.6,1.6-1.6V1.6C67.9,0.8,67.1,0,66.3,0z
		 M33.3,66.5H5.4V36h27.9V66.5z M33.3,32.9H5.4V3.2h27.9V32.9z M64.8,66.5H36.5V36h28.3V66.5z M64.8,32.9H36.5V3.2h28.3V32.9z"/>
</g>
</svg>
