<?xml version="1.0" encoding="utf-8"?>
<!-- Generator: Adobe Illustrator 24.2.1, SVG Export Plug-In . SVG Version: 6.00 Build 0)  -->
<svg version="1.1" id="Capa_1" xmlns="http://www.w3.org/2000/svg" xmlns:xlink="http://www.w3.org/1999/xlink" x="0px" y="0px"
	 viewBox="0 0 70 70" style="enable-background:new 0 0 70 70;" xml:space="preserve">
<style type="text/css">
	.st0{fill-rule:evenodd;clip-rule:evenodd;}
</style>
<desc>Created with Sketch.</desc>
<g id="Permisos">
	<path id="Shape" class="st0" d="M6.9,21.6c0.3-0.7,0.7-1.6,1.2-2.4c1.6-3.1,3.8-5.9,6.5-8.4c4.7-4.6,10.9-7.5,17.6-8.4
		c0.1-0.7,0.4-1.3,0.7-1.9c-3.5,0.3-7.1,1-10.5,2.2c-3.5,1.5-6.9,3.5-9.7,6.1c-3,2.5-5.5,5.5-7.4,8.9c-0.9,1.6-1.6,3.2-2.4,5
		c0.9-0.7,2.1-1,3.4-1H6.9z M54.7,6.8C52.6,5.2,50.4,4,47.9,3c0.1,0.3,0.1,0.6,0.3,0.9C50.4,4.6,52.6,5.7,54.7,6.8z M43.6,65.9
		c-3.4,0.7-7.1,1-10.5,0.7c-3.5-0.4-6.9-1.3-10.2-2.8c-2.1-0.9-4-2.1-5.8-3.4h-5.6c3,2.8,6.2,5,10,6.6c7.2,3.1,15.4,3.8,22.7,1.6
		c5.6-1.5,10.6-4.4,14.8-8.3h-3.4C52.1,63,47.9,64.9,43.6,65.9z M63.9,22.6c-0.3,0-0.4,0-0.7-0.1c-0.4,0-0.7-0.1-1.2-0.1H43.6
		c0.7-1.5,0.9-3.1,1-4.6c0-0.6,0.1-1.2,0.3-1.9c0.3-2.2,0.6-5.8,0-9c-0.4-1.8-0.7-3.4-1.8-5c-0.7-1-2.4-2.7-5.3-1.3
		c-1.3,0.6-2.1,1.9-2.1,3.4c0,2.2-0.1,4.3-0.6,6.6c-0.6,3.5-1.6,6.3-3.2,8.9c-2.4,3.2-5.5,5.9-9.3,8c-0.1,0.1-0.3,0.1-0.4,0.3
		c-0.1,0.1-0.3,0.3-0.4,0.6v-1c0-1-0.9-1.8-1.8-1.8H6.1c-1,0-1.8,0.9-1.8,1.8v27c0,1,0.9,1.8,1.8,1.8h13.7c1,0,1.8-0.9,1.8-1.8V50
		c0.1,0.1,0.3,0.1,0.4,0.3c0.9,0.4,1.6,0.6,2.5,0.9c0.3,0.1,0.7,0.1,1.2,0.3c0.7,0.6,1.2,1.2,1.8,1.9l0.1,0.1
		c1.8,1.8,3.8,2.8,6.1,2.8c0.3,0,0.4,0,0.7,0c1.3-0.1,2.8-0.1,4.4-0.1h19.9c1.8,0,3-0.7,3.8-1.2c0.1,0,0.1-0.1,0.3-0.1
		c2.4-1.9,4.1-28.4,4.1-28.6C67,24.3,65.8,22.9,63.9,22.6z M18.1,52.6h-10V29.3h10V52.6z M60.6,52.2c-0.6,0.3-1,0.4-1.5,0.4H39.2
		c-1.6,0-3.4,0-4.9,0.1c-1.3,0.1-2.5-0.3-3.7-1.6c-0.7-1-1.6-1.8-2.5-2.5c-0.1-0.1-0.3-0.3-0.6-0.3c-0.6-0.1-1.2-0.3-1.6-0.4
		c-0.3-0.1-0.6-0.1-0.9-0.3v-17c4-2.4,7.4-5.3,10-8.9c2.1-3,3.2-6.3,4-10.3c0.4-2.5,0.6-4.7,0.6-7.2V4c0.3-0.1,0.4-0.1,0.4-0.1
		s0,0,0.1,0.1c0.6,1,0.9,2.4,1.2,3.8c0.6,2.7,0.3,5.8,0,7.7c-0.1,0.7-0.1,1.3-0.3,2.1c-0.1,1.3-0.3,2.7-0.7,3.5
		c-0.7,1-0.7,2.2-0.1,3.2c0.6,1.2,1.8,1.8,3.2,1.8h18.8c0.1,0,0.3,0,0.4,0c0.3,0,0.6,0.1,0.9,0.1c0.1,0,0.3,0.1,0.3,0.4
		C63.9,29,61.7,48.8,60.6,52.2z"/>
</g>
</svg>
