<?xml version="1.0" encoding="utf-8"?>
<!-- Generator: Adobe Illustrator 24.2.1, SVG Export Plug-In . SVG Version: 6.00 Build 0)  -->
<svg version="1.1" id="Capa_1" xmlns="http://www.w3.org/2000/svg" xmlns:xlink="http://www.w3.org/1999/xlink" x="0px" y="0px"
	 viewBox="0 0 70 70" style="enable-background:new 0 0 70 70;" xml:space="preserve">
<style type="text/css">
	.st0{fill-rule:evenodd;clip-rule:evenodd;}
</style>
<desc>Created with Sketch.</desc>
<g id="rec">
	<path id="Shape" class="st0" d="M35,20.7c-8,0-14.3,6.4-14.3,14.3S27,49.3,35,49.3S49.3,43,49.3,35S43,20.7,35,20.7z M35,0
		C15.6,0,0,15.6,0,35s15.6,35,35,35s35-15.6,35-35S54.4,0,35,0z M35,66.7C17.5,66.7,3.3,52.5,3.3,35S17.5,3.3,35,3.3
		S66.7,17.5,66.7,35S52.5,66.7,35,66.7z"/>
</g>
</svg>
