<?xml version="1.0" encoding="utf-8"?>
<!-- Generator: Adobe Illustrator 24.2.1, SVG Export Plug-In . SVG Version: 6.00 Build 0)  -->
<svg version="1.1" id="Capa_1" xmlns="http://www.w3.org/2000/svg" xmlns:xlink="http://www.w3.org/1999/xlink" x="0px" y="0px"
	 viewBox="0 0 70 70" style="enable-background:new 0 0 70 70;" xml:space="preserve">
<style type="text/css">
	.st0{fill-rule:evenodd;clip-rule:evenodd;}
</style>
<desc>Created with Sketch.</desc>
<g id="refresh">
	<path id="Shape" class="st0" d="M4.3,34.8C4.3,17.9,18.1,4.2,35,4.2c6.7,0,13.1,2.2,18.4,6.2l-5.4-0.2c-1.1,0-2.1,0.8-2.1,1.9
		c0,1.1,0.8,2.1,1.9,2.1l10.9,0.5l0,0l0,0l0,0c0.2,0,0.2,0,0.3,0c0.2,0,0.3,0,0.3,0c0.2,0,0.3-0.2,0.5-0.3c0,0,0.2,0,0.2-0.2l0,0
		l0,0c0.2-0.2,0.2-0.2,0.2-0.3c0.2-0.2,0.2-0.2,0.3-0.3c0-0.2,0-0.2,0-0.3c0-0.2,0.2-0.3,0.2-0.5l0,0V1.9c0-1.1-1-1.9-1.9-1.9
		c-1,0-1.9,1-1.9,1.9v6.2C50.5,3,43.2,0.3,35,0.3C16,0.3,0.3,15.8,0.3,35c0,5,1.3,10.2,3.4,14.5c0.3,0.6,1.1,1.1,1.8,1.1
		c0.3,0,0.6,0,1-0.2c1-0.5,1.4-1.8,1-2.7C5.4,43.8,4.3,39.2,4.3,34.8z M65.7,19c-0.5-1-1.8-1.3-2.7-0.8c-1,0.5-1.3,1.8-0.8,2.7
		c2.2,4,3.4,8.9,3.4,13.9C65.7,51.6,51.9,65.4,35,65.4c-7.4,0-13.1-2.6-17.4-5.6l5.1,0.3c1.1,0.2,2.1-0.8,2.1-1.9
		c0.2-1.1-0.8-2.1-1.9-2.1L12,55.3c-0.2,0-0.2,0-0.3,0c-0.6,0-1.3,0.2-1.6,0.5c-0.6,0.6-0.8,1.8-0.2,2.6l0.3,9.7
		c0,1.1,1,1.9,1.9,1.9l0,0c1.1,0,1.9-1,1.9-2.1l0.2-5.8c6.1,4.6,13.4,7.2,20.8,7.2c19,0,34.7-15.5,34.7-34.7
		C69.7,29.1,68.2,23.7,65.7,19z"/>
</g>
</svg>
