<?xml version="1.0" encoding="utf-8"?>
<!-- Generator: Adobe Illustrator 24.2.1, SVG Export Plug-In . SVG Version: 6.00 Build 0)  -->
<svg version="1.1" id="Capa_1" xmlns="http://www.w3.org/2000/svg" xmlns:xlink="http://www.w3.org/1999/xlink" x="0px" y="0px"
	 viewBox="0 0 70 70" style="enable-background:new 0 0 70 70;" xml:space="preserve">
<style type="text/css">
	.st0{fill-rule:evenodd;clip-rule:evenodd;}
</style>
<desc>Created with Sketch.</desc>
<g id="search">
	<path id="Shape" class="st0" d="M67.3,54L52.9,41L42.2,52.8l14.4,13c1.5,1.6,3.5,2.3,5.3,2.3c2.1,0,4.4-0.8,6-2.8
		C70.9,62.3,70.7,57.5,67.3,54z M65.6,63.1c-1.7,1.7-4.5,2.5-6.6,0.4l-12-10.8l6.4-7l11.8,10.8c0.9,1.1,1.5,2.3,1.6,3.5
		C66.9,61.1,66.5,62.1,65.6,63.1z M50.9,27.4c0-14.1-11.6-25.5-25.5-25.5S0,13.2,0,27.3s11.4,25.5,25.4,25.5
		C39.5,52.8,50.9,41.5,50.9,27.4z M25.4,49.6c-12.2,0-22.2-10-22.2-22.2s10-22.2,22.2-22.2s22.2,9.8,22.2,22.2
		C47.6,39.7,37.6,49.6,25.4,49.6z"/>
</g>
</svg>
