<?xml version="1.0" encoding="utf-8"?>
<!-- Generator: Adobe Illustrator 24.2.1, SVG Export Plug-In . SVG Version: 6.00 Build 0)  -->
<svg version="1.1" id="Capa_1" xmlns="http://www.w3.org/2000/svg" xmlns:xlink="http://www.w3.org/1999/xlink" x="0px" y="0px"
	 viewBox="0 0 70 70" style="enable-background:new 0 0 70 70;" xml:space="preserve">
<style type="text/css">
	.st0{fill-rule:evenodd;clip-rule:evenodd;}
</style>
<desc>Created with Sketch.</desc>
<g id="security">
	<path id="Shape" class="st0" d="M34.3,6.3c-10.1,0-15.6,6.1-15.6,17.6c0,1,0.9,1.8,1.8,1.8h27.4c1,0,1.8-0.9,1.8-1.8
		C50,12.4,44.6,6.3,34.3,6.3z M22.6,21.9C23.2,11.3,29.1,10,34.3,10s11.2,1.3,11.8,11.9H22.6z M57.1,21.9h-1.2
		C55.2,8.5,46.8,0,34.3,0S13.5,8.5,12.7,21.9h-1.5c-5.7,0-7.9,2.4-7.9,8.2v29c0,6.7,3,10.9,7.9,10.9h46.2c5.2,0,9.2-4.8,9.2-10.9
		v-29C66.6,26.4,65,21.9,57.1,21.9z M63.1,59.1c0,3.6-1.9,7.1-5.5,7.1H11.4c-3.7,0-4.2-5.1-4.2-7.1v-29c0-3.7,0.6-4.5,4.2-4.5h3.3
		c1,0,1.8-0.9,1.8-1.8c0-12.4,6.9-20.1,17.9-20.1s17.9,7.7,17.9,20.1c0,1,0.9,1.8,1.8,1.8h3c4.8,0,5.8,1.8,5.8,4.5v29H63.1z
		 M42.8,39.3c0-4.3-3.9-7.7-8.8-7.7s-8.8,3.6-8.8,8c0,2.5,1.3,4.9,3.4,6.4l-1.8,11.8c-0.1,0.6,0.1,1,0.4,1.5
		c0.3,0.4,0.9,0.6,1.3,0.6h10.9c0.6,0,1-0.3,1.5-0.6c0.3-0.4,0.4-1,0.4-1.5l-1.9-11.6C41.5,44.4,42.8,41.9,42.8,39.3z M36.6,43.6
		c-0.7,0.4-1,1.2-0.9,1.9l1.8,10.6h-6.4l1.6-10.9c0.1-0.9-0.3-1.6-1-1.9c-1.5-0.6-2.5-2.1-2.5-3.7c0-2.4,2.2-4.3,5.1-4.3
		c2.8,0,5.1,1.8,5.1,4C39.1,41,38.1,42.7,36.6,43.6z"/>
</g>
</svg>
