<?xml version="1.0" encoding="utf-8"?>
<!-- Generator: Adobe Illustrator 24.2.1, SVG Export Plug-In . SVG Version: 6.00 Build 0)  -->
<svg version="1.1" id="Capa_1" xmlns="http://www.w3.org/2000/svg" xmlns:xlink="http://www.w3.org/1999/xlink" x="0px" y="0px"
	 viewBox="0 0 70 70" style="enable-background:new 0 0 70 70;" xml:space="preserve">
<style type="text/css">
	.st0{fill-rule:evenodd;clip-rule:evenodd;}
</style>
<desc>Created with Sketch.</desc>
<g id="shirt">
	<path id="Shape" class="st0" d="M40.7,48.4c-1,0-1.8,0.9-1.8,1.8s0.9,1.8,1.8,1.8c1,0,1.8-0.9,1.8-1.8S41.7,48.4,40.7,48.4z
		 M40.7,50.7c-0.3,0-0.4-0.1-0.4-0.4c0-0.3,0.1-0.4,0.4-0.4c0.3,0,0.4,0.1,0.4,0.4C41.1,50.5,40.8,50.7,40.7,50.7z M61,36.9H46.9
		c-1,0-1.7,0.9-1.7,1.7s0.9,1.7,1.7,1.7H61c1,0,1.7-0.9,1.7-1.7S62,36.9,61,36.9z M62.3,12.3l-9.9-4.5l-1.4-4.1
		c-0.3-0.7-0.7-1-1.4-1.1c-13.6-5.1-25.4-1.1-28.1,0c-0.7,0-1.4,0.4-1.7,1.1l-1.4,4.4L8.2,12.3c-3.8,1.6-6.2,5.3-6.2,9.4v37.9
		c0,2.8,1.1,5.5,3.3,7.5l0.1,0.1c1.8,1.8,4.4,2.7,7,2.7h45.6c3,0,5.8-1.3,7.8-3.7c1.6-1.8,2.4-4.1,2.4-6.5V21.7
		C68.2,17.7,66,14,62.3,12.3z M48.6,7.8l0.9,2.4l-4.1,8.9l-2.3-6C45.6,10.8,47.5,9.1,48.6,7.8z M22.2,7.8c1.1,1.3,2.8,3,5.5,5.4
		l-2.3,6l-4.1-8.9L22.2,7.8z M34.4,66.6h-22c-1.7,0-3.3-0.7-4.5-1.8l-0.1-0.1c-1.3-1.3-2.1-3-2.1-4.8V21.9c0-2.7,1.6-5.1,4.1-6.1
		l8.5-3.7l5.8,12.5c0.3,0.6,0.9,1,1.6,1l0,0c0.7,0,1.3-0.4,1.6-1.1l3.4-8.8v4.3l3.8,5.7V66.6L34.4,66.6z M37.7,18.3L36,21.6
		l-1.8-2.7v-5.8l-3.4-1.6c-1.8-1.7-3.7-3.6-5.3-5.1c8.9-2.6,16-1,19.5,0.1c-1.6,1.6-3.4,3.4-5.3,5.1l-2.1,1.7v5H37.7z M64.7,59.9
		c0,1.6-0.6,3.1-1.6,4.3c-1.3,1.6-3.1,2.4-5.1,2.4H38V25.4l3.3-6.2v-0.6l2.3,5.8c0.3,0.7,0.9,1.1,1.6,1.1l0,0c0.7,0,1.3-0.4,1.6-1
		l5.8-12.6l8.2,3.8c2.4,1.1,3.8,3.4,3.8,6.1v38.1H64.7z M40.7,60.3c-1,0-1.8,0.9-1.8,1.8c0,1,0.9,1.8,1.8,1.8c1,0,1.8-0.9,1.8-1.8
		C42.5,61.2,41.7,60.3,40.7,60.3z M40.7,62.6c-0.3,0-0.4-0.1-0.4-0.4c0-0.3,0.1-0.4,0.4-0.4c0.3,0,0.4,0.1,0.4,0.4
		C41.1,62.5,40.8,62.6,40.7,62.6z M40.7,36.5c-1,0-1.8,0.9-1.8,1.8c0,1,0.9,1.8,1.8,1.8c1,0,1.8-0.9,1.8-1.8
		C42.5,37.3,41.7,36.5,40.7,36.5z M40.7,38.8c-0.3,0-0.4-0.1-0.4-0.4c0-0.3,0.1-0.4,0.4-0.4c0.3,0,0.4,0.1,0.4,0.4
		C41.1,38.6,40.8,38.8,40.7,38.8z M40.7,24.6c-1,0-1.8,0.9-1.8,1.8c0,1,0.9,1.8,1.8,1.8c1,0,1.8-0.9,1.8-1.8
		C42.5,25.4,41.7,24.6,40.7,24.6z M40.7,26.8c-0.3,0-0.4-0.1-0.4-0.4c0-0.3,0.1-0.4,0.4-0.4c0.3,0,0.4,0.1,0.4,0.4
		C41.1,26.7,40.8,26.8,40.7,26.8z"/>
</g>
</svg>
