<?xml version="1.0" encoding="utf-8"?>
<!-- Generator: Adobe Illustrator 24.2.1, SVG Export Plug-In . SVG Version: 6.00 Build 0)  -->
<svg version="1.1" id="Capa_1" xmlns="http://www.w3.org/2000/svg" xmlns:xlink="http://www.w3.org/1999/xlink" x="0px" y="0px"
	 viewBox="0 0 70 70" style="enable-background:new 0 0 70 70;" xml:space="preserve">
<style type="text/css">
	.st0{fill-rule:evenodd;clip-rule:evenodd;}
</style>
<desc>Created with Sketch.</desc>
<g id="ticket">
	<path id="Shape" class="st0" d="M38.5,43.4h-14c-0.7,0-1.3,0.6-1.3,1.2c0,0.6,0.6,1.2,1.3,1.2h14c0.7,0,1.2-0.6,1.2-1.2
		C39.7,44,39.2,43.4,38.5,43.4z M38.5,34.4h-14c-0.7,0-1.3,0.6-1.3,1.3s0.6,1.3,1.3,1.3h14c0.7,0,1.2-0.6,1.2-1.3
		S39.2,34.4,38.5,34.4z M24.4,23.1h9.8c0.7,0,1.3-0.6,1.3-1.3s-0.6-1.3-1.3-1.3h-9.8c-0.7,0-1.3,0.6-1.3,1.3S23.7,23.1,24.4,23.1z
		 M51.9,33.9c1.5,0.4,1.5,0.6,1.5,0.9c-0.1,0.6-0.7,0.9-1.2,0.9c-0.9,0.1-1.5-0.1-1.6-0.3c-0.3-0.4-0.9-0.6-1.3-0.3
		c-0.4,0.3-0.6,0.9-0.3,1.3c0.4,0.6,1.2,1,1.9,1.2v0.7c0,0.6,0.4,1,1,1c0.6,0,1-0.4,1-1v-0.7c1.3-0.3,2.2-1.2,2.5-2.4
		c0.3-2.1-1.6-2.8-2.8-3.1c-1.3-0.4-1.8-0.7-1.8-1.3c0-0.9,0.9-1.3,1.5-1.3c0.4,0,1,0.1,1.2,1c0.1,0.6,0.6,0.9,1,0.7
		c0.6-0.1,0.9-0.6,0.7-1c-0.3-1.6-1.3-2.5-2.5-2.7v-0.7c0-0.6-0.4-0.9-1-0.9c-0.6,0-1,0.4-1,0.9v0.9c-1.2,0.4-2.1,1.5-2.1,3
		C48.7,32.9,50.6,33.5,51.9,33.9z M67.3,54.8V2c0-0.7-0.3-1.3-0.9-1.6s-1.3-0.3-1.9,0l-8.3,5.2l-6.9-5.2c-0.7-0.4-1.6-0.4-2.2,0
		l-6.1,5l-6.8-5c-0.7-0.6-1.8-0.4-2.4,0.1l-5.3,4.9l-7.2-5c-0.6-0.4-1.3-0.4-1.9-0.1c-0.6,0.3-1,0.9-1,1.6v54.7H4.5
		c-0.6,0-1,0.3-1.3,0.6c-0.3,0.4-0.6,0.9-0.4,1.5C3,61.3,3.9,69.4,12.6,70h42.9c0.4,0,0.9-0.1,1.2-0.4c2.8-0.3,5.3-1.5,7.1-3.4
		C66.3,63.6,67.5,59.7,67.3,54.8z M12.8,66.5c-3.4-0.3-5.3-2.1-6.1-6.1h38.7c0.3,2.4,1.3,4.4,3.1,6.1H12.8z M61.1,63.6
		C59.3,65.6,56.8,66,55,66c-5.3-2.2-6.1-4.9-6.1-7.5c0-1-0.9-1.8-1.8-1.8H20V5.6l5.5,3.8c0.7,0.4,1.6,0.4,2.4-0.1L33,4.4l6.8,5
		c0.7,0.4,1.6,0.4,2.2,0l6.1-5l6.8,5c0.6,0.4,1.5,0.4,2.1,0.1l6.5-4.1v49.5C63.8,58.8,62.9,61.7,61.1,63.6z M38.5,26.7h-14
		c-0.7,0-1.3,0.6-1.3,1.3s0.6,1.3,1.3,1.3h14c0.7,0,1.2-0.6,1.2-1.3S39.2,26.7,38.5,26.7z M58.6,19.6H44.7c-0.7,0-1.2,0.6-1.2,1.3
		v23.7c0,0.7,0.6,1.2,1.2,1.2h13.9c0.7,0,1.2-0.6,1.2-1.2V20.9C59.8,20.2,59.3,19.6,58.6,19.6z M57.3,43.4H45.9V22.3h11.4V43.4z"/>
</g>
</svg>
