<?xml version="1.0" encoding="utf-8"?>
<!-- Generator: Adobe Illustrator 24.2.1, SVG Export Plug-In . SVG Version: 6.00 Build 0)  -->
<svg version="1.1" id="Capa_1" xmlns="http://www.w3.org/2000/svg" xmlns:xlink="http://www.w3.org/1999/xlink" x="0px" y="0px"
	 viewBox="0 0 70 70" style="enable-background:new 0 0 70 70;" xml:space="preserve">
<style type="text/css">
	.st0{fill-rule:evenodd;clip-rule:evenodd;}
</style>
<desc>Created with Sketch.</desc>
<g id="trash">
	<path id="Shape" class="st0" d="M44.1,59.3c0.9,0,1.5-0.8,1.5-1.7V32.1c0-1-0.8-1.7-1.5-1.7c-0.8,0-1.5,0.8-1.5,1.7v25.6
		C42.5,58.5,43.3,59.3,44.1,59.3z M35,59.3c0.9,0,1.5-0.8,1.5-1.7V32.1c0-1-0.8-1.7-1.5-1.7s-1.5,0.8-1.5,1.7v25.6
		C33.5,58.5,34.1,59.3,35,59.3z M26.1,3h19.4c1,0,1.7-0.8,1.7-1.5S46.3,0,45.4,0H26.1c-1,0-1.7,0.8-1.7,1.5S25.1,3,26.1,3z
		 M60.2,9.1H10c-1.4,0-2.4,1.1-2.4,2.4v8.7c0,1.4,1.1,2.4,2.4,2.4h3.4v44.6c0,1.5,1.3,2.8,2.8,2.8h37.5c1.6,0,2.8-1.3,2.8-2.8V22.7
		h3.4c1.4,0,2.4-1.1,2.4-2.4v-8.7C62.6,10.1,61.5,9.1,60.2,9.1z M53.3,67H16.7V22.8h36.4V67H53.3z M59.3,19.8H10.7v-6.1h48.7V19.8z
		 M25.9,59.3c0.9,0,1.5-0.8,1.5-1.7V32.1c0-1-0.8-1.7-1.5-1.7c-0.8,0-1.5,0.8-1.5,1.7v25.6C24.2,58.5,25,59.3,25.9,59.3z"/>
</g>
</svg>
