<?xml version="1.0" encoding="utf-8"?>
<!-- Generator: Adobe Illustrator 24.2.1, SVG Export Plug-In . SVG Version: 6.00 Build 0)  -->
<svg version="1.1" id="Capa_1" xmlns="http://www.w3.org/2000/svg" xmlns:xlink="http://www.w3.org/1999/xlink" x="0px" y="0px"
	 viewBox="0 0 70 70" style="enable-background:new 0 0 70 70;" xml:space="preserve">
<style type="text/css">
	.st0{fill-rule:evenodd;clip-rule:evenodd;}
</style>
<desc>Created with Sketch.</desc>
<g id="up">
	<path id="Shape" class="st0" d="M19.1,21L32.4,8.1v42.5c0,1.4,1.2,2.3,2.3,2.3c1.2,0,2.3-1.2,2.3-2.3V8.1L50.3,21
		c0.4,0.4,1.2,0.8,1.7,0.8c0.6,0,1.4-0.2,1.7-0.8c1-1,1-2.5,0-3.5L36.4,0.7c-1-1-2.5-1-3.3,0L15.8,17.5c-1,1-1,2.5,0,3.5
		C16.6,22,18.1,22,19.1,21z M59.6,50.5c-1.4,0-2.3,1.2-2.3,2.3v8.5c0,1.7-1.4,3.7-3.7,3.7H16.2c-1.7,0-3.7-1.4-3.7-3.7v-8.5
		c0-1.4-1.2-2.3-2.3-2.3c-1.2,0-2.3,1.2-2.3,2.5v8.5c0,5.2,4.4,8.5,8.5,8.5h37.2c5.2,0,8.5-4.4,8.5-8.5V53
		C61.9,51.7,61,50.5,59.6,50.5z"/>
</g>
</svg>
