<?xml version="1.0" encoding="utf-8"?>
<!-- Generator: Adobe Illustrator 24.2.1, SVG Export Plug-In . SVG Version: 6.00 Build 0)  -->
<svg version="1.1" id="Capa_1" xmlns="http://www.w3.org/2000/svg" xmlns:xlink="http://www.w3.org/1999/xlink" x="0px" y="0px"
	 viewBox="0 0 70 70" style="enable-background:new 0 0 70 70;" xml:space="preserve">
<style type="text/css">
	.st0{fill-rule:evenodd;clip-rule:evenodd;}
</style>
<desc>Created with Sketch.</desc>
<g id="users">
	<path id="Shape" class="st0" d="M16.9,39.9c2.6,0,5-1.1,7-3.1c1.8-1.9,2.8-4.4,2.6-6.7v-3.9c0-5.5-4.2-9.7-9.7-9.7
		s-9.6,4.2-9.6,9.7v3.9C7.3,35.6,11.4,39.9,16.9,39.9z M11.4,26.2c0-3.2,2.4-5.7,5.5-5.7s5.7,2.4,5.7,5.7v4.1c0,1.3-0.5,2.6-1.6,3.7
		c-1.1,1.1-2.6,1.8-4.1,1.8c-3.2,0-5.5-2.4-5.5-5.7V26.2z M47.3,37.4c7.5,0,13.5-6,13.5-13.5v-5.5C60.7,11,54.7,5,47.3,5
		c-7.5,0-13.6,6-13.6,13.5V24C33.6,31.4,39.8,37.4,47.3,37.4z M37.7,18.4c0-4.5,3.6-9.4,9.6-9.4c4.5,0,9.4,3.6,9.4,9.4V24
		c0,5.2-4.2,9.4-9.4,9.4c-4.5,0-9.6-3.6-9.6-9.4V18.4z M69.8,51.7c-2.6-5.2-7.6-8.6-14.1-9.9c-0.2,0-0.3,0-0.3,0h-18
		c-0.2,0-0.3,0-0.3,0c-2.8,0.5-5.2,1.5-7.1,2.9c-0.2-0.5-0.3-0.8-0.8-1.1c-1.9-1.3-3.9-1.9-6.2-2.6c-0.2,0-0.3,0-0.5,0H9.7H9.6
		c-4.9,0.5-8.1,3.1-9.4,7.5c0,0.2-0.2,0.3-0.2,0.6v7.1c0,1.1,1,1.9,1.9,1.9c1,0,1.9-1,1.9-1.9v-6.8c0.8-2.6,2.6-3.9,5.7-4.2h12.5
		c2.1,0.6,3.4,1,4.7,1.9c0.2,0.2,0.3,0.2,0.5,0.2c-1.1,1.3-2.1,2.9-2.8,4.7c-0.2,0.2-0.2,0.5-0.2,0.6v10.4c0,1.1,1,1.9,1.9,1.9
		c1,0,1.9-1,1.9-1.9V53c1.6-3.9,4.5-6.2,9.3-7.1h17.7c4.9,1,8.8,3.6,10.9,7.3v9.9c0,1.1,1,1.9,1.9,1.9s1.9-1,1.9-1.9V52.7
		C70,52.4,70,52.1,69.8,51.7z"/>
</g>
</svg>
