<?xml version="1.0" encoding="UTF-8"?>
<svg width="224px" height="179px" viewBox="0 0 224 179" version="1.1" xmlns="http://www.w3.org/2000/svg" xmlns:xlink="http://www.w3.org/1999/xlink">
    <title>img-factura</title>
    <g id="mi-cuenta" stroke="none" stroke-width="1" fill="none" fill-rule="evenodd">
        <g id="web/mi-facturacion-sin-facturas" transform="translate(-692.000000, -335.000000)">
            <g id="body" transform="translate(285.000000, 130.000000)">
                <g id="img-factura" transform="translate(410.000000, 206.000000)">
                    <circle id="Oval" fill="#EEEEEE" fill-rule="nonzero" cx="110" cy="89" r="89"></circle>
                    <polygon id="Path" stroke="#EEEEEE" stroke-width="2" points="10.5 22 13.7126866 28.5882353 21 29.6862745 15.75 34.7843137 16.9253731 42 10.5 38.627451 3.99626866 42 5.25 34.7843137 0 29.6862745 7.20895522 28.5882353"></polygon>
                    <polygon id="Path" stroke="#EEEEEE" stroke-width="2" points="10.1641791 124 13.3482587 128.72 19 128.72 15.5771144 133.2 17.2487562 138.56 11.9950249 136.72 7.37810945 140 7.53731343 134.32 3 130.96 8.41293532 129.36"></polygon>
                    <polygon id="Path" stroke="#EEEEEE" stroke-width="2" points="174.292035 1 174.371681 4.15789474 177 5.89473684 173.973451 6.92105263 173.097345 10 171.185841 7.47368421 168 7.63157895 169.831858 5.02631579 168.716814 2.02631579 171.743363 2.97368421"></polygon>
                    <polygon id="Path" stroke="#EEEEEE" stroke-width="2" points="209.707071 90 213.343434 94.3564356 219 93.8811881 215.929293 98.5544554 218.191919 103.782178 212.616162 102.356436 208.333333 106 207.929293 100.455446 203 97.5247525 208.414141 95.4653465"></polygon>
                    <polygon id="Path" stroke="#EEEEEE" stroke-width="2" points="202.076923 134 203 138.415094 207 140.132075 203.230769 142.503145 202.923077 147 199.692308 143.974843 195.538462 145.037736 197.307692 140.867925 195 137.025157 199.307692 137.433962"></polygon>
                    <g id="Group" transform="translate(73.000000, 40.000000)" stroke="#CECECE" stroke-linecap="round" stroke-linejoin="round" stroke-width="3">
                        <path d="M40.6853933,92.9205128 L5.4247191,92.9205128 C2.79213483,92.9205128 0.638202247,90.774359 0.638202247,88.0717949 L0.638202247,5.00769231 C0.638202247,2.38461538 2.79213483,0.238461538 5.4247191,0.238461538 L66.1337079,0.238461538 C68.8460674,0.238461538 71,2.38461538 71,5.00769231 L71,88.2307692 C71,90.8538462 68.8460674,93 66.2134831,93 L59.352809,93 L40.6853933,93 L40.6853933,92.9205128 Z" id="Path"></path>
                        <line x1="18.2685393" y1="23.8461538" x2="53.4494382" y2="23.8461538" id="Path"></line>
                        <line x1="18.2685393" y1="36.2461538" x2="53.4494382" y2="36.2461538" id="Path"></line>
                        <line x1="18.2685393" y1="49.6794872" x2="39.9674157" y2="49.6794872" id="Path"></line>
                    </g>
                    <g id="Group" transform="translate(107.000000, 92.000000)" fill-rule="nonzero">
                        <path d="M26.08,0.64 C12,0.64 0.64,12.08 0.64,26.08 C0.64,31.84 2.56,37.04 5.76,41.28 C4.64,44.64 2.4,51.04 2.4,51.04 L13.04,47.92 C16.88,50.24 21.36,51.6 26.08,51.6 C40.16,51.6 51.52,40.16 51.52,26.16 C51.52,12.08 40.16,0.64 26.08,0.64 Z" id="Path" fill="#CECECE"></path>
                        <path d="M27.12,29.76 L25.04,29.76 C23.92,29.76 22.96,28.88 22.88,27.68 L22.32,14.56 C22.24,13.36 23.28,12.32 24.48,12.32 L27.68,12.32 C28.88,12.32 29.84,13.36 29.84,14.56 L29.28,27.68 C29.2,28.8 28.24,29.76 27.12,29.76 Z" id="Path" fill="#EEEEEE"></path>
                        <path d="M28.56,39.04 L23.52,39.04 C23.2,39.04 22.96,38.8 22.96,38.48 L22.96,35.28 C22.96,34.96 23.2,34.72 23.52,34.72 L28.56,34.72 C28.88,34.72 29.12,34.96 29.12,35.28 L29.12,38.48 C29.12,38.8 28.88,39.04 28.56,39.04 Z" id="Path" fill="#EEEEEE"></path>
                    </g>
                </g>
            </g>
        </g>
    </g>
</svg>