<?xml version="1.0" encoding="UTF-8"?>
<svg width="6px" height="28px" viewBox="0 0 6 28" version="1.1" xmlns="http://www.w3.org/2000/svg" xmlns:xlink="http://www.w3.org/1999/xlink">
    <title>Combined Shape</title>
    <g id="documentos" stroke="none" stroke-width="1" fill="none" fill-rule="evenodd">
        <path d="M3,22 C4.65685425,22 6,23.3431458 6,25 C6,26.6568542 4.65685425,28 3,28 C1.34314575,28 8.22439572e-17,26.6568542 1.8369702e-16,25 C2.85150083e-16,23.3431458 1.34314575,22 3,22 Z M3,11 C4.65685425,11 6,12.3431458 6,14 C6,15.6568542 4.65685425,17 3,17 C1.34314575,17 8.22439572e-17,15.6568542 1.8369702e-16,14 C2.85150083e-16,12.3431458 1.34314575,11 3,11 Z M3,0 C4.65685425,0 6,1.34314575 6,3 C6,4.65685425 4.65685425,6 3,6 C1.34314575,6 8.22439572e-17,4.65685425 1.8369702e-16,3 C2.85150083e-16,1.34314575 1.34314575,0 3,0 Z" id="Combined-Shape" fill="#01DCDB"></path>
    </g>
</svg>