<?xml version="1.0" encoding="UTF-8"?>
<svg width="204px" height="165px" viewBox="0 0 204 165" version="1.1" xmlns="http://www.w3.org/2000/svg" xmlns:xlink="http://www.w3.org/1999/xlink">
    <title>Group 31</title>
    <g id="novedades" stroke="none" stroke-width="1" fill="none" fill-rule="evenodd">
        <g id="modal---confirmacion-vacaciones-tiempo" transform="translate(-85.000000, -142.000000)">
            <g id="Body" transform="translate(0.000000, -1.000000)">
                <g id="Group-31" transform="translate(87.000000, 144.000000)">
                    <path d="M99.4303,160.8791 C143.6133,160.8791 179.4303,125.0621 179.4303,80.8791 C179.4303,36.6961 143.6133,0.8791 99.4303,0.8791 C55.2473,0.8791 19.4303,36.6961 19.4303,80.8791 C19.4303,125.0621 55.2473,160.8791 99.4303,160.8791" id="Fill-1" fill="#EEEEEE"></path>
                    <path d="M98.5016,89.4504 C96.5726,89.3794 98.7156,98.5934 96.7876,98.7364 C96.7876,98.7364 87.1276,100.1884 84.1276,104.1884" id="Stroke-3" stroke="#CECECE" stroke-width="3" stroke-linecap="round" stroke-linejoin="round"></path>
                    <path d="M130.7155,127.8078 L130.7155,110.9508 C125.7875,103.5938 118.5725,100.9508 108.2875,99.3078 C107.2875,99.1648 107.0015,91.5218 105.9305,89.4508" id="Stroke-5" stroke="#CECECE" stroke-width="3" stroke-linecap="round" stroke-linejoin="round"></path>
                    <path d="M89.5729,86.1647 L69.8589,89.3787 C77.5729,77.4507 72.7159,66.3077 74.8589,54.3077 C76.9299,42.3787 81.2159,36.7357 88.9299,38.8787 C96.6439,28.3077 124.7879,35.3787 125.5019,52.9507 C126.2159,70.5217 124.6439,84.1647 130.3589,89.1647 L112.3589,83.6647" id="Stroke-7" stroke="#CECECE" stroke-width="3" stroke-linecap="round" stroke-linejoin="round"></path>
                    <path d="M106.4303,59.236 L93.7153,59.236 L79.7873,63.45 C79.7873,63.45 82.6443,87.665 99.4303,88.736 C117.1443,89.879 120.7153,63.45 120.7153,63.45 L106.4303,59.236 Z" id="Stroke-9" stroke="#CECECE" stroke-width="3" stroke-linecap="round" stroke-linejoin="round"></path>
                    <polygon id="Stroke-11" stroke="#EEEEEE" stroke-width="2" points="35.0729 1.236 38.0019 7.165 44.5729 8.165 39.8589 12.808 40.9299 19.379 35.0729 16.308 29.1439 19.379 30.2879 12.808 25.5019 8.165 32.0729 7.165"></polygon>
                    <polygon id="Stroke-13" stroke="#EEEEEE" stroke-width="2" points="6.6442 45.4504 9.5012 49.5934 14.5732 49.5934 11.4302 53.5934 13.0012 58.4504 8.2152 56.7364 4.1442 59.7364 4.2882 54.6644 0.2152 51.6644 5.0732 50.2364"></polygon>
                    <polygon id="Stroke-15" stroke="#EEEEEE" points="36.6442 143.3791 36.6442 146.2361 39.0732 147.8081 36.3592 148.8081 35.5732 151.5221 33.8592 149.2361 31.0012 149.3791 32.6442 147.0221 31.6442 144.3081 34.3592 145.1651"></polygon>
                    <polygon id="Stroke-17" stroke="#EEEEEE" points="163.0729 9.8078 163.1439 12.6648 165.5019 14.2358 162.7879 15.1648 162.0019 17.9508 160.2879 15.6648 157.4299 15.8078 159.0729 13.4508 158.0729 10.7358 160.7879 11.5938"></polygon>
                    <polygon id="Stroke-19" stroke="#EEEEEE" stroke-width="2" points="191.0016 84.3791 194.2876 88.3081 199.2876 87.8791 196.5726 92.1651 198.5726 96.8081 193.6446 95.5221 189.7876 98.8791 189.5016 93.8081 185.1446 91.1651 189.8586 89.3081"></polygon>
                    <polygon id="Stroke-21" stroke="#EEEEEE" stroke-width="2" points="154.859 150.0934 155.715 153.9504 159.359 155.5214 155.93 157.5214 155.644 161.4504 152.644 158.8074 148.788 159.7364 150.43 156.0934 148.288 152.7364 152.288 153.0934"></polygon>
                    <polyline id="Stroke-23" stroke="#CECECE" stroke-width="3" stroke-linecap="round" stroke-linejoin="round" points="94.0729 100.1647 102.1439 115.9507 108.5729 100.2357"></polyline>
                    <path d="M109.6276,74.1154 C109.6276,74.1154 109.6276,79.8024 103.1276,81.4274 C96.6276,83.0534 96.6276,81.4274 96.6276,81.4274 L96.6276,76.5534 C96.6276,76.5534 108.0026,75.7404 109.6276,74.1154 Z" id="Stroke-25" stroke="#CECECE" stroke-linecap="round" stroke-linejoin="round"></path>
                    <path d="M68.3131,120.4035 L73.1581,125.8535 C73.1581,125.8535 73.1581,114.9535 81.0301,109.5035" id="Stroke-27" stroke="#CECECE" stroke-width="3" stroke-linecap="round" stroke-linejoin="round"></path>
                    <path d="M58.9264,117.6784 C58.9264,108.6484 66.2464,101.3274 75.2774,101.3274 C84.3074,101.3274 91.6274,108.6484 91.6274,117.6784 C91.6274,126.7084 84.3074,134.0284 75.2774,134.0284 C66.2464,134.0284 58.9264,126.7084 58.9264,117.6784 Z" id="Stroke-29" stroke="#CECECE" stroke-width="3" stroke-linecap="round" stroke-linejoin="round"></path>
                </g>
            </g>
        </g>
    </g>
</svg>