<?xml version="1.0" encoding="utf-8"?>
<!-- Generator: Adobe Illustrator 24.3.0, SVG Export Plug-In . SVG Version: 6.00 Build 0)  -->
<svg version="1.1" id="Capa_1" xmlns="http://www.w3.org/2000/svg" xmlns:xlink="http://www.w3.org/1999/xlink" x="0px" y="0px"
	 viewBox="0 0 280 54" style="enable-background:new 0 0 280 54;" xml:space="preserve">
<style type="text/css">
	.st0{fill:#3B4B5A;}
	.st1{fill:#7CFCF4;}
	.st2{fill:#00CDCC;}
</style>
<g>
	<path class="st0" d="M35.84,43.24c-3.98,0-7.65-1.2-11.01-3.6c-0.52-0.37-0.77-0.88-0.77-1.55c0-0.52,0.18-0.95,0.55-1.3
		c0.37-0.35,0.81-0.53,1.33-0.53c0.44,0,0.79,0.11,1.05,0.33c2.99,2.03,6.01,3.04,9.07,3.04c1.73,0,3.15-0.41,4.26-1.24
		c1.11-0.83,1.66-1.93,1.66-3.29V35c0-1.29-0.6-2.29-1.8-2.99c-1.2-0.7-2.98-1.38-5.34-2.05c-1.43-0.41-2.58-0.77-3.43-1.11
		c-0.85-0.33-1.81-0.8-2.88-1.41c-1.07-0.61-1.86-1.37-2.38-2.29c-0.52-0.92-0.77-2.01-0.77-3.26v-0.11c0-2.43,0.91-4.4,2.74-5.92
		c1.82-1.51,4.16-2.27,7-2.27c3.1,0,6.14,0.81,9.13,2.43c0.7,0.41,1.05,1,1.05,1.77c0,0.52-0.19,0.95-0.56,1.3
		c-0.37,0.35-0.81,0.53-1.33,0.53c-0.33,0-0.65-0.07-0.94-0.22c-2.58-1.47-5.07-2.21-7.47-2.21c-1.66,0-3,0.39-4.01,1.16
		c-1.02,0.77-1.52,1.77-1.52,2.99v0.11c0,0.52,0.15,1,0.44,1.44c0.3,0.44,0.63,0.81,0.99,1.1c0.37,0.3,0.95,0.61,1.74,0.94
		c0.79,0.33,1.43,0.57,1.91,0.72c0.48,0.15,1.24,0.39,2.27,0.72c1.07,0.33,1.97,0.63,2.68,0.88c0.72,0.26,1.53,0.62,2.43,1.08
		c0.9,0.46,1.63,0.96,2.16,1.49c0.53,0.53,0.99,1.21,1.35,2.02c0.37,0.81,0.56,1.71,0.56,2.71v0.11c0,2.65-0.96,4.75-2.88,6.28
		C41.22,42.48,38.79,43.24,35.84,43.24"/>
	<path class="st0" d="M56.02,52.46c-1.57,0-3.16-0.28-4.77-0.84c-0.9-0.37-1.35-0.99-1.35-1.85c0-0.52,0.19-0.96,0.56-1.32
		c0.37-0.36,0.8-0.53,1.29-0.53c0.26,0,0.62,0.07,1.07,0.22c1.01,0.34,2.06,0.51,3.14,0.51c1.31,0,2.41-0.4,3.29-1.21
		c0.88-0.81,1.73-2.13,2.55-3.96l0.23-0.45L49.9,17.31c-0.19-0.45-0.28-0.84-0.28-1.18c0-0.6,0.21-1.1,0.65-1.52
		c0.43-0.41,0.95-0.62,1.55-0.62c1.01,0,1.74,0.56,2.19,1.69l10.11,22.8l8.98-22.85c0.41-1.08,1.1-1.63,2.08-1.63
		c0.6,0,1.11,0.21,1.52,0.62c0.41,0.41,0.62,0.92,0.62,1.52c0,0.26-0.07,0.62-0.23,1.07L65.74,44.26c-1.24,2.96-2.61,5.06-4.13,6.32
		C60.09,51.83,58.23,52.46,56.02,52.46"/>
	<path class="st0" d="M82.03,40.8V15.97c0-0.59,0.2-1.1,0.61-1.52c0.4-0.42,0.9-0.64,1.49-0.64c0.59,0,1.09,0.2,1.52,0.61
		c0.42,0.41,0.63,0.92,0.63,1.55v2.93c2.4-3.61,5.48-5.42,9.24-5.42c4.28,0,7.34,1.9,9.18,5.7c2.47-3.8,5.82-5.7,10.07-5.7
		c3.28,0,5.87,1.03,7.77,3.1c1.9,2.07,2.85,4.87,2.85,8.41V40.8c0,0.59-0.2,1.1-0.61,1.52c-0.41,0.42-0.91,0.64-1.5,0.64
		c-0.59,0-1.1-0.21-1.52-0.64c-0.42-0.42-0.64-0.93-0.64-1.52V25.98c0-2.76-0.65-4.89-1.96-6.39c-1.31-1.49-3.13-2.24-5.45-2.24
		c-2.25,0-4.12,0.79-5.61,2.38c-1.49,1.59-2.24,3.74-2.24,6.47v14.6c0,0.59-0.21,1.1-0.64,1.52c-0.42,0.42-0.93,0.64-1.52,0.64
		c-0.59,0-1.09-0.21-1.49-0.64c-0.4-0.42-0.61-0.93-0.61-1.52V25.87c0-2.65-0.65-4.74-1.96-6.25c-1.31-1.51-3.11-2.27-5.39-2.27
		c-2.29,0-4.19,0.85-5.7,2.54c-1.51,1.7-2.27,3.85-2.27,6.47V40.8c0,0.63-0.2,1.15-0.61,1.55c-0.4,0.41-0.9,0.61-1.49,0.61
		c-0.63,0-1.14-0.21-1.55-0.64C82.23,41.9,82.03,41.4,82.03,40.8"/>
	<path class="st0" d="M133.04,50.07V16.39c0-0.59,0.2-1.1,0.61-1.52c0.41-0.42,0.9-0.64,1.49-0.64c0.59,0,1.1,0.2,1.52,0.61
		c0.43,0.41,0.64,0.92,0.64,1.55v3.87c2.88-4.24,6.53-6.36,10.95-6.36c3.65,0,6.84,1.35,9.57,4.04c2.73,2.69,4.09,6.29,4.09,10.78
		v0.11c0,4.46-1.37,8.06-4.09,10.78c-2.73,2.73-5.92,4.09-9.57,4.09c-4.5,0-8.15-2.02-10.95-6.08v12.45c0,0.63-0.2,1.14-0.61,1.55
		c-0.4,0.41-0.9,0.61-1.49,0.61c-0.63,0-1.14-0.21-1.55-0.64C133.24,51.16,133.04,50.66,133.04,50.07 M147.47,39.89
		c2.88,0,5.27-1,7.19-2.99c1.92-1.99,2.88-4.66,2.88-8.02v-0.11c0-3.28-0.98-5.95-2.93-7.99c-1.95-2.05-4.33-3.07-7.14-3.07
		c-2.77,0-5.18,1.04-7.25,3.12c-2.06,2.08-3.1,4.71-3.1,7.88v0.11c0,3.21,1.03,5.85,3.1,7.94
		C142.29,38.85,144.71,39.89,147.47,39.89"/>
	<path class="st0" d="M168.3,40.91V3.73c0-0.6,0.2-1.11,0.61-1.54c0.41-0.43,0.92-0.65,1.52-0.65c0.6,0,1.11,0.21,1.54,0.65
		c0.43,0.43,0.65,0.94,0.65,1.54v37.17c0,0.64-0.21,1.16-0.62,1.57c-0.41,0.41-0.92,0.62-1.52,0.62c-0.6,0-1.11-0.22-1.55-0.65
		C168.52,42.02,168.3,41.5,168.3,40.91"/>
	<path class="st0" d="M179.63,5.42V4.69c0-0.68,0.24-1.23,0.73-1.66c0.48-0.43,1.08-0.65,1.79-0.65c0.75,0,1.37,0.22,1.85,0.65
		c0.49,0.43,0.73,0.98,0.73,1.66v0.73c0,0.67-0.24,1.23-0.73,1.66c-0.49,0.43-1.1,0.64-1.85,0.64c-0.71,0-1.31-0.21-1.79-0.64
		C179.87,6.64,179.63,6.09,179.63,5.42 M180.02,40.91V15.69c0-0.6,0.21-1.11,0.61-1.54c0.41-0.43,0.92-0.65,1.52-0.65
		c0.64,0,1.16,0.21,1.57,0.62c0.41,0.41,0.62,0.94,0.62,1.57v25.21c0,0.64-0.21,1.16-0.62,1.57c-0.41,0.41-0.92,0.62-1.52,0.62
		c-0.6,0-1.11-0.22-1.54-0.65C180.23,42.02,180.02,41.5,180.02,40.91"/>
	<path class="st0" d="M195.1,40.8V17.85h-2.32c-0.52,0-0.95-0.19-1.3-0.55c-0.35-0.37-0.52-0.81-0.52-1.33
		c0-0.48,0.18-0.9,0.55-1.27c0.37-0.37,0.8-0.55,1.27-0.55h2.32v-2.49c0-3.24,0.83-5.7,2.49-7.36c1.47-1.48,3.52-2.21,6.14-2.21
		c1.29,0,2.41,0.11,3.37,0.33c1.03,0.22,1.55,0.83,1.55,1.83c0,0.55-0.2,1.02-0.61,1.38c-0.4,0.37-0.89,0.52-1.44,0.44
		c-1.18-0.19-1.95-0.28-2.32-0.28c-3.32,0-4.98,2.03-4.98,6.08v2.32h7.41c0.51,0,0.96,0.17,1.33,0.53c0.37,0.35,0.55,0.78,0.55,1.3
		c0,0.52-0.19,0.95-0.55,1.3c-0.37,0.35-0.81,0.53-1.33,0.53h-7.36V40.8c0,0.59-0.2,1.1-0.61,1.52c-0.4,0.42-0.9,0.64-1.49,0.64
		c-0.59,0-1.1-0.21-1.52-0.64C195.31,41.9,195.1,41.4,195.1,40.8 M212.87,5.85V5.13c0-0.66,0.24-1.21,0.72-1.63
		c0.48-0.42,1.07-0.64,1.77-0.64c0.74,0,1.34,0.21,1.83,0.64c0.48,0.42,0.72,0.97,0.72,1.63v0.72c0,0.66-0.24,1.21-0.72,1.63
		c-0.48,0.42-1.09,0.63-1.83,0.63c-0.7,0-1.29-0.21-1.77-0.63C213.11,7.06,212.87,6.51,212.87,5.85 M213.19,40.8V15.97
		c0-0.59,0.2-1.1,0.61-1.52c0.41-0.42,0.9-0.64,1.49-0.64c0.59,0,1.1,0.2,1.52,0.61c0.43,0.41,0.64,0.92,0.64,1.55V40.8
		c0,0.63-0.21,1.15-0.61,1.55c-0.41,0.41-0.9,0.61-1.49,0.61c-0.63,0-1.14-0.21-1.55-0.64C213.39,41.9,213.19,41.4,213.19,40.8"/>
	<path class="st0" d="M239.59,43.63c-4.13,0-7.61-1.46-10.43-4.37c-2.82-2.91-4.23-6.4-4.23-10.45v-0.11c0-4.09,1.41-7.6,4.23-10.54
		c2.82-2.93,6.29-4.4,10.43-4.4c3.98,0,7.49,1.38,10.51,4.15c0.44,0.37,0.66,0.87,0.66,1.49c0,0.59-0.2,1.08-0.61,1.47
		c-0.41,0.39-0.88,0.58-1.44,0.58c-0.52,0-0.98-0.17-1.38-0.5c-2.47-2.28-5.07-3.43-7.8-3.43c-2.88,0-5.3,1.07-7.27,3.21
		c-1.97,2.14-2.96,4.76-2.96,7.86v0.11c0,3.1,1,5.72,3.01,7.88c2.01,2.16,4.51,3.24,7.49,3.24c2.84,0,5.5-1.16,7.96-3.49
		c0.37-0.37,0.77-0.55,1.22-0.55c0.52,0,0.97,0.19,1.35,0.58c0.39,0.39,0.58,0.84,0.58,1.35c0,0.52-0.18,0.96-0.55,1.33
		C247.31,42.1,243.71,43.63,239.59,43.63"/>
	<path class="st0" d="M263.88,43.29c-2.87,0-5.37-0.79-7.5-2.38c-2.12-1.58-3.18-3.76-3.18-6.53v-0.11c0-2.95,1.11-5.23,3.32-6.83
		c2.21-1.6,5.18-2.4,8.91-2.4c2.99,0,5.92,0.4,8.79,1.21v-0.99c0-2.55-0.74-4.48-2.21-5.81c-1.48-1.33-3.58-1.99-6.31-1.99
		c-2.55,0-5.02,0.53-7.41,1.6c-0.26,0.11-0.52,0.17-0.78,0.17c-0.52,0-0.96-0.18-1.33-0.55c-0.37-0.37-0.55-0.79-0.55-1.27
		c0-0.88,0.39-1.47,1.16-1.77c2.98-1.29,6.1-1.94,9.35-1.94c4.05,0,7.13,1.05,9.23,3.15c1.96,1.95,2.93,4.74,2.93,8.35v15.65
		c0,0.59-0.19,1.09-0.58,1.49c-0.39,0.41-0.87,0.61-1.46,0.61s-1.08-0.19-1.47-0.58c-0.38-0.39-0.58-0.86-0.58-1.41v-2.6
		C271.71,41.65,268.26,43.29,263.88,43.29 M264.7,39.92c2.65,0,4.91-0.73,6.78-2.18c1.86-1.46,2.79-3.31,2.79-5.56v-2.76
		c-2.8-0.81-5.6-1.22-8.41-1.22c-2.66,0-4.71,0.53-6.17,1.6c-1.46,1.07-2.19,2.51-2.19,4.32v0.11c0,1.73,0.69,3.12,2.07,4.15
		C260.97,39.41,262.68,39.92,264.7,39.92"/>
	<path class="st1" d="M3.3,26.76h8.13c0.89,0,1.61-0.72,1.61-1.61v-8.13c0-0.89-0.72-1.61-1.61-1.61H3.3
		c-0.89,0-1.61,0.72-1.61,1.61v8.13C1.69,26.04,2.41,26.76,3.3,26.76z"/>
	<path class="st2" d="M11.49,41.71H3.37c-0.89,0-1.61-0.72-1.61-1.61v-8.13c0-0.89,0.72-1.61,1.61-1.61h8.13
		c0.89,0,1.61,0.72,1.61,1.61v8.13C13.1,40.99,12.38,41.71,11.49,41.71z"/>
</g>
</svg>
