<?xml version="1.0" encoding="UTF-8"?>
<svg width="335px" height="272px" viewBox="0 0 335 272" version="1.1" xmlns="http://www.w3.org/2000/svg" xmlns:xlink="http://www.w3.org/1999/xlink">
    <title>Circle</title>
    <g id="novedades" stroke="none" stroke-width="1" fill="none" fill-rule="evenodd">
        <g id="web/modal---borrar-novedad-días-trabajados" transform="translate(-658.000000, -115.000000)">
            <g id="Body" transform="translate(284.000000, 0.000000)">
                <g id="Circle" transform="translate(377.000000, 116.000000)">
                    <circle id="Oval" fill="#EEEEEE" fill-rule="nonzero" cx="164" cy="133" r="133"></circle>
                    <polygon id="Path" stroke="#EEEEEE" stroke-width="2" points="56.5580524 2 61.3183521 12.1299213 72 13.8385827 64.3370787 21.7716535 66.0786517 33 56.5580524 27.7519685 46.9213483 33 48.7790262 21.7716535 41 13.8385827 51.6816479 12.1299213"></polygon>
                    <polygon id="Path" stroke="#EEEEEE" stroke-width="2" points="10.2985075 76 14.8756219 82.67 23 82.67 17.9651741 89.11 20.4825871 96.93 12.8159204 94.17 6.29353234 99 6.52238806 90.835 0 86.005 7.78109453 83.705"></polygon>
                    <polygon id="Path" stroke="#EEEEEE" points="60.0884956 237 60.0884956 241.561404 64 244.070175 59.6283186 245.666667 58.3628319 250 55.6017699 246.350877 51 246.578947 53.6460177 242.815789 52.0353982 238.482456 56.4070796 239.850877"></polygon>
                    <polygon id="Path" stroke="#EEEEEE" points="270.088496 15 270.20354 19.5614035 274 22.0701754 269.628319 23.5526316 268.362832 28 265.60177 24.3508772 261 24.5789474 263.646018 20.8157895 262.035398 16.4824561 266.40708 17.8508772"></polygon>
                    <polygon id="Path" stroke="#EEEEEE" stroke-width="2" points="316.525253 141 321.868687 147.231527 330 146.551724 325.585859 153.349754 328.838384 160.714286 320.823232 158.674877 314.550505 164 314.085859 155.955665 307 151.763547 314.666667 148.817734"></polygon>
                    <polygon id="Path" stroke="#EEEEEE" stroke-width="2" points="254.683871 248 256.077419 254.792453 262 257.559748 256.425806 261.081761 255.96129 268 251.083871 263.345912 244.812903 264.981132 247.483871 258.566038 244 252.654088 250.503226 253.283019"></polygon>
                    <g id="trash" transform="translate(76.000000, 44.000000)" fill="#B6B4B4">
                        <path d="M103.420425,127.430952 C104.814992,127.430952 105.811111,126.119909 105.811111,124.808866 L105.811111,84.1665306 C105.811111,82.6369803 104.615768,81.5444444 103.420425,81.5444444 C102.225082,81.5444444 101.029739,82.8554875 101.029739,84.1665306 L101.029739,124.808866 C100.830515,126.119909 102.025858,127.430952 103.420425,127.430952 Z M89,127.430952 C90.4009259,127.430952 91.4015873,126.119909 91.4015873,124.808866 L91.4015873,84.1665306 C91.4015873,82.6369803 90.2007937,81.5444444 89,81.5444444 C87.7992063,81.5444444 86.5984127,82.8554875 86.5984127,84.1665306 L86.5984127,124.808866 C86.5984127,126.119909 87.5990741,127.430952 89,127.430952 Z M74.9248744,38.0730159 L105.476713,38.0730159 C107.072704,38.0730159 108.212698,36.8654762 108.212698,35.6579365 C108.212698,34.4503968 106.844706,33.2428571 105.476713,33.2428571 L74.9248744,33.2428571 C73.3288829,33.2428571 72.1888889,34.4503968 72.1888889,35.6579365 C72.1888889,36.8654762 73.3288829,38.0730159 74.9248744,38.0730159 Z M128.819874,47.7333333 L49.5564784,47.7333333 C47.3299785,47.7333333 45.7714286,49.514037 45.7714286,51.5173287 L45.7714286,65.3177822 C45.7714286,67.5436618 47.5526285,69.1017775 49.5564784,69.1017775 L54.9000781,69.1017775 L54.9000781,139.884749 C54.9000781,142.333216 56.9039279,144.336508 59.3530778,144.336508 L118.577974,144.336508 C121.027124,144.336508 123.030974,142.333216 123.030974,139.884749 L123.030974,69.3243654 L128.374574,69.3243654 C130.601074,69.3243654 132.159624,67.5436618 132.159624,65.5403701 L132.159624,51.7399166 C132.604924,49.2914491 130.823724,47.7333333 128.819874,47.7333333 Z M117.819048,139.506349 L60.1809524,139.506349 L60.1809524,69.4690476 L117.595644,69.4690476 L117.595644,139.506349 L117.819048,139.506349 Z M127.425397,64.6388889 L50.5746032,64.6388889 L50.5746032,54.9785714 L127.425397,54.9785714 L127.425397,64.6388889 Z M74.6013774,127.430952 C75.9959443,127.430952 76.9920635,126.119909 76.9920635,124.808866 L76.9920635,84.1665306 C76.9920635,82.6369803 75.7967204,81.5444444 74.6013774,81.5444444 C73.4060343,81.5444444 72.2106912,82.8554875 72.2106912,84.1665306 L72.2106912,124.808866 C72.0114674,126.119909 73.2068105,127.430952 74.6013774,127.430952 Z" id="Shape"></path>
                    </g>
                </g>
            </g>
        </g>
    </g>
</svg>